<?xml version="1.0" encoding="utf-8"?>
<!-- Generator: Adobe Illustrator 23.0.3, SVG Export Plug-In . SVG Version: 6.00 Build 0)  -->
<svg version="1.1" id="Capa_1" xmlns="http://www.w3.org/2000/svg" xmlns:xlink="http://www.w3.org/1999/xlink" x="0px" y="0px"
	 viewBox="0 0 82.6 82.6" style="enable-background:new 0 0 82.6 82.6;" xml:space="preserve">
<style type="text/css">
	.st0{opacity:0.35;}
	.st1{fill:#3A79F0;}
	.st2{fill:none;}
	.st3{fill:#FFFFFF;}
	.st4{fill:#35B91E;}
	.st5{fill:#FF6567;}
	.st6{opacity:0.35;fill:#3A79F0;enable-background:new    ;}
	.st7{fill:none;stroke:#3A79F0;stroke-width:3;stroke-linecap:round;stroke-linejoin:round;stroke-miterlimit:10;}
	.st8{fill:none;stroke:#3A79F0;stroke-miterlimit:10;}
</style>
<g>
	<g>
		<g>
			<g>
				<path class="st5" d="M41.3,82.6C18.5,82.6,0,64.1,0,41.3S18.5,0,41.3,0s41.3,18.5,41.3,41.3S64,82.6,41.3,82.6z M41.3,6.6
					C22.2,6.6,6.7,22.1,6.7,41.2s15.5,34.6,34.6,34.6s34.6-15.5,34.6-34.6S60.4,6.6,41.3,6.6z"/>
			</g>
		</g>
		<g class="st0">
			<g>
				<path class="st5" d="M79.2,41.3c0,21-17,38-38,38c-11,0-20.8-4.6-27.8-12.1C7.1,60.4,58.8,6.6,65.3,12
					C73.9,18.9,79.2,29.5,79.2,41.3z"/>
			</g>
		</g>
	</g>
	<g>
		<path class="st5" d="M53,56.2c-0.8,0-1.6-0.3-2.3-0.9L27.3,31.9c-1.3-1.3-1.3-3.3,0-4.6s3.3-1.3,4.6,0l23.4,23.4
			c1.3,1.3,1.3,3.3,0,4.6C54.6,55.9,53.8,56.2,53,56.2z"/>
	</g>
	<g>
		<path class="st5" d="M29.5,56.2c-0.8,0-1.6-0.3-2.3-0.9c-1.3-1.3-1.3-3.3,0-4.6l23.4-23.4c1.3-1.3,3.3-1.3,4.6,0
			c1.3,1.3,1.3,3.3,0,4.6L31.8,55.3C31.2,55.9,30.4,56.2,29.5,56.2z"/>
	</g>
</g>
</svg>
