<?xml version="1.0" encoding="utf-8"?>
<!-- Generator: Adobe Illustrator 23.0.6, SVG Export Plug-In . SVG Version: 6.00 Build 0)  -->
<svg version="1.1" id="Capa_1" xmlns="http://www.w3.org/2000/svg" xmlns:xlink="http://www.w3.org/1999/xlink" x="0px" y="0px"
	 viewBox="0 0 81.8 104.6" style="enable-background:new 0 0 81.8 104.6;" xml:space="preserve">
<style type="text/css">
	.st0{fill:url(#SVGID_1_);}
	.st1{opacity:0.35;fill:url(#SVGID_2_);}
	.st2{opacity:0.35;fill:url(#SVGID_3_);}
	.st3{fill:url(#SVGID_4_);}
	.st4{fill:url(#SVGID_5_);}
	.st5{fill:url(#SVGID_6_);}
	.st6{fill:url(#SVGID_7_);}
	.st7{fill:url(#SVGID_8_);}
	.st8{fill:url(#SVGID_9_);}
	.st9{opacity:0.35;fill:url(#SVGID_10_);}
	.st10{fill:url(#SVGID_11_);}
	.st11{fill:url(#SVGID_12_);}
	.st12{fill:url(#SVGID_13_);}
	.st13{opacity:0.35;}
	.st14{fill:url(#SVGID_14_);}
	.st15{opacity:0.2;}
	.st16{fill:#FFFFFF;}
	.st17{fill:url(#SVGID_15_);}
	.st18{fill:url(#SVGID_16_);}
	.st19{fill:url(#SVGID_17_);}
	.st20{fill:url(#SVGID_18_);}
	.st21{fill:url(#SVGID_19_);}
	.st22{opacity:0.35;fill:url(#SVGID_20_);}
	.st23{fill:url(#SVGID_21_);}
	.st24{fill:url(#SVGID_22_);}
</style>
<g>
	<g>
		<linearGradient id="SVGID_1_" gradientUnits="userSpaceOnUse" x1="40.8873" y1="104.6477" x2="40.8873" y2="-1.818989e-12">
			<stop  offset="0" style="stop-color:#FF6567"/>
			<stop  offset="1" style="stop-color:#FFA046"/>
		</linearGradient>
		<path class="st0" d="M40.9,104.6c-3.4,0-6.6-1.7-8.5-4.5L7.5,64.4C2.3,57.1-0.2,48.6,0,39.7C0.6,18.3,17.9,0.8,39.3,0
			c11.2-0.4,21.9,3.6,29.9,11.4c8.1,7.8,12.5,18.2,12.5,29.5c0,8.5-2.6,16.6-7.5,23.5l-24.9,35.8C47.5,103,44.3,104.6,40.9,104.6z
			 M40.9,9.1c-0.4,0-0.8,0-1.2,0C23.3,9.7,9.6,23.6,9.1,39.9c-0.2,6.9,1.8,13.6,5.8,19.2L39.8,95c0.3,0.5,0.8,0.6,1.1,0.6
			s0.7-0.1,1.1-0.6l24.9-35.8c3.8-5.4,5.8-11.7,5.8-18.3c0-8.7-3.5-16.9-9.7-22.9C57,12.2,49.2,9.1,40.9,9.1z"/>
	</g>
	<g>
		<linearGradient id="SVGID_2_" gradientUnits="userSpaceOnUse" x1="40.8873" y1="57.5433" x2="40.8873" y2="21.1991">
			<stop  offset="0" style="stop-color:#FF6567"/>
			<stop  offset="1" style="stop-color:#FFA046"/>
		</linearGradient>
		<path style="fill:url(#SVGID_2_);" d="M40.9,57.5c-10,0-18.2-8.2-18.2-18.2s8.2-18.2,18.2-18.2s18.2,8.2,18.2,18.2
			S50.9,57.5,40.9,57.5z M40.9,30.3c-5,0-9.1,4.1-9.1,9.1s4.1,9.1,9.1,9.1s9.1-4.1,9.1-9.1S45.9,30.3,40.9,30.3z"/>
	</g>
	<linearGradient id="SVGID_3_" gradientUnits="userSpaceOnUse" x1="49.3242" y1="99.945" x2="49.3242" y2="39.833">
		<stop  offset="0" style="stop-color:#FF6567"/>
		<stop  offset="1" style="stop-color:#FFA046"/>
	</linearGradient>
	<path class="st2" d="M77.2,39.8c0,0-25.3,37.4-55.8,36.7l8.9,14.4l6.1,9.1l8.6-1.5L56,82.7C56,82.7,75.7,55.4,77.2,39.8z"/>
</g>
</svg>
