<?xml version="1.0" encoding="utf-8"?>
<!-- Generator: Adobe Illustrator 23.1.0, SVG Export Plug-In . SVG Version: 6.00 Build 0)  -->
<svg version="1.1" id="Capa_1" xmlns="http://www.w3.org/2000/svg" xmlns:xlink="http://www.w3.org/1999/xlink" x="0px" y="0px"
	 viewBox="0 0 57.6 86.8" style="enable-background:new 0 0 57.6 86.8;" xml:space="preserve">
<style type="text/css">
	.st0{fill:#353535;}
</style>
<path class="st0" d="M48.6,49.9c-0.2-0.3-0.5-0.5-0.8-0.7c-1.6-1.4-3.3-2.6-5.1-3.6c6.7-4.5,11-12.1,11-20.7
	C53.7,11.2,42.6,0,28.8,0S3.9,11.2,3.9,24.9c0,8.6,4.4,16.2,11,20.7c-1.8,1-3.5,2.2-5.1,3.6c-0.3,0.2-0.5,0.4-0.8,0.7
	C3.5,55.2,0,62.6,0,70.8v16h57.6v-16C57.6,62.6,54.1,55.2,48.6,49.9z M11.7,24.9c0-9.4,7.7-17.1,17.1-17.1s17.1,7.7,17.1,17.1
	S38.2,42,28.8,42S11.7,34.4,11.7,24.9z M41.5,54.1c-1.3,4.6-8,6.4-12.7,6.4s-11.4-1.7-12.7-6.4c3.5-2.7,7.9-4.3,12.7-4.3
	S37.9,51.5,41.5,54.1z M49.8,79h-42v-8.2c0-3.8,1-7.3,2.8-10.4c1.2,1.6,2.7,3.1,4.6,4.3c3.7,2.3,8.5,3.6,13.6,3.6
	c7.2,0,14.5-2.7,18.2-7.9c1.8,3.1,2.8,6.6,2.8,10.4V79z"/>
</svg>
