<?xml version="1.0" encoding="utf-8"?>
<!-- Generator: Adobe Illustrator 23.1.0, SVG Export Plug-In . SVG Version: 6.00 Build 0)  -->
<svg version="1.1" id="Capa_1" xmlns="http://www.w3.org/2000/svg" xmlns:xlink="http://www.w3.org/1999/xlink" x="0px" y="0px"
	 viewBox="0 0 33.2 45" style="enable-background:new 0 0 33.2 45;" xml:space="preserve">
<style type="text/css">
	.st0{fill:#353535;}
</style>
<path class="st0" d="M30.7,0c-1.4,0-2.5,1.1-2.5,2.5V20H7.8l5.6-5.6c1-1,1-2.6,0-3.5s-2.6-1-3.5,0l-8.6,8.6c-1.7,1.7-1.7,4.4,0,6.1
	l8.6,8.6c0.5,0.5,1.1,0.7,1.8,0.7s1.3-0.2,1.8-0.7c1-1,1-2.6,0-3.5L7.8,25h20.4v17.5c0,1.4,1.1,2.5,2.5,2.5s2.5-1.1,2.5-2.5v-40
	C33.2,1.1,32,0,30.7,0z"/>
</svg>
