<?xml version="1.0" encoding="utf-8"?>
<!-- Generator: Adobe Illustrator 23.0.3, SVG Export Plug-In . SVG Version: 6.00 Build 0)  -->
<svg version="1.1" id="Capa_1" xmlns="http://www.w3.org/2000/svg" xmlns:xlink="http://www.w3.org/1999/xlink" x="0px" y="0px"
	 viewBox="0 0 67.7 90.6" style="enable-background:new 0 0 67.7 90.6;" xml:space="preserve">
<style type="text/css">
	.st0{opacity:0.35;}
	.st1{fill:#3A79F0;}
	.st2{fill:none;}
	.st3{fill:#FFFFFF;}
	.st4{fill:#35B91E;}
	.st5{fill:#FF6567;}
	.st6{opacity:0.35;fill:#3A79F0;enable-background:new    ;}
	.st7{fill:none;stroke:#3A79F0;stroke-width:3;stroke-linecap:round;stroke-linejoin:round;stroke-miterlimit:10;}
	.st8{fill:none;stroke:#3A79F0;stroke-miterlimit:10;}
</style>
<g>
	<path class="st6" d="M39.1,70.5c0.8-0.3,1.6-0.5,2.5-0.5h4.1V17.5H42c0.1,0.4,0.2,0.8,0.2,1.2V20c0,2.6-2.1,4.6-4.6,4.6h-19
		C16,24.6,14,22.5,14,20v-1.3c0-0.4,0.1-0.8,0.2-1.2h-3.7v53.1h28.6V70.5z"/>
	<path class="st1" d="M30.1,17.6c0.4,0,0.8-0.1,1.2-0.2h-6.5c0.4,0.1,0.8,0.2,1.2,0.2H30.1z"/>
	<path class="st1" d="M47.8,10.8H35v-0.1h0.1V5c0-2.8-2.2-5-5-5H26c-2.8,0-5,2.2-5,5v5.7h0v-0.1H8.2c-4.5,0-8.2,3.7-8.2,8.2v53.8
		c0,4.5,3.7,8.2,8.2,8.2h29.7c-1.5-1-2.5-2.7-2.5-4.7c0-0.7,0.1-1.3,0.3-1.9H8.2c-0.8,0-1.5-0.7-1.5-1.5V18.9c0-0.8,0.7-1.5,1.5-1.5
		l5.9,0.1c-0.1,0.4-0.2,0.7-0.2,1.1v1.3c0,2.6,2.1,4.6,4.6,4.6h19c2.6,0,4.6-2.1,4.6-4.6v-1.3c0-0.4-0.1-0.7-0.2-1.1H42h3.6h0.1h2.1
		c0.8,0,1.5,0.7,1.5,1.5v40.8c1.1-0.9,2.4-1.4,3.8-1.4c1.1,0,2,0.3,2.9,0.8V19C56,14.5,52.3,10.8,47.8,10.8z M37.6,14.1"/>
	<path class="st1" d="M64.8,73.2h-8.7v-0.3v-8.4c0-1.6-1.3-2.9-2.9-2.9s-2.9,1.3-2.9,2.9v8.7h-1h-7.7c-0.9,0-1.6,0.4-2.1,1
		c-0.5,0.5-0.8,1.2-0.8,1.9c0,1.6,1.3,2.9,2.9,2.9h8.7v1.5v7.2c0,1.6,1.3,2.9,2.9,2.9s2.9-1.3,2.9-2.9V79h8.7c1.6,0,2.9-1.3,2.9-2.9
		S66.4,73.2,64.8,73.2z"/>
</g>
</svg>
