<?xml version="1.0" encoding="utf-8"?>
<!-- Generator: Adobe Illustrator 23.1.0, SVG Export Plug-In . SVG Version: 6.00 Build 0)  -->
<svg version="1.1" id="Capa_1" xmlns="http://www.w3.org/2000/svg" xmlns:xlink="http://www.w3.org/1999/xlink" x="0px" y="0px"
	 viewBox="0 0 59.3 86.8" style="enable-background:new 0 0 59.3 86.8;" xml:space="preserve">
<style type="text/css">
	.st0{fill:#353535;}
</style>
<path class="st0" d="M50.3,49.9c-0.2-0.3-0.5-0.5-0.8-0.7c-1.6-1.4-3.3-2.6-5.1-3.6c6.7-4.5,11-12.1,11-20.7
	C55.4,11.2,44.3,0,30.5,0C25.6,0,21,1.4,17.2,3.9H0c0,5.5,2.6,10.5,6.7,13.6c-0.7,2.3-1.1,4.8-1.1,7.4c0,8.6,4.4,16.2,11,20.7
	c-1.8,1-3.5,2.2-5.1,3.6c-0.3,0.2-0.5,0.4-0.8,0.7c-5.6,5.3-9.1,12.7-9.1,20.9v16h57.6v-16C59.3,62.6,55.8,55.2,50.3,49.9z
	 M13.4,24.9c0-1.4,0.2-2.8,0.5-4.1c1.1,0.2,2.2,0.3,3.3,0.3h30c0.3,1.2,0.4,2.5,0.4,3.8c0,9.4-7.7,17.1-17.1,17.1
	S13.4,34.4,13.4,24.9z M42.9,53.9c-1.7,2.5-7.3,5.1-12,6.4c-0.1,0-0.3,0-0.4,0c-0.1,0-0.3,0-0.4,0c-4.7-1.3-10.2-3.9-11.9-6.4
	c3.5-2.5,7.7-4.1,12.4-4.1C35.1,49.9,39.4,51.4,42.9,53.9z M9.5,70.8c0-4.1,1.2-7.9,3.2-11.2c3.7,4.1,9.9,6.5,13.8,7.7V79H9.5V70.8z
	 M51.5,79H34.4V67.4c3.9-1.2,10.2-3.7,13.8-7.7c2,3.2,3.2,7.1,3.2,11.2V79z"/>
</svg>
