<?xml version="1.0" encoding="utf-8"?>
<!-- Generator: Adobe Illustrator 23.0.6, SVG Export Plug-In . SVG Version: 6.00 Build 0)  -->
<svg version="1.1" id="Capa_1" xmlns="http://www.w3.org/2000/svg" xmlns:xlink="http://www.w3.org/1999/xlink" x="0px" y="0px"
	 viewBox="0 0 93.1 115.3" style="enable-background:new 0 0 93.1 115.3;" xml:space="preserve">
<style type="text/css">
	.st0{fill:url(#SVGID_1_);}
	.st1{opacity:0.35;fill:url(#SVGID_2_);}
	.st2{opacity:0.35;fill:url(#SVGID_3_);}
	.st3{fill:url(#SVGID_4_);}
	.st4{fill:url(#SVGID_5_);}
	.st5{fill:url(#SVGID_6_);}
	.st6{fill:url(#SVGID_7_);}
	.st7{fill:url(#SVGID_8_);}
	.st8{fill:url(#SVGID_9_);}
	.st9{opacity:0.35;fill:url(#SVGID_10_);}
	.st10{fill:url(#SVGID_11_);}
	.st11{fill:url(#SVGID_12_);}
	.st12{fill:url(#SVGID_13_);}
	.st13{opacity:0.35;}
	.st14{fill:url(#SVGID_14_);}
	.st15{opacity:0.2;}
	.st16{fill:#FFFFFF;}
	.st17{fill:url(#SVGID_15_);}
	.st18{fill:url(#SVGID_16_);}
	.st19{fill:url(#SVGID_17_);}
	.st20{fill:url(#SVGID_18_);}
	.st21{fill:url(#SVGID_19_);}
	.st22{opacity:0.35;fill:url(#SVGID_20_);}
	.st23{fill:url(#SVGID_21_);}
	.st24{fill:url(#SVGID_22_);}
</style>
<g>
	<g>
		<linearGradient id="SVGID_1_" gradientUnits="userSpaceOnUse" x1="46.5725" y1="115.2989" x2="46.5725" y2="31.5447">
			<stop  offset="0" style="stop-color:#FF6567"/>
			<stop  offset="1" style="stop-color:#FFA046"/>
		</linearGradient>
		<path class="st0" d="M76.1,115.3h-59c-4.9,0-9.6-2.1-12.8-5.8c-3.2-3.7-4.7-8.6-4.1-13.5l6.3-49.6c1.1-8.5,8.4-14.9,16.9-14.9
			h46.3c8.6,0,15.9,6.4,16.9,14.9L93,96.1c0.6,4.9-0.9,9.8-4.1,13.5C85.6,113.2,81,115.3,76.1,115.3z M69.7,38.1
			C38,38.1,11.1,61.7,7.1,93.2l-0.4,3.5c-0.2,1.4-0.1,2.9,0.3,4.3c1.4,4.8,5.6,7.7,10.1,7.7l58.5,0c1.7,0,3.5-0.3,5-1
			c4.2-2.1,6.4-6.5,5.8-10.8l-6.3-49.6C79.5,42,75,38.1,69.7,38.1L69.7,38.1z"/>
	</g>
	<g>
		<g>
			<linearGradient id="SVGID_2_" gradientUnits="userSpaceOnUse" x1="46.5725" y1="51.5937" x2="46.5725" y2="0">
				<stop  offset="0" style="stop-color:#FF6567"/>
				<stop  offset="1" style="stop-color:#FFA046"/>
			</linearGradient>
			<path style="fill:url(#SVGID_2_);" d="M67.4,51.6c-1.6,0-3-1.3-3-3V23.8C64.4,14,56.4,6,46.6,6s-17.9,8-17.9,17.9v24.8
				c0,1.6-1.3,3-3,3c-1.6,0-3-1.3-3-3V23.8C22.8,10.7,33.4,0,46.6,0s23.8,10.7,23.8,23.8v24.8C70.4,50.3,69.1,51.6,67.4,51.6z"/>
		</g>
	</g>
	<linearGradient id="SVGID_3_" gradientUnits="userSpaceOnUse" x1="48.2148" y1="115.2989" x2="48.2148" y2="41.3981">
		<stop  offset="0" style="stop-color:#FF6567"/>
		<stop  offset="1" style="stop-color:#FFA046"/>
	</linearGradient>
	<polygon class="st2" points="81.9,41.4 6.3,107.1 12.9,113.7 32.4,115.3 58.9,113.7 77,112 86.8,107.1 90.1,97.2 	"/>
</g>
</svg>
