<?xml version="1.0" encoding="utf-8"?>
<!-- Generator: Adobe Illustrator 23.1.0, SVG Export Plug-In . SVG Version: 6.00 Build 0)  -->
<svg version="1.1" id="Capa_1" xmlns="http://www.w3.org/2000/svg" xmlns:xlink="http://www.w3.org/1999/xlink" x="0px" y="0px"
	 viewBox="0 0 28 20.5" style="enable-background:new 0 0 28 20.5;" xml:space="preserve">
<style type="text/css">
	.st0{fill:#3A79F0;}
</style>
<g>
	<g>
		<path class="st0" d="M20.9,20.5H1.5C0.7,20.5,0,19.8,0,19s0.7-1.5,1.5-1.5h19.4c2.3,0,4.1-1.9,4.1-4.2c0-2.3-1.8-4.2-4.1-4.2H9.3
			c-0.8,0-1.5-0.7-1.5-1.5s0.7-1.5,1.5-1.5h11.6c3.9,0,7.1,3.2,7.1,7.2C28,17.3,24.8,20.5,20.9,20.5z"/>
	</g>
	<g>
		<path class="st0" d="M15.1,15.2c-0.4,0-0.8-0.1-1.1-0.4L8,8.7C7.4,8.1,7.4,7.2,8,6.6l6-6.1c0.6-0.6,1.5-0.6,2.1,0
			c0.6,0.6,0.6,1.5,0,2.1l-5,5.1l5,5.1c0.6,0.6,0.6,1.5,0,2.1C15.9,15.1,15.5,15.2,15.1,15.2z"/>
	</g>
</g>
</svg>
