<?xml version="1.0" encoding="utf-8"?>
<!-- Generator: Adobe Illustrator 23.1.0, SVG Export Plug-In . SVG Version: 6.00 Build 0)  -->
<svg version="1.1" id="Capa_1" xmlns="http://www.w3.org/2000/svg" xmlns:xlink="http://www.w3.org/1999/xlink" x="0px" y="0px"
	 viewBox="0 0 44.5 47.5" style="enable-background:new 0 0 44.5 47.5;" xml:space="preserve">
<style type="text/css">
	.st0{fill:#7063F1;}
</style>
<g>
	<path class="st0" d="M37,0H7.5C3.4,0,0,3.4,0,7.5V40c0,4.1,3.4,7.5,7.5,7.5H37c4.1,0,7.5-3.4,7.5-7.5V7.5C44.5,3.4,41.1,0,37,0z
		 M30.8,15.2c0,2.2-2,3.9-4.3,3.5c-1.7-0.3-2.8-1.9-2.8-3.6l0-11.5h7.1V15.2z M20.7,15.2c0,2.2-2,3.9-4.3,3.5
		c-1.7-0.3-2.8-1.9-2.8-3.6l0-11.5h7.1V15.2z M10.6,15.2c0,2-1.6,3.5-3.5,3.5c-2,0-3.5-1.6-3.5-3.5V7.1c0-2,1.6-3.5,3.5-3.5h3.5
		V15.2z M33.9,3.5h3.5c2,0,3.5,1.6,3.5,3.5l0,8c0,1.7-1.1,3.2-2.8,3.6c-2.3,0.5-4.3-1.3-4.3-3.5C33.9,15.2,33.9,3.5,33.9,3.5z
		 M37,44.5H7.5C5,44.5,3,42.5,3,40V20.3c1.1,0.9,2.5,1.4,4,1.4c2,0,3.9-0.9,5.1-2.4c1.2,1.5,3,2.4,5.1,2.4s3.8-0.9,5.1-2.4
		c1.2,1.5,3,2.4,5.1,2.4s3.9-0.9,5.1-2.4c1.2,1.5,3,2.4,5.1,2.4c1.5,0,2.9-0.5,4-1.4V40C41.5,42.5,39.5,44.5,37,44.5z"/>
	<g>
		<path class="st0" d="M36.9,47H23.8V25.5h13.1V47z M26.8,44h7.1V28.5h-7.1V44z"/>
	</g>
	<g>
		<path class="st0" d="M20.7,35.9H5.6V23.8h15.2V35.9z M8.6,32.9h9.1v-6.1H8.6V32.9z"/>
	</g>
</g>
</svg>
