<svg xmlns="http://www.w3.org/2000/svg" xmlns:xlink="http://www.w3.org/1999/xlink" width="211.294" height="103.386" viewBox="0 0 211.294 103.386"><defs><style>.a{fill:#1f343d;}.b{fill:url(#m);}.c{fill:#fff;}.d{filter:url(#k);}.e{filter:url(#i);}.f{filter:url(#g);}.g{filter:url(#e);}.h{filter:url(#c);}.i{filter:url(#a);}</style><filter id="a" x="0" y="17.69" width="55.053" height="77.473" filterUnits="userSpaceOnUse"><feOffset dy="3" input="SourceAlpha"/><feGaussianBlur stdDeviation="3" result="b"/><feFlood flood-opacity="0.051"/><feComposite operator="in" in2="b"/><feComposite in="SourceGraphic"/></filter><filter id="c" x="110.837" y="0" width="54.615" height="77.388" filterUnits="userSpaceOnUse"><feOffset dy="3" input="SourceAlpha"/><feGaussianBlur stdDeviation="3" result="d"/><feFlood flood-opacity="0.051"/><feComposite operator="in" in2="d"/><feComposite in="SourceGraphic"/></filter><filter id="e" x="154.11" y="17.709" width="57.183" height="59.769" filterUnits="userSpaceOnUse"><feOffset dy="3" input="SourceAlpha"/><feGaussianBlur stdDeviation="3" result="f"/><feFlood flood-opacity="0.051"/><feComposite operator="in" in2="f"/><feComposite in="SourceGraphic"/></filter><filter id="g" x="65.775" y="18.223" width="54.744" height="59.213" filterUnits="userSpaceOnUse"><feOffset dy="3" input="SourceAlpha"/><feGaussianBlur stdDeviation="3" result="h"/><feFlood flood-opacity="0.051"/><feComposite operator="in" in2="h"/><feComposite in="SourceGraphic"/></filter><filter id="i" x="45.092" y="18.225" width="30.604" height="58.79" filterUnits="userSpaceOnUse"><feOffset dy="3" input="SourceAlpha"/><feGaussianBlur stdDeviation="3" result="j"/><feFlood flood-opacity="0.051"/><feComposite operator="in" in2="j"/><feComposite in="SourceGraphic"/></filter><filter id="k" x="45.477" y="3.727" width="29.88" height="28.265" filterUnits="userSpaceOnUse"><feOffset dy="3" input="SourceAlpha"/><feGaussianBlur stdDeviation="3" result="l"/><feFlood flood-opacity="0.051"/><feComposite operator="in" in2="l"/><feComposite in="SourceGraphic"/></filter><linearGradient id="m" x1="0.858" y1="0.026" x2="0.552" y2="0.312" gradientUnits="objectBoundingBox"><stop offset="0" stop-color="#6400ad"/><stop offset="1" stop-color="#7200c6"/></linearGradient></defs><g transform="translate(-225.948 -297.695)"><g transform="translate(148.1 -22.754)"><g transform="translate(86.848 326.448)"><g transform="translate(0 0)"><g class="i" transform="matrix(1, 0, 0, 1, -9, -6)"><path class="a" d="M24.765,87.1C18.03,91.109,11.5,90.142,5.4,86.08A12.139,12.139,0,0,1,.117,75.914c-.122-4.73-.181-9.475.011-14.2.251-6.222,3.877-11.148,11.174-13.1,3.585-.964,7.112-.546,10.7.007,7.189,1.111,8.482,1.566,15.021-.705v1.832q0,27.855.037,55.706c0,1.5-.3,2.123-1.876,1.887-3.054-.454-6.1-.835-8.781-2.6a4.441,4.441,0,0,1-2.134-3.811C24.255,96.341,23.86,91.741,24.765,87.1ZM24.108,66.93h.107c0-2.825.015-5.65-.015-8.471,0-.528.288-1.189-.709-1.385a15.846,15.846,0,0,0-5.657-.281c-3.069.524-4.734,1.78-4.8,5.11-.089,4.6-.044,9.205-.007,13.81a4.777,4.777,0,0,0,6.621,4.7c2.223-.761,4.272-1.824,4.424-4.468C24.244,72.949,24.108,69.936,24.108,66.93Z" transform="translate(9 -24.22)"/></g><g class="h" transform="matrix(1, 0, 0, 1, -9, -6)"><path class="a" d="M312.318,20.007c6.791-3.471,13.16-2.854,19.057,1.111A11.652,11.652,0,0,1,336.745,31c.029,5.107.078,10.214-.011,15.32-.107,6.034-3.84,9.841-8.814,11.524a30.708,30.708,0,0,1-18.37.27,28.138,28.138,0,0,0-7.884-1.381c-1.222.022-1.5-.487-1.5-1.654q.055-26.858,0-53.712c0-1.119.214-1.51,1.418-1.326a29.418,29.418,0,0,1,7.1,1.577c2.677,1.123,4.254,3.035,4.084,5.757C312.525,11.474,313.083,15.595,312.318,20.007Zm.428,20.25v5.535c0,4.52.288,4.8,4.889,4.845.185,0,.369,0,.554,0,4.5-.218,5.86-2.112,5.978-6.13.118-3.933.1-7.873-.011-11.809-.048-1.6-.133-3.294-1.418-4.579-1.71-1.71-3.707-1.573-5.757-.9-2.452.809-4.15,2.337-4.221,5.1C312.7,34.969,312.747,37.613,312.747,40.257Z" transform="translate(-180.33 6)"/></g><g class="g" transform="matrix(1, 0, 0, 1, -9, -6)"><path class="a" d="M456.453,69.562c-.14,2.5.4,5.609-.2,8.629-1.267,6.455-5.8,9.423-11.849,10.7a33.488,33.488,0,0,1-18.082-.879c-4.963-1.713-8.869-5.136-8.869-12.414,0-5.469-.34-10.952.258-16.4a10.589,10.589,0,0,1,4.549-7.422c3.117-2.3,6.783-3.032,10.55-3.537a34.01,34.01,0,0,1,13.947,1.137c5.469,1.547,9.457,5.93,9.678,11.864C456.534,63.824,456.453,66.412,456.453,69.562Zm-12.566-.229a55.628,55.628,0,0,0-.037-6.093c-.521-4.368-.7-4.974-3.922-5.893a11.905,11.905,0,0,0-6.152.033,4.343,4.343,0,0,0-3.556,4.2,82.089,82.089,0,0,0,.011,14.7,4.373,4.373,0,0,0,3.2,4,10.908,10.908,0,0,0,6.669.1,4.579,4.579,0,0,0,3.493-3.907C444.031,73.893,443.747,71.331,443.887,69.333Z" transform="translate(-254.25 -24.25)"/></g><g class="f" transform="matrix(1, 0, 0, 1, -9, -6)"><path class="a" d="M214.817,72.26c0,5.657.011,11.314-.018,16.975,0,.513.391,1.691-.875,1.123-4.675-2.1-9.346-1.447-14.124-.38a21.855,21.855,0,0,1-16.044-2.345c-3.885-2.216-5.458-5.875-5.535-10.058-.17-8.977-.033-17.957-.074-26.937,0-1.182.266-1.377,1.462-1.222,3.139.406,6.292.62,9.095,2.337a4.6,4.6,0,0,1,2.356,4.217c-.011,6.58.126,13.164-.048,19.74-.129,4.944,2.847,6.063,6.661,5.661,4.638-.487,4.627-.606,4.627-5.192,0-8.364.03-16.727-.026-25.091-.011-1.418.207-1.905,1.817-1.684,2.648.366,5.314.565,7.78,1.7a4.708,4.708,0,0,1,3,4.922C214.706,61.433,214.817,66.85,214.817,72.26Z" transform="translate(-103.36 -25.13)"/></g><g class="e" transform="matrix(1, 0, 0, 1, -9, -6)"><path class="a" d="M122.161,67.43c0-5.291.063-10.583-.037-15.874-.033-1.739.14-2.474,2.223-2.1,2.98.524,5.982.639,8.629,2.47a3.6,3.6,0,0,1,1.721,3.157c.037,11.321.022,22.643.018,33.964,0,.528.151,1.207-.761,1.093-3.371-.421-6.809-.535-9.815-2.467a4.267,4.267,0,0,1-1.99-3.992C122.183,78.26,122.161,72.843,122.161,67.43Z" transform="translate(-68.03 -25.13)"/></g><g class="d" transform="matrix(1, 0, 0, 1, -9, -6)"><path class="a" d="M129.868,20.326c-1.662-.3-3.755.624-5.594-.764a2.227,2.227,0,0,1-1.1-1.957c.044-2.09.059-4.184-.007-6.27-.033-.99.318-1.263,1.267-1.237,2.149.059,4.305-.041,6.455.033,2.873.1,4.113,1.451,4.113,4.317,0,1.477-.092,2.958.03,4.424.107,1.278-.406,1.569-1.555,1.473C132.379,20.255,131.268,20.326,129.868,20.326Z" transform="translate(-68.69 -0.37)"/></g></g></g></g><rect class="b" width="145.747" height="30.365" rx="5" transform="translate(282 370.716)"/><path class="c" d="M-61.237-1.675c0,1.925,4.3,1.925,4.3,1.925V-5.525h1.225c4.225,0,7.975-1.275,7.975-6.15v-.45c0-5-3.75-6.05-7.975-6.05h-5.525Zm5.525-13.45c2.15,0,3.675.5,3.675,3.225,0,2.95-1.525,3.325-3.675,3.325h-1.225v-6.55Zm28.7,2.45v-.75c0-3.6-2.925-4.75-6.975-4.75h-6.275v16.5c0,1.85,4.3,1.925,4.3,1.925V-7.425c2.475,1.075,3.75,4.225,4.775,5.85A3.839,3.839,0,0,0-27.787.2a13.477,13.477,0,0,0,2.125-.4c-1.85-2.625-2.725-5.6-5.875-7.675A4.468,4.468,0,0,0-27.012-12.675Zm-6.975-2.45c1.8,0,2.675.45,2.675,2.075,0,1.65-.65,2.45-2.475,2.45h-2.175v-4.525Zm30.65,2.875c0-3.875-2.55-6.225-7.975-6.225-5.5,0-8.025,2.35-8.025,6.225v6.325c0,3.9,2.525,6.225,8.025,6.225,5.425,0,7.975-2.325,7.975-6.225Zm-4.3,6c0,2.225-.6,3.525-3.7,3.525s-3.7-1.3-3.7-3.525v-5.675c0-2.225.6-3.5,3.7-3.5s3.7,1.275,3.7,3.5ZM12.187.725a16.347,16.347,0,0,0,5.475-7.95l2.4-6.85A16.734,16.734,0,0,1,21.537-17.9a8.673,8.673,0,0,0-1.975-.425c-2.6,0-3.15,1.875-3.8,3.75l-2.25,6.5c-.55,1.575-1.325,3.25-1.325,3.25a30.97,30.97,0,0,1-1.325-3.25l-2.225-6.5c-.65-1.875-1.2-3.75-3.825-3.75a8.7,8.7,0,0,0-1.95.425,17.815,17.815,0,0,1,1.5,3.825l2.35,6.85A16.886,16.886,0,0,0,12.187.725Zm25.5-8.75c2.475,0,2.825-1.725,2.825-3.45a7.953,7.953,0,0,1-3.225.4h-4.7v-4.05h6.6c2.325,0,2.325-3.05,2.325-3.05H28.288v16.25C28.288,0,31.513,0,31.513,0h7.675c2.275,0,2.325-2.85,2.325-3.025H32.588v-5Zm20.6,0c2.475,0,2.825-1.725,2.825-3.45a7.953,7.953,0,0,1-3.225.4h-4.7v-4.05h6.6c2.325,0,2.325-3.05,2.325-3.05H48.888v16.25C48.888,0,52.113,0,52.113,0h7.675c2.275,0,2.325-2.85,2.325-3.025H53.188v-5Z" transform="translate(354.237 395)"/></g></svg>