<?xml version="1.0" encoding="utf-8"?>
<!-- Generator: Adobe Illustrator 23.0.1, SVG Export Plug-In . SVG Version: 6.00 Build 0)  -->
<svg version="1.1" id="Capa_1" xmlns="http://www.w3.org/2000/svg" xmlns:xlink="http://www.w3.org/1999/xlink" x="0px" y="0px"
	 viewBox="0 0 253.8 133.8" style="enable-background:new 0 0 253.8 133.8;" xml:space="preserve">
<style type="text/css">
	.st0{fill:#CCCCCC;}
</style>
<g>
	<g>
		<polygon class="st0" points="213,133.8 183.7,65.3 253.8,93.1 226,104.5 		"/>
	</g>
	<g>
		<path class="st0" d="M30.6,6.3c0.5,0.6,0.8,1.3,0.8,2.1v31.3c0,0.9-0.3,1.7-0.9,2.3C29.8,42.6,29,43,28.1,43c-0.5,0-1-0.1-1.5-0.2
			c-0.5-0.2-0.8-0.4-1-0.7l-19.7-25v22.9c0,0.9-0.3,1.6-0.8,2.1C4.5,42.7,3.8,43,2.9,43c-0.9,0-1.6-0.3-2.1-0.9
			C0.3,41.5,0,40.8,0,39.9V8.7C0,7.8,0.3,7,0.9,6.4c0.6-0.6,1.4-0.9,2.3-0.9c0.5,0,1.1,0.1,1.6,0.3C5.4,6,5.8,6.2,6,6.6l19.5,24.9
			V8.4c0-0.9,0.3-1.6,0.8-2.1c0.6-0.6,1.3-0.9,2.1-0.9S30,5.7,30.6,6.3z"/>
		<path class="st0" d="M64.5,36.3c-1.3,2.3-3,4-5.3,5.3c-2.2,1.3-4.7,1.9-7.4,1.9c-2.7,0-5.2-0.6-7.4-1.9c-2.2-1.3-4-3-5.3-5.3
			c-1.3-2.3-1.9-4.8-1.9-7.7s0.6-5.4,1.9-7.7c1.3-2.3,3-4,5.3-5.3c2.2-1.3,4.7-1.9,7.4-1.9c2.7,0,5.1,0.6,7.4,1.9
			c2.2,1.3,4,3,5.3,5.3c1.3,2.3,1.9,4.8,1.9,7.7S65.8,34.1,64.5,36.3z M58.9,23.9c-0.7-1.4-1.7-2.4-2.9-3.2
			c-1.2-0.8-2.6-1.1-4.1-1.1S49,20,47.7,20.8c-1.2,0.8-2.2,1.8-2.9,3.2c-0.7,1.4-1.1,2.9-1.1,4.7s0.4,3.3,1.1,4.7
			c0.7,1.4,1.7,2.4,2.9,3.2c1.2,0.8,2.6,1.1,4.1,1.1s2.9-0.4,4.1-1.1c1.2-0.8,2.2-1.8,2.9-3.2c0.7-1.4,1.1-2.9,1.1-4.7
			S59.6,25.3,58.9,23.9z"/>
		<path class="st0" d="M112.2,17c1.4,2.2,2,5.2,2,9v13.7c0,0.9-0.3,1.7-0.9,2.3c-0.6,0.6-1.4,0.9-2.3,0.9c-0.9,0-1.7-0.3-2.3-0.9
			c-0.6-0.6-0.9-1.4-0.9-2.3V26c0-2-0.4-3.5-1.2-4.6c-0.8-1.1-2.1-1.7-4-1.7c-2,0-3.6,0.6-4.7,1.8c-1.1,1.2-1.7,2.7-1.7,4.5v13.7
			c0,0.9-0.3,1.7-0.9,2.3C94.7,42.6,94,43,93,43c-0.9,0-1.7-0.3-2.3-0.9c-0.6-0.6-0.9-1.4-0.9-2.3V26c0-2-0.4-3.5-1.2-4.6
			c-0.8-1.1-2.1-1.7-4-1.7c-2,0-3.6,0.6-4.7,1.8c-1.1,1.2-1.7,2.7-1.7,4.5v13.7c0,0.9-0.3,1.7-0.9,2.3C76.7,42.6,75.9,43,75,43
			c-0.9,0-1.7-0.3-2.3-0.9c-0.6-0.6-0.9-1.4-0.9-2.3V17.5c0-0.9,0.3-1.7,0.9-2.3c0.6-0.6,1.4-0.9,2.3-0.9c0.9,0,1.7,0.3,2.3,0.9
			c0.6,0.6,0.9,1.4,0.9,2.3v0.9c1-1.3,2.2-2.4,3.7-3.3c1.5-0.9,3.1-1.4,5-1.4c4.5,0,7.4,2,8.6,5.9c0.8-1.5,2.1-2.9,3.7-4.1
			c1.7-1.2,3.5-1.8,5.7-1.8C108.4,13.7,110.9,14.8,112.2,17z"/>
		<path class="st0" d="M142.8,15.6c2,1.3,3.6,3,4.7,5.3c1.2,2.3,1.7,4.8,1.7,7.7c0,2.9-0.6,5.4-1.7,7.7c-1.1,2.3-2.7,4-4.7,5.3
			c-2,1.3-4.2,1.9-6.6,1.9c-1.7,0-3.3-0.3-4.9-1c-1.5-0.7-2.8-1.5-3.8-2.5v0.3c0,0.9-0.3,1.7-0.9,2.3c-0.6,0.6-1.4,0.9-2.3,0.9
			c-0.9,0-1.7-0.3-2.3-0.9c-0.6-0.6-0.9-1.4-0.9-2.4V6.5c0-0.9,0.3-1.7,0.9-2.3c0.6-0.6,1.4-0.9,2.3-0.9c0.9,0,1.7,0.3,2.3,0.9
			c0.6,0.6,0.9,1.4,0.9,2.3v11.2c0.9-1.1,2.1-2,3.6-2.8c1.5-0.8,3.1-1.2,4.8-1.2C138.6,13.7,140.8,14.4,142.8,15.6z M140.9,35
			c1.5-1.7,2.2-3.9,2.2-6.4c0-2.6-0.7-4.7-2.2-6.4c-1.4-1.7-3.3-2.5-5.7-2.5c-2.3,0-4.2,0.8-5.7,2.5c-1.5,1.7-2.2,3.8-2.2,6.4
			c0,2.6,0.7,4.7,2.2,6.4c1.5,1.7,3.4,2.6,5.7,2.6C137.6,37.6,139.4,36.7,140.9,35z"/>
		<path class="st0" d="M172.3,14.6c0.7,0.6,1.1,1.3,1.1,2.1c0,1.1-0.3,1.9-0.9,2.5c-0.6,0.6-1.3,0.8-2,0.8c-0.5,0-1.1-0.1-1.8-0.4
			c-0.1,0-0.3-0.1-0.7-0.2s-0.8-0.2-1.2-0.2c-0.9,0-1.8,0.3-2.7,0.9c-0.9,0.6-1.6,1.4-2.1,2.6c-0.6,1.2-0.8,2.5-0.8,4.2v12.7
			c0,0.9-0.3,1.7-0.9,2.3c-0.6,0.6-1.4,0.9-2.3,0.9c-0.9,0-1.7-0.3-2.3-0.9c-0.6-0.6-0.9-1.4-0.9-2.3V17.5c0-0.9,0.3-1.7,0.9-2.3
			c0.6-0.6,1.4-0.9,2.3-0.9c0.9,0,1.7,0.3,2.3,0.9c0.6,0.6,0.9,1.4,0.9,2.3v0.7c0.8-1.5,2-2.6,3.5-3.4c1.5-0.8,3.2-1.2,4.9-1.2
			C170.6,13.7,171.5,14,172.3,14.6z"/>
		<path class="st0" d="M171.9,42.1c-0.6-0.6-0.8-1.3-0.8-2.4v-0.9c0-1,0.3-1.8,0.8-2.4c0.6-0.6,1.3-0.8,2.4-0.8h0.7
			c1,0,1.8,0.3,2.4,0.8c0.6,0.6,0.8,1.3,0.8,2.4v0.9c0,1-0.3,1.8-0.8,2.4c-0.6,0.6-1.3,0.8-2.4,0.8h-0.7
			C173.3,42.9,172.5,42.6,171.9,42.1z"/>
		<path class="st0" d="M185.3,42.1c-0.6-0.6-0.8-1.3-0.8-2.4v-0.9c0-1,0.3-1.8,0.8-2.4c0.6-0.6,1.3-0.8,2.4-0.8h0.7
			c1,0,1.8,0.3,2.4,0.8c0.6,0.6,0.8,1.3,0.8,2.4v0.9c0,1-0.3,1.8-0.8,2.4c-0.6,0.6-1.3,0.8-2.4,0.8h-0.7
			C186.6,42.9,185.8,42.6,185.3,42.1z"/>
		<path class="st0" d="M203.6,48.7c-0.6,0.6-1.4,0.9-2.3,0.9c-0.9,0-1.6-0.3-2.3-0.9c-0.6-0.6-0.9-1.4-0.9-2.3V3.3
			c0-0.9,0.3-1.7,0.9-2.3c0.6-0.6,1.4-0.9,2.3-0.9c0.9,0,1.6,0.3,2.3,0.9c0.6,0.6,0.9,1.4,0.9,2.3v43.1
			C204.6,47.3,204.2,48.1,203.6,48.7z"/>
	</g>
</g>
</svg>
