<?xml version="1.0" encoding="utf-8"?>
<!-- Generator: Adobe Illustrator 23.0.1, SVG Export Plug-In . SVG Version: 6.00 Build 0)  -->
<svg version="1.1" id="Capa_1" xmlns="http://www.w3.org/2000/svg" xmlns:xlink="http://www.w3.org/1999/xlink" x="0px" y="0px"
	 viewBox="0 0 17 17" style="enable-background:new 0 0 17 17;" xml:space="preserve">
<style type="text/css">
	.st0{fill:#FFFFFF;}
	.st1{fill:#FFFFFF;stroke:#FFFFFF;stroke-miterlimit:10;}
</style>
<g>
	<g>
		<g>
			<g>
				<path class="st0" d="M8.5,17C3.8,17,0,13.2,0,8.5S3.8,0,8.5,0S17,3.8,17,8.5S13.2,17,8.5,17z M8.5,1C4.4,1,1,4.4,1,8.5
					S4.4,16,8.5,16S16,12.6,16,8.5S12.6,1,8.5,1z"/>
			</g>
		</g>
	</g>
	<g>
		<g>
			<g>
				<rect x="3.5" y="10.6" class="st0" width="10" height="1.9"/>
			</g>
		</g>
	</g>
	<g>
		<g>
			<g>
				<path class="st0" d="M13.5,7.1h-10V4.5l4.8-2l5.2,2V7.1z M4.5,6.1h8v-1L8.3,3.5L4.5,5.1V6.1z"/>
			</g>
		</g>
	</g>
	<g>
		<g>
			<g>
				<path class="st1" d="M8.5,2.5"/>
			</g>
		</g>
	</g>
	<g>
		<g>
			<g>
				<rect x="4" y="7" class="st0" width="1" height="4"/>
			</g>
		</g>
	</g>
	<g>
		<g>
			<g>
				<rect x="8" y="7" class="st0" width="1" height="3.6"/>
			</g>
		</g>
	</g>
	<g>
		<g>
			<g>
				<rect x="12" y="7" class="st0" width="1" height="4"/>
			</g>
		</g>
	</g>
</g>
</svg>
