<?xml version="1.0" encoding="utf-8"?>
<!-- Generator: Adobe Illustrator 23.0.6, SVG Export Plug-In . SVG Version: 6.00 Build 0)  -->
<svg version="1.1" id="Capa_1" xmlns="http://www.w3.org/2000/svg" xmlns:xlink="http://www.w3.org/1999/xlink" x="0px" y="0px"
	 viewBox="0 0 137.4 137.4" style="enable-background:new 0 0 137.4 137.4;" xml:space="preserve">
<style type="text/css">
	.st0{fill:url(#SVGID_1_);}
	.st1{opacity:0.35;fill:url(#SVGID_2_);}
	.st2{opacity:0.35;fill:url(#SVGID_3_);}
	.st3{fill:url(#SVGID_4_);}
	.st4{fill:url(#SVGID_5_);}
	.st5{fill:url(#SVGID_6_);}
	.st6{fill:url(#SVGID_7_);}
	.st7{fill:url(#SVGID_8_);}
	.st8{fill:url(#SVGID_9_);}
	.st9{opacity:0.35;fill:url(#SVGID_10_);}
	.st10{fill:url(#SVGID_11_);}
	.st11{fill:url(#SVGID_12_);}
	.st12{fill:url(#SVGID_13_);}
	.st13{opacity:0.35;}
	.st14{fill:url(#SVGID_14_);}
	.st15{opacity:0.2;}
	.st16{fill:#FFFFFF;}
	.st17{fill:url(#SVGID_15_);}
	.st18{fill:url(#SVGID_16_);}
	.st19{fill:url(#SVGID_17_);}
	.st20{fill:url(#SVGID_18_);}
	.st21{fill:url(#SVGID_19_);}
	.st22{opacity:0.35;fill:url(#SVGID_20_);}
	.st23{fill:url(#SVGID_21_);}
	.st24{fill:url(#SVGID_22_);}
</style>
<g>
	<circle class="st15" cx="68.7" cy="68.7" r="68.7"/>
	<g>
		<g>
			<path class="st16" d="M48.6,118.6c-0.9,0-1.8-0.3-2.5-0.8c-1.3-1-2-2.6-1.7-4.2L52.6,69l4.8,0.9l-7.9,43.4l18.1-10.6l2,1.3
				l0.4,2.9l-19.1,11.2C50.1,118.5,49.3,118.6,48.6,118.6z"/>
		</g>
		<g>
			<path class="st16" d="M87.1,118.7c-0.7,0-1.3-0.2-1.9-0.5l-19.3-11.3l0.4-2.9l2-1.3l18.1,10.6l-7.9-43.4l4.8-0.9l8.1,44.5
				c0.3,1.6-0.4,3.3-1.7,4.2C88.9,118.4,88,118.7,87.1,118.7z"/>
		</g>
		<g>
			<g>
				<path class="st16" d="M68.7,75.1c-15.5,0-28.2-12.6-28.2-28.2s12.6-28.2,28.2-28.2s28.2,12.6,28.2,28.2S84.2,75.1,68.7,75.1z
					 M68.7,23.6c-12.9,0-23.3,10.5-23.3,23.3s10.5,23.3,23.3,23.3S92,59.8,92,46.9S81.6,23.6,68.7,23.6z"/>
			</g>
			<g class="st13">
				<g>
					<path class="st16" d="M94.3,47.3c0,14.5-11.7,26.2-26.2,26.2c-7.6,0-14.4-3.2-19.2-8.3C44.6,60.4,80.2,23.3,84.8,27
						C90.6,31.9,94.3,39.1,94.3,47.3z"/>
				</g>
			</g>
		</g>
	</g>
</g>
</svg>
