<?xml version="1.0" encoding="utf-8"?>
<!-- Generator: Adobe Illustrator 23.0.1, SVG Export Plug-In . SVG Version: 6.00 Build 0)  -->
<svg version="1.1" id="Capa_1" xmlns="http://www.w3.org/2000/svg" xmlns:xlink="http://www.w3.org/1999/xlink" x="0px" y="0px"
	 viewBox="0 0 246 246" style="enable-background:new 0 0 246 246;" xml:space="preserve">
<style type="text/css">
	.st0{fill:#CCCCCC;}
</style>
<g>
	<path class="st0" d="M179.7,93H171c-5.3,0-9.7-4.3-9.7-9.7V35.7c0-5.3,4.3-9.7,9.7-9.7h8.7c5.3,0,9.7,4.3,9.7,9.7v47.7
		C189.4,88.7,185,93,179.7,93z"/>
	<g>
		<path class="st0" d="M220,0H26C11.7,0,0,11.7,0,26V220c0,14.4,11.7,26,26,26h23V133h148v113h23c14.4,0,26-11.7,26-26V26
			C246,11.7,234.3,0,220,0z M196.6,89.6c0,5.7-4.6,10.4-10.4,10.4H61c-5.7,0-10.4-4.6-10.4-10.4V31.4C50.6,25.6,55.3,21,61,21h125.2
			c5.7,0,10.4,4.6,10.4,10.4V89.6z"/>
		<path class="st0" d="M56.9,245h132.3V141H56.9V245z M80,165h86c3,0,5.5,2.5,5.5,5.5c0,3-2.5,5.5-5.5,5.5H80c-3,0-5.5-2.5-5.5-5.5
			C74.5,167.5,77,165,80,165z M79.9,188h86c3,0,5.5,2.5,5.5,5.5c0,3-2.5,5.5-5.5,5.5h-86c-3,0-5.5-2.5-5.5-5.5
			C74.4,190.5,76.8,188,79.9,188z M79.9,211h86c3,0,5.5,2.5,5.5,5.5c0,3-2.5,5.5-5.5,5.5h-86c-3,0-5.5-2.5-5.5-5.5
			C74.4,213.5,76.8,211,79.9,211z"/>
	</g>
</g>
</svg>
