<?xml version="1.0" encoding="utf-8"?>
<!-- Generator: Adobe Illustrator 23.0.1, SVG Export Plug-In . SVG Version: 6.00 Build 0)  -->
<svg version="1.1" id="Capa_1" xmlns="http://www.w3.org/2000/svg" xmlns:xlink="http://www.w3.org/1999/xlink" x="0px" y="0px"
	 viewBox="0 0 172 134" style="enable-background:new 0 0 172 134;" xml:space="preserve">
<style type="text/css">
	.st0{fill:#CCCCCC;}
</style>
<g>
	<path class="st0" d="M162.1,17H158v9.5c0,7.4-6,13.5-13.5,13.5s-13.5-6-13.5-13.5V17H99.5v9.5C99.5,34,93.4,40,86,40
		s-13.5-6-13.5-13.5V17H40.9v9.5c0,7.4-6,13.5-13.5,13.5S14,34,14,26.5V17H9.9C4.4,17,0,21.4,0,26.9v97.2c0,5.5,4.4,9.9,9.9,9.9
		h152.2c5.5,0,9.9-4.4,9.9-9.9V26.9C172,21.4,167.6,17,162.1,17z M73.9,107.6c0,1.3-0.5,2.4-1.5,3.3c-1,0.9-2.2,1.3-3.6,1.3
		c-1.4,0-2.6-0.4-3.5-1.3c-0.9-0.9-1.4-2-1.4-3.3V71.2l-4.8,2.9c-0.8,0.5-1.6,0.7-2.5,0.7c-1.3,0-2.4-0.5-3.3-1.5
		c-0.9-1-1.3-2-1.3-3.2c0-0.8,0.2-1.6,0.7-2.3c0.4-0.7,1-1.3,1.7-1.7l11.6-6.9c0.9-0.5,2-0.7,3.3-0.7c1.3,0,2.4,0.4,3.2,1.3
		c0.9,0.9,1.3,2,1.3,3.3V107.6z M117.3,111.1c-0.8,0.8-1.8,1.2-3.1,1.2H88.1c-1.3,0-2.4-0.4-3.1-1.2c-0.8-0.8-1.2-1.9-1.2-3.1
		c0-1.3,0.5-2.4,1.4-3.4L102,86.6c1.9-2,3.4-4.1,4.5-6.2c1.1-2.1,1.7-4,1.7-5.7c0-2.3-0.8-4.3-2.5-6c-1.6-1.7-3.5-2.5-5.7-2.5
		c-1.5,0-3,0.5-4.5,1.5c-1.5,1-2.9,2.3-4.1,4c-0.9,1.2-2.1,1.8-3.5,1.8c-1.1,0-2.2-0.4-3.1-1.3c-0.9-0.9-1.4-1.8-1.4-2.9
		c0-0.8,0.3-1.5,0.8-2.3c0.5-0.8,1.3-1.7,2.3-2.7c1.9-1.9,4.2-3.5,6.8-4.7c2.6-1.2,5-1.8,7.4-1.8c3.4,0,6.3,0.7,8.9,2.2
		c2.6,1.4,4.5,3.4,5.9,5.9c1.4,2.5,2.1,5.4,2.1,8.5c0,3.1-0.8,6.3-2.5,9.6c-1.7,3.3-3.9,6.5-6.7,9.5l-9.8,10.4h15.8
		c1.2,0,2.3,0.4,3.1,1.2c0.8,0.8,1.2,1.8,1.2,3.1C118.6,109.3,118.1,110.3,117.3,111.1z"/>
	<path class="st0" d="M86,35c4.7,0,8.5-3.8,8.5-8.5V17V8.5C94.5,3.8,90.7,0,86,0s-8.5,3.8-8.5,8.5V17v9.5C77.5,31.2,81.3,35,86,35z"
		/>
	<path class="st0" d="M27.5,35c4.7,0,8.5-3.8,8.5-8.5V17V8.5c0-4.7-3.8-8.5-8.5-8.5S19,3.8,19,8.5V17v9.5C19,31.2,22.8,35,27.5,35z"
		/>
	<path class="st0" d="M144.5,35c4.7,0,8.5-3.8,8.5-8.5V17V8.5c0-4.7-3.8-8.5-8.5-8.5c-4.7,0-8.5,3.8-8.5,8.5V17v9.5
		C136.1,31.2,139.9,35,144.5,35z"/>
</g>
</svg>
