<?xml version="1.0" encoding="utf-8"?>
<!-- Generator: Adobe Illustrator 23.0.6, SVG Export Plug-In . SVG Version: 6.00 Build 0)  -->
<svg version="1.1" id="Capa_1" xmlns="http://www.w3.org/2000/svg" xmlns:xlink="http://www.w3.org/1999/xlink" x="0px" y="0px"
	 viewBox="0 0 105.7 104" style="enable-background:new 0 0 105.7 104;" xml:space="preserve">
<style type="text/css">
	.st0{fill:url(#SVGID_1_);}
	.st1{opacity:0.35;fill:url(#SVGID_2_);}
	.st2{opacity:0.35;fill:url(#SVGID_3_);}
	.st3{fill:url(#SVGID_4_);}
	.st4{fill:url(#SVGID_5_);}
	.st5{fill:url(#SVGID_6_);}
	.st6{fill:url(#SVGID_7_);}
	.st7{fill:url(#SVGID_8_);}
	.st8{fill:url(#SVGID_9_);}
	.st9{opacity:0.35;fill:url(#SVGID_10_);}
	.st10{fill:url(#SVGID_11_);}
	.st11{fill:url(#SVGID_12_);}
	.st12{fill:url(#SVGID_13_);}
	.st13{opacity:0.35;}
	.st14{fill:url(#SVGID_14_);}
	.st15{opacity:0.2;}
	.st16{fill:#FFFFFF;}
	.st17{fill:url(#SVGID_15_);}
	.st18{fill:url(#SVGID_16_);}
	.st19{fill:url(#SVGID_17_);}
	.st20{fill:url(#SVGID_18_);}
	.st21{fill:url(#SVGID_19_);}
	.st22{opacity:0.35;fill:url(#SVGID_20_);}
	.st23{fill:url(#SVGID_21_);}
	.st24{fill:url(#SVGID_22_);}
</style>
<g>
	<g>
		
			<linearGradient id="SVGID_1_" gradientUnits="userSpaceOnUse" x1="-252.1572" y1="508.5815" x2="-122.3701" y2="508.5815" gradientTransform="matrix(0.7163 -0.6978 0.6978 0.7163 -169.787 -441.0404)">
			<stop  offset="0" style="stop-color:#FF6567"/>
			<stop  offset="1" style="stop-color:#FFA046"/>
		</linearGradient>
		<path class="st0" d="M15.9,104c-4.1,0-8.3-1.6-11.4-4.8c-6.1-6.3-6-16.4,0.3-22.5l41.6-40.5c5.1-5,9.1-11.6,11.8-19.6
			c1.2-3.7,3.3-6.9,6.1-9.6C71,0.3,81.1-1.8,89.9,1.6c1.6,0.6,2.8,2,3.1,3.7c0.4,1.7-0.2,3.4-1.4,4.6l-9.5,9.3
			c-1.3,1.2-1.3,3.2-0.1,4.5c0.6,0.6,1.4,1,2.2,1c0.9,0.1,1.7-0.3,2.3-0.9l9.5-9.3c1.2-1.2,3-1.7,4.7-1.3c1.7,0.4,3,1.6,3.6,3.2
			c3.1,8.9,0.8,18.9-6,25.5c-2.8,2.7-6.1,4.7-9.8,5.8C80.4,50.2,73.7,54,68.6,59L27,99.5C23.9,102.5,19.9,104,15.9,104z M81.3,6.4
			c-4.6,0-9.2,1.8-12.6,5.1c-2.1,2-3.6,4.4-4.5,7.1c-3,9-7.5,16.5-13.4,22.2L9.2,81.2C5.5,84.9,5.4,91,9.1,94.8
			c3.7,3.8,9.7,3.8,13.5,0.2l41.6-40.5c5.9-5.7,13.4-10,22.5-12.8c2.7-0.8,5.2-2.3,7.2-4.3c4.5-4.4,6.3-10.7,5-16.8L91,28.3
			c-1.8,1.8-4.2,2.7-6.8,2.7c-2.5,0-4.9-1.1-6.7-2.9c-3.7-3.8-3.6-9.8,0.2-13.5l7.9-7.7C84.2,6.5,82.7,6.4,81.3,6.4z"/>
	</g>
	<g>
		
			<linearGradient id="SVGID_2_" gradientUnits="userSpaceOnUse" x1="-236.2379" y1="508.5816" x2="-176.8045" y2="508.5816" gradientTransform="matrix(0.7163 -0.6978 0.6978 0.7163 -169.787 -441.0404)">
			<stop  offset="0" style="stop-color:#FF6567"/>
			<stop  offset="1" style="stop-color:#FFA046"/>
		</linearGradient>
		<path style="fill:url(#SVGID_2_);" d="M18.2,89.1c-0.8,0-1.7-0.3-2.3-1c-1.2-1.3-1.2-3.3,0.1-4.5l38-37c1.3-1.2,3.3-1.2,4.5,0.1
			c1.2,1.3,1.2,3.3-0.1,4.5l-38,37C19.8,88.8,19,89.1,18.2,89.1z"/>
	</g>
</g>
</svg>
