<?xml version="1.0" encoding="utf-8"?>
<!-- Generator: Adobe Illustrator 23.0.1, SVG Export Plug-In . SVG Version: 6.00 Build 0)  -->
<svg version="1.1" id="Capa_1" xmlns="http://www.w3.org/2000/svg" xmlns:xlink="http://www.w3.org/1999/xlink" x="0px" y="0px"
	 viewBox="0 0 196 196" style="enable-background:new 0 0 196 196;" xml:space="preserve">
<style type="text/css">
	.st0{fill:#CCCCCC;}
</style>
<g>
	<path class="st0" d="M107.3,61.4c-3.9-2.6-8.2-3.9-13-3.9c-4.9,0-9.3,1.3-13.1,3.8c-3.8,2.5-6.8,6-8.9,10.4
		c-2.1,4.4-3.2,9.3-3.2,14.7c0,5.4,1.1,10.3,3.2,14.7c2.1,4.4,5.1,7.9,8.9,10.4c0.6,0.4,1.3,0.8,2,1.2c3.3,1.8,7,2.6,11.1,2.6
		c4.8,0,9.2-1.3,13-3.9c3.9-2.6,6.9-6.1,9.1-10.4c2.2-4.4,3.3-9.3,3.3-14.7c0-3.2-0.4-6.2-1.1-9c-0.5-2-1.2-3.9-2.1-5.7
		C114.2,67.5,111.2,64,107.3,61.4z"/>
	<path class="st0" d="M98,0C43.9,0,0,43.9,0,98s43.9,98,98,98s98-43.9,98-98S152.1,0,98,0z M138.6,145.8c-2.7,2.1-6,3.8-9.9,5.1
		c-3.9,1.3-7.4,1.9-10.4,1.9c-5.1,0-9.2-0.5-12.2-1.5c-3-1-6.1-2.4-9.1-4.2c-2-1.2-3.7-2.1-4.9-2.6c-1.3-0.5-2.8-0.8-4.6-0.8
		c-1,0-1.8,0.1-2.4,0.4c-0.6,0.2-1.5,0.6-2.5,1.1c-1,0.6-2,1-2.9,1.3c-0.9,0.3-2,0.4-3.4,0.4c-1.9,0-3.6-0.7-5-2.2
		c-1.4-1.5-2.1-3.2-2.1-5c0-3.1,1.4-5.2,4.2-6.3l11.9-4.5c-4.7-1-9-2.8-12.9-5.3c-1.3-0.9-2.6-1.8-3.8-2.8c-4.8-4.1-8.6-9.1-11.2-15
		c-2.7-6-4-12.4-4-19.3c0-8,1.8-15.3,5.2-21.9C62.1,58,67,52.7,73.2,48.9c6.2-3.9,13.3-5.8,21.1-5.8c7.8,0,14.8,1.9,21.1,5.8
		c6.2,3.9,11.1,9.1,14.7,15.7c0.2,0.3,0.3,0.6,0.5,0.9c3.2,6.4,4.9,13.4,4.9,21c0,6.9-1.3,13.4-4,19.3c-2.7,6-6.5,11-11.3,15
		c-4.9,4.1-10.4,6.8-16.7,8.1l-7.4,2.8c1.9,0.2,3.6,0.7,5.1,1.3c1.6,0.6,3.4,1.5,5.4,2.7c2.5,1.4,4.7,2.4,6.5,3c1.9,0.6,3.9,1,6.3,1
		c2,0,3.7-0.3,5.2-0.9c1.4-0.6,2.9-1.5,4.2-2.6c0.5-0.4,1.2-1,2.2-1.8c1-0.8,1.8-1.3,2.7-1.8c0.8-0.4,1.6-0.6,2.4-0.6
		c1.7,0,3.3,0.7,4.7,2.2c1.4,1.4,2.2,3.1,2.2,4.8C142.7,141.5,141.3,143.7,138.6,145.8z"/>
</g>
</svg>
