<?xml version="1.0" encoding="utf-8"?>
<!-- Generator: Adobe Illustrator 23.0.1, SVG Export Plug-In . SVG Version: 6.00 Build 0)  -->
<svg version="1.1" id="Capa_1" xmlns="http://www.w3.org/2000/svg" xmlns:xlink="http://www.w3.org/1999/xlink" x="0px" y="0px"
	 viewBox="0 0 368 178" style="enable-background:new 0 0 368 178;" xml:space="preserve">
<style type="text/css">
	.st0{fill:#CCCCCC;}
</style>
<g>
	<polygon class="st0" points="311.7,178 282.4,109.5 352.5,137.2 324.8,148.6 	"/>
	<g>
		<path class="st0" d="M345.3,99H22.7C10.2,99,0,88.8,0,76.3V22.7C0,10.2,10.2,0,22.7,0h322.5C357.8,0,368,10.2,368,22.7v53.5
			C368,88.8,357.8,99,345.3,99z M22.7,7C14.1,7,7,14.1,7,22.7v53.5C7,84.9,14.1,92,22.7,92h322.5c8.7,0,15.7-7.1,15.7-15.7V22.7
			c0-8.7-7.1-15.7-15.7-15.7H22.7z"/>
	</g>
	<g>
		<path class="st0" d="M132,49.5c-0.6-0.5-1.4-0.8-2.2-0.8c-2,0-3.2,1-3.6,2.9h6.9v-0.2C133,50.7,132.6,50.1,132,49.5z"/>
		<path class="st0" d="M232,48.7c-1.1,0-2,0.4-2.8,1.3c-0.7,0.8-1.1,1.9-1.1,3.1c0,1.3,0.4,2.3,1.1,3.1c0.7,0.8,1.6,1.2,2.8,1.2
			s2.1-0.4,2.8-1.2c0.7-0.8,1.1-1.9,1.1-3.1c0-1.3-0.4-2.3-1.1-3.1C234,49.2,233.1,48.7,232,48.7z"/>
		<path class="st0" d="M154,49.5c-0.6-0.5-1.4-0.8-2.2-0.8c-2,0-3.2,1-3.6,2.9h6.9v-0.2C155,50.7,154.6,50.1,154,49.5z"/>
		<path class="st0" d="M202.6,49.3c-0.6-0.4-1.3-0.5-2-0.5c-0.7,0-1.4,0.2-2,0.5c-0.6,0.4-1.1,0.9-1.4,1.6s-0.5,1.4-0.5,2.3
			c0,0.9,0.2,1.6,0.5,2.3s0.8,1.2,1.4,1.5c0.6,0.4,1.3,0.5,2,0.5c0.7,0,1.4-0.2,2-0.5c0.6-0.4,1.1-0.9,1.4-1.5
			c0.4-0.7,0.5-1.4,0.5-2.3c0-0.9-0.2-1.6-0.5-2.3C203.6,50.2,203.2,49.7,202.6,49.3z"/>
		<path class="st0" d="M348.6,3.5H86.5v92h262.1c9.3,0,16.9-7.6,16.9-16.9V20.4C365.5,11.1,357.9,3.5,348.6,3.5z M120.2,57.8
			c-0.6,0.8-1.4,1.5-2.5,1.9c-1,0.4-2.1,0.7-3.3,0.7c-1.3,0-2.4-0.2-3.4-0.5c-1-0.3-1.9-0.8-2.8-1.6c-0.5-0.4-0.7-0.9-0.7-1.4
			c0-0.4,0.1-0.8,0.4-1.1c0.3-0.3,0.7-0.5,1.1-0.5c0.3,0,0.6,0.1,0.9,0.3c0.7,0.6,1.4,1,2,1.3c0.7,0.3,1.4,0.4,2.4,0.4
			c1,0,1.8-0.2,2.5-0.7s1.1-1,1.1-1.6c0-0.8-0.3-1.4-1-1.8c-0.7-0.4-1.8-0.8-3.3-1c-3.8-0.6-5.7-2.3-5.7-5.3c0-1.1,0.3-2.1,0.9-2.9
			c0.6-0.8,1.4-1.4,2.4-1.9c1-0.4,2.1-0.6,3.3-0.6c1.1,0,2.1,0.2,3.1,0.5c1,0.3,1.8,0.8,2.4,1.3c0.5,0.4,0.8,0.9,0.8,1.4
			c0,0.4-0.1,0.8-0.4,1.1c-0.3,0.3-0.6,0.5-1,0.5c-0.3,0-0.5-0.1-0.7-0.2c-0.5-0.4-1.1-0.7-1.9-1c-0.8-0.3-1.5-0.5-2.2-0.5
			c-1.1,0-2,0.2-2.6,0.6s-0.9,0.9-0.9,1.6c0,0.8,0.3,1.3,0.9,1.7c0.6,0.4,1.6,0.7,2.9,0.9c1.5,0.3,2.7,0.6,3.6,1
			c0.9,0.4,1.6,1,2,1.7c0.5,0.7,0.7,1.6,0.7,2.8C121.1,56,120.8,57,120.2,57.8z M135.9,53.8c-0.3,0.3-0.7,0.4-1.1,0.4h-8.6
			c0.2,1,0.7,1.8,1.4,2.4c0.8,0.6,1.6,0.9,2.5,0.9c0.7,0,1.3-0.1,1.7-0.2s0.7-0.3,1-0.4c0.2-0.1,0.4-0.2,0.5-0.3
			c0.3-0.2,0.6-0.2,0.9-0.2c0.4,0,0.7,0.1,0.9,0.4c0.3,0.3,0.4,0.6,0.4,0.9c0,0.5-0.2,0.9-0.7,1.3c-0.5,0.4-1.1,0.7-2,1
			c-0.8,0.3-1.7,0.4-2.5,0.4c-1.5,0-2.7-0.3-3.8-0.9c-1.1-0.6-1.9-1.5-2.5-2.5c-0.6-1.1-0.9-2.3-0.9-3.6c0-1.5,0.3-2.8,0.9-4
			s1.5-2,2.5-2.6c1-0.6,2.1-0.9,3.3-0.9c1.2,0,2.2,0.3,3.3,0.9c1,0.6,1.8,1.5,2.5,2.5c0.6,1.1,0.9,2.2,0.9,3.5
			C136.4,53.2,136.2,53.6,135.9,53.8z M142.4,58.5c0,0.5-0.2,0.8-0.5,1.1c-0.3,0.3-0.7,0.5-1.1,0.5c-0.4,0-0.8-0.2-1.1-0.5
			c-0.3-0.3-0.4-0.7-0.4-1.1V42.3c0-0.5,0.2-0.8,0.5-1.1c0.3-0.3,0.7-0.5,1.1-0.5c0.4,0,0.8,0.2,1.1,0.5c0.3,0.3,0.4,0.7,0.4,1.1
			V58.5z M157.9,53.8c-0.3,0.3-0.7,0.4-1.1,0.4h-8.6c0.2,1,0.7,1.8,1.4,2.4c0.8,0.6,1.6,0.9,2.5,0.9c0.7,0,1.3-0.1,1.7-0.2
			s0.7-0.3,1-0.4c0.2-0.1,0.4-0.2,0.5-0.3c0.3-0.2,0.6-0.2,0.9-0.2c0.4,0,0.7,0.1,0.9,0.4c0.3,0.3,0.4,0.6,0.4,0.9
			c0,0.5-0.2,0.9-0.7,1.3c-0.5,0.4-1.1,0.7-2,1c-0.8,0.3-1.7,0.4-2.5,0.4c-1.5,0-2.7-0.3-3.8-0.9c-1.1-0.6-1.9-1.5-2.5-2.5
			c-0.6-1.1-0.9-2.3-0.9-3.6c0-1.5,0.3-2.8,0.9-4s1.5-2,2.5-2.6c1-0.6,2.1-0.9,3.3-0.9c1.2,0,2.2,0.3,3.3,0.9c1,0.6,1.8,1.5,2.5,2.5
			c0.6,1.1,0.9,2.2,0.9,3.5C158.4,53.2,158.2,53.6,157.9,53.8z M171.5,59.2c-0.5,0.4-1.1,0.7-1.9,0.9c-0.8,0.2-1.7,0.3-2.6,0.3
			c-1.3,0-2.5-0.3-3.6-0.9c-1-0.6-1.8-1.5-2.4-2.6s-0.8-2.3-0.8-3.7c0-1.4,0.3-2.7,0.9-3.8c0.6-1.1,1.4-2,2.4-2.6s2.2-0.9,3.6-0.9
			c1.5,0,2.7,0.2,3.6,0.7s1.4,1.1,1.4,1.8c0,0.4-0.1,0.7-0.3,1c-0.2,0.3-0.5,0.4-0.9,0.4c-0.3,0-0.5,0-0.7-0.1
			c-0.2-0.1-0.3-0.2-0.5-0.3c-0.2-0.1-0.3-0.2-0.5-0.3c-0.2-0.1-0.4-0.2-0.8-0.2c-0.3-0.1-0.6-0.1-0.8-0.1c-1.3,0-2.3,0.4-3.1,1.2
			c-0.7,0.8-1.1,1.9-1.1,3.2c0,1.3,0.4,2.3,1.1,3.1c0.8,0.8,1.7,1.2,2.9,1.2c0.9,0,1.5-0.1,1.9-0.3c0.1-0.1,0.2-0.1,0.4-0.3
			c0.2-0.1,0.4-0.2,0.5-0.3s0.3-0.1,0.6-0.1c0.4,0,0.8,0.1,1,0.4c0.3,0.3,0.4,0.6,0.4,1.1C172.3,58.4,172,58.8,171.5,59.2z
			 M185,59.2c-0.5,0.4-1.1,0.7-1.9,0.9c-0.8,0.2-1.7,0.3-2.6,0.3c-1.3,0-2.5-0.3-3.6-0.9c-1-0.6-1.8-1.5-2.4-2.6s-0.8-2.3-0.8-3.7
			c0-1.4,0.3-2.7,0.9-3.8c0.6-1.1,1.4-2,2.4-2.6s2.2-0.9,3.6-0.9c1.5,0,2.7,0.2,3.6,0.7s1.4,1.1,1.4,1.8c0,0.4-0.1,0.7-0.3,1
			c-0.2,0.3-0.5,0.4-0.9,0.4c-0.3,0-0.5,0-0.7-0.1c-0.2-0.1-0.3-0.2-0.5-0.3c-0.2-0.1-0.3-0.2-0.5-0.3c-0.2-0.1-0.4-0.2-0.8-0.2
			c-0.3-0.1-0.6-0.1-0.8-0.1c-1.3,0-2.3,0.4-3.1,1.2c-0.7,0.8-1.1,1.9-1.1,3.2c0,1.3,0.4,2.3,1.1,3.1c0.8,0.8,1.7,1.2,2.9,1.2
			c0.9,0,1.5-0.1,1.9-0.3c0.1-0.1,0.2-0.1,0.4-0.3c0.2-0.1,0.4-0.2,0.5-0.3s0.3-0.1,0.6-0.1c0.4,0,0.8,0.1,1,0.4
			c0.3,0.3,0.4,0.6,0.4,1.1C185.8,58.4,185.5,58.8,185,59.2z M191,58.5c0,0.5-0.1,0.8-0.4,1.1c-0.3,0.3-0.7,0.5-1.1,0.5
			c-0.5,0-0.8-0.2-1.1-0.5c-0.3-0.3-0.4-0.7-0.4-1.1V47.7c0-0.5,0.1-0.8,0.4-1.1c0.3-0.3,0.7-0.5,1.1-0.5c0.5,0,0.8,0.2,1.1,0.5
			c0.3,0.3,0.4,0.7,0.4,1.1V58.5z M191.1,43.1c0,0.5-0.1,0.9-0.4,1s-0.7,0.3-1.3,0.3c-0.6,0-1-0.1-1.3-0.3c-0.2-0.2-0.4-0.5-0.4-1
			v-0.5c0-0.5,0.1-0.8,0.4-1c0.3-0.2,0.7-0.3,1.3-0.3c0.6,0,1,0.1,1.3,0.3c0.2,0.2,0.4,0.5,0.4,1V43.1z M206.7,56.9
			c-0.6,1.1-1.5,2-2.6,2.6c-1.1,0.6-2.3,0.9-3.6,0.9c-1.3,0-2.5-0.3-3.6-0.9c-1.1-0.6-1.9-1.5-2.6-2.6c-0.6-1.1-0.9-2.4-0.9-3.8
			c0-1.4,0.3-2.7,0.9-3.8c0.6-1.1,1.5-2,2.6-2.6c1.1-0.6,2.3-0.9,3.6-0.9c1.3,0,2.5,0.3,3.6,0.9c1.1,0.6,2,1.5,2.6,2.6
			c0.6,1.1,0.9,2.4,0.9,3.8C207.7,54.5,207.4,55.8,206.7,56.9z M222.5,58.5c0,0.5-0.1,0.8-0.4,1.1c-0.3,0.3-0.7,0.5-1.1,0.5
			c-0.5,0-0.8-0.2-1.1-0.5c-0.3-0.3-0.4-0.7-0.4-1.1v-6.7c0-1-0.2-1.7-0.6-2.3c-0.4-0.5-1.1-0.8-2.1-0.8c-1,0-1.8,0.3-2.4,0.9
			c-0.6,0.6-0.9,1.3-0.9,2.2v6.7c0,0.5-0.1,0.8-0.4,1.1c-0.3,0.3-0.7,0.5-1.1,0.5c-0.5,0-0.8-0.2-1.1-0.5c-0.3-0.3-0.4-0.7-0.4-1.1
			V47.7c0-0.5,0.1-0.8,0.4-1.1c0.3-0.3,0.7-0.5,1.1-0.5c0.5,0,0.8,0.2,1.1,0.5c0.3,0.3,0.4,0.7,0.4,1.1v0.4c0.5-0.6,1.1-1.2,1.8-1.6
			c0.8-0.5,1.6-0.7,2.5-0.7c1.8,0,3,0.5,3.7,1.6s1,2.5,1,4.4V58.5z M238.8,58.5c0,0.5-0.1,0.8-0.4,1.1c-0.3,0.3-0.7,0.5-1.1,0.5
			c-0.5,0-0.8-0.1-1.1-0.4s-0.4-0.7-0.5-1.1c-0.4,0.5-1,0.9-1.8,1.3c-0.7,0.4-1.5,0.5-2.3,0.5c-1.2,0-2.3-0.3-3.3-0.9
			c-1-0.6-1.8-1.5-2.3-2.6c-0.6-1.1-0.9-2.3-0.9-3.7c0-1.4,0.3-2.7,0.8-3.8c0.6-1.1,1.3-2,2.3-2.6c1-0.6,2-0.9,3.2-0.9
			c0.8,0,1.6,0.2,2.4,0.5c0.7,0.3,1.4,0.7,1.9,1.2v0c0-0.5,0.1-0.8,0.4-1.1s0.7-0.5,1.1-0.5c0.5,0,0.8,0.1,1.1,0.4
			c0.3,0.3,0.4,0.7,0.4,1.2V58.5z M251,48.6c-0.3,0.3-0.6,0.4-1,0.4c-0.3,0-0.6-0.1-0.9-0.2c-0.1,0-0.2-0.1-0.4-0.1
			c-0.2-0.1-0.4-0.1-0.6-0.1c-0.5,0-0.9,0.1-1.3,0.4c-0.4,0.3-0.8,0.7-1,1.3c-0.3,0.6-0.4,1.2-0.4,2v6.2c0,0.5-0.1,0.8-0.4,1.1
			c-0.3,0.3-0.7,0.5-1.1,0.5c-0.5,0-0.8-0.2-1.1-0.5c-0.3-0.3-0.4-0.7-0.4-1.1V47.7c0-0.5,0.1-0.8,0.4-1.1c0.3-0.3,0.7-0.5,1.1-0.5
			c0.5,0,0.8,0.2,1.1,0.5c0.3,0.3,0.4,0.7,0.4,1.1v0.3c0.4-0.7,1-1.3,1.7-1.6c0.8-0.4,1.6-0.6,2.4-0.6c0.5,0,1,0.1,1.3,0.4
			s0.5,0.6,0.5,1C251.4,47.9,251.3,48.3,251,48.6z M275.3,59.8c-0.3,0.3-0.6,0.4-1,0.4c-0.3,0-0.6-0.1-0.9-0.3
			c-0.3-0.2-0.4-0.5-0.6-0.8l-1.4-3.2h-7.8l-1.4,3.2c-0.1,0.3-0.3,0.6-0.6,0.8c-0.3,0.2-0.5,0.3-0.8,0.3c-0.5,0-0.8-0.1-1-0.4
			c-0.2-0.2-0.4-0.6-0.4-1c0-0.2,0-0.3,0.1-0.5l6.5-15.7c0.1-0.3,0.3-0.6,0.6-0.8c0.3-0.2,0.6-0.3,0.9-0.2c0.3,0,0.6,0.1,0.9,0.3
			c0.3,0.2,0.5,0.4,0.6,0.8l6.4,15.4c0.1,0.2,0.1,0.4,0.1,0.6C275.7,59.2,275.6,59.5,275.3,59.8z M286.4,48.6
			c-0.3,0.3-0.6,0.4-1,0.4c-0.3,0-0.6-0.1-0.9-0.2c-0.1,0-0.2-0.1-0.4-0.1c-0.2-0.1-0.4-0.1-0.6-0.1c-0.5,0-0.9,0.1-1.3,0.4
			c-0.4,0.3-0.8,0.7-1,1.3c-0.3,0.6-0.4,1.2-0.4,2v6.2c0,0.5-0.1,0.8-0.4,1.1c-0.3,0.3-0.7,0.5-1.1,0.5c-0.5,0-0.8-0.2-1.1-0.5
			c-0.3-0.3-0.4-0.7-0.4-1.1V47.7c0-0.5,0.1-0.8,0.4-1.1c0.3-0.3,0.7-0.5,1.1-0.5c0.5,0,0.8,0.2,1.1,0.5c0.3,0.3,0.4,0.7,0.4,1.1
			v0.3c0.4-0.7,1-1.3,1.7-1.6c0.8-0.4,1.6-0.6,2.4-0.6c0.5,0,1,0.1,1.3,0.4s0.5,0.6,0.5,1C286.8,47.9,286.7,48.3,286.4,48.6z
			 M299,59.2c-0.5,0.4-1.1,0.7-1.9,0.9c-0.8,0.2-1.7,0.3-2.6,0.3c-1.3,0-2.5-0.3-3.6-0.9c-1-0.6-1.8-1.5-2.4-2.6s-0.8-2.3-0.8-3.7
			c0-1.4,0.3-2.7,0.9-3.8c0.6-1.1,1.4-2,2.4-2.6s2.2-0.9,3.6-0.9c1.5,0,2.7,0.2,3.6,0.7s1.4,1.1,1.4,1.8c0,0.4-0.1,0.7-0.3,1
			c-0.2,0.3-0.5,0.4-0.9,0.4c-0.3,0-0.5,0-0.7-0.1c-0.2-0.1-0.3-0.2-0.5-0.3c-0.2-0.1-0.3-0.2-0.5-0.3c-0.2-0.1-0.4-0.2-0.8-0.2
			c-0.3-0.1-0.6-0.1-0.8-0.1c-1.3,0-2.3,0.4-3.1,1.2c-0.7,0.8-1.1,1.9-1.1,3.2c0,1.3,0.4,2.3,1.1,3.1c0.8,0.8,1.7,1.2,2.9,1.2
			c0.9,0,1.5-0.1,1.9-0.3c0.1-0.1,0.2-0.1,0.4-0.3c0.2-0.1,0.4-0.2,0.5-0.3s0.3-0.1,0.6-0.1c0.4,0,0.8,0.1,1,0.4
			c0.3,0.3,0.4,0.6,0.4,1.1C299.7,58.4,299.5,58.8,299,59.2z M313.9,58.5c0,0.5-0.1,0.8-0.4,1.1c-0.3,0.3-0.7,0.5-1.1,0.5
			s-0.8-0.2-1.1-0.5c-0.3-0.3-0.4-0.7-0.4-1.1v-6.7c0-1-0.2-1.7-0.6-2.3c-0.4-0.5-1-0.8-2-0.8c-1,0-1.7,0.3-2.3,0.9
			c-0.5,0.6-0.8,1.3-0.8,2.2v6.7c0,0.5-0.1,0.8-0.4,1.1c-0.3,0.3-0.7,0.5-1.1,0.5c-0.5,0-0.8-0.2-1.1-0.5c-0.3-0.3-0.4-0.7-0.4-1.1
			V42.3c0-0.5,0.1-0.8,0.4-1.1c0.3-0.3,0.7-0.5,1.1-0.5c0.5,0,0.8,0.2,1.1,0.5c0.3,0.3,0.4,0.7,0.4,1.1v5.8c0.5-0.6,1.1-1.2,1.8-1.6
			c0.7-0.4,1.5-0.7,2.4-0.7c1.7,0,2.9,0.5,3.6,1.6c0.7,1.1,1,2.5,1,4.4V58.5z M320.3,58.5c0,0.5-0.1,0.8-0.4,1.1
			c-0.3,0.3-0.7,0.5-1.1,0.5c-0.5,0-0.8-0.2-1.1-0.5c-0.3-0.3-0.4-0.7-0.4-1.1V47.7c0-0.5,0.1-0.8,0.4-1.1c0.3-0.3,0.7-0.5,1.1-0.5
			c0.5,0,0.8,0.2,1.1,0.5c0.3,0.3,0.4,0.7,0.4,1.1V58.5z M320.4,43.1c0,0.5-0.1,0.9-0.4,1s-0.7,0.3-1.3,0.3c-0.6,0-1-0.1-1.3-0.3
			c-0.2-0.2-0.4-0.5-0.4-1v-0.5c0-0.5,0.1-0.8,0.4-1c0.3-0.2,0.7-0.3,1.3-0.3c0.6,0,1,0.1,1.3,0.3c0.2,0.2,0.4,0.5,0.4,1V43.1z
			 M335.5,48.3l-4.9,10.8c-0.1,0.3-0.3,0.5-0.5,0.7s-0.5,0.3-0.8,0.3l-0.2,0c-0.3,0-0.6-0.1-0.8-0.3c-0.3-0.2-0.5-0.4-0.6-0.7
			l-4.9-10.8c-0.1-0.3-0.2-0.6-0.2-0.8c0-0.3,0.1-0.7,0.4-1c0.3-0.3,0.7-0.4,1.1-0.4c0.3,0,0.6,0.1,0.9,0.3c0.3,0.2,0.5,0.4,0.6,0.7
			l3.6,8.3l3.6-8.3c0.1-0.3,0.3-0.6,0.6-0.8c0.2-0.2,0.5-0.3,0.8-0.2c0.4,0,0.8,0.1,1,0.4c0.3,0.3,0.4,0.6,0.4,1
			C335.8,47.8,335.7,48,335.5,48.3z M350.6,56.9c-0.6,1.1-1.5,2-2.6,2.6c-1.1,0.6-2.3,0.9-3.6,0.9c-1.3,0-2.5-0.3-3.6-0.9
			c-1.1-0.6-1.9-1.5-2.6-2.6c-0.6-1.1-0.9-2.4-0.9-3.8c0-1.4,0.3-2.7,0.9-3.8c0.6-1.1,1.5-2,2.6-2.6c1.1-0.6,2.3-0.9,3.6-0.9
			c1.3,0,2.5,0.3,3.6,0.9c1.1,0.6,2,1.5,2.6,2.6c0.6,1.1,0.9,2.4,0.9,3.8C351.6,54.5,351.3,55.8,350.6,56.9z"/>
		<polygon class="st0" points="264.9,53 270.2,53 267.5,46.9 		"/>
		<path class="st0" d="M346.5,49.3c-0.6-0.4-1.3-0.5-2-0.5c-0.7,0-1.4,0.2-2,0.5c-0.6,0.4-1.1,0.9-1.4,1.6s-0.5,1.4-0.5,2.3
			c0,0.9,0.2,1.6,0.5,2.3s0.8,1.2,1.4,1.5c0.6,0.4,1.3,0.5,2,0.5c0.7,0,1.4-0.2,2-0.5c0.6-0.4,1.1-0.9,1.4-1.5
			c0.4-0.7,0.5-1.4,0.5-2.3c0-0.9-0.2-1.6-0.5-2.3C347.5,50.2,347.1,49.7,346.5,49.3z"/>
	</g>
</g>
</svg>
