<?xml version="1.0" encoding="utf-8"?>
<!-- Generator: Adobe Illustrator 23.0.6, SVG Export Plug-In . SVG Version: 6.00 Build 0)  -->
<svg version="1.1" id="Capa_1" xmlns="http://www.w3.org/2000/svg" xmlns:xlink="http://www.w3.org/1999/xlink" x="0px" y="0px"
	 viewBox="0 0 124.1 177.9" style="enable-background:new 0 0 124.1 177.9;" xml:space="preserve">
<style type="text/css">
	.st0{fill:url(#SVGID_1_);}
	.st1{opacity:0.35;fill:url(#SVGID_2_);}
	.st2{opacity:0.35;fill:url(#SVGID_3_);}
	.st3{fill:url(#SVGID_4_);}
	.st4{fill:url(#SVGID_5_);}
	.st5{fill:url(#SVGID_6_);}
	.st6{fill:url(#SVGID_7_);}
	.st7{fill:url(#SVGID_8_);}
	.st8{fill:url(#SVGID_9_);}
	.st9{opacity:0.35;fill:url(#SVGID_10_);}
	.st10{fill:url(#SVGID_11_);}
	.st11{fill:url(#SVGID_12_);}
	.st12{fill:url(#SVGID_13_);}
	.st13{opacity:0.35;}
	.st14{fill:url(#SVGID_14_);}
	.st15{opacity:0.2;}
	.st16{fill:#FFFFFF;}
	.st17{fill:url(#SVGID_15_);}
	.st18{fill:url(#SVGID_16_);}
	.st19{fill:url(#SVGID_17_);}
	.st20{fill:url(#SVGID_18_);}
	.st21{fill:url(#SVGID_19_);}
	.st22{opacity:0.35;fill:url(#SVGID_20_);}
	.st23{fill:url(#SVGID_21_);}
	.st24{fill:url(#SVGID_22_);}
</style>
<g>
	<g>
		<linearGradient id="SVGID_1_" gradientUnits="userSpaceOnUse" x1="62.0513" y1="177.8806" x2="62.0513" y2="95.1454">
			<stop  offset="0" style="stop-color:#7063F1"/>
			<stop  offset="1" style="stop-color:#3A79F3"/>
		</linearGradient>
		<path class="st0" d="M124,168.2l-7.9-40.7c0-17.9-17.2-32.4-38.4-32.4H46.5c-21.2,0-38.4,14.5-38.4,32.4l-7.9,40.7
			c-1,5.1,3.6,9.7,9.7,9.7h104.4C120.3,177.9,125,173.3,124,168.2z M62.1,112.8l-6.7-9.4h13.4L62.1,112.8z M8.4,169.2l7.8-40.1
			c0.1-0.6,0.1-1.2,0.2-1.7c0.1-12.9,12.9-23.4,28.9-23.9l9.4,13.2c2.1,3,3.3,6.6,3.3,10.3v42.7h-48C9.1,169.6,8.6,169.4,8.4,169.2z
			 M114.2,169.6h-48v-42.7c0-3.6,1.1-7.2,3.2-10.2l0,0c9.3-13.1,29.9-12,36.5,2.6c1.2,2.6,1.8,5.3,1.8,8.2c0,0.5,0.1,1.1,0.2,1.6
			l7.8,40.1C115.5,169.4,115,169.6,114.2,169.6z"/>
		<linearGradient id="SVGID_2_" gradientUnits="userSpaceOnUse" x1="62.0513" y1="173.7438" x2="62.0513" y2="124.1027">
			<stop  offset="0" style="stop-color:#7063F1"/>
			<stop  offset="1" style="stop-color:#3A79F3"/>
		</linearGradient>
		<polygon class="st1" points="4.1,161.3 111.7,124.1 120,173.7 8.3,173.7 		"/>
	</g>
	<g>
		<linearGradient id="SVGID_3_" gradientUnits="userSpaceOnUse" x1="67.3278" y1="83.7055" x2="67.3278" y2="24.8205">
			<stop  offset="0" style="stop-color:#7063F1"/>
			<stop  offset="1" style="stop-color:#3A79F3"/>
		</linearGradient>
		<path class="st2" d="M31,66.2c0,0,49.6-16.5,70.3-41.4c0,0,12.4,37.2-20.7,53.8S31,66.2,31,66.2z"/>
		<g>
			<linearGradient id="SVGID_4_" gradientUnits="userSpaceOnUse" x1="62.0513" y1="86.8719" x2="62.0513" y2="0">
				<stop  offset="0" style="stop-color:#7063F1"/>
				<stop  offset="1" style="stop-color:#3A79F3"/>
			</linearGradient>
			<path class="st3" d="M62.1,86.9c-23.9,0-43.4-19.5-43.4-43.4S38.1,0,62.1,0s43.4,19.5,43.4,43.4S86,86.9,62.1,86.9z M62.1,8.3
				C42.7,8.3,26.9,24,26.9,43.4s15.8,35.2,35.2,35.2s35.2-15.8,35.2-35.2S81.4,8.3,62.1,8.3z"/>
		</g>
	</g>
</g>
</svg>
