<?xml version="1.0" encoding="utf-8"?>
<!-- Generator: Adobe Illustrator 23.0.1, SVG Export Plug-In . SVG Version: 6.00 Build 0)  -->
<svg version="1.1" id="Capa_1" xmlns="http://www.w3.org/2000/svg" xmlns:xlink="http://www.w3.org/1999/xlink" x="0px" y="0px"
	 viewBox="0 0 138.5 156.1" style="enable-background:new 0 0 138.5 156.1;" xml:space="preserve">
<style type="text/css">
	.st0{fill:#FFFFFF;}
</style>
<g>
	<path class="st0" d="M133.7,69.9L106.6,54l0,0c0,0.1,0,0.1,0,0.2c-1.2,1.1-2.3,2.2-3.4,3.3L83.8,77.3l23.9,24.3l26-15.1
		C140.1,82.8,140.1,73.6,133.7,69.9z"/>
	<path class="st0" d="M30.6,35.3L4.2,8.4L3.8,8C1.5,9.7,0,12.4,0,15.6v124.9c0,2.9,1.2,5.4,3.1,7.1l68.7-70.3L30.6,35.3z"/>
	<path class="st0" d="M9.1,153.5c2.9,2.7,7.4,3.5,11.3,1.2l81.2-47.2L77.8,83.3L9.1,153.5z"/>
	<path class="st0" d="M100.6,48L61.2,25.1L20.4,1.3c-2.5-1.4-5.2-1.6-7.6-0.9c-0.3,0.1-0.6,0.2-0.8,0.3c-0.1,0-0.1,0-0.2,0.1
		c-0.1,0.1-0.3,0.1-0.4,0.2c-0.6,0.3-1.1,0.6-1.6,1l0.4,0.4l26.4,26.9l41.2,42l19.3-19.7c1.1-1.1,2.3-2.2,3.4-3.3
		C100.5,48.2,100.5,48.1,100.6,48L100.6,48L100.6,48z"/>
</g>
</svg>
