<?xml version="1.0" encoding="utf-8"?>
<!-- Generator: Adobe Illustrator 23.0.1, SVG Export Plug-In . SVG Version: 6.00 Build 0)  -->
<svg version="1.1" id="Capa_1" xmlns="http://www.w3.org/2000/svg" xmlns:xlink="http://www.w3.org/1999/xlink" x="0px" y="0px"
	 viewBox="0 0 26 26" style="enable-background:new 0 0 26 26;" xml:space="preserve">
<style type="text/css">
	.st0{fill:#3A79F3;}
	.st1{fill:#FFFFFF;}
</style>
<circle class="st0" cx="13" cy="13" r="13"/>
<g>
	<path class="st1" d="M11.7,13c0.2-0.2,0.5-0.4,0.9-0.4c0.9,0,1.6-0.2,2.2-0.6s0.8-1.1,0.8-2c0-0.7-0.2-1.2-0.7-1.7
		c-0.5-0.5-1.1-0.7-1.8-0.7c-0.8,0-1.4,0.3-2,0.8c-0.3,0.3-0.7,0.5-1,0.5c-0.3,0-0.5-0.1-0.7-0.2C9,8.4,8.8,8.1,8.8,7.7
		c0-0.3,0.1-0.6,0.4-0.9c0.5-0.5,1.1-0.9,1.7-1.2c0.7-0.3,1.4-0.4,2.1-0.4c0.9,0,1.8,0.2,2.5,0.6c0.8,0.4,1.4,1,1.8,1.8
		c0.5,0.7,0.7,1.6,0.7,2.4c0,1.3-0.4,2.3-1.1,3.1c-0.8,0.8-1.7,1.2-3,1.4c-0.1,0-0.1,0.1-0.1,0.1v0.8c0,0.4-0.1,0.7-0.3,0.9
		s-0.5,0.4-0.9,0.4c-0.4,0-0.6-0.1-0.9-0.4c-0.2-0.2-0.3-0.5-0.3-0.9v-1.6C11.4,13.6,11.5,13.3,11.7,13z M11.6,20.1
		c-0.2-0.2-0.3-0.5-0.3-0.9v-0.3c0-0.4,0.1-0.7,0.3-0.9c0.2-0.2,0.5-0.3,0.9-0.3h0.3c0.4,0,0.7,0.1,0.9,0.3c0.2,0.2,0.3,0.5,0.3,0.9
		v0.3c0,0.4-0.1,0.7-0.3,0.9c-0.2,0.2-0.5,0.3-0.9,0.3h-0.3C12.1,20.4,11.8,20.3,11.6,20.1z"/>
</g>
</svg>
