<?xml version="1.0" encoding="utf-8"?>
<!-- Generator: Adobe Illustrator 23.0.6, SVG Export Plug-In . SVG Version: 6.00 Build 0)  -->
<svg version="1.1" id="Capa_1" xmlns="http://www.w3.org/2000/svg" xmlns:xlink="http://www.w3.org/1999/xlink" x="0px" y="0px"
	 viewBox="0 0 98 188.9" style="enable-background:new 0 0 98 188.9;" xml:space="preserve">
<style type="text/css">
	.st0{fill:url(#SVGID_1_);}
	.st1{opacity:0.35;fill:url(#SVGID_2_);}
	.st2{opacity:0.35;fill:url(#SVGID_3_);}
	.st3{fill:url(#SVGID_4_);}
	.st4{fill:url(#SVGID_5_);}
	.st5{fill:url(#SVGID_6_);}
	.st6{fill:url(#SVGID_7_);}
	.st7{fill:url(#SVGID_8_);}
	.st8{fill:url(#SVGID_9_);}
	.st9{opacity:0.35;fill:url(#SVGID_10_);}
	.st10{fill:url(#SVGID_11_);}
	.st11{fill:url(#SVGID_12_);}
	.st12{fill:url(#SVGID_13_);}
	.st13{opacity:0.35;}
	.st14{fill:url(#SVGID_14_);}
	.st15{opacity:0.2;}
	.st16{fill:#FFFFFF;}
	.st17{fill:url(#SVGID_15_);}
	.st18{fill:url(#SVGID_16_);}
	.st19{fill:url(#SVGID_17_);}
	.st20{fill:url(#SVGID_18_);}
	.st21{fill:url(#SVGID_19_);}
	.st22{opacity:0.35;fill:url(#SVGID_20_);}
	.st23{fill:url(#SVGID_21_);}
	.st24{fill:url(#SVGID_22_);}
</style>
<g>
	<linearGradient id="SVGID_1_" gradientUnits="userSpaceOnUse" x1="49" y1="188.8572" x2="49" y2="0">
		<stop  offset="0" style="stop-color:#FF6567"/>
		<stop  offset="1" style="stop-color:#FFA046"/>
	</linearGradient>
	<path class="st0" d="M69.3,129.5c0-2.8-0.4-5.2-1.1-7.4c-0.7-2.1-1.9-4-3.6-5.8c-1.7-1.7-3.8-3.3-6.4-4.8c-2.6-1.5-5.8-2.9-9.6-4.3
		c-6.5-2.5-12.4-5-17.7-7.7c-5.3-2.7-9.8-5.8-13.6-9.3S10.7,82.7,8.6,78c-2.1-4.7-3.1-10.3-3.1-16.8c0-5.6,0.9-10.8,2.8-15.4
		c1.9-4.6,4.5-8.7,7.9-12.1c3.4-3.4,7.6-6.2,12.4-8.4c4.8-2.2,10.2-3.5,16.1-4.1V0h15.9v21.5c5.7,0.8,10.9,2.4,15.5,4.9
		c4.6,2.4,8.6,5.6,11.8,9.5c3.2,3.9,5.7,8.5,7.5,13.9c1.8,5.3,2.6,11.3,2.6,17.9H69.3c0-7.9-1.6-13.9-4.9-17.8
		C61.1,46,56.7,44,51.2,44c-3,0-5.5,0.5-7.7,1.3c-2.1,0.9-3.9,2.1-5.3,3.7c-1.4,1.6-2.4,3.4-3.1,5.5c-0.7,2.1-1,4.4-1,6.9
		c0,2.4,0.3,4.7,1,6.7c0.7,2,1.8,3.8,3.4,5.5c1.6,1.7,3.8,3.3,6.5,4.8c2.7,1.5,6,3,10,4.6c6.4,2.6,12.3,5.2,17.5,7.9
		c5.3,2.7,9.8,5.8,13.5,9.4c3.8,3.5,6.7,7.7,8.8,12.4c2.1,4.7,3.1,10.3,3.1,16.7c0,5.8-0.9,11.1-2.8,15.7c-1.9,4.6-4.6,8.6-8,12
		c-3.4,3.4-7.6,6.1-12.5,8.1c-4.9,2.1-10.3,3.4-16.2,4v19.8H42.7v-19.7c-5.5-0.6-10.8-1.9-15.9-3.9c-5.1-2-9.7-4.8-13.7-8.6
		c-4-3.7-7.1-8.5-9.5-14.2C1.2,136.9,0,130.1,0,122.1h28.7c0,4.7,0.6,8.6,1.8,11.8c1.2,3.1,2.9,5.7,4.9,7.5c2,1.9,4.4,3.2,7,4
		s5.3,1.1,8,1.1c3.1,0,5.8-0.4,8.2-1.3s4.3-2.1,5.9-3.6c1.6-1.5,2.8-3.3,3.6-5.4C68.9,134.2,69.3,131.9,69.3,129.5z"/>
</g>
</svg>
