<?xml version="1.0" encoding="utf-8"?>
<!-- Generator: Adobe Illustrator 23.0.1, SVG Export Plug-In . SVG Version: 6.00 Build 0)  -->
<svg version="1.1" id="Capa_1" xmlns="http://www.w3.org/2000/svg" xmlns:xlink="http://www.w3.org/1999/xlink" x="0px" y="0px"
	 viewBox="0 0 9 9" style="enable-background:new 0 0 9 9;" xml:space="preserve">
<style type="text/css">
	.st0{fill:#FFFFFF;}
</style>
<g>
	<g>
		<path class="st0" d="M8.5,9C8.4,9,8.2,9,8.1,8.9l-8-8C0,0.7,0,0.3,0.1,0.1s0.5-0.2,0.7,0l8,8C9,8.3,9,8.7,8.9,8.9
			C8.8,9,8.6,9,8.5,9z"/>
	</g>
</g>
<g>
	<g>
		<path class="st0" d="M0.5,9C0.4,9,0.2,9,0.1,8.9C0,8.7,0,8.3,0.1,8.1l8-8C8.3,0,8.7,0,8.9,0.1s0.2,0.5,0,0.7l-8,8
			C0.8,9,0.6,9,0.5,9z"/>
	</g>
</g>
</svg>
