<?xml version="1.0" encoding="utf-8"?>
<!-- Generator: Adobe Illustrator 23.0.1, SVG Export Plug-In . SVG Version: 6.00 Build 0)  -->
<svg version="1.1" id="Capa_1" xmlns="http://www.w3.org/2000/svg" xmlns:xlink="http://www.w3.org/1999/xlink" x="0px" y="0px"
	 viewBox="0 0 16 28" style="enable-background:new 0 0 16 28;" xml:space="preserve">
<style type="text/css">
	.st0{fill:#464646;}
</style>
<g>
	<g>
		<path class="st0" d="M13.1,28H2.9C1.3,28,0,26.7,0,25.1V2.9C0,1.3,1.3,0,2.9,0h10.2C14.7,0,16,1.3,16,2.9v22.2
			C16,26.7,14.7,28,13.1,28z M2.9,2C2.4,2,2,2.4,2,2.9v22.2C2,25.6,2.4,26,2.9,26h10.2c0.5,0,0.9-0.4,0.9-0.9V2.9
			C14,2.4,13.6,2,13.1,2H2.9z"/>
	</g>
	<g>
		<path class="st0" d="M10,4H6C5.4,4,5,3.6,5,3V2c0-0.5,0.4-1,1-1H10c0.5,0,1,0.4,1,1V3C11,3.6,10.6,4,10,4z"/>
	</g>
	<g>
		<path class="st0" d="M12,25H4c-0.3,0-0.5-0.2-0.5-0.5S3.7,24,4,24h8c0.3,0,0.5,0.2,0.5,0.5S12.3,25,12,25z"/>
	</g>
</g>
</svg>
