<?xml version="1.0" encoding="utf-8"?>
<!-- Generator: Adobe Illustrator 23.0.1, SVG Export Plug-In . SVG Version: 6.00 Build 0)  -->
<svg version="1.1"
	 id="svg2" xmlns:cc="http://creativecommons.org/ns#" xmlns:dc="http://purl.org/dc/elements/1.1/" xmlns:inkscape="http://www.inkscape.org/namespaces/inkscape" xmlns:rdf="http://www.w3.org/1999/02/22-rdf-syntax-ns#" xmlns:sodipodi="http://sodipodi.sourceforge.net/DTD/sodipodi-0.dtd" xmlns:svg="http://www.w3.org/2000/svg"
	 xmlns="http://www.w3.org/2000/svg" xmlns:xlink="http://www.w3.org/1999/xlink" x="0px" y="0px" viewBox="0 0 599.9 180.6"
	 style="enable-background:new 0 0 599.9 180.6;" xml:space="preserve">
<style type="text/css">
	.st0{fill:#24297B;}
	.st1{fill:#E59615;}
</style>
<sodipodi:namedview  bordercolor="#666666" borderopacity="1" fit-margin-bottom="0" fit-margin-left="0" fit-margin-right="0" fit-margin-top="0" gridtolerance="10" guidetolerance="10" id="namedview38" inkscape:current-layer="svg2" inkscape:cx="349.38886" inkscape:cy="526.13836" inkscape:pageopacity="0" inkscape:pageshadow="2" inkscape:window-height="705" inkscape:window-maximized="1" inkscape:window-width="1366" inkscape:window-x="-8" inkscape:window-y="-8" inkscape:zoom="0.22425739" objecttolerance="10" pagecolor="#ffffff" showgrid="false">
	</sodipodi:namedview>
<g id="Layer_x0020_1" transform="translate(-6.3947,-233.2677)">
	<polygon id="polygon10" class="st0" points="42.5,346.7 92.3,253.5 118.3,253.5 51.4,373.3 22.8,373.3 7,253.5 31,253.5 
		42.2,346.7 	"/>
	<polygon id="polygon12" class="st0" points="103.6,373.3 122.5,284.9 145.4,284.9 126.6,373.3 	"/>
	<path id="path14" inkscape:connector-curvature="0" class="st0" d="M218.5,306.2c-6.3-3.3-10.5-6.2-18.1-6.9
		c-7.7-0.8-20.8,2.6-20.8,9.6c0,11.2,35.9,13.1,35.9,34.8c0,23-21.5,31.7-41.2,31.7c-9.3,0-18.4-3-26.8-6.9l5.3-17.9
		c6.1,4.6,12.5,8.1,21.4,8.1c7.7,0,19.8-4.7,19.8-11.9c0-14.2-35.1-13-35.1-35.1c0-20.8,21.3-28.7,39.5-28.7
		c8.4,0,16.6,3.3,24.6,5.4L218.5,306.2L218.5,306.2z"/>
	<path id="path16" inkscape:connector-curvature="0" class="st0" d="M259.5,360.3c17.2,0,26.5-13,25.9-27.7l-6.4-0.2
		c-12,0.2-31.2,4.9-31.2,19.8C247.9,358.4,253.7,360.3,259.5,360.3z M283.6,359.7h-0.3c-7.9,10-15.6,15.4-28.7,16.4
		c-15.5,1.2-29.9-5.6-26.7-20.7c6.6-30.9,33.5-35.3,53.9-36.7h8.1c0.7-2.4,0.7-5,0.7-7.5c0-8.9-9.6-11.5-17.7-11.5
		c-10.1,0-16.8,1.4-25.9,5.7l0.2-17.2c9.8-3.4,19.7-5.3,30-5.3c17.7,0,34.3,6.5,34.3,27.3c0,11.8-8.8,46.5-10.8,63.1h-19.4
		L283.6,359.7L283.6,359.7z"/>
	<polygon id="polygon18" class="st1" points="408.1,344.9 421.2,253.1 443.7,253 426.3,373.9 395.7,374 364.5,281.4 364.1,281.4 
		351.6,374.1 328.8,374.1 346,253.3 376.1,253.2 407.8,344.9 	"/>
	<path id="path20" inkscape:connector-curvature="0" class="st1" d="M512.6,320.4c0.2-2.1,0.2-4,0.1-6.1c-0.7-9.5-6-14.9-15.5-14.8
		c-14.1,0-19.6,8.7-23.2,21L512.6,320.4z M472,336.4c1.1,16.4,10.2,22.5,25.9,22.4c9.4,0,19.7-3.9,28.8-7.6l-3.1,18.9
		c-9.7,3.4-19.1,5.6-28.4,5.7c-25.2,0.1-43-12.3-44.9-38.8c-1.9-27.7,17.3-54.4,46.1-54.5c21.6-0.1,36.7,11.2,38.2,33.8
		c0.5,6.7,0.1,13.3-0.8,19.9L472,336.4L472,336.4z"/>
	<path id="path22" inkscape:connector-curvature="0" class="st1" d="M548.4,284.4h16.5l3.5-26.7l23.1,0.2l-3.8,26.5h16.9l1.1,16.9
		l-20.3,0.1l-5.6,39c-0.4,2.1-0.7,5.2-0.4,8.7c0.4,5.4,4.2,8.6,9.3,8.6c4.1,0,8.1-0.9,10.9-2.1l-2.7,18c-3.9,0.9-8.2,2.1-12.1,2.1
		c-15.5,0-26.8-6.2-28-23.3c-0.5-6.9,0.4-13.7,1.5-20.8l4.4-30.1l-13,0.1L548.4,284.4L548.4,284.4z"/>
	<path id="path24" inkscape:connector-curvature="0" class="st0" d="M148,262.2c-1.4,6.7-7.4,12-13.6,11.9c-6.1-0.1-10-5.6-8.7-12.3
		c1.4-6.7,7.4-12,13.6-11.9C145.5,250,149.4,255.5,148,262.2z"/>
</g>
</svg>
