<?xml version="1.0" encoding="utf-8"?>
<!-- Generator: Adobe Illustrator 23.0.1, SVG Export Plug-In . SVG Version: 6.00 Build 0)  -->
<svg version="1.1" id="Capa_1" xmlns="http://www.w3.org/2000/svg" xmlns:xlink="http://www.w3.org/1999/xlink" x="0px" y="0px"
	 viewBox="0 0 19 19" style="enable-background:new 0 0 19 19;" xml:space="preserve">
<style type="text/css">
	.st0{opacity:0.8;}
	.st1{fill:#FFFFFF;}
</style>
<g class="st0">
	<g>
		<g>
			<g>
				<g>
					<g>
						<g>
							<path class="st1" d="M9.5,8C8.7,8,4.8,7.9,4.8,6.6s3.9-1.4,4.7-1.4s4.7,0.1,4.7,1.4S10.3,8,9.5,8z M5.6,6.6
								C6,6.8,7.3,7.2,9.5,7.2s3.5-0.3,3.9-0.6C13,6.4,11.7,6,9.5,6S6,6.4,5.6,6.6z"/>
						</g>
					</g>
				</g>
			</g>
			<g>
				<g>
					<g>
						<g>
							<path class="st1" d="M9.5,9.9c-0.8,0-4.7-0.1-4.7-1.4V6.6c0-1.3,3.9-1.4,4.7-1.4s4.7,0.1,4.7,1.4v1.9
								C14.2,9.8,10.3,9.9,9.5,9.9z M9.5,6c-2.4,0-3.8,0.4-4,0.7v1.9c0.1,0.1,1.5,0.6,4,0.6s3.8-0.4,4-0.7V6.6
								C13.3,6.5,11.9,6,9.5,6z"/>
						</g>
					</g>
				</g>
			</g>
		</g>
		<g>
			<g>
				<g>
					<g>
						<g>
							<path class="st1" d="M9.5,11.8c-0.8,0-4.7-0.1-4.7-1.4V8.5h0.8v1.9c0.1,0.1,1.5,0.6,4,0.6s3.8-0.4,4-0.7V8.4h0.8v1.9
								C14.2,11.8,10.3,11.8,9.5,11.8z"/>
						</g>
					</g>
				</g>
			</g>
		</g>
		<g>
			<g>
				<g>
					<g>
						<g>
							<path class="st1" d="M9.5,13.8c-0.8,0-4.7-0.1-4.7-1.4v-1.9h0.8v1.9c0.1,0.1,1.5,0.6,4,0.6s3.8-0.4,4-0.7v-1.9h0.8v1.9
								C14.2,13.7,10.3,13.8,9.5,13.8z"/>
						</g>
					</g>
				</g>
			</g>
		</g>
	</g>
	<g>
		<g>
			<g>
				<path class="st1" d="M9.5,19C4.3,19,0,14.7,0,9.5S4.3,0,9.5,0S19,4.3,19,9.5S14.7,19,9.5,19z M9.5,1C4.8,1,1,4.8,1,9.5
					S4.8,18,9.5,18S18,14.2,18,9.5S14.2,1,9.5,1z"/>
			</g>
		</g>
	</g>
</g>
</svg>
