<?xml version="1.0" encoding="utf-8"?>
<!-- Generator: Adobe Illustrator 23.0.1, SVG Export Plug-In . SVG Version: 6.00 Build 0)  -->
<svg version="1.1" id="Capa_1" xmlns="http://www.w3.org/2000/svg" xmlns:xlink="http://www.w3.org/1999/xlink" x="0px" y="0px"
	 viewBox="0 0 19 19" style="enable-background:new 0 0 19 19;" xml:space="preserve">
<style type="text/css">
	.st0{opacity:0.8;}
	.st1{fill:#FFFFFF;}
</style>
<g class="st0">
	<g>
		<g>
			<g>
				<g>
					<g>
						<path class="st1" d="M4.3,13.3c-0.1,0-0.2,0-0.3-0.1C3.8,13,3.8,12.7,4,12.5l4-4.9c0.1-0.2,0.4-0.2,0.6-0.1l2.7,2l2.6-3.3
							c0.2-0.2,0.4-0.2,0.6-0.1c0.2,0.2,0.2,0.4,0.1,0.6l-2.9,3.6c-0.1,0.2-0.4,0.2-0.6,0.1l-2.8-2l-3.7,4.5
							C4.6,13.2,4.4,13.3,4.3,13.3z"/>
					</g>
				</g>
			</g>
		</g>
		<g>
			<g>
				<g>
					<g>
						<g>
							<polygon class="st1" points="14.3,8.8 14.1,6.7 12,7 12.8,6 14.9,5.8 15.1,7.9 							"/>
						</g>
					</g>
				</g>
			</g>
		</g>
	</g>
	<g>
		<g>
			<g>
				<path class="st1" d="M9.5,19C4.3,19,0,14.7,0,9.5S4.3,0,9.5,0S19,4.3,19,9.5S14.7,19,9.5,19z M9.5,1C4.8,1,1,4.8,1,9.5
					S4.8,18,9.5,18S18,14.2,18,9.5S14.2,1,9.5,1z"/>
			</g>
		</g>
	</g>
</g>
</svg>
