<?xml version="1.0" encoding="utf-8"?>
<!-- Generator: Adobe Illustrator 23.0.1, SVG Export Plug-In . SVG Version: 6.00 Build 0)  -->
<svg version="1.1" id="Capa_1" xmlns="http://www.w3.org/2000/svg" xmlns:xlink="http://www.w3.org/1999/xlink" x="0px" y="0px"
	 viewBox="0 0 19 19" style="enable-background:new 0 0 19 19;" xml:space="preserve">
<style type="text/css">
	.st0{opacity:0.8;}
	.st1{fill:#FFFFFF;}
</style>
<g class="st0">
	<g>
		<g>
			<g>
				<path class="st1" d="M9.5,14.9l-4.6-2.7V6.9l4.7-2.8l4.6,2.7v5.3L9.5,14.9z M5.4,11.9l4,2.4l4.1-2.4V7.2l-4-2.4L5.4,7.2V11.9z"
					/>
			</g>
		</g>
	</g>
	<g>
		<g>
			<g>
				<path class="st1" d="M9.5,9.9L5,7.3C4.9,7.2,4.8,7,4.9,6.9C5,6.8,5.2,6.7,5.3,6.8l4.2,2.5l4.2-2.5c0.1-0.1,0.3,0,0.4,0.1
					c0.1,0.1,0,0.3-0.1,0.4L9.5,9.9z"/>
			</g>
		</g>
	</g>
	<g>
		<g>
			<g>
				<path class="st1" d="M9.5,14.8c-0.2,0-0.3-0.1-0.3-0.3V9.7c0-0.2,0.1-0.3,0.3-0.3c0.2,0,0.3,0.1,0.3,0.3v4.9
					C9.8,14.7,9.7,14.8,9.5,14.8z"/>
			</g>
		</g>
	</g>
	<g>
		<g>
			<g>
				<path class="st1" d="M8.1,11l-1.7-1V7.8L11,4.9L12.8,6L8.1,8.8V11z M7,9.7L7.5,10V8.5L11.7,6L11,5.6L7,8.1V9.7z"/>
			</g>
		</g>
	</g>
</g>
<g class="st0">
	<g>
		<g>
			<path class="st1" d="M9.5,19C4.3,19,0,14.7,0,9.5S4.3,0,9.5,0S19,4.3,19,9.5S14.7,19,9.5,19z M9.5,1C4.8,1,1,4.8,1,9.5
				S4.8,18,9.5,18S18,14.2,18,9.5S14.2,1,9.5,1z"/>
		</g>
	</g>
</g>
</svg>
