<?xml version="1.0" encoding="utf-8"?>
<!-- Generator: Adobe Illustrator 23.0.6, SVG Export Plug-In . SVG Version: 6.00 Build 0)  -->
<svg version="1.1" id="Capa_1" xmlns="http://www.w3.org/2000/svg" xmlns:xlink="http://www.w3.org/1999/xlink" x="0px" y="0px"
	 viewBox="0 0 131.2 131.2" style="enable-background:new 0 0 131.2 131.2;" xml:space="preserve">
<style type="text/css">
	.st0{fill:url(#SVGID_1_);}
	.st1{opacity:0.35;fill:url(#SVGID_2_);}
	.st2{opacity:0.35;fill:url(#SVGID_3_);}
	.st3{fill:url(#SVGID_4_);}
	.st4{fill:url(#SVGID_5_);}
	.st5{fill:url(#SVGID_6_);}
	.st6{fill:url(#SVGID_7_);}
	.st7{fill:url(#SVGID_8_);}
	.st8{fill:url(#SVGID_9_);}
	.st9{opacity:0.35;fill:url(#SVGID_10_);}
	.st10{fill:url(#SVGID_11_);}
	.st11{fill:url(#SVGID_12_);}
	.st12{fill:url(#SVGID_13_);}
	.st13{opacity:0.35;}
	.st14{fill:url(#SVGID_14_);}
	.st15{opacity:0.2;}
	.st16{fill:#FFFFFF;}
	.st17{fill:url(#SVGID_15_);}
	.st18{fill:url(#SVGID_16_);}
	.st19{fill:url(#SVGID_17_);}
	.st20{fill:url(#SVGID_18_);}
	.st21{fill:url(#SVGID_19_);}
	.st22{opacity:0.35;fill:url(#SVGID_20_);}
	.st23{fill:url(#SVGID_21_);}
	.st24{fill:url(#SVGID_22_);}
</style>
<g>
	<g>
		<g>
			<linearGradient id="SVGID_1_" gradientUnits="userSpaceOnUse" x1="78.4932" y1="80.2581" x2="78.4932" y2="26.4044">
				<stop  offset="0" style="stop-color:#7063F1"/>
				<stop  offset="1" style="stop-color:#3A79F3"/>
			</linearGradient>
			<path class="st0" d="M61.3,79L61.3,79c-0.8-0.8-1.2-1.9-1.2-3l0-45.4c0-2.3,1.9-4.2,4.2-4.2c2.3,0,4.2,1.9,4.2,4.2l0,41.1h24.1
				c2.3,0,4.2,1.9,4.2,4.2c0,2.3-1.9,4.2-4.2,4.2H64.3C63.2,80.3,62.1,79.8,61.3,79z"/>
		</g>
	</g>
	<g>
		<g>
			<linearGradient id="SVGID_2_" gradientUnits="userSpaceOnUse" x1="65.5946" y1="131.1891" x2="65.5946" y2="0">
				<stop  offset="0" style="stop-color:#7063F1"/>
				<stop  offset="1" style="stop-color:#3A79F3"/>
			</linearGradient>
			<path style="fill:url(#SVGID_2_);" d="M65.6,131.2C29.4,131.2,0,101.8,0,65.6S29.4,0,65.6,0s65.6,29.4,65.6,65.6
				S101.8,131.2,65.6,131.2z M65.6,10.6c-30.3,0-55,24.7-55,55s24.7,55,55,55s55-24.7,55-55S95.9,10.6,65.6,10.6z"/>
		</g>
	</g>
	<g class="st13">
		<linearGradient id="SVGID_3_" gradientUnits="userSpaceOnUse" x1="73.2603" y1="129.2809" x2="73.2603" y2="21.8859">
			<stop  offset="0" style="stop-color:#7063F1"/>
			<stop  offset="1" style="stop-color:#3A79F3"/>
		</linearGradient>
		<path style="fill:url(#SVGID_3_);" d="M125.9,69c0,33.3-27,60.3-60.3,60.3c-17.4,0-33.1-7.4-44.1-19.2c-10-10.8,72-96.2,82.4-87.6
			C117.3,33.5,125.9,50.3,125.9,69z"/>
	</g>
</g>
</svg>
