<?xml version="1.0" encoding="utf-8"?>
<!-- Generator: Adobe Illustrator 23.0.1, SVG Export Plug-In . SVG Version: 6.00 Build 0)  -->
<svg version="1.1" id="Capa_1" xmlns="http://www.w3.org/2000/svg" xmlns:xlink="http://www.w3.org/1999/xlink" x="0px" y="0px"
	 viewBox="0 0 114.9 141.9" style="enable-background:new 0 0 114.9 141.9;" xml:space="preserve">
<style type="text/css">
	.st0{fill:#FFFFFF;}
</style>
<g>
	<path class="st0" d="M0,78c-0.2-12.3,2.6-22.9,10.3-31.7c9-10.3,20.1-14.1,33.5-10.2c3.6,1.1,7.2,2.2,10.8,3.5
		c2.9,1.1,5.6,0.8,8.5-0.3c5.5-2.2,11.2-4.2,17.1-4.8c12.2-1.3,22.5,2.2,30.4,12c1,1.3,1.2,2-0.4,3c-19,11.6-18.3,41.8,2.6,53.2
		c2.3,1.2,2.6,2.3,1.7,4.6c-3.8,10-9.3,18.9-16.4,27c-6.2,7-13.3,9.2-22.1,5.8c-2.1-0.8-4.3-1.3-6.5-2.1c-6.6-2.4-13.1-2-19.7,0.4
		c-3,1.1-6.1,1.8-9.1,2.8c-4.5,1.5-8.6,0.5-12.5-2c-3.3-2.1-5.9-5-8.3-8C7.3,115.8,0.1,96.3,0,78z"/>
	<path class="st0" d="M86.1,4.2c-1.1,12-6.9,20.9-17.4,26.8c-2.8,1.6-6,2.1-9.2,2c-1.4,0-2.1-0.5-2.1-2.1c0-3.6,0.3-7.1,1.8-10.3
		C63.7,10.5,70.8,3,82,0.5C86.3-0.5,86.4-0.3,86.1,4.2z"/>
</g>
</svg>
