<?xml version="1.0" encoding="utf-8"?>
<!-- Generator: Adobe Illustrator 23.0.6, SVG Export Plug-In . SVG Version: 6.00 Build 0)  -->
<svg version="1.1" id="Capa_1" xmlns="http://www.w3.org/2000/svg" xmlns:xlink="http://www.w3.org/1999/xlink" x="0px" y="0px"
	 viewBox="0 0 176.3 195" style="enable-background:new 0 0 176.3 195;" xml:space="preserve">
<style type="text/css">
	.st0{fill:url(#SVGID_1_);}
	.st1{opacity:0.35;fill:url(#SVGID_2_);}
	.st2{opacity:0.35;fill:url(#SVGID_3_);}
	.st3{fill:url(#SVGID_4_);}
	.st4{fill:url(#SVGID_5_);}
	.st5{fill:url(#SVGID_6_);}
	.st6{fill:url(#SVGID_7_);}
	.st7{fill:url(#SVGID_8_);}
	.st8{fill:url(#SVGID_9_);}
	.st9{opacity:0.35;fill:url(#SVGID_10_);}
	.st10{fill:url(#SVGID_11_);}
	.st11{fill:url(#SVGID_12_);}
	.st12{fill:url(#SVGID_13_);}
	.st13{opacity:0.35;}
	.st14{fill:url(#SVGID_14_);}
	.st15{opacity:0.2;}
	.st16{fill:#FFFFFF;}
	.st17{fill:url(#SVGID_15_);}
	.st18{fill:url(#SVGID_16_);}
	.st19{fill:url(#SVGID_17_);}
	.st20{fill:url(#SVGID_18_);}
	.st21{fill:url(#SVGID_19_);}
	.st22{opacity:0.35;fill:url(#SVGID_20_);}
	.st23{fill:url(#SVGID_21_);}
	.st24{fill:url(#SVGID_22_);}
</style>
<g>
	<linearGradient id="SVGID_1_" gradientUnits="userSpaceOnUse" x1="0" y1="54.1778" x2="167.957" y2="54.1778">
		<stop  offset="0" style="stop-color:#3A79F3"/>
		<stop  offset="1" style="stop-color:#7063F1"/>
	</linearGradient>
	<path class="st0" d="M158.5,44.7H32.4l28.5-28.5c3.7-3.7,3.7-9.7,0-13.4s-9.7-3.7-13.4,0L2.8,47.5C1,49.3,0,51.7,0,54.2
		c0,2.5,1,4.9,2.8,6.7l44.7,44.7c3.7,3.7,9.7,3.7,13.4,0c3.7-3.7,3.7-9.7,0-13.4L32.4,63.7h126.1c5.2,0,9.5-4.2,9.5-9.5
		C168,48.9,163.7,44.7,158.5,44.7z"/>
	
		<linearGradient id="SVGID_2_" gradientUnits="userSpaceOnUse" x1="-557.3285" y1="1088.1461" x2="-389.3715" y2="1088.1461" gradientTransform="matrix(-1 0 0 -1 -380.9844 1228.99)">
		<stop  offset="0" style="stop-color:#7063F1"/>
		<stop  offset="1" style="stop-color:#3A79F3"/>
	</linearGradient>
	<path style="fill:url(#SVGID_2_);" d="M17.9,150.3H144l-28.5,28.5c-3.7,3.7-3.7,9.7,0,13.4s9.7,3.7,13.4,0l44.7-44.7
		c1.8-1.8,2.8-4.2,2.8-6.7c0-2.5-1-4.9-2.8-6.7l-44.7-44.7c-3.7-3.7-9.7-3.7-13.4,0c-3.7,3.7-3.7,9.7,0,13.4l28.5,28.5H17.9
		c-5.2,0-9.5,4.2-9.5,9.5C8.4,146.1,12.6,150.3,17.9,150.3z"/>
</g>
</svg>
