<?xml version="1.0" encoding="utf-8"?>
<!-- Generator: Adobe Illustrator 23.0.1, SVG Export Plug-In . SVG Version: 6.00 Build 0)  -->
<svg version="1.1" id="Capa_1" xmlns="http://www.w3.org/2000/svg" xmlns:xlink="http://www.w3.org/1999/xlink" x="0px" y="0px"
	 viewBox="0 0 180 246" style="enable-background:new 0 0 180 246;" xml:space="preserve">
<style type="text/css">
	.st0{fill:#CCCCCC;}
</style>
<path class="st0" d="M77,0H0v78v168h180V0H77z M33,40h114c3.6,0,6.5,2.9,6.5,6.5S150.6,53,147,53H33c-3.6,0-6.5-2.9-6.5-6.5
	S29.4,40,33,40z M147.3,149h-114c-3.6,0-6.5-2.9-6.5-6.5s2.9-6.5,6.5-6.5h114c3.6,0,6.5,2.9,6.5,6.5S150.8,149,147.3,149z
	 M147.3,117h-114c-3.6,0-6.5-2.9-6.5-6.5s2.9-6.5,6.5-6.5h114c3.6,0,6.5,2.9,6.5,6.5S150.8,117,147.3,117z M147.3,85h-114
	c-3.6,0-6.5-2.9-6.5-6.5s2.9-6.5,6.5-6.5h114c3.6,0,6.5,2.9,6.5,6.5S150.8,85,147.3,85z"/>
</svg>
