<?xml version="1.0" encoding="utf-8"?>
<!-- Generator: Adobe Illustrator 23.0.1, SVG Export Plug-In . SVG Version: 6.00 Build 0)  -->
<svg version="1.1" id="Capa_1" xmlns="http://www.w3.org/2000/svg" xmlns:xlink="http://www.w3.org/1999/xlink" x="0px" y="0px"
	 viewBox="0 0 26 26" style="enable-background:new 0 0 26 26;" xml:space="preserve">
<style type="text/css">
	.st0{fill:#3A79F3;}
	.st1{fill:#FFFFFF;}
</style>
<circle class="st0" cx="13" cy="13" r="13"/>
<g>
	<path class="st1" d="M11.8,20.7c-0.2-0.2-0.4-0.6-0.4-1v-0.4c0-0.4,0.1-0.8,0.4-1c0.2-0.2,0.6-0.4,1-0.4h0.3c0.4,0,0.8,0.1,1,0.4
		c0.2,0.2,0.4,0.6,0.4,1v0.4c0,0.4-0.1,0.8-0.4,1s-0.6,0.4-1,0.4h-0.3C12.4,21.1,12.1,20.9,11.8,20.7z M12.2,15.1l-0.7-8.5
		c0-0.5,0.1-0.9,0.4-1.2c0.3-0.3,0.7-0.5,1.1-0.5c0.5,0,0.8,0.2,1.1,0.5c0.3,0.3,0.4,0.7,0.4,1.2l-0.6,8.5c0,0.6-0.3,0.9-0.8,0.9
		C12.5,16,12.2,15.7,12.2,15.1z"/>
</g>
</svg>
