<?xml version="1.0" encoding="utf-8"?>
<!-- Generator: Adobe Illustrator 23.0.1, SVG Export Plug-In . SVG Version: 6.00 Build 0)  -->
<svg version="1.1" id="Capa_1" xmlns="http://www.w3.org/2000/svg" xmlns:xlink="http://www.w3.org/1999/xlink" x="0px" y="0px"
	 viewBox="0 0 877.5 1123.8" style="enable-background:new 0 0 877.5 1123.8;" xml:space="preserve">
<style type="text/css">
	.st0{fill:url(#SVGID_1_);}
	.st1{fill:#E2E2E2;}
	.st2{fill:#F1F1F1;}
	.st3{fill:url(#SVGID_2_);}
	.st4{fill:url(#SVGID_3_);}
	.st5{fill:#454545;}
	.st6{fill:url(#SVGID_4_);}
	.st7{fill:url(#SVGID_5_);}
	.st8{fill:url(#SVGID_6_);}
	.st9{fill:url(#SVGID_7_);}
	.st10{fill:url(#SVGID_8_);}
	.st11{fill:url(#SVGID_9_);}
	.st12{fill:#FFFFFF;}
	.st13{fill:#3D3D3D;}
	.st14{fill:url(#SVGID_10_);}
	.st15{fill:url(#SVGID_11_);}
	.st16{opacity:0.1;fill:#454545;}
	.st17{clip-path:url(#SVGID_13_);}
	.st18{fill:url(#SVGID_14_);}
	.st19{fill:url(#SVGID_15_);}
	.st20{fill:#D6A041;}
	.st21{fill:#333333;}
	.st22{opacity:0.38;fill:url(#SVGID_16_);}
	.st23{fill:#292929;}
	.st24{clip-path:url(#SVGID_18_);}
	.st25{fill:#E8E8E8;}
	.st26{opacity:0.14;fill:url(#SVGID_19_);}
	.st27{opacity:0.2;fill:url(#SVGID_20_);}
	.st28{fill:#292929;stroke:#2C2C2C;stroke-miterlimit:10;}
	.st29{opacity:0.2;fill:url(#SVGID_21_);}
	.st30{fill:#4E4E4E;}
	.st31{opacity:0.32;fill:url(#SVGID_22_);}
	.st32{clip-path:url(#SVGID_24_);}
	.st33{fill:#999999;}
	.st34{fill:#CCCCCC;}
	.st35{opacity:0.16;fill:url(#SVGID_25_);}
	.st36{opacity:0.62;fill:url(#SVGID_26_);}
	.st37{fill:none;stroke:#FFFFFF;stroke-width:7;stroke-miterlimit:10;}
</style>
<g>
	<g>
		
			<linearGradient id="SVGID_1_" gradientUnits="userSpaceOnUse" x1="-1759.0928" y1="5184.8979" x2="-877.7192" y2="5184.8979" gradientTransform="matrix(0.2061 0.9785 0.9785 -0.2061 -4390.9365 3047.364)">
			<stop  offset="0" style="stop-color:#FFA046"/>
			<stop  offset="1" style="stop-color:#FF6567"/>
		</linearGradient>
		<path class="st0" d="M819.2,738.1c-16.7,56.7-45.8,108.9-74.7,160.5c-46.2,82.5-98.7,170.9-186.5,206
			c-31.2,12.5-65,17.3-98.6,18.7c-144,6.2-291.2-51.3-387.1-158.9c-46-51.6-81.2-119.6-70.5-187.9c2.1-13.2,5.9-26.3,13.2-37.5
			c9.5-14.5,24.2-24.8,38.6-34.5c55.4-37.5,111.9-73.3,169.5-107.3c44.2-26.1,89.5-51.7,126.1-87.6
			c72.4-71.2,102.9-175.4,169.2-252.3c30.5-35.3,72.7-65.8,119.3-63.2c40.3,2.2,75.7,29.2,99.9,61.5
			C790.1,325.5,842.1,660.5,819.2,738.1z"/>
	</g>
	<g>
		<g>
			<g>
				<path class="st1" d="M203.1,0.4l667,384.1c4.6,2.7,7.5,7.6,7.5,12.9v476.7c0,1.2-0.7,2.2-1.8,2.6l-7,2.8
					c-1.6,0.6-3.4,0.5-4.9-0.4L204.4,488.9c-0.8-0.5-1.4-1.4-1.4-2.4L190.7,6.2c0-1.2,0.7-2.3,1.8-2.7l8.2-3.3
					C201.4-0.1,202.3-0.1,203.1,0.4z"/>
				<path class="st2" d="M194,3.9l666.2,383.7c3.7,2.1,6,6.1,6,10.4v480.1c0,1.1-1.1,1.7-2.1,1.2l-672.4-389L190.6,5.9
					C190.6,4.1,192.5,3,194,3.9z"/>
				<g>
					<linearGradient id="SVGID_2_" gradientUnits="userSpaceOnUse" x1="186.1266" y1="272.6366" x2="276.3284" y2="272.6366">
						<stop  offset="0" style="stop-color:#7063F1"/>
						<stop  offset="1" style="stop-color:#3A79F3"/>
					</linearGradient>
					<path class="st3" d="M192.9,3.1L188,4.7c-1.1,0.4-1.9,1.4-1.9,2.6l6.7,480.7l76.7,54.1l6.8-2.3V50.4L192.9,3.1z"/>
					<linearGradient id="SVGID_3_" gradientUnits="userSpaceOnUse" x1="102.0088" y1="349.3151" x2="355.8961" y2="196.7642">
						<stop  offset="0" style="stop-color:#7063F1"/>
						<stop  offset="1" style="stop-color:#3A79F3"/>
					</linearGradient>
					<path class="st4" d="M186.1,7.5v480.8c0,1.3,0.7,2.5,1.8,3.2l79.8,49.6c0.8,0.5,1.9-0.1,1.9-1V53.4c0-0.4-0.2-0.9-0.6-1.1
						l-81-46C187.1,5.9,186.1,6.5,186.1,7.5z"/>
				</g>
				<g>
					<path class="st5" d="M423.3,219.2c0.3,0.5,0.5,1,0.5,1.4c0,0.2-0.1,0.4-0.2,0.6l-6.7,11.8c-0.2,0.2-0.4,0.4-0.7,0.4
						s-0.6-0.1-0.9-0.3c-0.3-0.2-0.6-0.5-0.9-0.8c-0.3-0.3-0.5-0.7-0.6-1.1l-6.7-19.6c-0.1-0.2-0.1-0.5-0.1-0.8
						c0-0.5,0.2-0.8,0.5-0.9c0.4-0.1,0.7,0,1.1,0.2c0.3,0.2,0.6,0.4,0.9,0.8c0.3,0.3,0.5,0.7,0.6,1.1l5.4,15.9l5-9.9
						c0.1-0.2,0.4-0.4,0.6-0.4s0.6,0.1,0.9,0.2C422.5,218.3,422.9,218.7,423.3,219.2z"/>
					<path class="st5" d="M438.2,239.8c-0.3,0.1-0.7,0-1.1-0.3l-8.9-5.2c0.2,1.2,0.7,2.3,1.5,3.4c0.8,1.1,1.7,1.9,2.6,2.4
						c0.7,0.4,1.3,0.7,1.7,0.8c0.4,0.1,0.7,0.1,1,0.1s0.4,0,0.5,0c0.3,0,0.6,0.1,0.9,0.3c0.4,0.2,0.7,0.5,1,1
						c0.3,0.4,0.4,0.8,0.4,1.2c0,0.5-0.3,0.8-0.8,0.9c-0.5,0.1-1.2,0.1-2-0.1c-0.8-0.2-1.7-0.6-2.6-1.1c-1.5-0.9-2.8-2-4-3.2
						c-1.1-1.3-2-2.7-2.6-4.1s-0.9-2.9-0.9-4.3c0-1.6,0.3-2.7,1-3.5s1.5-1.2,2.6-1.2c1.1,0,2.2,0.3,3.4,1c1.2,0.7,2.3,1.7,3.4,2.9
						c1.1,1.3,1.9,2.6,2.5,4.1c0.6,1.5,0.9,2.8,0.9,4.1C438.7,239.5,438.5,239.8,438.2,239.8z M428.2,231.7l7.1,4.1v-0.2
						c-0.1-0.8-0.4-1.7-1.1-2.6s-1.4-1.6-2.3-2.1C429.8,229.7,428.5,230,428.2,231.7z"/>
					<path class="st5" d="M453,241.8c0.7,1.5,1.1,3.2,1.1,5.1v6.9c0,0.5-0.2,0.8-0.5,0.9c-0.3,0.1-0.7,0.1-1.2-0.2
						c-0.5-0.3-0.9-0.7-1.2-1.1c-0.3-0.5-0.5-1-0.5-1.4V245c0-1-0.2-1.9-0.6-2.7c-0.4-0.8-1.1-1.5-2.1-2.1c-1-0.6-1.9-0.8-2.5-0.5
						c-0.6,0.3-0.9,0.9-0.9,1.8v6.9c0,0.5-0.2,0.8-0.5,0.9c-0.3,0.1-0.7,0.1-1.2-0.2c-0.5-0.3-0.9-0.7-1.2-1.1
						c-0.3-0.5-0.5-1-0.5-1.4v-11.2c0-0.5,0.2-0.8,0.5-0.9c0.3-0.1,0.7-0.1,1.2,0.2c0.5,0.3,0.9,0.7,1.2,1.1c0.3,0.5,0.5,1,0.5,1.4
						v0.5c0.5-0.4,1.1-0.6,1.9-0.6c0.8,0,1.6,0.2,2.6,0.8C451,239,452.3,240.3,453,241.8z"/>
					<path class="st5" d="M470.4,245.4c0.3,0.5,0.5,1,0.5,1.5v16.7c0,0.5-0.2,0.8-0.5,0.9c-0.3,0.1-0.7,0.1-1.2-0.2
						c-0.5-0.3-0.9-0.6-1.2-1.1c-0.3-0.5-0.5-1-0.5-1.4c-0.5,0.3-1.1,0.4-1.8,0.3c-0.8-0.1-1.6-0.4-2.4-0.8
						c-1.2-0.7-2.4-1.7-3.4-2.9c-1-1.2-1.8-2.6-2.4-4c-0.6-1.5-0.9-2.9-0.9-4.4c0-1.4,0.3-2.6,0.9-3.4c0.6-0.8,1.4-1.2,2.4-1.3
						c1-0.1,2.1,0.3,3.3,1c0.9,0.5,1.7,1.1,2.4,1.9c0.8,0.8,1.4,1.5,1.9,2.3V245c0-0.5,0.2-0.8,0.5-0.9c0.3-0.1,0.7-0.1,1.2,0.2
						C469.7,244.5,470.1,244.9,470.4,245.4z M466.7,258.8c0.7-0.4,1.1-1.3,1.1-2.6s-0.4-2.6-1.1-3.9c-0.7-1.3-1.7-2.3-2.9-3
						c-1.2-0.7-2.1-0.8-2.8-0.3c-0.7,0.4-1.1,1.3-1.1,2.6s0.4,2.6,1.1,3.9s1.7,2.3,2.9,2.9C465,259.1,465.9,259.2,466.7,258.8z"/>
					<path class="st5" d="M486.9,268c-0.3,0.1-0.7,0-1.1-0.3l-8.9-5.2c0.2,1.2,0.7,2.3,1.5,3.4c0.8,1.1,1.7,1.9,2.6,2.4
						c0.7,0.4,1.3,0.7,1.7,0.8c0.4,0.1,0.7,0.1,1,0.1s0.4,0,0.5,0c0.3,0,0.6,0.1,0.9,0.3c0.4,0.2,0.7,0.5,1,1
						c0.3,0.4,0.4,0.8,0.4,1.2c0,0.5-0.3,0.8-0.8,0.9c-0.5,0.1-1.2,0.1-2-0.1c-0.8-0.2-1.7-0.6-2.6-1.1c-1.5-0.9-2.8-2-4-3.2
						s-2-2.7-2.6-4.1c-0.6-1.5-0.9-2.9-0.9-4.3c0-1.6,0.3-2.7,1-3.5c0.6-0.8,1.5-1.2,2.6-1.2c1.1,0,2.2,0.3,3.4,1
						c1.2,0.7,2.3,1.7,3.4,2.9c1.1,1.3,1.9,2.6,2.5,4.1c0.6,1.5,0.9,2.8,0.9,4.1C487.4,267.6,487.2,267.9,486.9,268z M476.8,259.9
						l7.1,4.1v-0.2c-0.1-0.8-0.4-1.7-1.1-2.6c-0.7-0.9-1.4-1.6-2.3-2.1C478.5,257.8,477.2,258.1,476.8,259.9z"/>
					<path class="st5" d="M503,264.2c0.3,0.5,0.5,1,0.5,1.5v16.7c0,0.5-0.2,0.8-0.5,0.9c-0.3,0.1-0.7,0.1-1.2-0.2
						c-0.5-0.3-0.9-0.6-1.2-1.1s-0.5-1-0.5-1.4c-0.5,0.3-1.1,0.4-1.8,0.3c-0.8-0.1-1.6-0.4-2.4-0.8c-1.2-0.7-2.4-1.7-3.4-2.9
						c-1-1.2-1.8-2.6-2.4-4c-0.6-1.5-0.9-2.9-0.9-4.4c0-1.4,0.3-2.6,0.9-3.4c0.6-0.8,1.4-1.3,2.4-1.3c1-0.1,2.1,0.3,3.3,1
						c0.9,0.5,1.7,1.1,2.4,1.9c0.8,0.8,1.4,1.5,1.9,2.3v-5.3c0-0.5,0.2-0.8,0.5-0.9s0.7-0.1,1.2,0.2
						C502.3,263.3,502.7,263.7,503,264.2z M499.2,277.6c0.7-0.4,1.1-1.3,1.1-2.6s-0.4-2.6-1.1-3.9c-0.7-1.3-1.7-2.3-2.9-3
						c-1.2-0.7-2.1-0.8-2.8-0.3c-0.7,0.4-1.1,1.3-1.1,2.6s0.4,2.6,1.1,3.9c0.7,1.3,1.7,2.3,2.9,2.9
						C497.5,277.9,498.5,278,499.2,277.6z"/>
					<path class="st5" d="M519.9,290.2c-0.6,0.8-1.5,1.1-2.7,1.1c-1.1,0-2.4-0.4-3.7-1.2c-1.4-0.8-2.6-1.8-3.7-3.1
						c-1.1-1.3-2-2.7-2.7-4.2s-1-3-1-4.4c0-1.4,0.3-2.6,1-3.3c0.6-0.8,1.5-1.2,2.7-1.1c1.1,0,2.4,0.4,3.7,1.2
						c1.4,0.8,2.6,1.8,3.7,3.1c1.1,1.3,2,2.7,2.7,4.2c0.6,1.5,1,3,1,4.4C520.9,288.3,520.6,289.4,519.9,290.2z M517.1,282.3
						c-0.4-0.9-0.9-1.7-1.5-2.5s-1.3-1.3-2.1-1.8s-1.4-0.6-2.1-0.6s-1.1,0.3-1.5,0.8c-0.4,0.5-0.6,1.2-0.6,2c0,0.9,0.2,1.8,0.6,2.7
						c0.4,0.9,0.9,1.7,1.5,2.5s1.3,1.3,2.1,1.8s1.4,0.6,2.1,0.6s1.1-0.3,1.5-0.7c0.4-0.5,0.6-1.2,0.6-2
						C517.6,284.1,517.5,283.2,517.1,282.3z"/>
					<path class="st5" d="M532.5,286.5c0.4,0.5,0.6,1,0.6,1.4c0,0.6-0.1,0.9-0.4,1c-0.3,0.1-0.6,0.1-1-0.2c-0.3-0.2-0.6-0.4-0.9-0.7
						c-0.1,0-0.2-0.2-0.4-0.3c-0.2-0.2-0.4-0.3-0.6-0.4c-0.5-0.3-0.9-0.4-1.4-0.3s-0.8,0.3-1.1,0.7c-0.3,0.4-0.4,1-0.4,1.9v6.4
						c0,0.5-0.2,0.8-0.5,0.9c-0.3,0.1-0.7,0.1-1.2-0.2c-0.5-0.3-0.9-0.7-1.2-1.1c-0.3-0.5-0.5-1-0.5-1.4v-11.2
						c0-0.5,0.2-0.8,0.5-0.9c0.3-0.1,0.7-0.1,1.2,0.2c0.5,0.3,0.9,0.7,1.2,1.1c0.3,0.5,0.5,1,0.5,1.4v0.4c0.4-0.5,1-0.7,1.8-0.7
						s1.6,0.3,2.5,0.9C531.7,285.6,532.1,286,532.5,286.5z"/>
				</g>
				<linearGradient id="SVGID_4_" gradientUnits="userSpaceOnUse" x1="677.0483" y1="376.7816" x2="702.5562" y2="376.7816">
					<stop  offset="0" style="stop-color:#7063F1"/>
					<stop  offset="1" style="stop-color:#3A79F3"/>
				</linearGradient>
				<path class="st6" d="M677,368.9v0.1c0,9.3,4.9,17.9,13,22.6l0.2,0.1c5.5,3.2,12.4-0.8,12.4-7.1v-0.1c0-9.4-5.1-18.1-13.2-22.7
					l0,0C683.8,358.7,677,362.6,677,368.9z"/>
				<linearGradient id="SVGID_5_" gradientUnits="userSpaceOnUse" x1="705.3138" y1="393.5782" x2="730.8217" y2="393.5782">
					<stop  offset="0" style="stop-color:#7063F1"/>
					<stop  offset="1" style="stop-color:#3A79F3"/>
				</linearGradient>
				<path class="st7" d="M705.3,385.7v0.1c0,9.3,4.9,17.9,13,22.6l0.2,0.1c5.5,3.2,12.4-0.8,12.4-7.1v-0.1c0-9.4-5.1-18.1-13.2-22.7
					v0C712.1,375.5,705.3,379.4,705.3,385.7z"/>
				<linearGradient id="SVGID_6_" gradientUnits="userSpaceOnUse" x1="734.2687" y1="409.4979" x2="759.7766" y2="409.4979">
					<stop  offset="0" style="stop-color:#7063F1"/>
					<stop  offset="1" style="stop-color:#3A79F3"/>
				</linearGradient>
				<path class="st8" d="M734.3,401.6v0.1c0,9.3,4.9,17.9,13,22.6l0.2,0.1c5.5,3.2,12.4-0.8,12.4-7.1v-0.1c0-9.4-5.1-18.1-13.2-22.7
					l0,0C741.1,391.4,734.3,395.3,734.3,401.6z"/>
				<linearGradient id="SVGID_7_" gradientUnits="userSpaceOnUse" x1="762.5341" y1="425.856" x2="788.042" y2="425.856">
					<stop  offset="0" style="stop-color:#7063F1"/>
					<stop  offset="1" style="stop-color:#3A79F3"/>
				</linearGradient>
				<path class="st9" d="M762.5,418v0.1c0,9.3,4.9,17.9,13,22.6l0.2,0.1c5.5,3.2,12.4-0.8,12.4-7.1v-0.1c0-9.4-5.1-18.1-13.2-22.7v0
					C769.3,407.7,762.5,411.7,762.5,418z"/>
				<path class="st1" d="M790.5,434.3v0.1c0,9.3,4.9,17.9,13,22.6l0.2,0.1c5.5,3.2,12.4-0.8,12.4-7.1v-0.1c0-9.4-5.1-18.1-13.2-22.7
					l0,0C797.3,424.1,790.5,428,790.5,434.3z"/>
				<g>
					<path class="st1" d="M349.2,134.2L349.2,134.2c-17.9-10.2-40.2,2.8-40.2,23.4v0.5c0,15.9,4.5,31.3,12.5,44.4
						c3.1-11.3,9.9-25.3,24.8-18.9c21.7,9.3,30.2,27.2,27.9,50.9c10.3-3.5,18.3-13.1,18.3-25.5v-0.5
						C392.5,177.7,376,149.3,349.2,134.2z"/>
					<path class="st1" d="M346.3,183.5c-14.8-6.3-21.7,7.6-24.8,18.9c7.3,12,17.5,22.2,30,29.5l0.5,0.3c7.2,4.2,15.2,4.6,22.1,2.2
						C376.4,210.7,368,192.8,346.3,183.5z"/>
					<linearGradient id="SVGID_8_" gradientUnits="userSpaceOnUse" x1="319.1874" y1="208.9239" x2="374.5359" y2="208.9239">
						<stop  offset="0" style="stop-color:#7063F1"/>
						<stop  offset="1" style="stop-color:#3A79F3"/>
					</linearGradient>
					<path class="st10" d="M346.3,183.5c-14.8-6.3-21.7,7.6-24.8,18.9c7.3,12,17.5,22.2,30,29.5l0.5,0.3c7.2,4.2,15.2,4.6,22.1,2.2
						C376.4,210.7,368,192.8,346.3,183.5z"/>
				</g>
				<linearGradient id="SVGID_9_" gradientUnits="userSpaceOnUse" x1="342.7794" y1="166.916" x2="368.2873" y2="166.916">
					<stop  offset="0" style="stop-color:#7063F1"/>
					<stop  offset="1" style="stop-color:#3A79F3"/>
				</linearGradient>
				<path class="st11" d="M342.8,159.1v0.1c0,9.3,4.9,17.9,13,22.6l0.2,0.1c5.5,3.2,12.4-0.8,12.4-7.1v-0.1
					c0-9.4-5.1-18.1-13.2-22.7l0,0C349.6,148.8,342.8,152.8,342.8,159.1z"/>
				<polygon class="st12" points="309,471.1 309,355.6 309,323.4 600,491.4 600,643.7 				"/>
				<polygon class="st13" points="325.6,473 325.6,449.7 585.4,596.6 585.4,618.9 				"/>
				<linearGradient id="SVGID_10_" gradientUnits="userSpaceOnUse" x1="309.0366" y1="455.9153" x2="600.0269" y2="455.9153">
					<stop  offset="0" style="stop-color:#7063F1"/>
					<stop  offset="1" style="stop-color:#3A79F3"/>
				</linearGradient>
				<polygon class="st14" points="309,420.4 309,323.4 600,490.3 600,588.4 				"/>
				<polygon class="st12" points="309,317.8 309,227.5 600,394.4 600,485.8 				"/>
				<g>
					<path class="st5" d="M340.7,289.7c1.2,1.5,2.1,3.2,2.8,5c0.6,1.8,1,3.6,1,5.4c0,1.8-0.3,3.2-1,4.3c-0.6,1.1-1.6,1.7-2.8,1.8
						s-2.7-0.3-4.4-1.3l-6.5-3.7c-0.5-0.3-0.9-0.7-1.2-1.2c-0.3-0.5-0.5-1-0.5-1.5v-15.6c0-0.5,0.2-0.8,0.5-0.9
						c0.3-0.1,0.7-0.1,1.2,0.2l6.5,3.7C338,286.8,339.5,288.1,340.7,289.7z M339.7,301.9c0.8-0.7,1.2-2,1.2-3.9s-0.4-3.6-1.2-5.3
						c-0.8-1.7-2-3-3.6-3.9l-4.5-2.6V299l4.5,2.6C337.7,302.5,338.9,302.6,339.7,301.9z"/>
					<path class="st5" d="M360,312c-0.3,0.1-0.7,0-1.1-0.3l-8.9-5.2c0.2,1.2,0.7,2.3,1.5,3.4c0.8,1.1,1.7,1.9,2.6,2.4
						c0.7,0.4,1.3,0.7,1.7,0.8c0.4,0.1,0.7,0.2,1,0.1s0.4,0,0.5,0c0.3,0,0.6,0.1,0.9,0.3c0.4,0.2,0.7,0.5,1,1
						c0.3,0.4,0.4,0.8,0.4,1.2c0,0.5-0.3,0.8-0.8,0.9c-0.5,0.1-1.2,0.1-2-0.1c-0.8-0.2-1.7-0.6-2.6-1.1c-1.5-0.9-2.8-2-4-3.2
						c-1.1-1.3-2-2.7-2.6-4.1c-0.6-1.5-0.9-2.9-0.9-4.3c0-1.6,0.3-2.7,1-3.5c0.6-0.8,1.5-1.2,2.6-1.2c1.1,0,2.2,0.3,3.4,1
						c1.2,0.7,2.3,1.7,3.4,2.9c1.1,1.3,1.9,2.6,2.5,4.1c0.6,1.5,0.9,2.8,0.9,4.1C360.5,311.6,360.3,311.9,360,312z M349.9,303.9
						l7.1,4.1v-0.2c-0.1-0.8-0.4-1.7-1.1-2.6c-0.7-0.9-1.4-1.6-2.3-2.1C351.5,301.8,350.3,302.1,349.9,303.9z"/>
					<path class="st5" d="M362.1,316.7c0-0.5,0.2-0.7,0.7-0.8c0.3,0,0.5,0.1,0.8,0.2c0.4,0.2,0.7,0.6,1.1,1.1
						c0.5,0.9,1.1,1.6,1.7,2.2s1.3,1.2,2.1,1.6c1.4,0.8,2.1,0.6,2.1-0.4c0-0.5-0.2-1.1-0.7-1.6c-0.5-0.5-1.2-1.2-2.2-2.1
						c-1-0.9-1.9-1.7-2.6-2.3c-0.7-0.7-1.2-1.4-1.7-2.3s-0.7-1.8-0.7-2.8c0-0.9,0.2-1.5,0.7-1.8c0.5-0.4,1.1-0.5,1.9-0.4
						c0.8,0.1,1.7,0.4,2.6,0.9c0.9,0.5,1.8,1.2,2.8,2.1c0.9,0.9,1.6,1.8,2.2,2.8c0.2,0.4,0.4,0.8,0.4,1.2c0,0.4-0.2,0.7-0.5,0.7
						c-0.3,0.1-0.5,0-0.9-0.2c-0.4-0.2-0.7-0.5-1-0.9c-0.3-0.6-0.7-1.1-1.3-1.7c-0.5-0.5-1.1-1-1.7-1.4c-1.4-0.8-2.1-0.7-2.1,0.3
						c0,0.4,0.1,0.8,0.4,1.2s0.6,0.8,1,1.1c0.4,0.4,0.9,0.8,1.6,1.4c1,0.8,1.8,1.6,2.4,2.2c0.6,0.7,1.2,1.4,1.7,2.3
						c0.5,0.9,0.7,1.8,0.7,2.7c0,0.9-0.3,1.5-0.8,1.9c-0.5,0.4-1.2,0.5-2,0.3c-0.8-0.1-1.7-0.4-2.5-0.9c-1.2-0.7-2.3-1.5-3.3-2.5
						c-1-1-1.9-2.1-2.5-3.4C362.2,317.3,362.1,317,362.1,316.7z"/>
					<path class="st5" d="M386.2,319.6c0.9,1,1.4,1.9,1.4,2.7c0,0.4-0.1,0.7-0.4,0.8c-0.2,0.2-0.5,0.1-0.9-0.1
						c-0.3-0.2-0.5-0.3-0.7-0.5c-0.2-0.2-0.4-0.4-0.5-0.6c-0.2-0.2-0.3-0.4-0.5-0.6c-0.2-0.2-0.4-0.4-0.8-0.7
						c-0.4-0.3-0.6-0.5-0.9-0.6c-1.4-0.8-2.4-1-3.2-0.6c-0.8,0.4-1.2,1.3-1.2,2.6c0,1.3,0.4,2.6,1.2,3.9c0.8,1.3,1.8,2.3,3,3
						c0.9,0.5,1.5,0.8,2,0.8c0.1,0,0.3,0,0.4,0s0.4,0,0.5,0c0.2,0,0.4,0.1,0.6,0.2c0.5,0.3,0.8,0.6,1.1,1.1c0.3,0.4,0.4,0.9,0.4,1.3
						c0,0.4-0.3,0.7-0.8,0.8c-0.5,0.1-1.2,0-2-0.2c-0.8-0.3-1.7-0.7-2.7-1.2c-1.4-0.8-2.6-1.8-3.7-3.1c-1.1-1.3-1.9-2.6-2.4-4.1
						c-0.6-1.5-0.9-2.9-0.9-4.3c0-1.5,0.3-2.6,0.9-3.4c0.6-0.8,1.4-1.2,2.5-1.2c1.1,0,2.3,0.4,3.7,1.2
						C384.1,317.6,385.3,318.6,386.2,319.6z"/>
					<path class="st5" d="M399.1,326.8c0.4,0.5,0.6,1,0.6,1.4c0,0.6-0.1,0.9-0.4,1c-0.3,0.1-0.6,0.1-1-0.2c-0.3-0.2-0.6-0.4-0.9-0.7
						c-0.1,0-0.2-0.2-0.4-0.3s-0.4-0.3-0.6-0.4c-0.5-0.3-0.9-0.4-1.4-0.3c-0.4,0-0.8,0.3-1.1,0.7c-0.3,0.4-0.4,1-0.4,1.9v6.4
						c0,0.5-0.2,0.8-0.5,0.9s-0.7,0.1-1.2-0.2c-0.5-0.3-0.9-0.7-1.2-1.1c-0.3-0.5-0.5-1-0.5-1.4v-11.2c0-0.5,0.2-0.8,0.5-0.9
						c0.3-0.1,0.7-0.1,1.2,0.2c0.5,0.3,0.9,0.7,1.2,1.1s0.5,1,0.5,1.4v0.4c0.4-0.5,1-0.7,1.8-0.7c0.8,0.1,1.6,0.3,2.5,0.9
						C398.2,325.8,398.7,326.2,399.1,326.8z"/>
					<path class="st5" d="M402,326.2c-0.3-0.3-0.4-0.8-0.4-1.3v-0.5c0-0.5,0.1-0.8,0.4-0.8s0.7,0.1,1.3,0.5c0.6,0.4,1.1,0.7,1.3,1.1
						c0.3,0.3,0.4,0.8,0.4,1.3v0.5c0,0.5-0.1,0.8-0.4,0.8c-0.3,0-0.7-0.1-1.3-0.5C402.7,326.9,402.3,326.6,402,326.2z M404.5,343.7
						c-0.3,0.1-0.7,0.1-1.2-0.2c-0.5-0.3-0.9-0.7-1.2-1.1c-0.3-0.5-0.5-1-0.5-1.4v-11.2c0-0.5,0.2-0.8,0.5-0.9
						c0.3-0.1,0.7-0.1,1.2,0.2c0.5,0.3,0.9,0.7,1.2,1.1c0.3,0.5,0.5,1,0.5,1.4v11.2C405,343.3,404.8,343.6,404.5,343.7z"/>
					<path class="st5" d="M419.2,338.9c1,1.2,1.8,2.6,2.4,4c0.6,1.5,0.9,2.9,0.9,4.4c0,1.4-0.3,2.6-0.9,3.4
						c-0.6,0.8-1.4,1.3-2.4,1.3c-1,0.1-2.1-0.3-3.3-1c-0.9-0.5-1.7-1.1-2.5-1.9s-1.4-1.6-1.9-2.4v5.3c0,0.5-0.2,0.8-0.5,0.9
						c-0.3,0.1-0.7,0.1-1.2-0.2c-0.5-0.3-0.9-0.6-1.2-1.1c-0.3-0.5-0.5-1-0.5-1.5v-16.6c0-0.5,0.2-0.8,0.5-0.9
						c0.3-0.1,0.7-0.1,1.2,0.2c0.5,0.3,0.9,0.7,1.2,1.1c0.3,0.5,0.5,1,0.5,1.4v0.1c0.4-0.3,1-0.4,1.8-0.4c0.8,0,1.6,0.3,2.4,0.8
						C417,336.7,418.2,337.7,419.2,338.9z M418.2,348.1c0.7-0.4,1.1-1.3,1.1-2.6s-0.4-2.6-1.1-3.9s-1.7-2.3-2.9-2.9
						s-2.1-0.8-2.9-0.4c-0.7,0.4-1.1,1.3-1.1,2.6s0.4,2.6,1.1,3.9c0.7,1.3,1.7,2.3,2.9,3C416.5,348.4,417.5,348.6,418.2,348.1z"/>
					<path class="st5" d="M425.3,339.6c-0.3-0.3-0.4-0.8-0.4-1.3v-0.5c0-0.5,0.1-0.8,0.4-0.8c0.3,0,0.7,0.1,1.3,0.5
						c0.6,0.4,1.1,0.7,1.3,1.1c0.3,0.3,0.4,0.8,0.4,1.3v0.5c0,0.5-0.1,0.8-0.4,0.8c-0.3,0-0.7-0.1-1.3-0.5
						C426,340.3,425.5,340,425.3,339.6z M427.8,357.2c-0.3,0.1-0.7,0.1-1.2-0.2c-0.5-0.3-0.9-0.7-1.2-1.1c-0.3-0.5-0.5-1-0.5-1.4
						v-11.2c0-0.5,0.2-0.8,0.5-0.9c0.3-0.1,0.7-0.1,1.2,0.2c0.5,0.3,0.9,0.7,1.2,1.1c0.3,0.5,0.5,1,0.5,1.4v11.2
						C428.2,356.7,428.1,357,427.8,357.2z"/>
					<path class="st5" d="M441.6,351.6c0.9,1,1.4,1.9,1.4,2.7c0,0.4-0.1,0.7-0.4,0.8c-0.2,0.2-0.5,0.1-0.9-0.1
						c-0.3-0.2-0.5-0.3-0.7-0.5c-0.2-0.2-0.4-0.4-0.5-0.6c-0.2-0.2-0.3-0.4-0.5-0.6c-0.2-0.2-0.4-0.4-0.8-0.7
						c-0.4-0.3-0.6-0.5-0.9-0.6c-1.4-0.8-2.4-1-3.2-0.6c-0.8,0.4-1.2,1.3-1.2,2.6c0,1.3,0.4,2.6,1.2,3.9c0.8,1.3,1.8,2.3,3,3
						c0.9,0.5,1.5,0.8,2,0.8c0.1,0,0.3,0,0.4,0c0.2,0,0.4,0,0.5,0c0.2,0,0.4,0.1,0.6,0.2c0.5,0.3,0.8,0.6,1.1,1.1s0.4,0.9,0.4,1.3
						c0,0.4-0.3,0.7-0.8,0.8c-0.5,0.1-1.2,0-2-0.2s-1.7-0.7-2.7-1.2c-1.4-0.8-2.6-1.8-3.7-3.1c-1.1-1.3-1.9-2.6-2.4-4.1
						c-0.6-1.5-0.9-2.9-0.9-4.3c0-1.5,0.3-2.6,0.9-3.4s1.4-1.2,2.5-1.2c1.1,0,2.3,0.4,3.7,1.2C439.4,349.6,440.6,350.5,441.6,351.6z
						"/>
					<path class="st5" d="M445.6,351.4c-0.3-0.3-0.4-0.8-0.4-1.3v-0.5c0-0.5,0.1-0.8,0.4-0.8s0.7,0.1,1.3,0.5
						c0.6,0.4,1.1,0.7,1.3,1.1c0.3,0.3,0.4,0.8,0.4,1.3v0.5c0,0.5-0.1,0.8-0.4,0.8c-0.3,0-0.7-0.1-1.3-0.5
						C446.3,352.1,445.9,351.7,445.6,351.4z M448.1,368.9c-0.3,0.1-0.7,0.1-1.2-0.2c-0.5-0.3-0.9-0.7-1.2-1.1
						c-0.3-0.5-0.5-1-0.5-1.4v-11.2c0-0.5,0.2-0.8,0.5-0.9c0.3-0.1,0.7-0.1,1.2,0.2c0.5,0.3,0.9,0.7,1.2,1.1c0.3,0.5,0.5,1,0.5,1.4
						V368C448.6,368.4,448.4,368.8,448.1,368.9z"/>
					<path class="st5" d="M464.8,375.7c-0.6,0.8-1.5,1.1-2.7,1.1c-1.1,0-2.4-0.4-3.7-1.2c-1.4-0.8-2.6-1.8-3.7-3.1
						c-1.1-1.3-2-2.7-2.7-4.2c-0.6-1.5-1-3-1-4.4c0-1.4,0.3-2.6,1-3.3c0.6-0.8,1.5-1.2,2.7-1.1c1.1,0,2.4,0.4,3.7,1.2
						c1.4,0.8,2.6,1.8,3.7,3.1c1.1,1.3,2,2.7,2.7,4.2c0.6,1.5,1,3,1,4.4C465.8,373.8,465.5,374.9,464.8,375.7z M462,367.8
						c-0.4-0.9-0.9-1.7-1.5-2.5c-0.6-0.7-1.3-1.3-2.1-1.8s-1.4-0.6-2.1-0.6c-0.6,0-1.1,0.3-1.5,0.8s-0.6,1.2-0.6,2
						c0,0.9,0.2,1.8,0.6,2.7c0.4,0.9,0.9,1.7,1.5,2.5c0.6,0.7,1.3,1.3,2.1,1.8s1.4,0.6,2.1,0.6c0.6,0,1.1-0.3,1.5-0.7
						c0.4-0.5,0.6-1.1,0.6-2C462.5,369.6,462.4,368.7,462,367.8z M458,359.4c-0.2-0.3-0.3-0.6-0.3-0.8c0-0.2,0.1-0.3,0.2-0.4
						l1.6-1.9c0.2-0.2,0.4-0.4,0.6-0.4c0.3-0.1,0.5,0,0.8,0.2c0.5,0.3,0.9,0.6,1.1,1c0.2,0.4,0.4,0.8,0.3,1.2c0,0.4-0.2,0.7-0.5,0.9
						l-2.1,1.1c-0.3,0.1-0.7,0.1-1.2-0.2C458.4,359.9,458.2,359.7,458,359.4z"/>
					<path class="st5" d="M480.1,374.7c0.7,1.5,1.1,3.2,1.1,5.1v6.9c0,0.5-0.2,0.8-0.5,0.9c-0.3,0.1-0.7,0.1-1.2-0.2
						c-0.5-0.3-0.9-0.7-1.2-1.1c-0.3-0.5-0.5-1-0.5-1.4V378c0-1-0.2-1.9-0.6-2.7c-0.4-0.8-1.1-1.5-2.1-2.1c-1-0.6-1.9-0.8-2.5-0.5
						c-0.6,0.3-0.9,0.9-0.9,1.8v6.9c0,0.5-0.2,0.8-0.5,0.9c-0.3,0.1-0.7,0.1-1.2-0.2c-0.5-0.3-0.9-0.7-1.2-1.1
						c-0.3-0.5-0.5-1-0.5-1.4v-11.2c0-0.5,0.2-0.8,0.5-0.9c0.3-0.1,0.7-0.1,1.2,0.2c0.5,0.3,0.9,0.7,1.2,1.1c0.3,0.5,0.5,1,0.5,1.4
						v0.5c0.5-0.4,1.1-0.6,1.9-0.6c0.8,0,1.6,0.2,2.6,0.8C478.1,371.9,479.4,373.2,480.1,374.7z"/>
					<path class="st5" d="M625.1,464.1c0.1,0.3,0.2,0.6,0.2,0.8c0,0.3-0.1,0.5-0.2,0.6c-0.1,0.2-0.3,0.2-0.5,0.2l-8.8,0
						c-0.5,0-0.9-0.1-1.2-0.3c-0.4-0.2-0.7-0.6-1-1.1c-0.3-0.5-0.5-1-0.5-1.4c0-0.4,0.2-0.6,0.6-0.6l7.2,0l-7.2-8.4
						c-0.4-0.4-0.6-0.9-0.6-1.4c0-0.4,0.1-0.7,0.4-0.9c0.3-0.2,0.6-0.2,0.9,0c0.2,0.1,0.4,0.3,0.6,0.5c0.2,0.3,0.5,0.5,0.7,0.8
						l8.8,10.2C624.8,463.5,625,463.8,625.1,464.1z"/>
				</g>
				<g>
					<path class="st12" d="M424.3,433.5c0.8,1,1.5,2.2,2,3.4c0.5,1.2,0.8,2.4,0.8,3.5c0,1.1-0.3,1.9-0.8,2.6c-0.5,0.6-1.2,1-2,1.1
						c-0.8,0.1-1.7-0.2-2.6-0.7l-4.7-2.7v5.1c0,0.5-0.1,0.8-0.4,0.9s-0.7,0.1-1.1-0.2c-0.5-0.3-0.8-0.6-1.1-1.1
						c-0.3-0.5-0.4-1-0.4-1.4v-15.6c0-0.5,0.2-0.8,0.5-0.9c0.3-0.1,0.7-0.1,1.2,0.2l6.2,3.6C422.6,431.7,423.5,432.5,424.3,433.5z
						 M422.7,440.4c0.3-0.1,0.6-0.3,0.8-0.7c0.2-0.3,0.3-0.8,0.3-1.3c0-0.5-0.1-1-0.3-1.6c-0.2-0.6-0.5-1.1-0.8-1.6
						c-0.3-0.5-0.7-0.8-1-1l-4.7-2.7v6l4.7,2.7C422.1,440.5,422.4,440.5,422.7,440.4z"/>
					<path class="st12" d="M444.1,461.6c0,0.5-0.2,0.8-0.5,0.9c-0.3,0.1-0.7,0.1-1.1-0.2c-0.3-0.2-0.6-0.5-0.9-0.8
						c-0.3-0.3-0.5-0.7-0.6-1.2l-1.4-4.1l-8.1-4.7l-1.4,2.5c-0.1,0.3-0.3,0.4-0.6,0.5c-0.3,0-0.5,0-0.9-0.2c-0.5-0.3-0.8-0.6-1.1-1
						c-0.2-0.4-0.4-0.8-0.4-1.2c0-0.2,0-0.3,0.1-0.5l6.7-12.3c0.1-0.3,0.4-0.4,0.6-0.5s0.6,0.1,1,0.3c0.3,0.2,0.6,0.5,0.9,0.8
						c0.3,0.4,0.5,0.7,0.6,1.2l6.7,19.7C444.1,461.2,444.1,461.4,444.1,461.6z M433,449.3l5.4,3.1l-2.7-7.9L433,449.3z"/>
					<path class="st12" d="M461.4,463.3c0.3,0.5,0.5,1,0.5,1.4v5.7c0,0.6-0.3,1-0.8,1c-1.8,0.1-3.7-0.5-5.8-1.7
						c-1.8-1-3.4-2.4-5-4.2s-2.7-3.6-3.6-5.6s-1.3-3.9-1.3-5.7c0-1.8,0.4-3.1,1.3-4.1s2.1-1.5,3.6-1.5s3.2,0.5,5,1.5
						s3.3,2.3,4.7,3.8c0.3,0.3,0.5,0.6,0.6,0.9s0.2,0.6,0.2,0.9c0,0.5-0.1,0.8-0.4,0.9s-0.7,0.1-1.1-0.1c-0.3-0.2-0.6-0.4-0.9-0.7
						c-1-1-2-1.8-3-2.4c-1.2-0.7-2.2-1-3.2-1c-1,0-1.7,0.4-2.3,1c-0.6,0.7-0.9,1.6-0.9,2.8c0,1.2,0.3,2.4,0.9,3.7
						c0.6,1.3,1.3,2.6,2.3,3.7c1,1.1,2,2.1,3.2,2.7c0.5,0.3,1,0.6,1.6,0.8c0.6,0.2,1.1,0.4,1.5,0.5v-3.5l-2.5-1.5
						c-0.5-0.3-0.9-0.7-1.2-1.1c-0.3-0.5-0.5-1-0.5-1.4c0-0.5,0.2-0.8,0.5-0.9c0.3-0.1,0.7-0.1,1.2,0.2l4.4,2.6
						C460.7,462.4,461.1,462.8,461.4,463.3z"/>
					<path class="st12" d="M480.1,482.4c0,0.5-0.2,0.8-0.5,0.9c-0.3,0.1-0.7,0.1-1.1-0.2c-0.3-0.2-0.6-0.5-0.9-0.8
						c-0.3-0.3-0.5-0.7-0.6-1.2l-1.4-4.1l-8.1-4.7l-1.4,2.5c-0.1,0.3-0.3,0.4-0.6,0.5c-0.3,0-0.5,0-0.9-0.2c-0.5-0.3-0.8-0.6-1.1-1
						s-0.4-0.8-0.4-1.2c0-0.2,0-0.3,0.1-0.5l6.7-12.3c0.1-0.3,0.4-0.4,0.6-0.5c0.3,0,0.6,0.1,1,0.3c0.3,0.2,0.6,0.5,0.9,0.8
						c0.3,0.4,0.5,0.7,0.6,1.2l6.7,19.7C480.1,482,480.1,482.2,480.1,482.4z M469,470.1l5.4,3.1l-2.7-7.9L469,470.1z"/>
					<path class="st12" d="M497.9,492c0.1,0.3,0.2,0.6,0.2,0.8c0,0.3-0.1,0.6-0.3,0.7c-0.3,0.2-0.7,0.1-1.2-0.2
						c-0.4-0.3-0.8-0.6-1.2-1c-1.3-1.5-1.9-3.4-1.9-5.6c0-0.6-0.2-1.3-0.6-1.9c-0.4-0.6-1-1.2-1.8-1.6l-5.1-2.9v5.3
						c0,0.5-0.1,0.8-0.4,1c-0.3,0.2-0.6,0.1-1-0.1c-0.5-0.3-1-0.7-1.4-1.3c-0.4-0.5-0.6-1-0.6-1.5v-15.6c0-0.5,0.2-0.8,0.5-0.9
						c0.3-0.1,0.7-0.1,1.2,0.2l7.8,4.5c0.9,0.5,1.8,1.3,2.7,2.3c0.8,1,1.5,2.1,2,3.2c0.5,1.2,0.7,2.3,0.7,3.4c0,0.9-0.2,1.6-0.7,2.2
						c-0.5,0.6-1.1,0.9-1.9,0.9c1.1,1.5,1.8,2.9,1.9,4.3c0.1,0.3,0.1,0.6,0.1,0.9c0.1,0.6,0.1,1,0.2,1.3s0.2,0.6,0.5,0.8
						C497.5,491.4,497.7,491.7,497.9,492z M492.7,481c0.3-0.1,0.6-0.4,0.8-0.8c0.2-0.4,0.3-0.9,0.3-1.5c0-0.5-0.1-1-0.3-1.6
						c-0.2-0.5-0.5-1-0.8-1.5c-0.3-0.4-0.6-0.7-0.9-0.9l-5.9-3.4v6.1l5.9,3.4C492.1,481.1,492.4,481.1,492.7,481z"/>
				</g>
				<g>
					<g>
						<path class="st12" d="M643,658.4l159.3,91.3c3.3,1.9,7.4-0.5,7.4-4.3V558.9l-169.2-97.8v193
							C640.6,655.9,641.5,657.5,643,658.4z"/>
					</g>
					<linearGradient id="SVGID_11_" gradientUnits="userSpaceOnUse" x1="639.4334" y1="510.9022" x2="810.8695" y2="510.9022">
						<stop  offset="0" style="stop-color:#7063F1"/>
						<stop  offset="1" style="stop-color:#3A79F3"/>
					</linearGradient>
					<polygon class="st15" points="639.4,510.3 639.4,413.3 810.9,510.3 810.9,608.5 					"/>
				</g>
				<path class="st5" d="M580,609.3"/>
			</g>
			
				<ellipse transform="matrix(0.1628 -0.9867 0.9867 0.1628 -860.0659 1022.679)" class="st16" cx="172.6" cy="1018.1" rx="36.7" ry="94.6"/>
			<g>
				<defs>
					<polygon id="SVGID_12_" points="533.9,656 584.9,619 585.1,597.1 320.1,449.4 111.3,569.3 405.7,736.2 					"/>
				</defs>
				<clipPath id="SVGID_13_">
					<use xlink:href="#SVGID_12_"  style="overflow:visible;"/>
				</clipPath>
				<g class="st17">
					<linearGradient id="SVGID_14_" gradientUnits="userSpaceOnUse" x1="381.8916" y1="710.4816" x2="500.3016" y2="385.1527">
						<stop  offset="0" style="stop-color:#FF6567"/>
						<stop  offset="1" style="stop-color:#FFA04E"/>
					</linearGradient>
					<path class="st18" d="M482.4,378.6L152,563.6l-1.2,6.2c-0.7,3.1,0.7,6.2,3.4,7.7l236.2,135.9c3.9,2.2,8.7,2.2,12.6,0
						l330.9-191.5V514L482.4,378.6z"/>
					<linearGradient id="SVGID_15_" gradientUnits="userSpaceOnUse" x1="242.4975" y1="415.7502" x2="640.0775" y2="664.1857">
						<stop  offset="0" style="stop-color:#FFA04E"/>
						<stop  offset="1" style="stop-color:#FF6567"/>
					</linearGradient>
					<path class="st19" d="M482.4,370.7L155.1,557.3c-4.9,2.8-4.9,9.8,0,12.6l231.7,133.5c6.1,3.5,13.7,3.5,19.8,0L733.9,514
						L482.4,370.7z"/>
					<g>
						<path class="st20" d="M262,554.5l-12.5,6.6l-1.2,6.9c-0.1,0.4,0.2,0.7,0.6,1c0.9,0.5,2.6,0.4,3.7-0.2l20.7-11l-6.7-3.6
							C265.4,553.7,263.4,553.8,262,554.5z"/>
						<path class="st20" d="M260.8,577.3c-0.9-0.5-2.6-0.4-3.7,0.2l-20.7,11l6.8,3.6c1.1,0.6,3.1,0.5,4.5-0.3l12.5-6.6l1.2-6.9
							C261.5,577.9,261.3,577.6,260.8,577.3z"/>
						<path class="st20" d="M262,576.7c-1.2-0.6-1-1.8,0.5-2.5l4.7-2.5l-9.5-5.1l-4.7,2.5c-1.4,0.8-3.6,0.9-4.8,0.2
							c-0.6-0.3-0.8-0.7-0.8-1.2l1.2-6.5l-15.6,8.3l12.3-0.6c0.9,0,1.7,0.1,2.3,0.4c1.2,0.6,1,1.8-0.5,2.5l-4.8,2.6l9.5,5.1l4.8-2.6
							c1.4-0.8,3.6-0.9,4.8-0.2c0.6,0.3,0.8,0.7,0.8,1.2l-1.2,6.6l15.7-8.4l-12.5,0.6C263.4,577.1,262.6,577,262,576.7z"/>
						<path class="st20" d="M247.1,570c-0.4-0.2-1.1-0.4-1.8-0.3l-13,0.6l-12.5,6.6c-1.4,0.7-1.6,1.8-0.5,2.4l6.8,3.6l20.7-11
							C247.9,571.4,248,570.5,247.1,570z"/>
						<polygon class="st20" points="241.8,575.1 226.5,583.2 235.9,588.3 251.2,580.1 						"/>
						<path class="st20" d="M262.6,576.4c0.5,0.2,1.1,0.4,1.8,0.3l13.1-0.6l12.4-6.6c1.4-0.7,1.6-1.8,0.5-2.4l-6.8-3.7l-20.7,11
							C261.8,575,261.6,575.9,262.6,576.4z"/>
						<polygon class="st20" points="267.7,571.3 283.2,563.1 273.7,558.1 258.3,566.3 						"/>
						<path class="st21" d="M248.8,569c-0.4-0.2-0.7-0.6-0.6-1l1.2-6.9l-0.8,0.4l-1.2,6.5c-0.1,0.5,0.2,0.9,0.8,1.2
							c1.2,0.6,3.3,0.5,4.8-0.2l4.7-2.5l9.5,5.1l-4.7,2.5c-1.4,0.8-1.6,1.9-0.5,2.5c0.6,0.3,1.4,0.4,2.3,0.4l12.5-0.6l0.8-0.4
							l-13.1,0.6c-0.7,0-1.3-0.1-1.8-0.3c-0.9-0.5-0.8-1.4,0.3-2l20.7-11l-0.5-0.2l-15.5,8.2l-9.5-5.1l15.5-8.2l-0.5-0.2l-20.7,11
							C251.4,569.4,249.8,569.5,248.8,569z"/>
						<path class="st21" d="M261.4,577c-1.2-0.6-3.3-0.5-4.8,0.2l-4.8,2.6l-9.5-5.1l4.8-2.6c1.4-0.8,1.6-1.9,0.5-2.5
							c-0.6-0.3-1.4-0.4-2.3-0.4l-12.3,0.6l-0.8,0.4l13-0.6c0.7,0,1.4,0.1,1.8,0.3c0.9,0.5,0.8,1.4-0.3,2L226,583l0.5,0.2l15.3-8.1
							l9.5,5.1l-15.3,8.1l0.5,0.2l20.7-11c1.1-0.6,2.8-0.7,3.7-0.2c0.4,0.2,0.7,0.6,0.6,1l-1.2,6.9l0.8-0.4l1.2-6.6
							C262.2,577.8,262,577.3,261.4,577z"/>
					</g>
					<g>
						<path class="st12" d="M321.7,608.3c0.6,0,1,0.1,1.4,0.3c0.2,0.1,0.3,0.3,0.4,0.5l8,15.6c0.1,0.2,0.1,0.5,0,0.7
							c-0.1,0.2-0.3,0.5-0.6,0.6c-0.4,0.2-0.9,0.4-1.5,0.4c-0.6,0-1,0-1.4-0.3c-0.2-0.1-0.3-0.3-0.4-0.5l-7.2-14.2l-9.7,5.6
							c-0.4,0.2-0.9,0.4-1.4,0.4c-0.5,0-1-0.1-1.3-0.3c-0.4-0.2-0.5-0.5-0.5-0.8c0.1-0.3,0.3-0.6,0.8-0.8l11.9-6.9
							C320.6,608.5,321.1,608.4,321.7,608.3z"/>
						<path class="st12" d="M344.2,604.3c1.7-0.3,3.3-0.3,5-0.1c1.6,0.2,3,0.7,4.2,1.4c1.2,0.7,1.9,1.6,2.2,2.6c0.3,1,0.2,2-0.4,3
							c-0.6,1-1.6,1.9-3,2.8c-1.6,0.9-3.3,1.5-5.2,1.8c-1.9,0.3-3.7,0.2-5.4-0.1c-1.7-0.3-3.3-0.9-4.6-1.7c-1.4-0.9-2.7-2-3.7-3.5
							c-1.1-1.4-1.6-3.1-1.5-4.9s0.9-3.6,2.7-5.3c0.1-0.2,0.3-0.3,0.5-0.4c0.5-0.3,1-0.4,1.5-0.5c0.5,0,1,0.1,1.4,0.3
							c0.3,0.2,0.5,0.4,0.5,0.7c0,0.3-0.2,0.6-0.5,0.9c-1.1,1.2-1.7,2.5-1.9,4c-0.2,1.5,0.1,2.8,1,4c0.3-1.4,1.3-2.6,3-3.6
							C341.1,605,342.5,604.6,344.2,604.3z M351.8,609.9c0.1-0.9-0.4-1.8-1.6-2.5c-1.1-0.7-2.4-1-4-1c-1.6,0-3,0.4-4.3,1.1
							c-1.3,0.8-2,1.6-2.1,2.6c-0.1,1,0.4,1.8,1.6,2.5c1.1,0.7,2.4,1,4,1c1.6,0,3.1-0.4,4.4-1.2C351,611.7,351.7,610.9,351.8,609.9z
							"/>
						<path class="st12" d="M368.8,594.3c1.4,0.1,2.6,0.5,3.5,1c1,0.6,1.6,1.4,1.8,2.3c0.2,0.9,0,1.9-0.7,2.9c-0.6,1-1.7,1.9-3,2.7
							c-1.4,0.8-2.9,1.4-4.6,1.7c-1.7,0.4-3.3,0.5-4.8,0.3c-1.5-0.1-2.8-0.5-3.8-1.2c-1-0.6-1.6-1.3-1.7-2.2s0.1-1.7,0.6-2.6
							c-1.2,0.2-2.4,0.3-3.6,0.2c-1.2-0.1-2.3-0.4-3.2-1c-1-0.6-1.6-1.4-1.8-2.2c-0.2-0.9,0-1.8,0.5-2.7c0.6-0.9,1.5-1.7,2.8-2.5
							c1.3-0.7,2.7-1.3,4.2-1.6c1.6-0.3,3.1-0.4,4.5-0.2c1.5,0.2,2.7,0.6,3.7,1.2c1,0.6,1.5,1.2,1.6,2c0.1,0.7-0.1,1.4-0.5,2.2
							C365.9,594.2,367.4,594.1,368.8,594.3z M351.4,594.7c-0.1,0.8,0.2,1.4,1.1,2c0.9,0.5,2,0.8,3.3,0.7c1.3-0.1,2.5-0.4,3.6-1
							c1-0.6,1.6-1.3,1.8-2.1c0.1-0.8-0.2-1.4-1.1-2c-0.9-0.6-2-0.8-3.3-0.7c-1.3,0.1-2.5,0.4-3.6,1
							C352.2,593.2,351.5,593.9,351.4,594.7z M370.2,599.3c0.2-0.9-0.1-1.6-1.1-2.2s-2.1-0.8-3.6-0.7c-1.5,0.1-2.8,0.5-4,1.2
							c-1.2,0.7-1.9,1.5-2.1,2.4c-0.2,0.9,0.2,1.6,1.1,2.2s2.1,0.8,3.6,0.7c1.4-0.1,2.8-0.5,4-1.2
							C369.3,600.9,370,600.1,370.2,599.3z"/>
						<path class="st12" d="M374.5,578.2c1.9-0.3,3.7-0.2,5.4,0.1c1.7,0.3,3.2,0.9,4.5,1.7c1.4,0.9,2.7,2,3.7,3.5s1.5,3,1.5,4.8
							c0,1.8-0.9,3.5-2.7,5.3c-0.1,0.2-0.3,0.3-0.5,0.4c-0.4,0.3-0.9,0.4-1.5,0.5c-0.5,0.1-1-0.1-1.5-0.3c-0.3-0.2-0.5-0.4-0.5-0.7
							c0-0.3,0.2-0.6,0.5-0.9c1.1-1.2,1.8-2.5,2-4c0.2-1.5-0.1-2.8-0.9-4c-0.2,1.4-1.2,2.6-2.9,3.6c-1.2,0.7-2.7,1.2-4.4,1.5
							c-1.7,0.3-3.4,0.3-5,0.1c-1.7-0.2-3.1-0.7-4.2-1.4c-1.1-0.7-1.9-1.5-2.2-2.5c-0.3-1-0.2-2,0.4-3c0.6-1,1.6-1.9,3-2.8
							C370.9,579.1,372.6,578.5,374.5,578.2z M381.8,583.8c0.1-1-0.4-1.8-1.6-2.5c-1.1-0.7-2.4-1-4-1c-1.6,0-3.1,0.4-4.4,1.2
							c-1.2,0.7-1.9,1.6-2,2.5c-0.1,0.9,0.4,1.8,1.5,2.5c1.1,0.7,2.5,1,4.1,1s3-0.4,4.3-1.1C380.9,585.6,381.7,584.7,381.8,583.8z"
							/>
						<path class="st12" d="M406.3,559.5c0.5,0,1,0.1,1.4,0.3l16.9,10.4c0.4,0.2,0.5,0.5,0.5,0.9c-0.1,0.4-0.4,0.7-0.8,1
							c-0.5,0.3-1,0.4-1.6,0.5c-0.6,0-1-0.1-1.4-0.3l-14.6-9l-1.5,2.6c-0.1,0.2-0.3,0.4-0.6,0.6c-0.4,0.3-1,0.4-1.6,0.4
							c-0.6,0-1.1-0.1-1.4-0.3c-0.2-0.1-0.4-0.3-0.4-0.5c-0.1-0.2,0-0.4,0.1-0.7l2.6-4.7c0.2-0.3,0.5-0.5,1-0.8
							C405.2,559.6,405.7,559.5,406.3,559.5z"/>
						<path class="st12" d="M443.3,558.5c0.5,0,1,0.1,1.3,0.3c0.4,0.2,0.5,0.5,0.4,0.8c-0.1,0.3-0.3,0.6-0.7,0.8l-11.9,6.8
							c-0.4,0.3-0.9,0.4-1.5,0.4c-0.5,0-1-0.1-1.4-0.3c-0.3-0.2-0.5-0.5-0.5-0.9l0.7-8.5c0.2-2.3-0.4-3.9-1.8-4.8
							c-1-0.6-2.2-0.9-3.7-0.9c-1.5,0-2.8,0.4-4,1.1c-0.8,0.5-1.4,1.1-1.8,1.7c-0.4,0.7-0.4,1.4-0.2,2.1c0,0.4-0.2,0.8-0.7,1.1
							c-0.4,0.2-0.9,0.3-1.4,0.4c-0.6,0-1,0-1.3-0.2c-0.2-0.1-0.3-0.3-0.4-0.5c-0.1-0.2-0.1-0.5-0.1-0.9c-0.1-0.9,0.2-1.9,0.8-2.8
							c0.7-1,1.6-1.8,2.7-2.4c1.5-0.9,3-1.5,4.6-1.8c1.6-0.3,3.1-0.4,4.6-0.2c1.5,0.2,2.8,0.6,3.9,1.3c2.1,1.3,3.1,3.5,2.8,6.7
							l-0.4,5.8l8.3-4.8C442.3,558.7,442.7,558.6,443.3,558.5z"/>
						<path class="st12" d="M448,544.5c1.5-0.3,3.1-0.3,4.6,0c1.5,0.2,2.8,0.7,4,1.4c1.3,0.8,2.1,1.7,2.4,2.8c0.3,1,0,2.1-0.7,3.2
							c-0.8,1.1-2,2.1-3.6,3.1c-0.9,0.5-1.9,0.9-2.9,1.3c-1,0.4-2.1,0.6-3.1,0.7c-0.9,0.2-1.6,0.1-2.1-0.2c-0.4-0.2-0.5-0.5-0.5-0.9
							c0-0.4,0.2-0.7,0.6-0.9c0.4-0.2,0.9-0.4,1.6-0.5c1.6-0.1,3.1-0.5,4.5-1.3c0.9-0.5,1.5-1.1,1.9-1.7c0.4-0.6,0.5-1.3,0.3-1.9
							c-0.2-0.6-0.7-1.2-1.5-1.7c-1.2-0.7-2.6-1.1-4.1-1c-1.5,0.1-2.9,0.5-4.2,1.2c-0.4,0.2-0.8,0.5-1.3,1c-0.4,0.4-0.7,0.6-0.9,0.7
							c-0.4,0.2-0.8,0.3-1.3,0.3c-0.5,0-0.9-0.1-1.3-0.3c-0.2-0.1-0.3-0.3-0.4-0.4c-0.1-0.1-0.1-0.3-0.1-0.6l0.4-6.5l-7.7,4.5
							c-0.4,0.2-0.9,0.4-1.4,0.4c-0.5,0-1-0.1-1.3-0.3c-0.4-0.2-0.5-0.5-0.4-0.8c0.1-0.3,0.3-0.6,0.7-0.8l10.7-6.2
							c0.5-0.3,1-0.4,1.6-0.5c0.6,0,1,0.1,1.4,0.3c0.3,0.2,0.5,0.5,0.4,1l-0.4,6C445.1,545.2,446.5,544.7,448,544.5z"/>
						<path class="st12" d="M475.7,533.1c0.5,0,1,0.1,1.3,0.3c0.4,0.2,0.5,0.5,0.4,0.8c-0.1,0.3-0.3,0.6-0.7,0.8l-1.8,1l4.3,2.6
							c0.4,0.2,0.5,0.5,0.5,0.9c-0.1,0.3-0.3,0.6-0.7,0.9c-0.4,0.3-0.9,0.4-1.5,0.4c-0.6,0-1-0.1-1.4-0.3l-4.3-2.6l-9.2,5.3
							c-0.4,0.2-0.9,0.4-1.5,0.4c-0.6,0-1.1-0.1-1.4-0.3c-0.3-0.2-0.5-0.5-0.5-0.8l-0.6-13.1c0-0.2,0.1-0.4,0.2-0.6
							c0.1-0.2,0.3-0.4,0.6-0.5c0.4-0.3,0.9-0.4,1.5-0.4c0.6,0,1,0.1,1.4,0.3l10.2,6.3l1.8-1C474.7,533.3,475.2,533.2,475.7,533.1z
							 M462.8,540.2l6.5-3.8l-7-4.3L462.8,540.2z"/>
						<path class="st12" d="M505,510.8c1.7-0.3,3.4-0.4,5.1-0.2c1.6,0.2,3.1,0.7,4.3,1.4c1.3,0.8,2.1,1.7,2.3,2.8s0,2.2-0.8,3.4
							s-2,2.2-3.6,3.2c-0.9,0.5-1.9,1-3.1,1.4c-1.2,0.4-2.3,0.6-3.3,0.7c-0.4,0-0.7,0-1.1-0.1s-0.7-0.2-0.9-0.3
							c-0.3-0.2-0.4-0.4-0.4-0.7c0-0.3,0.3-0.6,0.7-0.8c0.3-0.2,0.8-0.3,1.6-0.4c1.6-0.2,3-0.6,4-1.2c1.1-0.6,1.8-1.3,2.3-2
							c0.5-0.7,0.7-1.5,0.5-2.2c-0.2-0.7-0.6-1.3-1.4-1.8c-1.2-0.7-2.6-1.1-4.3-1c-1.7,0.1-3.2,0.5-4.6,1.4c-0.6,0.3-1.1,0.7-1.4,1
							c-0.3,0.3-0.7,0.8-1.1,1.3c-0.2,0.2-0.3,0.4-0.5,0.6c-0.2,0.2-0.3,0.4-0.5,0.5c-0.6,0.4-1.3,0.6-1.9,0.5
							c-0.6,0-1.1-0.1-1.6-0.4l-0.2-0.2l-6.1-5.2c-0.2-0.2-0.3-0.5-0.2-0.8c0.1-0.3,0.4-0.6,0.8-0.8l9.8-5.7
							c0.4-0.2,0.9-0.4,1.4-0.4c0.5,0,1,0.1,1.3,0.3c0.4,0.2,0.5,0.5,0.5,0.8c0,0.3-0.3,0.6-0.7,0.8l-8.7,5l3.9,3.4
							c0.3-0.4,0.7-0.9,1.2-1.4c0.6-0.5,1.2-0.9,1.9-1.3C501.7,511.7,503.3,511.1,505,510.8z"/>
						<path class="st12" d="M524,499.8c1.7-0.3,3.4-0.4,5.1-0.2c1.6,0.2,3.1,0.7,4.3,1.4c1.3,0.8,2.1,1.7,2.3,2.8
							c0.3,1.1,0,2.2-0.8,3.4c-0.8,1.2-2,2.2-3.6,3.2c-0.9,0.5-1.9,1-3.1,1.4c-1.2,0.4-2.3,0.6-3.3,0.7c-0.4,0-0.7,0-1.1-0.1
							c-0.4-0.1-0.7-0.2-0.9-0.3c-0.3-0.2-0.4-0.4-0.4-0.7c0-0.3,0.3-0.6,0.7-0.8c0.3-0.2,0.8-0.3,1.6-0.4c1.6-0.2,3-0.6,4-1.2
							c1.1-0.6,1.8-1.3,2.3-2c0.5-0.7,0.7-1.5,0.5-2.2c-0.2-0.7-0.6-1.3-1.4-1.8c-1.2-0.7-2.6-1.1-4.3-1c-1.7,0.1-3.2,0.5-4.6,1.4
							c-0.6,0.3-1.1,0.7-1.4,1c-0.3,0.3-0.7,0.8-1.1,1.3c-0.2,0.2-0.3,0.4-0.5,0.6c-0.2,0.2-0.3,0.4-0.5,0.5
							c-0.6,0.4-1.3,0.6-1.9,0.5c-0.6,0-1.1-0.1-1.6-0.4l-0.2-0.2l-6.1-5.2c-0.2-0.2-0.3-0.5-0.2-0.8c0.1-0.3,0.4-0.6,0.8-0.8
							l9.8-5.7c0.4-0.2,0.9-0.4,1.4-0.4c0.5,0,1,0.1,1.3,0.3c0.4,0.2,0.5,0.5,0.5,0.8c0,0.3-0.3,0.6-0.7,0.8l-8.7,5l3.9,3.4
							c0.3-0.4,0.7-0.9,1.2-1.4c0.6-0.5,1.2-0.9,1.9-1.3C520.6,500.8,522.2,500.2,524,499.8z"/>
						<path class="st12" d="M553.6,488.1c0.5,0,1,0.1,1.3,0.3c0.4,0.2,0.5,0.5,0.4,0.8c-0.1,0.3-0.3,0.6-0.7,0.8l-1.8,1l4.3,2.6
							c0.4,0.2,0.5,0.5,0.5,0.9c-0.1,0.3-0.3,0.6-0.7,0.9c-0.4,0.3-0.9,0.4-1.5,0.4c-0.6,0-1-0.1-1.4-0.3l-4.3-2.6l-9.2,5.3
							c-0.4,0.2-0.9,0.4-1.5,0.4c-0.6,0-1.1-0.1-1.4-0.3c-0.3-0.2-0.5-0.5-0.5-0.8l-0.6-13.1c0-0.2,0.1-0.4,0.2-0.6
							c0.1-0.2,0.3-0.4,0.6-0.5c0.4-0.3,0.9-0.4,1.5-0.4c0.6,0,1,0.1,1.4,0.3l10.2,6.3l1.8-1C552.6,488.3,553.1,488.2,553.6,488.1z
							 M540.7,495.2l6.5-3.8l-7-4.3L540.7,495.2z"/>
						<path class="st12" d="M575.2,475.7c0.5,0,1,0.1,1.3,0.3c0.4,0.2,0.5,0.5,0.4,0.8c-0.1,0.3-0.3,0.6-0.7,0.8l-1.8,1l4.3,2.6
							c0.4,0.2,0.5,0.5,0.5,0.9c-0.1,0.3-0.3,0.6-0.7,0.9c-0.4,0.3-0.9,0.4-1.5,0.4c-0.6,0-1-0.1-1.4-0.3l-4.3-2.6l-9.2,5.3
							c-0.4,0.2-0.9,0.4-1.5,0.4c-0.6,0-1.1-0.1-1.4-0.3c-0.3-0.2-0.5-0.5-0.5-0.8l-0.6-13.1c0-0.2,0.1-0.4,0.2-0.6
							c0.1-0.2,0.3-0.4,0.6-0.5c0.4-0.3,0.9-0.4,1.5-0.4c0.6,0,1,0.1,1.4,0.3l10.2,6.3l1.8-1C574.2,475.9,574.6,475.7,575.2,475.7z
							 M562.3,482.7l6.5-3.8l-7-4.3L562.3,482.7z"/>
						<path class="st12" d="M605.5,453.4c1.7-0.3,3.3-0.3,5-0.1c1.6,0.2,3,0.7,4.2,1.4c1.2,0.7,1.9,1.6,2.2,2.6c0.3,1,0.2,2-0.4,3
							c-0.6,1-1.6,1.9-3,2.8c-1.6,0.9-3.3,1.5-5.2,1.8c-1.9,0.3-3.7,0.2-5.4-0.1c-1.7-0.3-3.3-0.9-4.6-1.7c-1.4-0.9-2.7-2-3.7-3.5
							c-1.1-1.4-1.6-3.1-1.5-4.9c0-1.8,0.9-3.6,2.7-5.3c0.1-0.2,0.3-0.3,0.5-0.4c0.5-0.3,1-0.4,1.5-0.5c0.5,0,1,0.1,1.4,0.3
							c0.3,0.2,0.5,0.4,0.5,0.7c0,0.3-0.2,0.6-0.5,0.9c-1.1,1.2-1.7,2.5-1.9,4c-0.2,1.5,0.1,2.8,1,4c0.3-1.4,1.3-2.6,3-3.6
							C602.4,454.2,603.9,453.7,605.5,453.4z M613.1,459.1c0.1-0.9-0.4-1.8-1.6-2.5c-1.1-0.7-2.4-1-4-1c-1.6,0-3,0.4-4.3,1.1
							c-1.3,0.8-2,1.6-2.1,2.6c-0.1,1,0.4,1.8,1.6,2.5c1.1,0.7,2.4,1,4,1c1.6,0,3.1-0.4,4.4-1.2C612.3,460.8,613,460,613.1,459.1z"
							/>
						<path class="st12" d="M619.4,436.4c0.6,0,1,0.1,1.4,0.3c0.2,0.1,0.3,0.3,0.4,0.5l8,15.6c0.1,0.2,0.1,0.5,0,0.7
							c-0.1,0.2-0.3,0.5-0.6,0.6c-0.4,0.2-0.9,0.4-1.5,0.4c-0.6,0-1,0-1.4-0.3c-0.2-0.1-0.3-0.3-0.4-0.5l-7.2-14.2l-9.7,5.6
							c-0.4,0.2-0.9,0.4-1.4,0.4c-0.5,0-1-0.1-1.3-0.3c-0.4-0.2-0.5-0.5-0.5-0.8c0.1-0.3,0.3-0.6,0.8-0.8l11.9-6.9
							C618.3,436.6,618.9,436.4,619.4,436.4z"/>
						<path class="st12" d="M637.7,425.8c0.6,0,1,0.1,1.4,0.3c0.2,0.1,0.3,0.3,0.4,0.5l8,15.6c0.1,0.2,0.1,0.5,0,0.7
							c-0.1,0.2-0.3,0.5-0.6,0.6c-0.4,0.2-0.9,0.4-1.5,0.4c-0.6,0-1,0-1.4-0.3c-0.2-0.1-0.3-0.3-0.4-0.5l-7.2-14.2l-9.7,5.6
							c-0.4,0.2-0.9,0.4-1.4,0.4c-0.5,0-1-0.1-1.3-0.3c-0.4-0.2-0.5-0.5-0.5-0.8c0.1-0.3,0.3-0.6,0.8-0.8l11.9-6.9
							C636.6,426,637.2,425.9,637.7,425.8z"/>
					</g>
					<g>
						<g>
							<path class="st12" d="M443.4,596.2c0.3,0,0.6,0.1,0.8,0.2l10.7,6.6c0.2,0.1,0.3,0.3,0.3,0.5s-0.2,0.4-0.5,0.6
								c-0.3,0.2-0.6,0.2-0.9,0.2c-0.3,0-0.6-0.1-0.9-0.2l-9.2-5.7L443,600c-0.1,0.1-0.2,0.2-0.4,0.3c-0.3,0.1-0.6,0.2-0.9,0.2
								c-0.4,0-0.6-0.1-0.9-0.2c-0.1-0.1-0.2-0.2-0.3-0.3s0-0.3,0-0.4l1.3-2.7c0.1-0.2,0.3-0.3,0.5-0.5
								C442.8,596.2,443.1,596.2,443.4,596.2z"/>
							<path class="st12" d="M459.9,600.5c-1.3,0.1-2.6-0.1-3.9-0.4c-1.3-0.4-2.6-1-3.9-1.7c-1.3-0.8-2.2-1.6-2.8-2.4
								c-0.6-0.8-0.8-1.6-0.6-2.3c0.2-0.8,0.8-1.4,1.9-2c1-0.6,2.2-0.9,3.5-1c1.3-0.1,2.6,0.1,3.9,0.4c1.3,0.4,2.6,1,3.9,1.7
								c1.3,0.8,2.2,1.6,2.8,2.4c0.6,0.8,0.8,1.6,0.6,2.3c-0.2,0.8-0.8,1.4-1.9,2C462.3,600.1,461.1,600.4,459.9,600.5z
								 M462.6,596.4c-0.3-0.8-1.2-1.7-2.7-2.6c-1.5-0.9-2.9-1.5-4.2-1.7c-1.3-0.2-2.5-0.1-3.4,0.5c-0.9,0.5-1.2,1.2-0.9,2
								c0.3,0.8,1.2,1.7,2.7,2.6s2.9,1.5,4.2,1.7c1.3,0.2,2.5,0.1,3.4-0.5C462.6,597.9,462.9,597.2,462.6,596.4z"/>
							<path class="st12" d="M471.7,597c-0.3,0-0.6,0-0.8-0.2c-0.1-0.1-0.2-0.1-0.3-0.3l-7-13.8c-0.1-0.3-0.1-0.5,0.3-0.7
								c0.2-0.1,0.4-0.2,0.7-0.2c0.3,0,0.6,0,0.8,0.2c0.1,0.1,0.2,0.2,0.3,0.3l7,13.7c0.2,0.3,0.1,0.5-0.3,0.7
								C472.3,596.9,472,597,471.7,597z"/>
							<path class="st12" d="M472,580c0.3,0,0.6,0.1,0.8,0.2l10.7,6.6c0.2,0.1,0.3,0.3,0.3,0.5c0,0.2-0.2,0.4-0.5,0.6
								c-0.3,0.2-0.6,0.2-0.9,0.2c-0.3,0-0.6-0.1-0.9-0.2l-9.2-5.7l-0.7,1.5c-0.1,0.1-0.2,0.2-0.4,0.3c-0.3,0.1-0.6,0.2-0.9,0.2
								c-0.4,0-0.6-0.1-0.9-0.2c-0.1-0.1-0.2-0.2-0.3-0.3c0-0.1,0-0.3,0-0.4l1.3-2.7c0.1-0.2,0.3-0.3,0.5-0.5
								C471.4,580,471.7,580,472,580z"/>
							<path class="st12" d="M483.2,573.5c0.3,0,0.6,0.1,0.9,0.2c0.1,0.1,0.2,0.2,0.3,0.3l5.6,9.5c0.1,0.1,0.1,0.3,0,0.4
								c-0.1,0.1-0.2,0.3-0.4,0.4c-0.2,0.1-0.5,0.2-0.9,0.2c-0.3,0-0.6,0-0.9-0.2c-0.1-0.1-0.2-0.2-0.3-0.3l-5.1-8.6l-5.5,3.1
								c-0.2,0.1-0.5,0.2-0.8,0.2c-0.3,0-0.6-0.1-0.8-0.2c-0.2-0.1-0.3-0.3-0.3-0.5c0-0.2,0.2-0.3,0.4-0.5l6.8-3.9
								C482.6,573.6,482.9,573.5,483.2,573.5z"/>
						</g>
						<g>
							<path class="st12" d="M555.8,528.3c0.3,0,0.6,0.1,0.9,0.2l11.5,7.1c0.3,0.2,0.4,0.3,0.3,0.6c0,0.2-0.2,0.4-0.5,0.6
								c-0.3,0.2-0.6,0.3-1,0.3c-0.4,0-0.7-0.1-0.9-0.2l-9.9-6.1l-0.8,1.6c-0.1,0.1-0.2,0.3-0.4,0.4c-0.3,0.2-0.6,0.2-1,0.2
								c-0.4,0-0.7-0.1-0.9-0.2c-0.2-0.1-0.3-0.2-0.3-0.4c0-0.1,0-0.3,0-0.4l1.4-3c0.1-0.2,0.3-0.3,0.6-0.5
								C555.1,528.4,555.4,528.3,555.8,528.3z"/>
							<path class="st12" d="M573.5,532.9c-1.4,0.1-2.8-0.1-4.2-0.5c-1.4-0.4-2.8-1-4.2-1.9c-1.3-0.8-2.3-1.7-3-2.5
								c-0.6-0.9-0.8-1.7-0.6-2.5c0.2-0.8,0.9-1.5,2-2.2c1.1-0.6,2.4-1,3.8-1.1c1.4-0.1,2.8,0.1,4.2,0.5c1.4,0.4,2.8,1,4.2,1.9
								c1.4,0.8,2.3,1.7,3,2.5c0.6,0.9,0.8,1.7,0.6,2.5c-0.2,0.8-0.9,1.5-2,2.2C576.1,532.5,574.8,532.8,573.5,532.9z M576.4,528.6
								c-0.3-0.9-1.3-1.8-2.9-2.8c-1.6-1-3.1-1.6-4.6-1.8c-1.4-0.2-2.6-0.1-3.6,0.5c-1,0.6-1.3,1.3-1,2.1c0.3,0.9,1.3,1.8,2.9,2.8
								c1.6,1,3.1,1.6,4.6,1.8c1.4,0.2,2.6,0.1,3.6-0.5C576.4,530.1,576.7,529.4,576.4,528.6z"/>
							<path class="st12" d="M586.2,529.2c-0.3,0-0.6-0.1-0.8-0.2c-0.1-0.1-0.2-0.2-0.3-0.3l-7.5-14.8c-0.2-0.3-0.1-0.6,0.3-0.8
								c0.2-0.1,0.5-0.2,0.8-0.2c0.3,0,0.6,0,0.8,0.2c0.2,0.1,0.3,0.2,0.3,0.3l7.5,14.8c0.2,0.3,0.1,0.5-0.3,0.7
								C586.9,529.1,586.6,529.2,586.2,529.2z"/>
							<path class="st12" d="M603.2,515.2c0.3,0,0.6,0.1,0.9,0.2s0.3,0.3,0.3,0.5c0,0.2-0.2,0.4-0.4,0.5l-7.3,4.1
								c-0.3,0.2-0.6,0.2-0.9,0.2c-0.3,0-0.6-0.1-0.9-0.2c-0.2-0.1-0.4-0.3-0.4-0.6l0-5.4c0-1.5-0.5-2.5-1.4-3.1
								c-0.7-0.4-1.5-0.6-2.4-0.6c-0.9,0-1.8,0.2-2.5,0.6c-0.5,0.3-0.9,0.6-1.1,1.1c-0.2,0.4-0.2,0.9,0,1.3c0,0.3-0.1,0.5-0.4,0.7
								c-0.2,0.1-0.5,0.2-0.9,0.2c-0.4,0-0.7,0-0.9-0.2c-0.1-0.1-0.2-0.2-0.3-0.4c-0.1-0.2-0.1-0.3-0.1-0.6c-0.1-0.6,0-1.2,0.4-1.8
								c0.4-0.6,0.9-1.1,1.6-1.5c0.9-0.5,1.9-0.9,2.9-1c1-0.2,2-0.2,3,0c1,0.2,1.8,0.5,2.6,1c1.5,0.9,2.2,2.4,2.2,4.4l0.1,3.7
								l5.1-2.9C602.5,515.3,602.8,515.2,603.2,515.2z"/>
							<path class="st12" d="M614.4,508.8c0.3,0,0.6,0.1,0.9,0.2c0.2,0.1,0.4,0.3,0.3,0.5c0,0.2-0.2,0.4-0.4,0.5l-7.3,4.1
								c-0.3,0.2-0.6,0.2-0.9,0.2c-0.3,0-0.6-0.1-0.9-0.2c-0.2-0.1-0.3-0.3-0.4-0.6l0-5.4c0-1.5-0.5-2.5-1.4-3.1
								c-0.7-0.4-1.5-0.6-2.4-0.6c-0.9,0-1.8,0.2-2.5,0.6c-0.5,0.3-0.9,0.6-1.1,1.1c-0.2,0.4-0.2,0.9,0,1.3c0,0.3-0.1,0.5-0.4,0.7
								c-0.2,0.1-0.5,0.2-0.9,0.2c-0.4,0-0.7,0-0.9-0.2c-0.1-0.1-0.2-0.2-0.3-0.4c-0.1-0.2-0.1-0.3-0.1-0.6c-0.1-0.6,0-1.2,0.4-1.8
								c0.4-0.6,0.9-1.1,1.6-1.5c0.9-0.5,1.9-0.9,2.9-1c1-0.2,2-0.2,3,0c1,0.2,1.8,0.5,2.6,1c1.5,0.9,2.2,2.4,2.2,4.4l0.1,3.7
								l5.1-2.9C613.8,508.9,614.1,508.8,614.4,508.8z"/>
						</g>
						<g>
							<path class="st12" d="M471.8,626.2c0.2,0,0.5,0.1,0.7,0.2c0.2,0.1,0.3,0.3,0.3,0.5c0,0.2-0.2,0.4-0.4,0.5
								c-0.3,0.2-0.7,0.2-1.1,0.2l-8.1-0.7l0.9,4.8c0.1,0.3-0.1,0.5-0.4,0.6c-0.2,0.1-0.5,0.2-0.8,0.2c-0.3,0-0.5-0.1-0.7-0.2
								c-0.2-0.1-0.3-0.3-0.3-0.5l-1-5.1l-8.6-0.8c-0.3,0-0.5-0.1-0.7-0.2c-0.2-0.1-0.3-0.3-0.3-0.5c0-0.2,0.1-0.4,0.4-0.5
								c0.1-0.1,0.3-0.1,0.5-0.2c0.2,0,0.4,0,0.6,0l8,0.7l-0.9-4.7c0-0.3,0.1-0.5,0.3-0.6c0.2-0.1,0.5-0.2,0.8-0.2
								c0.3,0,0.6,0.1,0.8,0.2c0.2,0.1,0.3,0.2,0.3,0.4l0.9,5.1L471.8,626.2z"/>
							<path class="st12" d="M483.6,619.5c0.2,0,0.5,0.1,0.7,0.2c0.2,0.1,0.3,0.3,0.3,0.5c0,0.2-0.2,0.4-0.4,0.5
								c-0.3,0.2-0.7,0.2-1.1,0.2l-8.1-0.7l0.9,4.8c0.1,0.3-0.1,0.5-0.4,0.6c-0.2,0.1-0.5,0.2-0.8,0.2s-0.5-0.1-0.7-0.2
								c-0.2-0.1-0.3-0.3-0.3-0.5l-1-5.1l-8.6-0.8c-0.3,0-0.5-0.1-0.7-0.2c-0.2-0.1-0.3-0.3-0.3-0.5c0-0.2,0.1-0.4,0.4-0.5
								c0.1-0.1,0.3-0.1,0.5-0.2c0.2,0,0.4,0,0.6,0l8,0.7l-0.9-4.7c0-0.3,0.1-0.5,0.3-0.6c0.2-0.1,0.5-0.2,0.8-0.2
								c0.3,0,0.6,0.1,0.8,0.2c0.2,0.1,0.3,0.2,0.3,0.4l0.9,5.1L483.6,619.5z"/>
							<path class="st12" d="M500.5,609.9c0.2,0,0.5,0.1,0.7,0.2c0.2,0.1,0.3,0.3,0.3,0.5c0,0.2-0.2,0.4-0.4,0.5
								c-0.3,0.2-0.7,0.2-1.1,0.2l-8.1-0.7l0.9,4.8c0.1,0.3-0.1,0.5-0.4,0.6c-0.2,0.1-0.5,0.2-0.8,0.2c-0.3,0-0.5-0.1-0.7-0.2
								c-0.2-0.1-0.3-0.3-0.3-0.5l-1-5.1l-8.6-0.8c-0.3,0-0.5-0.1-0.7-0.2c-0.2-0.1-0.3-0.3-0.3-0.5c0-0.2,0.1-0.4,0.4-0.5
								c0.1-0.1,0.3-0.1,0.5-0.2c0.2,0,0.4,0,0.6,0l8,0.7l-0.9-4.7c0-0.3,0.1-0.5,0.3-0.6c0.2-0.1,0.5-0.2,0.8-0.2
								c0.3,0,0.6,0.1,0.8,0.2c0.2,0.1,0.3,0.2,0.3,0.4l0.9,5.1L500.5,609.9z"/>
							<path class="st12" d="M512.2,603.2c0.2,0,0.5,0.1,0.7,0.2c0.2,0.1,0.3,0.3,0.3,0.5c0,0.2-0.2,0.4-0.4,0.5
								c-0.3,0.2-0.7,0.2-1.1,0.2l-8.1-0.7l0.9,4.8c0.1,0.3-0.1,0.5-0.4,0.6c-0.2,0.1-0.5,0.2-0.8,0.2c-0.3,0-0.5-0.1-0.7-0.2
								c-0.2-0.1-0.3-0.3-0.3-0.5l-1-5.1l-8.6-0.8c-0.3,0-0.5-0.1-0.7-0.2c-0.2-0.1-0.3-0.3-0.3-0.5c0-0.2,0.1-0.4,0.4-0.5
								c0.1-0.1,0.3-0.1,0.5-0.2c0.2,0,0.4,0,0.6,0l8,0.7l-0.9-4.7c0-0.3,0.1-0.5,0.3-0.6c0.2-0.1,0.5-0.2,0.8-0.2
								c0.3,0,0.6,0.1,0.8,0.2c0.2,0.1,0.3,0.2,0.3,0.4l0.9,5.1L512.2,603.2z"/>
							<path class="st12" d="M524,596.6c0.2,0,0.5,0.1,0.7,0.2c0.2,0.1,0.3,0.3,0.3,0.5c0,0.2-0.2,0.4-0.4,0.5
								c-0.3,0.2-0.7,0.2-1.1,0.2l-8.1-0.7l0.9,4.8c0.1,0.3-0.1,0.5-0.4,0.6c-0.2,0.1-0.5,0.2-0.8,0.2c-0.3,0-0.5-0.1-0.7-0.2
								c-0.2-0.1-0.3-0.3-0.3-0.5l-1-5.1l-8.6-0.8c-0.3,0-0.5-0.1-0.7-0.2c-0.2-0.1-0.3-0.3-0.3-0.5c0-0.2,0.1-0.4,0.4-0.5
								c0.1-0.1,0.3-0.1,0.5-0.2c0.2,0,0.4,0,0.6,0l8,0.7l-0.9-4.7c0-0.3,0.1-0.5,0.3-0.6c0.2-0.1,0.5-0.2,0.8-0.2
								c0.3,0,0.6,0.1,0.8,0.2c0.2,0.1,0.3,0.2,0.3,0.4l0.9,5.1L524,596.6z"/>
							<path class="st12" d="M535.8,589.9c0.2,0,0.5,0.1,0.7,0.2c0.2,0.1,0.3,0.3,0.3,0.5c0,0.2-0.2,0.4-0.4,0.5
								c-0.3,0.2-0.7,0.2-1.1,0.2l-8.1-0.7l0.9,4.8c0.1,0.3-0.1,0.5-0.4,0.6c-0.2,0.1-0.5,0.2-0.8,0.2c-0.3,0-0.5-0.1-0.7-0.2
								c-0.2-0.1-0.3-0.3-0.3-0.5l-1-5.1l-8.6-0.8c-0.3,0-0.5-0.1-0.7-0.2c-0.2-0.1-0.3-0.3-0.3-0.5c0-0.2,0.1-0.4,0.4-0.5
								c0.1-0.1,0.3-0.1,0.5-0.2c0.2,0,0.4,0,0.6,0l8,0.7l-0.9-4.7c0-0.3,0.1-0.5,0.3-0.6c0.2-0.1,0.5-0.2,0.8-0.2
								c0.3,0,0.6,0.1,0.8,0.2c0.2,0.1,0.3,0.2,0.3,0.4l0.9,5.1L535.8,589.9z"/>
							<path class="st12" d="M552.7,580.3c0.2,0,0.5,0.1,0.7,0.2c0.2,0.1,0.3,0.3,0.3,0.5c0,0.2-0.2,0.4-0.4,0.5
								c-0.3,0.2-0.7,0.2-1.1,0.2l-8.1-0.7l0.9,4.8c0.1,0.3-0.1,0.5-0.4,0.6c-0.2,0.1-0.5,0.2-0.8,0.2c-0.3,0-0.5-0.1-0.7-0.2
								c-0.2-0.1-0.3-0.3-0.3-0.5l-1-5.1l-8.6-0.8c-0.3,0-0.5-0.1-0.7-0.2c-0.2-0.1-0.3-0.3-0.3-0.5c0-0.2,0.1-0.4,0.4-0.5
								c0.1-0.1,0.3-0.1,0.5-0.2c0.2,0,0.4,0,0.6,0l8,0.7l-0.9-4.7c0-0.3,0.1-0.5,0.3-0.6c0.2-0.1,0.5-0.2,0.8-0.2
								c0.3,0,0.6,0.1,0.8,0.2c0.2,0.1,0.3,0.2,0.3,0.4l0.9,5.1L552.7,580.3z"/>
							<path class="st12" d="M564.4,573.6c0.2,0,0.5,0.1,0.7,0.2c0.2,0.1,0.3,0.3,0.3,0.5c0,0.2-0.2,0.4-0.4,0.5
								c-0.3,0.2-0.7,0.2-1.1,0.2l-8.1-0.7l0.9,4.8c0.1,0.3-0.1,0.5-0.4,0.6c-0.2,0.1-0.5,0.2-0.8,0.2c-0.3,0-0.5-0.1-0.7-0.2
								c-0.2-0.1-0.3-0.3-0.3-0.5l-1-5.1l-8.6-0.8c-0.3,0-0.5-0.1-0.7-0.2c-0.2-0.1-0.3-0.3-0.3-0.5c0-0.2,0.1-0.4,0.4-0.5
								c0.1-0.1,0.3-0.1,0.5-0.2c0.2,0,0.4,0,0.6,0l8,0.7l-0.9-4.7c0-0.3,0.1-0.5,0.3-0.6c0.2-0.1,0.5-0.2,0.8-0.2
								c0.3,0,0.6,0.1,0.8,0.2c0.2,0.1,0.3,0.2,0.3,0.4l0.9,5.1L564.4,573.6z"/>
							<path class="st12" d="M576.2,566.9c0.2,0,0.5,0.1,0.7,0.2c0.2,0.1,0.3,0.3,0.3,0.5c0,0.2-0.2,0.4-0.4,0.5
								c-0.3,0.2-0.7,0.2-1.1,0.2l-8.1-0.7l0.9,4.8c0.1,0.3-0.1,0.5-0.4,0.6c-0.2,0.1-0.5,0.2-0.8,0.2c-0.3,0-0.5-0.1-0.7-0.2
								c-0.2-0.1-0.3-0.3-0.3-0.5l-1-5.1l-8.6-0.8c-0.3,0-0.5-0.1-0.7-0.2c-0.2-0.1-0.3-0.3-0.3-0.5c0-0.2,0.1-0.4,0.4-0.5
								c0.1-0.1,0.3-0.1,0.5-0.2c0.2,0,0.4,0,0.6,0l8,0.7l-0.9-4.7c0-0.3,0.1-0.5,0.3-0.6c0.2-0.1,0.5-0.2,0.8-0.2
								c0.3,0,0.6,0.1,0.8,0.2c0.2,0.1,0.3,0.2,0.3,0.4l0.9,5.1L576.2,566.9z"/>
							<path class="st12" d="M587.9,560.3c0.2,0,0.5,0.1,0.7,0.2c0.2,0.1,0.3,0.3,0.3,0.5c0,0.2-0.2,0.4-0.4,0.5
								c-0.3,0.2-0.7,0.2-1.1,0.2l-8.1-0.7l0.9,4.8c0.1,0.3-0.1,0.5-0.4,0.6c-0.2,0.1-0.5,0.2-0.8,0.2c-0.3,0-0.5-0.1-0.7-0.2
								c-0.2-0.1-0.3-0.3-0.3-0.5l-1-5.1l-8.6-0.8c-0.3,0-0.5-0.1-0.7-0.2c-0.2-0.1-0.3-0.3-0.3-0.5c0-0.2,0.1-0.4,0.4-0.5
								c0.1-0.1,0.3-0.1,0.5-0.2c0.2,0,0.4,0,0.6,0l8,0.7l-0.9-4.7c0-0.3,0.1-0.5,0.3-0.6c0.2-0.1,0.5-0.2,0.8-0.2
								c0.3,0,0.6,0.1,0.8,0.2c0.2,0.1,0.3,0.2,0.3,0.4l0.9,5.1L587.9,560.3z"/>
							<path class="st12" d="M604.8,550.7c0.2,0,0.5,0.1,0.7,0.2c0.2,0.1,0.3,0.3,0.3,0.5s-0.2,0.4-0.4,0.5
								c-0.3,0.2-0.7,0.2-1.1,0.2l-8.1-0.7l0.9,4.8c0.1,0.3-0.1,0.5-0.4,0.6c-0.2,0.1-0.5,0.2-0.8,0.2c-0.3,0-0.5-0.1-0.7-0.2
								c-0.2-0.1-0.3-0.3-0.3-0.5l-1-5.1l-8.6-0.8c-0.3,0-0.5-0.1-0.7-0.2c-0.2-0.1-0.3-0.3-0.3-0.5c0-0.2,0.1-0.4,0.4-0.5
								c0.1-0.1,0.3-0.1,0.5-0.2c0.2,0,0.4,0,0.6,0l8,0.7L593,545c0-0.3,0.1-0.5,0.3-0.6c0.2-0.1,0.5-0.2,0.8-0.2
								c0.3,0,0.6,0.1,0.8,0.2c0.2,0.1,0.3,0.2,0.3,0.4l0.9,5.1L604.8,550.7z"/>
							<path class="st12" d="M616.6,544c0.2,0,0.5,0.1,0.7,0.2c0.2,0.1,0.3,0.3,0.3,0.5c0,0.2-0.2,0.4-0.4,0.5
								c-0.3,0.2-0.7,0.2-1.1,0.2l-8.1-0.7l0.9,4.8c0.1,0.3-0.1,0.5-0.4,0.6c-0.2,0.1-0.5,0.2-0.8,0.2c-0.3,0-0.5-0.1-0.7-0.2
								c-0.2-0.1-0.3-0.3-0.3-0.5l-1-5.1l-8.6-0.8c-0.3,0-0.5-0.1-0.7-0.2c-0.2-0.1-0.3-0.3-0.3-0.5c0-0.2,0.1-0.4,0.4-0.5
								c0.1-0.1,0.3-0.1,0.5-0.2c0.2,0,0.4,0,0.6,0l8,0.7l-0.9-4.7c0-0.3,0.1-0.5,0.3-0.6c0.2-0.1,0.5-0.2,0.8-0.2
								c0.3,0,0.6,0.1,0.8,0.2c0.2,0.1,0.3,0.2,0.3,0.4l0.9,5.1L616.6,544z"/>
							<path class="st12" d="M628.4,537.3c0.2,0,0.5,0.1,0.7,0.2c0.2,0.1,0.3,0.3,0.3,0.5c0,0.2-0.2,0.4-0.4,0.5
								c-0.3,0.2-0.7,0.2-1.1,0.2l-8.1-0.7l0.9,4.8c0.1,0.3-0.1,0.5-0.4,0.6c-0.2,0.1-0.5,0.2-0.8,0.2c-0.3,0-0.5-0.1-0.7-0.2
								c-0.2-0.1-0.3-0.3-0.3-0.5l-1-5.1l-8.6-0.8c-0.3,0-0.5-0.1-0.7-0.2c-0.2-0.1-0.3-0.3-0.3-0.5c0-0.2,0.1-0.4,0.4-0.5
								c0.1-0.1,0.3-0.1,0.5-0.2c0.2,0,0.4,0,0.6,0l8,0.7l-0.9-4.7c0-0.3,0.1-0.5,0.3-0.6c0.2-0.1,0.5-0.2,0.8-0.2
								c0.3,0,0.6,0.1,0.8,0.2c0.2,0.1,0.3,0.2,0.3,0.4l0.9,5.1L628.4,537.3z"/>
							<path class="st12" d="M640.1,530.6c0.2,0,0.5,0.1,0.7,0.2c0.2,0.1,0.3,0.3,0.3,0.5s-0.2,0.4-0.4,0.5
								c-0.3,0.2-0.7,0.2-1.1,0.2l-8.1-0.7l0.9,4.8c0.1,0.3-0.1,0.5-0.4,0.6c-0.2,0.1-0.5,0.2-0.8,0.2c-0.3,0-0.5-0.1-0.7-0.2
								c-0.2-0.1-0.3-0.3-0.3-0.5l-1-5.1l-8.6-0.8c-0.3,0-0.5-0.1-0.7-0.2c-0.2-0.1-0.3-0.3-0.3-0.5c0-0.2,0.1-0.4,0.4-0.5
								c0.1-0.1,0.3-0.1,0.5-0.2c0.2,0,0.4,0,0.6,0l8,0.7l-0.9-4.7c0-0.3,0.1-0.5,0.3-0.6c0.2-0.1,0.5-0.2,0.8-0.2
								c0.3,0,0.6,0.1,0.8,0.2c0.2,0.1,0.3,0.2,0.3,0.4l0.9,5.1L640.1,530.6z"/>
						</g>
					</g>
				</g>
			</g>
			<linearGradient id="SVGID_16_" gradientUnits="userSpaceOnUse" x1="248.7778" y1="836.0085" x2="446.4684" y2="519.6375">
				<stop  offset="0" style="stop-color:#454545;stop-opacity:0"/>
				<stop  offset="1" style="stop-color:#454545"/>
			</linearGradient>
			<path class="st22" d="M231.9,621L71.1,712.3c-4.9,2.8-4.9,9.8,0,12.6l239,137.6c1.6,0.9,3.7,0.9,5.3,0L582.9,711l4.9-103l-24,11
				l-160.7,92.8c-4.5,2.6-10.1,2.6-14.7,0L231.9,621z"/>
			<g>
				<path class="st2" d="M132.1,619.6l67.3,38.5c14.8,8.5,23.6,24.5,22.9,41.6v0c-0.4,9.9-8.6,34-13.3,48.3c-2.3,7-1.3,10.7-4,32
					c-3,24-2,24-2,24l1,32.2c0,0-33.9,16.7-53.8,0s-43.5-23.8-43.5-23.8l8.3-56.4c0,0,3-15,1.2-29.3c0,0-8-33.3-6-61.9
					C112.1,636.3,114.1,622,132.1,619.6z"/>
				<path class="st23" d="M209.4,695.8c0,0,35.7,11.9,50,11.9c14.3,0,54.7-30.9,59.5-28.6s7.1-19,16.7-19c9.5,0-9.5-16.7-16.7-11.9
					s-2.4,11.9-7.1,11.9s-11.9-4.8-9.5,0s7.1,4.8,2.4,7.1s-33.3,11.9-35.7,14.3s-21.4-4.8-26.2-4.8s-30.9-14.6-35.7-11.9
					c-4.8,2.7-9.5,14.3-11.9,23.8c-2.4,9.5-4.8,33.3,7.1,35.7c11.9,2.4,21.4-19,21.4-26.2L209.4,695.8z"/>
				<path class="st23" d="M109.8,673c0,0-0.9,3,4.4-1.1c6.9-5.2,21.2-47.3,36.8-41.5l5.3-3.9l50.9-11.3c0,0,4.6,2,9.3-0.4
					s4.8-9.5,0-7.1s-3.9-5.4-2-5.1s9.1-4.5,4.3-6.8s-9.9-2.9-9.9-2.9s-63.9,17.2-78.1,26.7c0,0-14.7-1.4-16.9,15.9
					C107.1,652.9,107.8,650.3,109.8,673z"/>
				<g>
					<defs>
						<path id="SVGID_17_" d="M132.1,619.6l67.3,38.5c14.8,8.5,23.6,24.5,22.9,41.6v0c-0.4,9.9-8.6,34-13.3,48.3
							c-2.3,7-1.3,10.7-4,32c-3,24-2,24-2,24l1,32.2c0,0-33.9,16.7-53.8,0s-43.5-23.8-43.5-23.8l8.3-56.4c0,0,3-15,1.2-29.3
							c0,0-8-33.3-6-61.9C112.1,636.3,114.1,622,132.1,619.6z"/>
					</defs>
					<clipPath id="SVGID_18_">
						<use xlink:href="#SVGID_17_"  style="overflow:visible;"/>
					</clipPath>
					<g class="st24">
						<path class="st23" d="M274.6,696.8c-102.3-4.8-178-53.2-178.7-53.7l4.9-7.5c0.7,0.5,74.5,47.6,174.2,52.3L274.6,696.8z"/>
					</g>
					<g class="st24">
						<path class="st23" d="M289.6,677.1c-102.3-4.8-178-53.2-178.7-53.7l4.9-7.5c0.7,0.5,74.5,47.6,174.2,52.3L289.6,677.1z"/>
					</g>
					<g class="st24">
						<path class="st23" d="M267.4,826.5C165,829.6,85.8,787.1,85.1,786.7l4.3-7.9c0.8,0.4,77.9,41.7,177.7,38.7L267.4,826.5z"/>
					</g>
					<g class="st24">
						<path class="st23" d="M264.7,800.8C162.3,802.5,83.7,759,83,758.6l4.4-7.8c0.8,0.4,77.3,42.7,177.2,41.1L264.7,800.8z"/>
					</g>
					<g class="st24">
						<path class="st23" d="M267.3,771.6c-102.4,1.7-181-41.8-181.8-42.2l4.4-7.8c0.8,0.4,77.3,42.7,177.2,41.1L267.3,771.6z"/>
					</g>
					<g class="st24">
						<path class="st23" d="M261.7,746.9c-102.4-3-178.9-50-179.7-50.5l4.8-7.6c0.7,0.5,75.3,46.2,175.2,49.1L261.7,746.9z"/>
					</g>
					<g class="st24">
						<path class="st23" d="M263.3,719.8c-102.4-3-178.9-50-179.7-50.5l4.8-7.6c0.7,0.5,75.3,46.2,175.2,49.1L263.3,719.8z"/>
					</g>
				</g>
				<path class="st25" d="M190.9,633c0,0,18.6-1.5,18.6-11s0-14.3,0-21.4c0-7.1-2.4-28.6-2.4-28.6l-4.8-16.7c0,0-4.8-7.1-9.5-9.5
					c-2.2-1.1-6.9-2.2-11.3-3c-6.3-1.2-12.7,0.4-17.7,4.4h0c-2.8,2.2-5,5.1-6.4,8.4l-3.2,7.5c-1.2,2.7-1.8,5.6-1.8,8.6v24.1v12.9
					c0,2.5,0.3,5,1,7.4l3.7,13c0,0-2.4,11.9-4.8,14.3s-4.8,16.7,2.4,21.4c28.3,18.9,35.4-12.1,35.4-12.1L190.9,633z"/>
				<path class="st23" d="M202.3,836.9c0,0,8.1,53.3,11.3,90.5c3.2,37.2,1.6,79.2,1.6,79.2s-8.1,12.9-19.4,11.3
					c-11.3-1.6-11.3-9.7-11.3-9.7s-3.2-79.2-4.8-82.4c-1.6-3.2-30.7-61.4-32.3-67.9l11.3,14.5l-1.6,66.3l-29.1,64.7
					c0,0-1.6-4.8-12.9-3.2c-11.3,1.6-11.3,1.6-11.3,1.6l21-64.7c0,0-6.5-53.3-8.1-66.3c-1.6-12.9-14.5-24.2-9.7-58.2"/>
				<path class="st23" d="M184.5,1008.3v16.2c0,0,8.1,6.5,16.2,1.6c8.1-4.8,44.2-23.6,43.6-25.9c-1.6-6.5-17.8-12.9-27.5-4.8
					c-13,10.8-11.3,1.6-11.3,1.6L184.5,1008.3z"/>
				<path class="st23" d="M103.6,1001.8l-1.6,8.1l-0.9,3.4c-0.4,1.8,0.3,3.7,2,4.6c6.1,3.4,20.3,11.4,21.5,11.4
					c1.5,0,17.8-6.7,20.6-7.9c0.3-0.1,0.6-0.3,0.9-0.5c1.2-0.9,4.4-3.5,4.4-6.2c0-3.2-11.3-8.1-16.2-6.5c-4.1,1.4-5.9-3.1-6.4-4.5
					c-0.1-0.2-0.1-0.4-0.1-0.6c-0.3-1.9-2.2-13.9-9.7-9.4C110.1,998.6,103.6,1001.8,103.6,1001.8z"/>
				<linearGradient id="SVGID_19_" gradientUnits="userSpaceOnUse" x1="222.4188" y1="698.4321" x2="194.4263" y2="716.6107">
					<stop  offset="0" style="stop-color:#454545"/>
					<stop  offset="1" style="stop-color:#454545;stop-opacity:0"/>
				</linearGradient>
				<path class="st26" d="M223.5,700.1l-13.6-4.1c-20.3-0.2-19.7,11-12,26c0,0,5.8,6.8,13.9-0.6S223.2,702.3,223.5,700.1z"/>
				<linearGradient id="SVGID_20_" gradientUnits="userSpaceOnUse" x1="208.4799" y1="604.401" x2="217.8162" y2="604.7271">
					<stop  offset="0" style="stop-color:#454545"/>
					<stop  offset="1" style="stop-color:#454545;stop-opacity:0"/>
				</linearGradient>
				<path class="st27" d="M208.9,593l0.6,22.8c0,0,5.4,0.2,7.4-0.8s-1.5-6.9-1.5-6.9s-2.5,0.9-2.5-2.1s1-4,2-4s1.9-7.1,1.9-7.1
					S209.9,593,208.9,593z"/>
				<path class="st23" d="M209.9,596c0,0-3,1-4-1c0,0-2-4-4,2s-30,23-30,23s-17,0-18-2l3,11c0,0-0.3,7.4-5.1,15.2
					c0,0-6.2,18.4,6.1,23.8s19.4,7.1,28.2-5.9l4.8-9.1v-20c0,0,19.6-1.1,20-8C211.3,618.1,209.9,596,209.9,596z"/>
				<path class="st23" d="M149.9,592c0,0,15-2,36-16c0,0,15-3,24-2c0,0,6-33-35-33S149.9,592,149.9,592z"/>
				<g>
					<path class="st28" d="M150.9,594L150.9,594c-1.7,0-3-1.3-3-3l0-6c0-1.7,1.3-3,3-3h0c1.7,0,3,1.3,3,3l0,6
						C153.9,592.7,152.5,594,150.9,594z"/>
					<path class="st28" d="M156.8,593.4L156.8,593.4c-1.6,0.2-3.1-0.9-3.4-2.5l-0.8-5.9c-0.2-1.6,0.9-3.1,2.5-3.4l0,0
						c1.6-0.2,3.1,0.9,3.4,2.5l0.8,5.9C159.5,591.7,158.4,593.2,156.8,593.4z"/>
					<path class="st28" d="M162.7,592L162.7,592c-1.6,0.4-3.2-0.7-3.6-2.3l-1.3-5.8c-0.4-1.6,0.7-3.2,2.3-3.6l0,0
						c1.6-0.4,3.2,0.7,3.6,2.3l1.3,5.8C165.3,590.1,164.3,591.7,162.7,592z"/>
					<path class="st28" d="M168.8,590L168.8,590c-1.6,0.4-3.2-0.5-3.6-2.1l-1.5-5.7c-0.4-1.6,0.5-3.2,2.1-3.6h0
						c1.6-0.4,3.2,0.5,3.6,2.1l1.5,5.7C171.3,588,170.4,589.6,168.8,590z"/>
					<path class="st28" d="M174.9,587.7L174.9,587.7c-1.6,0.4-3.2-0.5-3.6-2.1l-1.5-5.7c-0.4-1.6,0.5-3.2,2.1-3.6h0
						c1.6-0.4,3.2,0.5,3.6,2.1l1.5,5.7C177.4,585.6,176.5,587.3,174.9,587.7z"/>
					<path class="st28" d="M181,585.1L181,585.1c-1.6,0.4-3.2-0.6-3.6-2.2l-1.4-5.8c-0.4-1.6,0.6-3.2,2.2-3.6l0,0
						c1.6-0.4,3.2,0.6,3.6,2.2l1.4,5.8C183.6,583.1,182.6,584.7,181,585.1z"/>
					<path class="st28" d="M187.1,582.6L187.1,582.6c-1.6,0.3-3.2-0.7-3.5-2.3l-1.2-5.8c-0.3-1.6,0.7-3.2,2.3-3.5h0
						c1.6-0.3,3.2,0.7,3.5,2.3l1.2,5.8C189.8,580.7,188.7,582.3,187.1,582.6z"/>
					<path class="st28" d="M193,580.2L193,580.2c-1.6,0.2-3.1-0.9-3.4-2.5l-0.8-5.9c-0.2-1.6,0.9-3.1,2.5-3.4l0,0
						c1.6-0.2,3.1,0.9,3.4,2.5l0.8,5.9C195.8,578.5,194.7,580,193,580.2z"/>
					<path class="st28" d="M198.7,578.2L198.7,578.2c-1.6,0.1-3-1.2-3.1-2.8l-0.3-5.9c-0.1-1.6,1.2-3,2.8-3.1l0,0
						c1.6-0.1,3,1.2,3.1,2.8l0.3,5.9C201.6,576.7,200.3,578.1,198.7,578.2z"/>
					<path class="st28" d="M203.8,576.7L203.8,576.7c-1.6-0.1-2.9-1.6-2.7-3.2l0.5-6c0.1-1.6,1.6-2.9,3.2-2.7h0
						c1.6,0.1,2.9,1.6,2.7,3.2l-0.5,6C206.9,575.6,205.5,576.8,203.8,576.7z"/>
					<path class="st28" d="M208.4,575.8L208.4,575.8c-1.6-0.4-2.6-2-2.2-3.6l1.5-5.8c0.4-1.6,2-2.6,3.6-2.2h0c1.6,0.4,2.6,2,2.2,3.6
						l-1.5,5.8C211.6,575.3,210,576.2,208.4,575.8z"/>
				</g>
				<path class="st23" d="M208.2,583.2c0,0-3.3,2.8-6.3,3.8c0,0-1,1-2,0c0,0-10.5-3.7-15,2c-11,14,8,13,15,4c0,0,2-4,3-3l2,2
					c0,0,3.3,0.1,3.6-5.5S208.2,583.2,208.2,583.2z"/>
				<linearGradient id="SVGID_21_" gradientUnits="userSpaceOnUse" x1="182.8781" y1="653" x2="182.8781" y2="628">
					<stop  offset="0" style="stop-color:#454545;stop-opacity:0"/>
					<stop  offset="1" style="stop-color:#454545"/>
				</linearGradient>
				<path class="st29" d="M174.9,628l16,5l-1,20C189.9,653,174.9,637,174.9,628z"/>
			</g>
		</g>
		<path class="st30" d="M199.9,612c0,0-7-1-7,1s1,7,2,7l-1-7L199.9,612"/>
		<g>
			<path class="st30" d="M194.9,614c1.2,0.6,2.5,1,3.7,1.3c1.3,0.3,2.5,0.5,3.8,0.4c1.3,0,2.5-0.1,3.8-0.5c1.3-0.3,2.5-0.8,3.7-1.3
				c-0.5,0.4-1.1,0.8-1.6,1.2c-0.6,0.3-1.2,0.7-1.8,0.8c-1.3,0.5-2.7,0.7-4,0.7C199.6,616.7,196.9,615.8,194.9,614z"/>
		</g>
		<polygon class="st13" points="675.8,595.4 675.8,586 800.9,656.6 800.9,665.6 		"/>
		<linearGradient id="SVGID_22_" gradientUnits="userSpaceOnUse" x1="710.8892" y1="880" x2="710.8892" y2="591.0297">
			<stop  offset="0" style="stop-color:#454545;stop-opacity:0"/>
			<stop  offset="1" style="stop-color:#454545"/>
		</linearGradient>
		<polygon class="st31" points="682.7,591 682.7,773.1 623.9,807 737.9,880 797.9,841 797.9,658 		"/>
		<g>
			<defs>
				<polygon id="SVGID_23_" points="673.9,586 800.6,658.1 799.9,673 636.9,796 492.9,698 				"/>
			</defs>
			<clipPath id="SVGID_24_">
				<use xlink:href="#SVGID_23_"  style="overflow:visible;"/>
			</clipPath>
			<g class="st32">
				<g>
					<g>
						<path class="st33" d="M551.8,671.7l-0.7-2.4c-0.3-1.2,0.2-2.5,1.3-3.1l158.5-89.3c3.1-1.8,6.9-1.8,10,0l113.7,59.6
							c0.6,0.3,0.8,1.1,0.4,1.7l-1.9,2.8c-0.3,0.5-0.7,0.8-1.2,1.1l-160.7,95.6c-3.2,1.9-7.3,1.9-10.5,0.1l-108.3-65.2
							C552.1,672.3,551.9,672,551.8,671.7z"/>
						<path class="st34" d="M552.3,666.2l161.7-93.8c3.1-1.8,6.9-1.8,10,0l110.6,64.1c0.5,0.3,0.5,0.9,0,1.2l-160.6,95.5
							c-3.1,1.8-7,1.9-10.1,0l-111.7-65C551.6,667.8,551.6,666.6,552.3,666.2z"/>
						
							<linearGradient id="SVGID_25_" gradientUnits="userSpaceOnUse" x1="12051.0869" y1="683.2024" x2="12087.5771" y2="683.2024" gradientTransform="matrix(1 0 0 1 -11314 0)">
							<stop  offset="0" style="stop-color:#454545"/>
							<stop  offset="1" style="stop-color:#454545;stop-opacity:0"/>
						</linearGradient>
						<polygon class="st35" points="740.2,693.8 737.1,692 770.9,672.6 773.6,674 						"/>
						
							<linearGradient id="SVGID_26_" gradientUnits="userSpaceOnUse" x1="12060.292" y1="699.9864" x2="12078.3799" y2="668.6569" gradientTransform="matrix(1 0 0 1 -11314 0)">
							<stop  offset="0" style="stop-color:#454545;stop-opacity:0"/>
							<stop  offset="1" style="stop-color:#454545"/>
						</linearGradient>
						<polygon class="st36" points="740.2,693.8 737.1,692 770.9,672.6 773.6,674 773.6,676.7 740.2,696.5 						"/>
					</g>
				</g>
				<path class="st12" d="M688.8,645.8c0-3-2.2-5.8-5.8-7.6c3.2-2.5,8.3-4.1,14-4.1c9.6,0,17.4,4.6,17.4,10.2
					c0,5.7-7.8,10.2-17.4,10.2c-4.5,0-8.5-1-11.6-2.6C687.5,650.2,688.8,648.1,688.8,645.8z"/>
				<path class="st12" d="M686.2,634c0,0-4.6-4.1-13.8-1C672.4,633,682.6,636.1,686.2,634z"/>
			</g>
		</g>
		<line class="st37" x1="665.9" y1="480" x2="787.9" y2="552"/>
	</g>
</g>
</svg>
