<?xml version="1.0" encoding="utf-8"?>
<!-- Generator: Adobe Illustrator 23.0.1, SVG Export Plug-In . SVG Version: 6.00 Build 0)  -->
<svg version="1.1" id="Capa_1" xmlns="http://www.w3.org/2000/svg" xmlns:xlink="http://www.w3.org/1999/xlink" x="0px" y="0px"
	 viewBox="0 0 263.8 246" style="enable-background:new 0 0 263.8 246;" xml:space="preserve">
<style type="text/css">
	.st0{fill:none;}
	.st1{fill:#CCCCCC;}
</style>
<g>
	<path class="st0" d="M147.3,72h-114c-3.6,0-6.5,2.9-6.5,6.5s2.9,6.5,6.5,6.5h114c3.6,0,6.5-2.9,6.5-6.5S150.8,72,147.3,72z"/>
	<path class="st0" d="M33,53h114c3.6,0,6.5-2.9,6.5-6.5S150.6,40,147,40H33c-3.6,0-6.5,2.9-6.5,6.5S29.4,53,33,53z"/>
	<path class="st0" d="M133.9,117h13.3c3.6,0,6.5-2.9,6.5-6.5s-2.9-6.5-6.5-6.5h-114c-3.6,0-6.5,2.9-6.5,6.5s2.9,6.5,6.5,6.5h89.6
		c1.8-0.4,3.7-0.6,5.5-0.6S132.2,116.6,133.9,117z"/>
	<path class="st1" d="M166.5,204L166.5,204c-6.7,0-12.9-2.6-17.6-7.3l-38-38c-2.8-2.8-4.8-6.1-6-9.7H33.3c-3.6,0-6.5-2.9-6.5-6.5
		s2.9-6.5,6.5-6.5h70.9c1-4.7,3.3-8.9,6.7-12.4c3.3-3.3,7.5-5.6,12-6.6H33.3c-3.6,0-6.5-2.9-6.5-6.5s2.9-6.5,6.5-6.5h114
		c3.6,0,6.5,2.9,6.5,6.5s-2.9,6.5-6.5,6.5h-13.3c4.5,1,8.6,3.3,12,6.6l20.6,20.6l13.5-13.5V0H77H0v78v168h180v-45.9
		C176,202.6,171.4,204,166.5,204L166.5,204z M147.3,85h-114c-3.6,0-6.5-2.9-6.5-6.5s2.9-6.5,6.5-6.5h114c3.6,0,6.5,2.9,6.5,6.5
		S150.8,85,147.3,85z M33,40h114c3.6,0,6.5,2.9,6.5,6.5S150.6,53,147,53H33c-3.6,0-6.5-2.9-6.5-6.5S29.4,40,33,40z"/>
	<path class="st1" d="M260.4,85.5c-2.3-2.3-5.3-3.5-8.3-3.5c-3,0-6,1.2-8.3,3.5L180,149.1l-13.5,13.5l-15.1-15.1L139.9,136l-3.2-3.2
		c-2.3-2.3-5.3-3.5-8.3-3.5s-6,1.2-8.3,3.5c-1,1-1.7,2-2.3,3.2c-2.1,4.2-1.5,9.4,1.8,13c0.2,0.2,0.3,0.3,0.5,0.5l38,38
		c2.3,2.3,5.3,3.5,8.3,3.5c0,0,0.1,0,0.1,0c0,0,0.1,0,0.1,0c3,0,6-1.1,8.3-3.5l5-5l80.4-80.4C265,97.5,265,90.1,260.4,85.5z"/>
</g>
</svg>
