<?xml version="1.0" encoding="utf-8"?>
<!-- Generator: Adobe Illustrator 24.0.2, SVG Export Plug-In . SVG Version: 6.00 Build 0)  -->
<svg version="1.1" id="Capa_1" xmlns="http://www.w3.org/2000/svg" xmlns:xlink="http://www.w3.org/1999/xlink" x="0px" y="0px"
	 viewBox="0 0 106.09 172.65" style="enable-background:new 0 0 106.09 172.65;" xml:space="preserve">
<style type="text/css">
	.st0{fill:#FF6567;}
	.st1{opacity:0.35;}
</style>
<g>
	<g>
		<g>
			<path class="st0" d="M78.78,129.19H25.83l-6.15-19.94c-2.71-8.76-6.16-17.33-10.28-25.45C5.11,75.33,0,63.12,0,53.05
				C0,23.8,23.8,0,53.05,0s53.05,23.8,53.05,53.05c0,10.37-5.39,22.99-9.9,31.74c-3.93,7.62-7.07,14.84-9.6,22.06L78.78,129.19z
				 M33.11,119.32h38.66l5.5-15.73c2.68-7.66,6-15.29,10.14-23.33c5.68-11.01,8.8-20.67,8.8-27.22c0-23.81-19.37-43.18-43.18-43.18
				S9.87,29.24,9.87,53.05c0,6.34,2.96,15.68,8.33,26.3c4.36,8.62,8.03,17.7,10.9,27L33.11,119.32z"/>
		</g>
	</g>
	<g class="st1">
		<g>
			<path class="st0" d="M70.37,167.72H35.73c-5.31,0-9.62-4.31-9.62-9.62v0c0-5.31,4.31-9.62,9.62-9.62h34.64
				c5.31,0,9.62,4.31,9.62,9.62v0C79.99,163.41,75.68,167.72,70.37,167.72z"/>
		</g>
	</g>
	<g class="st1">
		<g>
			<path class="st0" d="M70.37,144.62H35.73c-5.31,0-9.62-4.31-9.62-9.62v0c0-5.31,4.31-9.62,9.62-9.62h34.64
				c5.31,0,9.62,4.31,9.62,9.62v0C79.99,140.31,75.68,144.62,70.37,144.62z"/>
		</g>
	</g>
	<g>
		<g>
			<path class="st0" d="M70.37,172.65H35.73c-8.03,0-14.56-6.53-14.56-14.55c0-8.03,6.53-14.56,14.56-14.56h34.64
				c8.03,0,14.55,6.53,14.55,14.56C84.92,166.12,78.39,172.65,70.37,172.65z M35.73,153.4c-2.59,0-4.69,2.1-4.69,4.69
				c0,2.59,2.1,4.69,4.69,4.69h34.64c2.59,0,4.69-2.1,4.69-4.69c0-2.59-2.1-4.69-4.69-4.69H35.73z"/>
		</g>
	</g>
	<g>
		<g>
			<path class="st0" d="M70.37,149.56H35.73c-8.03,0-14.56-6.53-14.56-14.56c0-8.03,6.53-14.55,14.56-14.55h34.64
				c8.03,0,14.55,6.53,14.55,14.55C84.92,143.03,78.39,149.56,70.37,149.56z M35.73,130.31c-2.59,0-4.69,2.1-4.69,4.69
				c0,2.59,2.1,4.69,4.69,4.69h34.64c2.59,0,4.69-2.1,4.69-4.69c0-2.59-2.1-4.69-4.69-4.69H35.73z"/>
		</g>
	</g>
	<g class="st1">
		<path class="st0" d="M20.01,98.38c0,0,53.82,17.87,79.24-51.28l-6.23,32.18c0,0-17.27,22.01-14.19,21.18
			c3.08-0.83-3.38,19.99-3.38,19.99l-1.55,6.16l-18.29-0.67H35.87l-6,0.67L20.01,98.38z"/>
	</g>
	<g>
		<g>
			<path class="st0" d="M44.83,130.31c-2.72,0-4.93-2.21-4.93-4.93v-24.11c0-2.72,2.21-4.93,4.93-4.93s4.93,2.21,4.93,4.93v24.11
				C49.76,128.1,47.55,130.31,44.83,130.31z"/>
		</g>
		<g>
			<path class="st0" d="M61.27,130.31c-2.72,0-4.93-2.21-4.93-4.93v-24.11c0-2.72,2.21-4.93,4.93-4.93c2.72,0,4.93,2.21,4.93,4.93
				v24.11C66.2,128.1,63.99,130.31,61.27,130.31z"/>
		</g>
	</g>
</g>
</svg>
