<?xml version="1.0" encoding="utf-8"?>
<!-- Generator: Adobe Illustrator 23.0.1, SVG Export Plug-In . SVG Version: 6.00 Build 0)  -->
<svg version="1.1" id="Capa_1" xmlns="http://www.w3.org/2000/svg" xmlns:xlink="http://www.w3.org/1999/xlink" x="0px" y="0px"
	 viewBox="0 0 328 106.5" style="enable-background:new 0 0 328 106.5;" xml:space="preserve">
<style type="text/css">
	.st0{fill:none;}
	.st1{fill:#CCCCCC;}
</style>
<g>
	<path class="st0" d="M107.2,25.5c-1.2,0-2.3,0.3-3.3,0.9s-1.8,1.3-2.4,2.2v-1.2c0-0.4-0.1-0.8-0.4-1.1s-0.7-0.5-1.1-0.5
		c-0.4,0-0.8,0.2-1.1,0.5s-0.4,0.7-0.4,1.1v14.2c0,0.5,0.1,0.8,0.4,1.1c0.3,0.3,0.7,0.4,1.1,0.4s0.8-0.2,1.1-0.5s0.4-0.7,0.4-1.1v-9
		c0-0.8,0.2-1.5,0.6-2.1c0.4-0.7,1-1.2,1.7-1.6c0.7-0.4,1.5-0.6,2.4-0.6c1.3,0,2.3,0.4,2.9,1.2s0.9,1.8,0.9,3.1v9
		c0,0.4,0.1,0.8,0.4,1.1s0.7,0.5,1.1,0.5c0.5,0,0.8-0.2,1.1-0.5s0.4-0.7,0.4-1.1v-9C113.1,27.9,111.1,25.5,107.2,25.5z"/>
	<path class="st0" d="M73.4,20.1c-0.6,0-1.1,0.1-1.4,0.3c-0.3,0.2-0.4,0.6-0.4,1.1v0.5c0,0.5,0.1,0.9,0.4,1.1
		c0.3,0.2,0.7,0.3,1.4,0.3c0.6,0,1.1-0.1,1.4-0.3c0.3-0.2,0.4-0.6,0.4-1.1v-0.5c0-0.5-0.1-0.9-0.4-1.1C74.5,20.2,74,20.1,73.4,20.1z
		"/>
	<path class="st0" d="M125.3,26.1h-2.7v-2.8c0-0.4-0.1-0.8-0.4-1.1s-0.7-0.5-1.1-0.5c-0.5,0-0.8,0.2-1.1,0.5s-0.4,0.7-0.4,1.1v2.8
		h-1.9c-0.4,0-0.8,0.1-1,0.4c-0.3,0.3-0.4,0.6-0.4,1s0.1,0.8,0.4,1c0.3,0.3,0.6,0.4,1,0.4h1.9v10c0,1.3,0.2,2.2,0.7,2.9
		c0.5,0.6,1,1,1.6,1.2c0.6,0.2,1.3,0.2,2,0.2c0.7,0,1.3-0.2,1.8-0.5c0.5-0.3,0.8-0.7,0.8-1.2c0-0.4-0.1-0.7-0.3-0.9
		c-0.2-0.2-0.4-0.4-0.7-0.4c-0.2,0-0.4,0-0.6,0.1c-0.3,0.1-0.5,0.1-0.6,0.1c-1,0-1.5-0.6-1.5-1.7V29h2.7c0.4,0,0.8-0.1,1-0.4
		c0.3-0.3,0.4-0.6,0.4-1s-0.1-0.8-0.4-1C126,26.2,125.7,26.1,125.3,26.1z"/>
	<path class="st0" d="M90.6,26.6c-1.2-0.7-2.6-1.1-4-1.1c-1.4,0-2.8,0.4-4,1.1c-1.2,0.7-2.2,1.8-3,3.2s-1.1,3-1.1,4.9
		c0,1.7,0.4,3.2,1.1,4.6c0.7,1.3,1.8,2.4,3.1,3.1c1.4,0.8,2.9,1.1,4.7,1.1c1.1,0,2.2-0.2,3.2-0.7c1.1-0.4,1.9-1,2.5-1.6
		c0.4-0.4,0.7-0.8,0.7-1.3c0-0.4-0.1-0.7-0.4-0.9c-0.3-0.3-0.6-0.4-0.9-0.4c-0.3,0-0.6,0.1-1,0.3c-0.5,0.5-1.1,0.9-1.8,1.2
		c-0.7,0.3-1.5,0.5-2.6,0.5c-1.5,0-2.8-0.5-3.9-1.5c-1.1-1-1.7-2.3-1.8-3.9h11.6c0.4,0,0.8-0.1,1.1-0.4c0.3-0.3,0.5-0.6,0.5-1
		c0-1.6-0.4-3-1.2-4.3C92.8,28.3,91.8,27.3,90.6,26.6z M91.4,32.7h-9.8c0.3-1.5,0.9-2.5,1.8-3.2c0.9-0.7,2-1,3.2-1
		c1.2,0,2.3,0.4,3.2,1.1c0.9,0.8,1.5,1.7,1.6,2.9V32.7z"/>
	<path class="st0" d="M141.3,26.6c-1.2-0.7-2.6-1.1-4-1.1c-1.4,0-2.8,0.4-4,1.1c-1.2,0.7-2.2,1.8-3,3.2s-1.1,3-1.1,4.9
		c0,1.7,0.4,3.2,1.1,4.6c0.7,1.3,1.8,2.4,3.1,3.1c1.4,0.8,2.9,1.1,4.7,1.1c1.1,0,2.2-0.2,3.2-0.7c1.1-0.4,1.9-1,2.5-1.6
		c0.4-0.4,0.7-0.8,0.7-1.3c0-0.4-0.1-0.7-0.4-0.9c-0.3-0.3-0.6-0.4-0.9-0.4c-0.3,0-0.6,0.1-1,0.3c-0.5,0.5-1.1,0.9-1.8,1.2
		c-0.7,0.3-1.5,0.5-2.6,0.5c-1.5,0-2.8-0.5-3.9-1.5c-1.1-1-1.7-2.3-1.8-3.9h11.6c0.4,0,0.8-0.1,1.1-0.4c0.3-0.3,0.5-0.6,0.5-1
		c0-1.6-0.4-3-1.2-4.3C143.5,28.3,142.5,27.3,141.3,26.6z M142.1,32.7h-9.8c0.3-1.5,0.9-2.5,1.8-3.2c0.9-0.7,2-1,3.2-1
		c1.2,0,2.3,0.4,3.2,1.1c0.9,0.8,1.5,1.7,1.6,2.9V32.7z"/>
	<path class="st0" d="M58.7,39c-0.3,0-0.6,0.1-0.9,0.2c-1.3,0.8-2.8,1.2-4.4,1.2c-1.6,0-3-0.3-4.3-1c-1.3-0.7-2.3-1.7-3-3
		C45.4,35,45,33.5,45,31.6c0-1.7,0.4-3.2,1.1-4.5c0.7-1.3,1.7-2.3,3-3.1c1.3-0.7,2.7-1.1,4.4-1.1c1.6,0,3.1,0.4,4.4,1.2
		c0.3,0.2,0.6,0.2,0.9,0.2c0.5,0,0.8-0.2,1.1-0.5c0.3-0.3,0.4-0.7,0.4-1.1c0-0.6-0.3-1-0.8-1.3c-1.9-1.1-3.9-1.6-6-1.6
		c-2.2,0-4.2,0.5-6,1.5c-1.8,1-3.2,2.4-4.2,4.2c-1,1.8-1.5,3.8-1.5,6c0,2.4,0.5,4.5,1.6,6.3c1.1,1.8,2.5,3.2,4.3,4.1
		c1.8,0.9,3.8,1.4,5.9,1.4c1,0,2.1-0.1,3.2-0.4c1.1-0.3,2-0.7,2.9-1.2c0.2-0.1,0.4-0.3,0.6-0.5c0.1-0.2,0.2-0.5,0.2-0.7
		c0-0.4-0.1-0.7-0.4-1.1C59.6,39.2,59.2,39,58.7,39z"/>
	<path class="st0" d="M73.4,25.7c-0.4,0-0.8,0.2-1.1,0.5c-0.3,0.3-0.4,0.7-0.4,1.1v14.3c0,0.4,0.1,0.8,0.4,1.1
		c0.3,0.3,0.7,0.5,1.1,0.5c0.5,0,0.8-0.2,1.1-0.5s0.4-0.7,0.4-1.1V27.3c0-0.4-0.1-0.8-0.4-1.1S73.8,25.7,73.4,25.7z"/>
	<path class="st0" d="M65.5,18.7c-0.4,0-0.8,0.2-1.1,0.5c-0.3,0.3-0.5,0.7-0.5,1.1v21.3c0,0.4,0.1,0.8,0.4,1.1s0.7,0.5,1.1,0.5
		c0.4,0,0.8-0.2,1.1-0.5c0.3-0.3,0.5-0.7,0.5-1.1V20.3c0-0.4-0.1-0.8-0.4-1.1C66.3,18.9,65.9,18.7,65.5,18.7z"/>
	<path class="st1" d="M89.8,29.5c-0.9-0.7-2-1.1-3.2-1.1c-1.2,0-2.3,0.3-3.2,1c-0.9,0.7-1.5,1.8-1.8,3.2h9.8v-0.3
		C91.3,31.2,90.7,30.3,89.8,29.5z"/>
	<path class="st1" d="M140.5,29.5c-0.9-0.7-2-1.1-3.2-1.1c-1.2,0-2.3,0.3-3.2,1c-0.9,0.7-1.5,1.8-1.8,3.2h9.8v-0.3
		C142,31.2,141.5,30.3,140.5,29.5z"/>
	<path class="st1" d="M239.3,19.9l22.3,8.8l47.1,18.6c2.7-4.7,4.3-10.1,4.3-15.8C313,14.1,298.9,0,281.5,0h-250
		C14.1,0,0,14.1,0,31.5S14.1,63,31.5,63h226.2l-9-21.1L239.3,19.9z M60,41.4c-0.1,0.2-0.3,0.4-0.6,0.5c-0.9,0.5-1.8,0.9-2.9,1.2
		c-1.1,0.3-2.1,0.4-3.2,0.4c-2.1,0-4.1-0.5-5.9-1.4c-1.8-0.9-3.2-2.3-4.3-4.1c-1.1-1.8-1.6-3.9-1.6-6.3c0-2.2,0.5-4.2,1.5-6
		c1-1.8,2.4-3.2,4.2-4.2c1.8-1,3.8-1.5,6-1.5c2.1,0,4.1,0.5,6,1.6c0.5,0.3,0.8,0.7,0.8,1.3c0,0.4-0.1,0.8-0.4,1.1
		c-0.3,0.4-0.6,0.5-1.1,0.5c-0.3,0-0.6-0.1-0.9-0.2C56.5,23.4,55,23,53.4,23c-1.7,0-3.1,0.4-4.4,1.1c-1.3,0.7-2.3,1.7-3,3.1
		c-0.7,1.3-1.1,2.8-1.1,4.5c0,1.8,0.4,3.4,1.1,4.7c0.7,1.3,1.7,2.3,3,3c1.3,0.7,2.7,1,4.3,1c1.6,0,3.1-0.4,4.4-1.2
		c0.3-0.1,0.6-0.2,0.9-0.2c0.5,0,0.9,0.2,1.2,0.6c0.3,0.3,0.4,0.7,0.4,1.1C60.3,40.9,60.2,41.2,60,41.4z M67,41.6
		c0,0.4-0.2,0.8-0.5,1.1c-0.3,0.3-0.7,0.5-1.1,0.5c-0.4,0-0.8-0.2-1.1-0.5s-0.4-0.7-0.4-1.1V20.3c0-0.4,0.2-0.8,0.5-1.1
		c0.3-0.3,0.7-0.5,1.1-0.5c0.4,0,0.8,0.2,1.1,0.5c0.3,0.3,0.4,0.7,0.4,1.1V41.6z M75,41.6c0,0.4-0.1,0.8-0.4,1.1s-0.7,0.5-1.1,0.5
		c-0.4,0-0.8-0.2-1.1-0.5c-0.3-0.3-0.4-0.7-0.4-1.1V27.3c0-0.4,0.1-0.8,0.4-1.1c0.3-0.3,0.7-0.5,1.1-0.5c0.5,0,0.8,0.2,1.1,0.5
		s0.4,0.7,0.4,1.1V41.6z M75.2,22.1c0,0.5-0.1,0.9-0.4,1.1c-0.3,0.2-0.7,0.3-1.4,0.3c-0.6,0-1.1-0.1-1.4-0.3
		c-0.3-0.2-0.4-0.6-0.4-1.1v-0.5c0-0.5,0.1-0.9,0.4-1.1c0.3-0.2,0.8-0.3,1.4-0.3c0.6,0,1.1,0.1,1.3,0.3c0.3,0.2,0.4,0.6,0.4,1.1
		V22.1z M94.2,34.9c-0.3,0.3-0.7,0.4-1.1,0.4H81.5c0.2,1.6,0.8,2.9,1.8,3.9c1.1,1,2.4,1.5,3.9,1.5c1.1,0,1.9-0.2,2.6-0.5
		c0.7-0.3,1.2-0.7,1.8-1.2c0.3-0.2,0.6-0.3,1-0.3c0.4,0,0.7,0.1,0.9,0.4c0.3,0.3,0.4,0.6,0.4,0.9c0,0.5-0.2,0.9-0.7,1.3
		c-0.6,0.6-1.5,1.2-2.5,1.6c-1.1,0.4-2.1,0.7-3.2,0.7c-1.8,0-3.4-0.4-4.7-1.1c-1.4-0.7-2.4-1.8-3.1-3.1c-0.7-1.3-1.1-2.9-1.1-4.6
		c0-1.9,0.4-3.5,1.1-4.9s1.8-2.5,3-3.2c1.2-0.7,2.6-1.1,4-1.1c1.4,0,2.7,0.4,4,1.1c1.2,0.7,2.2,1.7,3,3c0.7,1.3,1.1,2.7,1.2,4.3
		C94.7,34.3,94.5,34.6,94.2,34.9z M113.1,41.6c0,0.4-0.1,0.8-0.4,1.1s-0.7,0.5-1.1,0.5c-0.4,0-0.8-0.2-1.1-0.5s-0.4-0.7-0.4-1.1v-9
		c0-1.3-0.3-2.3-0.9-3.1s-1.6-1.2-2.9-1.2c-0.9,0-1.7,0.2-2.4,0.6c-0.7,0.4-1.3,0.9-1.7,1.6c-0.4,0.7-0.6,1.4-0.6,2.1v9
		c0,0.4-0.1,0.8-0.4,1.1s-0.7,0.5-1.1,0.5s-0.8-0.1-1.1-0.4c-0.3-0.3-0.4-0.7-0.4-1.1V27.5c0-0.4,0.1-0.8,0.4-1.1s0.7-0.5,1.1-0.5
		c0.5,0,0.8,0.2,1.1,0.5s0.4,0.7,0.4,1.1v1.2c0.6-0.9,1.4-1.6,2.4-2.2s2.1-0.9,3.3-0.9c4,0,6,2.4,6,7.1V41.6z M126.3,28.6
		c-0.3,0.3-0.6,0.4-1,0.4h-2.7v9.9c0,1.1,0.5,1.7,1.5,1.7c0.2,0,0.4,0,0.6-0.1c0.3-0.1,0.5-0.1,0.6-0.1c0.3,0,0.5,0.1,0.7,0.4
		c0.2,0.2,0.3,0.6,0.3,0.9c0,0.5-0.3,0.9-0.8,1.2c-0.5,0.3-1.1,0.5-1.8,0.5c-0.7,0-1.4-0.1-2-0.2c-0.6-0.2-1.1-0.5-1.6-1.2
		c-0.5-0.6-0.7-1.6-0.7-2.9V29h-1.9c-0.4,0-0.8-0.1-1-0.4c-0.3-0.3-0.4-0.6-0.4-1s0.1-0.8,0.4-1c0.3-0.3,0.6-0.4,1-0.4h1.9v-2.8
		c0-0.4,0.1-0.8,0.4-1.1s0.7-0.5,1.1-0.5c0.4,0,0.8,0.2,1.1,0.5s0.4,0.7,0.4,1.1v2.8h2.7c0.4,0,0.8,0.1,1,0.4c0.3,0.3,0.4,0.6,0.4,1
		S126.6,28.3,126.3,28.6z M144.9,34.9c-0.3,0.3-0.7,0.4-1.1,0.4h-11.6c0.2,1.6,0.8,2.9,1.8,3.9c1.1,1,2.4,1.5,3.9,1.5
		c1.1,0,1.9-0.2,2.6-0.5c0.7-0.3,1.2-0.7,1.8-1.2c0.3-0.2,0.6-0.3,1-0.3c0.4,0,0.7,0.1,0.9,0.4c0.3,0.3,0.4,0.6,0.4,0.9
		c0,0.5-0.2,0.9-0.7,1.3c-0.6,0.6-1.5,1.2-2.5,1.6c-1.1,0.4-2.1,0.7-3.2,0.7c-1.8,0-3.4-0.4-4.7-1.1c-1.4-0.7-2.4-1.8-3.1-3.1
		c-0.7-1.3-1.1-2.9-1.1-4.6c0-1.9,0.4-3.5,1.1-4.9s1.8-2.5,3-3.2c1.2-0.7,2.6-1.1,4-1.1c1.4,0,2.7,0.4,4,1.1c1.2,0.7,2.2,1.7,3,3
		c0.7,1.3,1.1,2.7,1.2,4.3C145.4,34.3,145.2,34.6,144.9,34.9z"/>
	<polygon class="st1" points="302,55.4 257.9,38 268.6,63 287.2,106.5 300.3,77.1 328,65.7 	"/>
</g>
</svg>
