<?xml version="1.0" encoding="utf-8"?>
<!-- Generator: Adobe Illustrator 23.0.1, SVG Export Plug-In . SVG Version: 6.00 Build 0)  -->
<svg version="1.1" id="Capa_1" xmlns="http://www.w3.org/2000/svg" xmlns:xlink="http://www.w3.org/1999/xlink" x="0px" y="0px"
	 viewBox="0 0 291 152.5" style="enable-background:new 0 0 291 152.5;" xml:space="preserve">
<style type="text/css">
	.st0{fill:none;}
	.st1{fill:#CCCCCC;}
</style>
<g>
	<path class="st0" d="M129.7,42.5c-0.8,0-1.3,0.1-1.7,0.4c-0.3,0.3-0.5,0.7-0.5,1.3v0.7c0,0.6,0.2,1.1,0.5,1.3
		c0.3,0.3,0.9,0.4,1.7,0.4c0.8,0,1.4-0.1,1.7-0.4c0.3-0.2,0.5-0.7,0.5-1.4v-0.7c0-0.6-0.2-1.1-0.5-1.3
		C131.1,42.6,130.5,42.5,129.7,42.5z"/>
	<path class="st0" d="M150.9,41.8c-0.6,0-1.1,0.2-1.5,0.6c-0.4,0.4-0.6,0.9-0.6,1.5v6.7c-0.7-0.6-1.5-1.1-2.4-1.5s-2-0.6-3.1-0.6
		c-1.5,0-2.9,0.4-4.2,1.2c-1.3,0.8-2.3,1.9-3,3.4c-0.7,1.5-1.1,3.1-1.1,4.9s0.4,3.5,1.1,4.9c0.7,1.4,1.8,2.6,3,3.4
		c1.3,0.8,2.7,1.2,4.3,1.2c1.1,0,2.1-0.2,3.1-0.7c1-0.5,1.7-1,2.3-1.7c0,0.6,0.2,1.1,0.6,1.5c0.4,0.4,0.9,0.6,1.5,0.6
		c0.6,0,1.1-0.2,1.5-0.6c0.4-0.4,0.6-0.9,0.6-1.5V43.9c0-0.6-0.2-1.1-0.6-1.5C152,42,151.5,41.8,150.9,41.8z M147.6,62.2
		c-0.9,1.1-2.2,1.6-3.6,1.6s-2.7-0.5-3.6-1.6c-0.9-1.1-1.4-2.5-1.4-4.1c0-1.7,0.5-3,1.4-4.1c0.9-1.1,2.1-1.7,3.6-1.7
		c1.5,0,2.7,0.5,3.6,1.7c0.9,1.1,1.4,2.5,1.4,4.1C149,59.7,148.6,61.1,147.6,62.2z"/>
	<path class="st0" d="M172.3,48.5c-0.6,0-1.1,0.2-1.5,0.6c-0.4,0.4-0.6,0.9-0.6,1.5v0c-0.7-0.6-1.5-1.1-2.4-1.5s-2-0.6-3.1-0.6
		c-1.5,0-2.9,0.4-4.2,1.2c-1.3,0.8-2.3,1.9-3,3.4c-0.7,1.5-1.1,3.1-1.1,4.9s0.4,3.5,1.1,4.9c0.7,1.4,1.8,2.6,3,3.4
		c1.3,0.8,2.7,1.2,4.3,1.2c1.1,0,2.1-0.2,3.1-0.7c1-0.5,1.7-1,2.3-1.7c0,0.6,0.2,1.1,0.6,1.5c0.4,0.4,0.9,0.6,1.5,0.6
		c0.6,0,1.1-0.2,1.5-0.6c0.4-0.4,0.6-0.9,0.6-1.5V50.6c0-0.6-0.2-1.1-0.6-1.5C173.4,48.7,172.9,48.5,172.3,48.5z M169,62.2
		c-0.9,1.1-2.2,1.6-3.6,1.6s-2.7-0.5-3.6-1.6c-0.9-1.1-1.4-2.5-1.4-4.1c0-1.7,0.5-3,1.4-4.1c0.9-1.1,2.1-1.7,3.6-1.7
		c1.5,0,2.7,0.5,3.6,1.7c0.9,1.1,1.4,2.5,1.4,4.1C170.4,59.7,170,61.1,169,62.2z"/>
	<path class="st0" d="M121.1,41.8c-0.6,0-1.1,0.2-1.5,0.6c-0.4,0.4-0.6,0.9-0.6,1.5v21.3c0,0.6,0.2,1.1,0.6,1.5
		c0.4,0.4,0.9,0.6,1.4,0.6c0.6,0,1.1-0.2,1.5-0.6c0.4-0.4,0.6-0.9,0.6-1.5V43.9c0-0.6-0.2-1.1-0.6-1.5
		C122.1,42,121.6,41.8,121.1,41.8z"/>
	<path class="st0" d="M129.7,48.8c-0.6,0-1.1,0.2-1.5,0.6c-0.4,0.4-0.6,0.9-0.6,1.5v14.2c0,0.6,0.2,1.1,0.6,1.5
		c0.4,0.4,0.9,0.6,1.5,0.6c0.6,0,1.1-0.2,1.5-0.6c0.4-0.4,0.6-0.9,0.6-1.5V50.9c0-0.6-0.2-1.1-0.6-1.5
		C130.8,49,130.3,48.8,129.7,48.8z"/>
	<path class="st0" d="M92.3,43.1c-0.4,0-0.8,0.1-1.1,0.3c-0.3,0.2-0.6,0.5-0.8,1L84,60.7l-6.9-16.3c-0.2-0.4-0.4-0.8-0.8-1
		c-0.3-0.2-0.7-0.3-1.1-0.3c-0.5,0-1,0.2-1.4,0.6c-0.5,0.4-0.7,0.9-0.7,1.5c0,0.3,0.1,0.6,0.2,0.9l8.5,19.9c0.2,0.4,0.4,0.7,0.8,0.9
		c0.3,0.2,0.7,0.3,1.1,0.4c0.4,0,0.8-0.1,1.2-0.3c0.4-0.2,0.7-0.6,0.9-1L94.2,46c0.1-0.3,0.2-0.6,0.2-0.9c0-0.6-0.2-1-0.6-1.4
		C93.3,43.3,92.8,43.1,92.3,43.1z"/>
	<path class="st0" d="M112.1,48.5c-0.6,0-1.1,0.2-1.5,0.6c-0.4,0.4-0.6,0.9-0.6,1.5v0c-0.7-0.6-1.5-1.1-2.4-1.5s-2-0.6-3.1-0.6
		c-1.5,0-2.9,0.4-4.2,1.2c-1.3,0.8-2.3,1.9-3,3.4c-0.7,1.5-1.1,3.1-1.1,4.9s0.4,3.5,1.1,4.9c0.7,1.4,1.8,2.6,3,3.4
		c1.3,0.8,2.7,1.2,4.3,1.2c1.1,0,2.1-0.2,3.1-0.7c1-0.5,1.7-1,2.3-1.7c0,0.6,0.2,1.1,0.6,1.5c0.4,0.4,0.9,0.6,1.5,0.6
		c0.6,0,1.1-0.2,1.5-0.6c0.4-0.4,0.6-0.9,0.6-1.5V50.6c0-0.6-0.2-1.1-0.6-1.5C113.2,48.7,112.7,48.5,112.1,48.5z M108.8,62.2
		c-0.9,1.1-2.2,1.6-3.6,1.6s-2.7-0.5-3.6-1.6c-0.9-1.1-1.4-2.5-1.4-4.1c0-1.7,0.5-3,1.4-4.1c0.9-1.1,2.1-1.7,3.6-1.7
		c1.5,0,2.7,0.5,3.6,1.7c0.9,1.1,1.4,2.5,1.4,4.1C110.2,59.7,109.7,61.1,108.8,62.2z"/>
	<path class="st0" d="M190.2,49.1c-0.5-0.4-1-0.6-1.7-0.6c-1.1,0-2.2,0.2-3.2,0.7c-1,0.5-1.7,1.2-2.3,2.1v-0.4
		c0-0.6-0.2-1.1-0.6-1.5c-0.4-0.4-0.9-0.6-1.5-0.6c-0.6,0-1.1,0.2-1.5,0.6c-0.4,0.4-0.6,0.9-0.6,1.5v14.2c0,0.6,0.2,1.1,0.6,1.5
		c0.4,0.4,0.9,0.6,1.5,0.6c0.6,0,1.1-0.2,1.5-0.6c0.4-0.4,0.6-0.9,0.6-1.5V57c0-1,0.2-1.9,0.5-2.7c0.4-0.7,0.8-1.3,1.4-1.7
		c0.5-0.4,1.1-0.5,1.7-0.5c0.3,0,0.5,0,0.8,0.1c0.2,0.1,0.4,0.1,0.5,0.1c0.4,0.2,0.8,0.2,1.2,0.2c0.5,0,0.9-0.2,1.3-0.5
		s0.6-0.9,0.6-1.6C190.9,49.9,190.6,49.5,190.2,49.1z"/>
	<path class="st1" d="M165.4,52.3c-1.5,0-2.7,0.5-3.6,1.7c-0.9,1.1-1.4,2.5-1.4,4.1c0,1.7,0.5,3,1.4,4.1c0.9,1.1,2.1,1.6,3.6,1.6
		s2.7-0.5,3.6-1.6c0.9-1.1,1.4-2.5,1.4-4.1c0-1.7-0.5-3-1.4-4.1C168.1,52.8,166.9,52.3,165.4,52.3z"/>
	<path class="st1" d="M144,52.3c-1.5,0-2.7,0.5-3.6,1.7c-0.9,1.1-1.4,2.5-1.4,4.1c0,1.7,0.5,3,1.4,4.1c0.9,1.1,2.1,1.6,3.6,1.6
		s2.7-0.5,3.6-1.6c0.9-1.1,1.4-2.5,1.4-4.1c0-1.7-0.5-3-1.4-4.1C146.7,52.8,145.5,52.3,144,52.3z"/>
	<path class="st1" d="M105.2,52.3c-1.5,0-2.7,0.5-3.6,1.7c-0.9,1.1-1.4,2.5-1.4,4.1c0,1.7,0.5,3,1.4,4.1c0.9,1.1,2.1,1.6,3.6,1.6
		s2.7-0.5,3.6-1.6c0.9-1.1,1.4-2.5,1.4-4.1c0-1.7-0.5-3-1.4-4.1C107.9,52.8,106.6,52.3,105.2,52.3z"/>
	<path class="st1" d="M202.3,65.9l22.3,8.8L263,89.9V21.8c0-12-9.8-21.8-21.8-21.8H21.8C9.8,0,0,9.8,0,21.8v68.4
		c0,12,9.8,21.8,21.8,21.8H222l-10.3-24.1L202.3,65.9z M94.2,46l-8.5,19.9c-0.2,0.4-0.5,0.8-0.9,1c-0.4,0.2-0.8,0.3-1.2,0.3
		c-0.4,0-0.8-0.1-1.1-0.4c-0.3-0.2-0.6-0.5-0.8-0.9L73.3,46c-0.1-0.2-0.2-0.5-0.2-0.9c0-0.6,0.2-1.1,0.7-1.5
		c0.5-0.4,0.9-0.6,1.4-0.6c0.4,0,0.8,0.1,1.1,0.3c0.3,0.2,0.6,0.6,0.8,1L84,60.7l6.3-16.3c0.2-0.4,0.4-0.7,0.8-1
		c0.3-0.2,0.7-0.3,1.1-0.3c0.6,0,1.1,0.2,1.5,0.6c0.4,0.4,0.6,0.9,0.6,1.4C94.4,45.4,94.3,45.7,94.2,46z M114.2,65.1
		c0,0.6-0.2,1.1-0.6,1.5c-0.4,0.4-0.9,0.6-1.5,0.6c-0.6,0-1.1-0.2-1.5-0.6c-0.4-0.4-0.6-0.9-0.6-1.5c-0.6,0.7-1.3,1.2-2.3,1.7
		c-1,0.5-2,0.7-3.1,0.7c-1.6,0-3-0.4-4.3-1.2c-1.3-0.8-2.3-1.9-3-3.4c-0.7-1.4-1.1-3.1-1.1-4.9s0.4-3.5,1.1-4.9
		c0.7-1.5,1.7-2.6,3-3.4c1.3-0.8,2.7-1.2,4.2-1.2c1.1,0,2.1,0.2,3.1,0.6s1.8,0.9,2.4,1.5v0c0-0.6,0.2-1.1,0.6-1.5
		c0.4-0.4,0.9-0.6,1.5-0.6c0.6,0,1.1,0.2,1.5,0.6c0.4,0.4,0.6,0.9,0.6,1.5V65.1z M123.1,65.1c0,0.6-0.2,1.1-0.6,1.5
		c-0.4,0.4-0.9,0.6-1.5,0.6c-0.6,0-1.1-0.2-1.4-0.6c-0.4-0.4-0.6-0.9-0.6-1.5V43.9c0-0.6,0.2-1.1,0.6-1.5c0.4-0.4,0.9-0.6,1.5-0.6
		c0.6,0,1.1,0.2,1.4,0.6c0.4,0.4,0.6,0.9,0.6,1.5V65.1z M131.8,65.1c0,0.6-0.2,1.1-0.6,1.5c-0.4,0.4-0.9,0.6-1.5,0.6
		c-0.6,0-1.1-0.2-1.5-0.6c-0.4-0.4-0.6-0.9-0.6-1.5V50.9c0-0.6,0.2-1.1,0.6-1.5c0.4-0.4,0.9-0.6,1.5-0.6c0.6,0,1.1,0.2,1.5,0.6
		c0.4,0.4,0.6,0.9,0.6,1.5V65.1z M131.9,44.9c0,0.7-0.2,1.1-0.5,1.4c-0.3,0.2-0.9,0.4-1.7,0.4c-0.8,0-1.3-0.1-1.7-0.4
		c-0.3-0.3-0.5-0.7-0.5-1.3v-0.7c0-0.6,0.2-1.1,0.5-1.3c0.3-0.3,0.9-0.4,1.7-0.4c0.8,0,1.4,0.1,1.7,0.4c0.3,0.3,0.5,0.7,0.5,1.3
		V44.9z M153,65.1c0,0.6-0.2,1.1-0.6,1.5c-0.4,0.4-0.9,0.6-1.5,0.6c-0.6,0-1.1-0.2-1.5-0.6c-0.4-0.4-0.6-0.9-0.6-1.5
		c-0.6,0.7-1.3,1.2-2.3,1.7c-1,0.5-2,0.7-3.1,0.7c-1.6,0-3-0.4-4.3-1.2c-1.3-0.8-2.3-1.9-3-3.4c-0.7-1.4-1.1-3.1-1.1-4.9
		s0.4-3.5,1.1-4.9c0.7-1.5,1.7-2.6,3-3.4c1.3-0.8,2.7-1.2,4.2-1.2c1.1,0,2.1,0.2,3.1,0.6s1.8,0.9,2.4,1.5v-6.7
		c0-0.6,0.2-1.1,0.6-1.5c0.4-0.4,0.9-0.6,1.5-0.6c0.6,0,1.1,0.2,1.5,0.6c0.4,0.4,0.6,0.9,0.6,1.5V65.1z M174.4,65.1
		c0,0.6-0.2,1.1-0.6,1.5c-0.4,0.4-0.9,0.6-1.5,0.6c-0.6,0-1.1-0.2-1.5-0.6c-0.4-0.4-0.6-0.9-0.6-1.5c-0.6,0.7-1.3,1.2-2.3,1.7
		c-1,0.5-2,0.7-3.1,0.7c-1.6,0-3-0.4-4.3-1.2c-1.3-0.8-2.3-1.9-3-3.4c-0.7-1.4-1.1-3.1-1.1-4.9s0.4-3.5,1.1-4.9
		c0.7-1.5,1.7-2.6,3-3.4c1.3-0.8,2.7-1.2,4.2-1.2c1.1,0,2.1,0.2,3.1,0.6s1.8,0.9,2.4,1.5v0c0-0.6,0.2-1.1,0.6-1.5
		c0.4-0.4,0.9-0.6,1.5-0.6c0.6,0,1.1,0.2,1.5,0.6c0.4,0.4,0.6,0.9,0.6,1.5V65.1z M190.3,52c-0.4,0.4-0.8,0.5-1.3,0.5
		c-0.3,0-0.7-0.1-1.2-0.2c-0.1,0-0.2-0.1-0.5-0.1c-0.2-0.1-0.5-0.1-0.8-0.1c-0.6,0-1.2,0.2-1.7,0.5c-0.6,0.4-1,0.9-1.4,1.7
		c-0.4,0.7-0.5,1.6-0.5,2.7v8.1c0,0.6-0.2,1.1-0.6,1.5c-0.4,0.4-0.9,0.6-1.5,0.6c-0.6,0-1.1-0.2-1.5-0.6c-0.4-0.4-0.6-0.9-0.6-1.5
		V50.9c0-0.6,0.2-1.1,0.6-1.5c0.4-0.4,0.9-0.6,1.5-0.6c0.6,0,1.1,0.2,1.5,0.6c0.4,0.4,0.6,0.9,0.6,1.5v0.4c0.5-0.9,1.3-1.7,2.3-2.1
		c1-0.5,2-0.7,3.2-0.7c0.7,0,1.3,0.2,1.7,0.6c0.5,0.4,0.7,0.8,0.7,1.4C190.9,51.2,190.7,51.7,190.3,52z"/>
	<polygon class="st1" points="260.8,99.8 220.9,84 232.9,112 250.2,152.5 263.3,123.1 291,111.7 	"/>
</g>
</svg>
