<?xml version="1.0" encoding="utf-8"?>
<!-- Generator: Adobe Illustrator 23.0.3, SVG Export Plug-In . SVG Version: 6.00 Build 0)  -->
<svg version="1.1" id="Capa_1" xmlns="http://www.w3.org/2000/svg" xmlns:xlink="http://www.w3.org/1999/xlink" x="0px" y="0px"
	 viewBox="0 0 230 230" style="enable-background:new 0 0 230 230;" xml:space="preserve">
<style type="text/css">
	.st0{opacity:0.35;fill:url(#SVGID_1_);}
	.st1{fill:url(#SVGID_2_);}
	.st2{fill:url(#SVGID_3_);}
	.st3{fill:url(#SVGID_4_);}
	.st4{fill:url(#SVGID_5_);}
	.st5{opacity:0.3;}
	.st6{fill:#454545;}
	.st7{fill:#FFFFFF;}
	.st8{opacity:0.2;}
	.st9{opacity:0.5;fill:#454545;}
	.st10{fill:url(#SVGID_6_);}
	.st11{fill:url(#SVGID_7_);}
</style>
<g>
	<linearGradient id="SVGID_1_" gradientUnits="userSpaceOnUse" x1="127.3181" y1="221.0165" x2="127.3181" y2="49.5575">
		<stop  offset="0" style="stop-color:#FF6567"/>
		<stop  offset="1" style="stop-color:#FFA046"/>
	</linearGradient>
	<polygon class="st0" points="219.1,49.6 35.6,221 167.5,215.9 206.2,217.1 219.1,166 	"/>
	<g>
		<g>
			<g>
				<linearGradient id="SVGID_2_" gradientUnits="userSpaceOnUse" x1="114.9756" y1="229.9592" x2="114.9756" y2="-9.094947e-13">
					<stop  offset="0" style="stop-color:#FF6567"/>
					<stop  offset="1" style="stop-color:#FFA046"/>
				</linearGradient>
				<path class="st1" d="M177.3,230H52.7C23.6,230,0,206.3,0,177.3V52.7C0,23.6,23.6,0,52.7,0h124.6c29,0,52.7,23.6,52.7,52.7v124.6
					C230,206.3,206.3,230,177.3,230z M52.7,16.4c-20,0-36.3,16.3-36.3,36.3v124.6c0,20,16.3,36.3,36.3,36.3h124.6
					c20,0,36.3-16.3,36.3-36.3V52.7c0-20-16.3-36.3-36.3-36.3H52.7z"/>
			</g>
		</g>
		<g>
			<linearGradient id="SVGID_3_" gradientUnits="userSpaceOnUse" x1="59.8234" y1="140.4419" x2="59.8234" y2="86.9156">
				<stop  offset="0" style="stop-color:#FF6567"/>
				<stop  offset="1" style="stop-color:#FFA046"/>
			</linearGradient>
			<path class="st2" d="M48,139.2c-3.2-0.8-5.8-1.9-7.9-3.2c-0.8-0.6-1.5-1.3-1.9-2.1c-0.4-0.8-0.7-1.6-0.7-2.5
				c0-1.2,0.4-2.3,1.1-3.2c0.7-0.9,1.7-1.3,2.9-1.3c1,0,2,0.3,3,0.9c1.7,1.1,3.9,2,6.4,2.7c2.5,0.7,5.3,1,8.3,1
				c3.2,0,5.7-0.5,7.4-1.5c1.7-1,2.6-2.4,2.6-4.2c0-1.2-0.5-2.3-1.4-3.1c-0.9-0.9-2.1-1.6-3.5-2.1c-1.4-0.5-3.4-1.2-5.8-1.9
				c-3.7-1.1-6.6-2.1-8.9-3.1c-2.3-1-4.3-2.5-5.9-4.6c-1.7-2-2.5-4.6-2.5-7.8c0-3.2,0.9-6,2.7-8.5c1.8-2.4,4.3-4.3,7.6-5.7
				c3.3-1.3,7.1-2,11.4-2c3.7,0,7.1,0.4,10.2,1.3c3.2,0.9,5.7,2.1,7.6,3.6c1.2,0.9,1.9,2.2,1.9,3.8c0,1.2-0.4,2.3-1.2,3.3
				c-0.8,0.9-1.8,1.4-3,1.4c-1,0-2.1-0.3-3.1-1c-1.5-1-3.4-1.8-5.6-2.5c-2.2-0.7-4.5-1-6.9-1c-3.1,0-5.5,0.5-7.3,1.6
				c-1.8,1.1-2.6,2.6-2.6,4.5c0,1.3,0.5,2.4,1.4,3.3s2.2,1.6,3.6,2.2c1.5,0.6,3.5,1.2,6,2c3.6,1,6.5,2.1,8.7,3.1
				c2.3,1,4.2,2.5,5.8,4.4c1.6,1.9,2.4,4.4,2.4,7.6c0,5-1.9,8.9-5.7,11.7c-3.8,2.8-9.2,4.2-16.1,4.2C54.7,140.4,51.2,140,48,139.2z"
				/>
			<linearGradient id="SVGID_4_" gradientUnits="userSpaceOnUse" x1="115.5766" y1="140.2207" x2="115.5766" y2="87.2126">
				<stop  offset="0" style="stop-color:#FF6567"/>
				<stop  offset="1" style="stop-color:#FFA046"/>
			</linearGradient>
			<path class="st3" d="M141.9,88.8c0.9,1,1.3,2.4,1.1,4.1l-3.3,42.1c-0.1,1.6-0.7,2.9-1.7,3.8c-1,0.9-2.2,1.4-3.7,1.4
				c-1.5,0-2.7-0.5-3.6-1.4c-0.9-1-1.3-2.2-1.1-3.8l2.1-26.1l-12,19.6c-0.8,1.3-1.6,2.3-2.5,2.9c-0.9,0.6-1.9,0.9-3,0.9
				c-1.1,0-2.1-0.3-2.9-0.9c-0.8-0.6-1.4-1.6-2-2.9l-9-19.1l-2,25.5c-0.1,1.6-0.7,2.9-1.7,3.8c-1,1-2.3,1.4-3.8,1.4
				c-1.5,0-2.7-0.5-3.5-1.4c-0.9-0.9-1.2-2.2-1.1-3.8l3.3-42.1c0.1-1.7,0.8-3,1.9-4.1c1.1-1,2.4-1.6,4.1-1.6c2.3,0,4,1.3,5.1,3.8
				l12.7,28.1L132.4,91c1.6-2.5,3.5-3.8,5.7-3.8C139.7,87.2,141,87.7,141.9,88.8z"/>
			<linearGradient id="SVGID_5_" gradientUnits="userSpaceOnUse" x1="170.3505" y1="140.4419" x2="170.3505" y2="86.9156">
				<stop  offset="0" style="stop-color:#FF6567"/>
				<stop  offset="1" style="stop-color:#FFA046"/>
			</linearGradient>
			<path class="st4" d="M158.5,139.2c-3.2-0.8-5.8-1.9-7.9-3.2c-0.8-0.6-1.5-1.3-1.9-2.1c-0.4-0.8-0.7-1.6-0.7-2.5
				c0-1.2,0.4-2.3,1.1-3.2c0.7-0.9,1.7-1.3,2.9-1.3c1,0,2,0.3,3,0.9c1.7,1.1,3.9,2,6.4,2.7c2.5,0.7,5.3,1,8.3,1
				c3.2,0,5.7-0.5,7.4-1.5c1.7-1,2.6-2.4,2.6-4.2c0-1.2-0.5-2.3-1.4-3.1c-0.9-0.9-2.1-1.6-3.5-2.1c-1.4-0.5-3.4-1.2-5.8-1.9
				c-3.7-1.1-6.6-2.1-8.9-3.1c-2.3-1-4.3-2.5-5.9-4.6c-1.7-2-2.5-4.6-2.5-7.8c0-3.2,0.9-6,2.7-8.5c1.8-2.4,4.3-4.3,7.6-5.7
				c3.3-1.3,7.1-2,11.4-2c3.7,0,7.1,0.4,10.2,1.3c3.2,0.9,5.7,2.1,7.6,3.6c1.2,0.9,1.9,2.2,1.9,3.8c0,1.2-0.4,2.3-1.2,3.3
				c-0.8,0.9-1.8,1.4-3,1.4c-1,0-2.1-0.3-3.1-1c-1.5-1-3.4-1.8-5.6-2.5c-2.2-0.7-4.5-1-6.9-1c-3.1,0-5.5,0.5-7.3,1.6
				c-1.8,1.1-2.6,2.6-2.6,4.5c0,1.3,0.5,2.4,1.4,3.3s2.2,1.6,3.6,2.2c1.5,0.6,3.5,1.2,6,2c3.6,1,6.5,2.1,8.7,3.1
				c2.3,1,4.2,2.5,5.8,4.4c1.6,1.9,2.4,4.4,2.4,7.6c0,5-1.9,8.9-5.7,11.7c-3.8,2.8-9.2,4.2-16.1,4.2
				C165.3,140.4,161.7,140,158.5,139.2z"/>
		</g>
	</g>
</g>
</svg>
