<?xml version="1.0" encoding="utf-8"?>
<!-- Generator: Adobe Illustrator 23.0.3, SVG Export Plug-In . SVG Version: 6.00 Build 0)  -->
<svg version="1.1" id="Capa_1" xmlns="http://www.w3.org/2000/svg" xmlns:xlink="http://www.w3.org/1999/xlink" x="0px" y="0px"
	 viewBox="0 0 47 42.8" style="enable-background:new 0 0 47 42.8;" xml:space="preserve">
<style type="text/css">
	.st0{fill:url(#SVGID_1_);}
	.st1{opacity:0.35;}
	.st2{fill:url(#SVGID_2_);}
	.st3{fill:url(#SVGID_3_);}
	.st4{fill:#FFFFFF;}
	.st5{fill:url(#SVGID_4_);}
	.st6{fill:url(#SVGID_5_);}
	.st7{fill:url(#SVGID_6_);}
	.st8{fill:url(#SVGID_7_);}
	.st9{fill:url(#SVGID_8_);}
	.st10{fill:url(#SVGID_9_);}
	.st11{fill:url(#SVGID_10_);}
	.st12{fill:url(#SVGID_11_);}
	.st13{fill:url(#SVGID_12_);}
	.st14{fill:url(#SVGID_13_);}
	.st15{fill:url(#SVGID_14_);}
	.st16{fill:url(#SVGID_15_);}
	.st17{fill:url(#SVGID_16_);}
	.st18{fill:url(#SVGID_17_);}
	.st19{fill:url(#SVGID_18_);}
	.st20{fill:url(#SVGID_19_);}
	.st21{fill:url(#SVGID_20_);}
	.st22{fill:url(#SVGID_21_);}
	.st23{fill:url(#SVGID_22_);}
	.st24{fill:url(#SVGID_23_);}
	.st25{fill:url(#SVGID_24_);}
	.st26{fill:url(#SVGID_25_);}
	.st27{opacity:0.35;fill:url(#SVGID_26_);}
	.st28{fill:url(#SVGID_27_);}
	.st29{fill:url(#SVGID_28_);}
	.st30{fill:url(#SVGID_29_);}
	.st31{fill:url(#SVGID_30_);}
	.st32{fill:url(#SVGID_31_);}
	.st33{fill:url(#SVGID_32_);}
	.st34{fill:url(#SVGID_33_);}
	.st35{fill:url(#SVGID_34_);}
	.st36{fill:url(#SVGID_35_);}
	.st37{fill:url(#SVGID_36_);}
	.st38{fill:url(#SVGID_37_);}
	.st39{fill:url(#SVGID_38_);}
	.st40{fill:url(#SVGID_39_);}
	.st41{fill:url(#SVGID_40_);}
	.st42{fill:url(#SVGID_41_);}
	.st43{fill:url(#SVGID_42_);}
	.st44{fill:url(#SVGID_43_);}
	.st45{fill:url(#SVGID_44_);}
	.st46{fill:url(#SVGID_45_);}
	.st47{fill:url(#SVGID_46_);}
	.st48{fill:url(#SVGID_47_);}
	.st49{fill:url(#SVGID_48_);}
	.st50{fill:url(#SVGID_49_);}
	.st51{fill:url(#SVGID_50_);}
	.st52{fill:url(#SVGID_51_);}
	.st53{fill:url(#SVGID_52_);}
	.st54{fill:url(#SVGID_53_);}
	.st55{fill:url(#SVGID_54_);}
	.st56{fill:url(#SVGID_55_);}
	.st57{fill:url(#SVGID_56_);}
	.st58{fill:url(#SVGID_57_);}
	.st59{fill:url(#SVGID_58_);}
	.st60{fill:url(#SVGID_59_);}
	.st61{fill:url(#SVGID_60_);}
	.st62{fill:url(#SVGID_61_);}
	.st63{fill:url(#SVGID_62_);}
	.st64{fill:url(#SVGID_63_);}
	.st65{fill:none;stroke:url(#SVGID_64_);stroke-linecap:round;stroke-miterlimit:10;}
	.st66{fill:none;stroke:url(#SVGID_65_);stroke-linecap:round;stroke-miterlimit:10;}
	.st67{fill:none;stroke:url(#SVGID_66_);stroke-linecap:round;stroke-miterlimit:10;}
	.st68{fill:url(#SVGID_67_);}
	.st69{fill:url(#SVGID_68_);}
	.st70{fill:#FF6567;}
	.st71{opacity:0.35;fill:url(#SVGID_69_);}
	.st72{opacity:0.35;fill:url(#SVGID_70_);}
	.st73{opacity:0.35;fill:url(#SVGID_71_);}
	.st74{opacity:0.35;fill:url(#SVGID_72_);}
	.st75{fill:url(#SVGID_73_);}
	.st76{fill:url(#SVGID_74_);}
	.st77{opacity:0.35;fill:url(#SVGID_75_);}
	.st78{fill:url(#SVGID_76_);}
	.st79{fill:url(#SVGID_77_);}
	.st80{fill:url(#SVGID_78_);}
	.st81{fill:url(#SVGID_79_);}
	.st82{fill:url(#SVGID_80_);}
	.st83{fill:url(#SVGID_81_);}
	.st84{fill:url(#SVGID_82_);}
	.st85{fill:url(#SVGID_83_);}
	.st86{fill:url(#SVGID_84_);}
	.st87{fill:url(#SVGID_85_);}
	.st88{fill:url(#SVGID_86_);}
	.st89{fill:url(#SVGID_87_);}
	.st90{fill:url(#SVGID_88_);}
	.st91{fill:url(#SVGID_89_);}
	.st92{fill:url(#SVGID_90_);}
	.st93{fill:url(#SVGID_91_);}
	.st94{fill:url(#SVGID_92_);}
	.st95{fill:url(#SVGID_93_);}
	.st96{fill:url(#SVGID_94_);}
	.st97{fill:url(#SVGID_95_);}
	.st98{fill:url(#SVGID_96_);}
	.st99{fill:url(#SVGID_97_);}
	.st100{fill:url(#SVGID_98_);}
	.st101{fill:url(#SVGID_99_);}
	.st102{fill:url(#SVGID_100_);}
	.st103{fill:url(#SVGID_101_);}
	.st104{fill:url(#SVGID_102_);}
	.st105{fill:url(#SVGID_103_);}
	.st106{fill:url(#SVGID_104_);}
	.st107{fill:url(#SVGID_105_);}
	.st108{fill:url(#SVGID_106_);}
	.st109{fill:url(#SVGID_107_);}
	.st110{fill:url(#SVGID_108_);}
	.st111{fill:url(#SVGID_109_);}
	.st112{fill:url(#SVGID_110_);}
	.st113{fill:url(#SVGID_111_);}
	.st114{fill:url(#SVGID_112_);}
	.st115{fill:url(#SVGID_113_);}
	.st116{fill:url(#SVGID_114_);}
	.st117{fill:url(#SVGID_115_);}
	.st118{fill:url(#SVGID_116_);}
	.st119{fill:url(#SVGID_117_);}
	.st120{fill:url(#SVGID_118_);}
	.st121{fill:url(#SVGID_119_);}
	.st122{fill:url(#SVGID_120_);}
	.st123{fill:url(#SVGID_121_);}
	.st124{fill:url(#SVGID_122_);}
	.st125{fill:url(#SVGID_123_);}
	.st126{fill:url(#SVGID_124_);}
	.st127{opacity:0.3;fill:url(#SVGID_125_);}
	.st128{fill:url(#SVGID_126_);}
	.st129{opacity:0.35;fill:url(#SVGID_127_);}
	.st130{fill:url(#SVGID_128_);}
	.st131{fill:url(#SVGID_129_);}
	.st132{fill:url(#SVGID_130_);}
	.st133{opacity:0.35;fill:url(#SVGID_131_);}
	.st134{fill:url(#SVGID_132_);}
	.st135{fill:url(#SVGID_133_);}
	.st136{fill:url(#SVGID_134_);}
	.st137{opacity:0.35;fill:url(#SVGID_135_);}
	.st138{fill:url(#SVGID_136_);}
	.st139{fill:url(#SVGID_137_);}
	.st140{fill:url(#SVGID_138_);}
	.st141{opacity:0.35;fill:url(#SVGID_139_);}
	.st142{fill:url(#SVGID_140_);}
	.st143{fill:url(#SVGID_141_);}
	.st144{fill:url(#SVGID_142_);}
	.st145{fill:url(#SVGID_143_);}
	.st146{fill:url(#SVGID_144_);}
	.st147{fill:url(#SVGID_145_);}
	.st148{fill:url(#SVGID_146_);}
	.st149{fill:url(#SVGID_147_);}
	.st150{fill:url(#SVGID_148_);}
	.st151{opacity:0.35;fill:url(#SVGID_149_);}
	.st152{opacity:0.35;fill:url(#SVGID_150_);}
	.st153{opacity:0.35;fill:url(#SVGID_151_);}
	.st154{opacity:0.35;fill:url(#SVGID_152_);}
	.st155{fill:url(#SVGID_153_);}
	.st156{fill:url(#SVGID_154_);}
	.st157{fill:url(#SVGID_155_);}
	.st158{fill:url(#SVGID_156_);}
	.st159{fill:url(#SVGID_157_);}
	.st160{fill:url(#SVGID_158_);}
	.st161{fill:url(#SVGID_159_);}
	.st162{fill:url(#SVGID_160_);}
	.st163{fill:url(#SVGID_161_);}
	.st164{fill:url(#SVGID_162_);}
	.st165{fill:url(#SVGID_163_);}
	.st166{fill:url(#SVGID_164_);}
	.st167{fill:url(#SVGID_165_);}
	.st168{fill:url(#SVGID_166_);}
	.st169{fill:url(#SVGID_167_);}
	.st170{opacity:0.35;fill:url(#SVGID_168_);}
	.st171{fill:url(#SVGID_169_);}
	.st172{fill:url(#SVGID_170_);}
	.st173{fill:url(#SVGID_171_);}
	.st174{fill:url(#SVGID_172_);}
	.st175{opacity:0.2;}
	.st176{clip-path:url(#SVGID_177_);fill:url(#SVGID_178_);}
	.st177{clip-path:url(#SVGID_180_);fill:url(#SVGID_181_);}
	.st178{clip-path:url(#SVGID_183_);fill:url(#SVGID_184_);}
	.st179{clip-path:url(#SVGID_186_);fill:url(#SVGID_187_);}
	.st180{clip-path:url(#SVGID_189_);fill:url(#SVGID_190_);}
	.st181{clip-path:url(#SVGID_192_);fill:url(#SVGID_193_);}
	.st182{fill:url(#SVGID_194_);}
	.st183{fill:url(#SVGID_195_);}
	.st184{fill:url(#SVGID_196_);}
	.st185{fill:url(#SVGID_197_);}
	.st186{fill:url(#SVGID_198_);}
	.st187{fill:url(#SVGID_199_);}
	.st188{fill:url(#SVGID_200_);}
	.st189{fill:#FF1321;}
	.st190{fill:#FF9E00;}
	.st191{fill:#FF6618;}
	.st192{fill:#454545;}
	.st193{fill:#3A79F3;}
	.st194{fill:#0E656E;}
	.st195{fill:#10B60C;}
	.st196{fill:#0E656C;}
	.st197{fill:#0FB70C;}
	.st198{fill:#003D71;}
	.st199{fill:#2458EA;}
	.st200{fill:url(#SVGID_201_);}
	.st201{fill:url(#SVGID_202_);}
	.st202{fill:url(#SVGID_203_);}
	.st203{fill:url(#SVGID_204_);}
	.st204{fill:url(#SVGID_205_);}
	.st205{opacity:0.35;fill:url(#SVGID_206_);}
	.st206{fill:#1BD741;}
	.st207{fill:#3B5998;}
	.st208{fill:url(#SVGID_207_);}
	.st209{fill:url(#SVGID_208_);}
	.st210{fill:url(#SVGID_209_);}
	.st211{fill:url(#SVGID_210_);}
	.st212{opacity:0.4;fill:#FFFFFF;}
	.st213{opacity:0.4;}
	.st214{fill:#FEFEFC;}
	.st215{fill:#BFBFBF;}
	.st216{fill:#184B7B;}
	.st217{opacity:0.3;}
	.st218{fill:url(#SVGID_215_);}
	.st219{fill:url(#SVGID_216_);}
	.st220{fill:url(#SVGID_217_);}
	.st221{clip-path:url(#SVGID_222_);fill:url(#SVGID_223_);}
	.st222{clip-path:url(#SVGID_225_);fill:url(#SVGID_226_);}
	.st223{clip-path:url(#SVGID_228_);fill:url(#SVGID_229_);}
	.st224{clip-path:url(#SVGID_231_);fill:url(#SVGID_232_);}
	.st225{clip-path:url(#SVGID_234_);fill:url(#SVGID_235_);}
	.st226{clip-path:url(#SVGID_237_);fill:url(#SVGID_238_);}
	.st227{fill:url(#SVGID_239_);}
	.st228{fill:url(#SVGID_240_);}
	.st229{fill:url(#SVGID_241_);}
	.st230{fill:url(#SVGID_242_);}
	.st231{fill:url(#SVGID_243_);}
	.st232{fill:url(#SVGID_244_);}
	.st233{fill:url(#SVGID_245_);}
	.st234{fill:url(#SVGID_246_);}
	.st235{fill:url(#SVGID_247_);}
	.st236{fill:url(#SVGID_248_);}
	.st237{fill:url(#SVGID_249_);}
	.st238{fill:url(#SVGID_250_);}
	.st239{fill:url(#SVGID_251_);}
	.st240{fill:url(#SVGID_252_);}
	.st241{fill:url(#SVGID_253_);}
	.st242{fill:url(#SVGID_254_);}
	.st243{fill:url(#SVGID_255_);}
	.st244{fill:url(#SVGID_256_);}
	.st245{fill:url(#SVGID_257_);}
	.st246{fill:url(#SVGID_258_);}
	.st247{fill:url(#SVGID_259_);}
	.st248{fill:url(#SVGID_260_);}
	.st249{fill:url(#SVGID_261_);}
	.st250{fill:url(#SVGID_262_);}
	.st251{fill:url(#SVGID_263_);}
	.st252{opacity:0.35;fill:url(#SVGID_264_);}
	.st253{opacity:0.35;fill:url(#SVGID_265_);}
	.st254{fill:url(#SVGID_266_);}
	.st255{opacity:0.35;fill:url(#SVGID_267_);}
	.st256{opacity:0.35;fill:url(#SVGID_268_);}
	.st257{fill:url(#SVGID_269_);}
	.st258{fill:url(#SVGID_270_);}
	.st259{opacity:0.35;fill:url(#SVGID_271_);}
	.st260{opacity:0.35;fill:url(#SVGID_272_);}
	.st261{fill:url(#SVGID_273_);}
	.st262{fill:url(#SVGID_274_);}
	.st263{opacity:0.35;fill:url(#SVGID_275_);}
	.st264{opacity:0.35;fill:url(#SVGID_276_);}
	.st265{fill:url(#SVGID_277_);}
	.st266{opacity:0.35;fill:url(#SVGID_278_);}
	.st267{fill:url(#SVGID_279_);}
</style>
<g>
	<g>
		<linearGradient id="SVGID_1_" gradientUnits="userSpaceOnUse" x1="16.2288" y1="31.5918" x2="16.2288" y2="17.1778">
			<stop  offset="0" style="stop-color:#FF6567"/>
			<stop  offset="1" style="stop-color:#FFA046"/>
		</linearGradient>
		<path class="st0" d="M19.4,31.6h-2.9v-11l-3.4,1.1v-2.3l6-2.1h0.3V31.6z"/>
		<linearGradient id="SVGID_2_" gradientUnits="userSpaceOnUse" x1="28.8286" y1="31.5918" x2="28.8286" y2="17">
			<stop  offset="0" style="stop-color:#FF6567"/>
			<stop  offset="1" style="stop-color:#FFA046"/>
		</linearGradient>
		<path class="st2" d="M33.9,31.6H24v-2l4.7-5c0.3-0.4,0.6-0.7,0.9-1c0.2-0.3,0.4-0.6,0.6-0.9c0.1-0.3,0.3-0.5,0.3-0.7
			c0.1-0.2,0.1-0.4,0.1-0.7c0-0.6-0.2-1.1-0.5-1.5c-0.3-0.4-0.8-0.5-1.4-0.5c-0.3,0-0.6,0.1-0.9,0.2c-0.3,0.1-0.5,0.3-0.7,0.5
			s-0.3,0.5-0.4,0.8c-0.1,0.3-0.1,0.6-0.1,1h-2.9c0-0.6,0.1-1.3,0.3-1.8c0.2-0.6,0.6-1.1,1-1.5c0.4-0.4,1-0.8,1.6-1
			c0.6-0.3,1.3-0.4,2.1-0.4c0.8,0,1.4,0.1,2,0.3c0.6,0.2,1.1,0.5,1.5,0.8c0.4,0.3,0.7,0.8,0.9,1.3c0.2,0.5,0.3,1.1,0.3,1.7
			c0,0.5-0.1,0.9-0.2,1.4c-0.2,0.4-0.4,0.9-0.6,1.3c-0.3,0.4-0.6,0.9-1,1.4c-0.4,0.5-0.8,0.9-1.3,1.4l-2.5,2.7h6.2V31.6z"/>
	</g>
	<g>
		
			<linearGradient id="SVGID_3_" gradientUnits="userSpaceOnUse" x1="27.4703" y1="40.248" x2="27.4703" y2="5.248" gradientTransform="matrix(1 0 0 1 -3.5953 0.752)">
			<stop  offset="0" style="stop-color:#FF6567"/>
			<stop  offset="1" style="stop-color:#FFA046"/>
		</linearGradient>
		<polygon style="opacity:0.35;fill:url(#SVGID_3_);" points="45.4,6 2.4,41 45.4,40.7 		"/>
		<g>
			
				<linearGradient id="SVGID_4_" gradientUnits="userSpaceOnUse" x1="-589.2628" y1="122.9872" x2="-628.2628" y2="122.9872" gradientTransform="matrix(0 1 -1 0 146.4872 632.0128)">
				<stop  offset="0" style="stop-color:#FF6567"/>
				<stop  offset="1" style="stop-color:#FFA046"/>
			</linearGradient>
			<path class="st5" d="M0,37.3V9.2c0-3,2.5-5.5,5.5-5.5h36.1c3,0,5.5,2.5,5.5,5.5v28.1c0,3-2.5,5.5-5.5,5.5H5.5
				C2.5,42.8,0,40.3,0,37.3z M44,9.2c0-1.4-1.1-2.5-2.5-2.5H20.1C10.7,6.8,3,14.4,3,23.9v13.4c0,1.4,1.1,2.5,2.5,2.5h36.1
				c1.4,0,2.5-1.1,2.5-2.5V9.2z"/>
		</g>
	</g>
	<g>
		<linearGradient id="SVGID_5_" gradientUnits="userSpaceOnUse" x1="31.5" y1="11" x2="31.5" y2="0">
			<stop  offset="0" style="stop-color:#FF6567"/>
			<stop  offset="1" style="stop-color:#FFA046"/>
		</linearGradient>
		<path class="st6" d="M31.5,11L31.5,11C30.1,11,29,9.9,29,8.5v-6C29,1.1,30.1,0,31.5,0h0C32.9,0,34,1.1,34,2.5v6
			C34,9.9,32.9,11,31.5,11z"/>
		<linearGradient id="SVGID_6_" gradientUnits="userSpaceOnUse" x1="15.5" y1="11" x2="15.5" y2="0">
			<stop  offset="0" style="stop-color:#FF6567"/>
			<stop  offset="1" style="stop-color:#FFA046"/>
		</linearGradient>
		<path class="st7" d="M15.5,11L15.5,11C14.1,11,13,9.9,13,8.5v-6C13,1.1,14.1,0,15.5,0h0C16.9,0,18,1.1,18,2.5v6
			C18,9.9,16.9,11,15.5,11z"/>
	</g>
</g>
</svg>
