<?xml version="1.0" encoding="utf-8"?>
<!-- Generator: Adobe Illustrator 23.0.3, SVG Export Plug-In . SVG Version: 6.00 Build 0)  -->
<svg version="1.1" id="Capa_1" xmlns="http://www.w3.org/2000/svg" xmlns:xlink="http://www.w3.org/1999/xlink" x="0px" y="0px"
	 viewBox="0 0 159.3 196" style="enable-background:new 0 0 159.3 196;" xml:space="preserve">
<style type="text/css">
	.st0{opacity:0.35;fill:url(#SVGID_1_);}
	.st1{fill:url(#SVGID_2_);}
	.st2{fill:url(#SVGID_3_);}
	.st3{fill:url(#SVGID_4_);}
	.st4{fill:url(#SVGID_5_);}
	.st5{opacity:0.3;}
	.st6{fill:#454545;}
	.st7{fill:#FFFFFF;}
	.st8{opacity:0.2;}
	.st9{opacity:0.5;fill:#454545;}
	.st10{fill:url(#SVGID_6_);}
	.st11{fill:url(#SVGID_7_);}
</style>
<g class="st5">
	<g>
		<rect y="80.7" class="st6" width="159.3" height="115.3"/>
	</g>
	<g>
		<path class="st6" d="M79.6,164.3c-31,0-56.2-25.2-56.2-56.2V56.2C23.4,25.2,48.6,0,79.6,0s56.2,25.2,56.2,56.2v51.9
			C135.8,139.1,110.6,164.3,79.6,164.3z M79.6,17.3c-21.5,0-38.9,17.5-38.9,38.9v51.9c0,21.5,17.5,38.9,38.9,38.9
			s38.9-17.5,38.9-38.9V56.2C118.5,34.8,101.1,17.3,79.6,17.3z"/>
	</g>
	<g>
		<path class="st7" d="M79.6,162.9L79.6,162.9c-4.8,0-8.6-3.9-8.6-8.6v-31.7c0-4.8,3.9-8.6,8.6-8.6h0c4.8,0,8.6,3.9,8.6,8.6v31.7
			C88.3,159,84.4,162.9,79.6,162.9z"/>
	</g>
</g>
</svg>
