<?xml version="1.0" encoding="utf-8"?>
<!-- Generator: Adobe Illustrator 23.0.3, SVG Export Plug-In . SVG Version: 6.00 Build 0)  -->
<svg version="1.1" id="Capa_1" xmlns="http://www.w3.org/2000/svg" xmlns:xlink="http://www.w3.org/1999/xlink" x="0px" y="0px"
	 viewBox="0 0 425.6 119.2" style="enable-background:new 0 0 425.6 119.2;" xml:space="preserve">
<style type="text/css">
	.st0{opacity:0.35;fill:url(#SVGID_1_);}
	.st1{fill:url(#SVGID_2_);}
	.st2{fill:url(#SVGID_3_);}
	.st3{fill:url(#SVGID_4_);}
	.st4{fill:url(#SVGID_5_);}
	.st5{opacity:0.3;}
	.st6{fill:#454545;}
	.st7{fill:#FFFFFF;}
	.st8{opacity:0.2;}
	.st9{opacity:0.5;fill:#454545;}
	.st10{fill:url(#SVGID_6_);}
	.st11{fill:url(#SVGID_7_);}
</style>
<g>
	<g class="st8">
		<path class="st9" d="M331,46.1c0.4-14.1,7-26.9,17.4-35.4c-8.1-6.6-18.2-10.4-29-10.7c-26.5-0.5-47.5,20.7-48.2,46
			c-0.7,26.1,19.9,48.5,46.7,48.7c11.6,0.1,22.3-3.9,30.5-10.6C337.4,75.2,330.6,61.2,331,46.1z"/>
		<path class="st9" d="M379.2,0.1c-11.7-0.2-22.4,3.8-30.8,10.7c10.6,8.6,17.4,21.6,17.4,36.9c0,14.9-6.8,28-17.4,36.7
			c7.9,6.5,18.1,10.5,29.2,10.6c26.7,0.2,48-20.9,48-47.2C425.7,20.7,404.1,0.6,379.2,0.1z"/>
		<path class="st6" d="M365.9,47.6c0-15.2-6.9-28.4-17.4-36.9c-10.4,8.5-17,21.3-17.4,35.4c-0.4,15.1,6.4,29.1,17.4,38.2
			C359.1,75.6,365.8,62.5,365.9,47.6z"/>
		<path class="st6" d="M290.3,118.2c-1,0-1.8,0-2.8,0c0-2.5,0-4.8,0-7.1c0-2.3-1.4-3.4-3.6-3c-1.4,0.3-2.2,1.2-2.2,2.8
			c0,2.5,0,5,0,7.4c-0.9,0-1.7,0-2.7,0c0-4.1,0-8.3,0-12.5c0.9,0,1.6,0,2.6,0c0.1,0.4,0.1,0.8,0.2,1.3c2.8-2.4,5.3-2.3,7.7,0.5
			c1.1-1.3,2.6-2.2,4.4-2.2c2.9,0.1,4.8,2,4.8,4.8c0,2.3,0,4.6,0,6.8c0,0.4,0,0.8-0.1,1.2c-0.9,0-1.6,0-2.6,0c0-2.5,0-4.8,0-7.1
			c0-2.3-1.4-3.4-3.7-2.9c-1.4,0.4-2.1,1.2-2.1,2.8C290.3,113.3,290.3,115.7,290.3,118.2z"/>
		<path class="st6" d="M414,100.9c1,0,1.7,0,2.7,0c0,5.8,0,11.5,0,17.4c-0.8,0-1.6,0-2.5,0c-0.1-0.3-0.1-0.6-0.2-0.9
			c-4.3,1.9-6.8,1.6-8.9-1.1c-2-2.7-1.9-6.3,0.3-8.9c2.1-2.5,4.5-2.6,8.7-0.4C414,105,414,103,414,100.9z M414.3,112.2
			c0-2.2-1.7-4.1-3.8-4.1c-2.2-0.1-4,1.8-4,4.1c0,2.2,1.7,4.1,3.8,4.1C412.4,116.3,414.2,114.4,414.3,112.2z"/>
		<path class="st6" d="M391.3,118.4c-1-0.5-2.3,0.8-2.8-1.1c-1.7,1.1-3.7,1.9-5.7,1c-1.2-0.6-2.4-1.4-3.2-2.5
			c-1.9-2.6-1.5-6.3,0.7-8.7c2.1-2.3,4.7-2.4,8.4-0.2c0.1-0.4,0.1-0.7,0.2-1.1c0.8,0,1.6,0,2.5,0C391.3,109.9,391.3,114,391.3,118.4
			z M381.2,112c-0.1,2.3,1.7,4.2,3.8,4.3c2.1,0,3.8-1.7,3.9-4c0.1-2.3-1.6-4.2-3.7-4.3C383,108,381.2,109.7,381.2,112z"/>
		<path class="st6" d="M311.6,118.2c0-0.3-0.1-0.6-0.1-0.9c-4.9,2.7-8.3,1.4-10.1-3.8c-0.9-2.6,0.4-5.7,2.6-7.1
			c2.6-1.7,5-1.3,7.4,0.7c0.1-0.5,0.1-0.9,0.2-1.3c0.8,0,1.6,0,2.5,0c0,4.1,0,8.2,0,12.5C313.5,118.2,312.6,118.2,311.6,118.2z
			 M308,108c-2.2,0-3.9,1.8-3.9,4.1c0,2.2,1.7,4.1,3.8,4.1c2.1,0.1,3.9-1.8,4-4.1C311.9,109.9,310.1,108,308,108z"/>
		<path class="st6" d="M354.1,113.1c-3,0-6,0-9,0c-0.1,3.2,3,4,7.1,1.9c0.4,0.7,0.8,1.3,1.1,2c-2.6,2.3-6.4,2.6-9,0.8
			c-2.4-1.7-3.3-5.4-2-8.4c1.1-2.8,3.9-4.2,7-3.7c2.7,0.4,4.4,2.5,4.7,5.7C354.1,111.8,354.1,112.4,354.1,113.1z M351.3,111
			c-0.1-2.1-1.3-3.1-3.6-3c-1.7,0.2-2.7,1.3-2.5,3C347.3,111,349.3,111,351.3,111z"/>
		<path class="st6" d="M318.1,115.3c1.2,0.4,2.4,0.7,3.5,0.9c0.7,0.1,1.4,0.1,2-0.1c0.6-0.2,1-0.8,1.6-1.1c-0.5-0.4-0.9-1-1.4-1.1
			c-1-0.4-2.1-0.4-3.1-0.7c-2.1-0.5-3.1-1.8-3.2-3.6c0-1.7,1-3.1,3-3.7c2.7-0.9,5,0,7.5,1.1c-0.5,0.7-0.9,1.3-1.3,2
			c-1-0.3-1.8-0.7-2.8-0.8c-1-0.1-1.9,0-2.8,0.2c-0.4,0.1-0.8,0.8-0.8,1.1c0,0.3,0.6,0.9,1,1c1,0.3,2.1,0.4,3.1,0.6
			c2.7,0.4,3.8,1.6,3.6,3.9c-0.1,1.7-1,2.9-2.6,3.3c-3,1-5.8,0.5-8.5-1.2C317.5,116.4,317.8,115.8,318.1,115.3z"/>
		<path class="st6" d="M339.5,115.4c0.3,0.8,0.7,1.6,1,2.7c-1.4,0.3-2.7,0.8-4,0.9c-2.6,0.1-4.2-1.6-4.3-4.3c0-2.1,0-4.1,0-6.2
			c-0.9-0.1-1.5-0.1-2.3-0.1c0-0.9,0-1.7,0-2.6c0.8,0,1.4-0.1,2.3-0.1c0-1.1,0-2.3,0-3.5c1,0,1.9,0,3,0c0,1.1,0,2.3,0,3.5
			c1.5,0,2.9,0,4.4,0c0,1,0,1.7,0,2.8c-1.3,0-2.8,0-4.3,0c0,2.3-0.1,4.4,0,6.4c0,1,1,1.2,1.8,1.2C337.9,116,338.7,115.7,339.5,115.4
			z"/>
		<path class="st6" d="M375.6,115c0.4,0.9,0.8,1.6,1.1,2.4c-3,2.1-7.2,1.7-9.5-0.9c-2.2-2.6-2.3-6.6-0.1-9c2.3-2.5,6.8-2.8,9.7-0.5
			c-0.4,0.8-0.9,1.5-1.3,2.4c-1.2-1-2.6-1.5-4.1-1.1c-0.8,0.2-1.5,0.7-2.1,1.2c-1.3,1.5-1.1,4.1,0.2,5.6
			C371.1,116.6,372.9,116.6,375.6,115z"/>
		<path class="st6" d="M397.5,118.3c-1,0-1.8,0-2.8,0c0-4.2,0-8.3,0-12.5c0.8,0,1.6,0,2.5,0c0.1,0.3,0.2,0.7,0.3,1.1
			c1.6-0.9,3.1-2.3,5.3-1.1c-0.3,0.8-0.5,1.5-0.8,2.4c-0.4-0.1-0.8-0.2-1-0.2c-2.2-0.3-3.5,0.9-3.5,3c0,2,0,4,0.1,6
			C397.5,117.4,397.5,117.8,397.5,118.3z"/>
		<path class="st6" d="M359.6,118.3c-1,0-1.7,0-2.6,0c0-4.2,0-8.3,0-12.6c0.9,0,1.6,0,2.5,0c0.1,0.4,0.1,0.8,0.2,1.3
			c1.7-1,3.2-2.4,5.4-1.1c-0.3,0.8-0.6,1.5-0.9,2.3c-0.4-0.1-0.8-0.2-1-0.2c-2.2-0.3-3.5,1-3.5,3
			C359.6,113.4,359.6,115.8,359.6,118.3z"/>
		<path class="st6" d="M422,119.2c-0.4-0.5-0.9-0.9-1-1.4c-0.2-0.8,0.4-1.2,1.1-1.3c0.9,0,1.4,0.5,1.3,1.2c-0.1,0.5-0.6,1-1,1.4
			C422.4,119.2,422.2,119.2,422,119.2z"/>
	</g>
	<g class="st8">
		<path class="st6" d="M0,29.6c0.6-0.1,1.3-0.2,1.8-0.2c7.9,0,15.8,0,23.7,0c1.1,0,2,0.1,3.1,0.2c3.2,0.4,5.1,2.1,5.8,5.3
			c2.4,11.4,4.7,22.7,7.1,34c0.1,0.5,0.2,0.9,0.4,1.6c1.5-4,3.1-7.8,4.5-11.5c3.7-9.4,7.4-18.8,11-28.3c0.5-1.2,1.1-1.5,2.2-1.5
			c4.7,0.1,9.4,0,14.1,0c0.5,0,1,0,1.7,0c-0.3,0.8-0.5,1.3-0.7,1.7c-8.2,19.1-16.4,38.1-24.6,57.2c-0.5,1.3-1.2,1.5-2.4,1.5
			c-5.2-0.1-10.4,0-15.7,0c-1.1-3.9-2.2-7.7-3.3-11.6c-3.7-13.2-7.4-26.4-11-39.6c-0.3-1.1-0.8-1.8-1.8-2.2
			c-4.9-1.8-9.9-3.8-14.8-5.6c-0.3-0.1-0.7-0.1-1.1-0.1C0,30.4,0,30,0,29.6z"/>
		<path class="st6" d="M137.1,28.3c3,0.6,6.1,1.3,9.1,1.8c0.7,0.2,1.3,0.5,2.1,0.7c-0.8,4.3-1.4,8.6-2.2,12.8
			c-2.6-0.8-5.1-1.8-7.7-2.1c-3.2-0.4-6.5-0.2-9.6-0.2c-0.7,0-1.3,0.3-1.9,0.5c-1.9,0.8-3.7,1.6-4,4c-0.3,2.3,1.3,3.6,2.9,4.5
			c2.2,1.3,4.6,2.5,6.9,3.8c2,1.2,4.1,2.1,6,3.5c8.6,6.1,9.6,17.1,2.5,24.9c-4,4.3-9.2,6.6-14.8,7.6c-8.8,1.6-17.5,0.9-25.9-1.7
			c-0.5-0.2-1-0.4-1.5-0.7c0.8-4.4,1.5-8.9,2.3-13.5c1.7,0.7,3.4,1.4,5.1,2c5.2,1.9,10.6,2.6,16.1,1.6c1.5-0.3,3.1-1,4.3-1.8
			c2.6-1.8,2.8-5.1,0.3-7.1c-1.6-1.3-3.7-2.3-5.5-3.4c-3.2-1.8-6.7-3.4-9.5-5.6c-7.6-5.8-8.4-15.3-2.1-22.6c4.3-4.9,10-7.2,16.3-8.4
			c1.3-0.2,2.4-0.4,3.7-0.6C132.2,28.3,134.6,28.3,137.1,28.3z"/>
		<path class="st6" d="M190.6,29.5c4.4,20.2,8.9,40.2,13.3,60.5c-1.2,0-2.2,0-3.3,0c-3.4,0-6.8-0.1-10.2,0c-1.5,0.1-2-0.5-2.3-1.9
			c-0.4-2.4-1-4.7-1.5-7.2c-2.7,0-5.3,0-7.9,0c-4,0-7.9,0-12,0c-1,0-1.4,0.3-1.8,1.3c-0.8,2.3-1.6,4.5-2.6,6.7
			c-0.2,0.4-0.7,1-1.1,1.1c-5.5,0.1-10.9,0-16.6,0c0.3-0.6,0.5-1.1,0.7-1.5c7.8-17.7,15.7-35.5,23.5-53.3c1.6-3.8,4.2-5.7,8.4-5.7
			C181.7,29.5,186.1,29.5,190.6,29.5z M184,68.5c-1.6-7.4-3.2-14.8-4.8-22.1c-0.1,0-0.2,0-0.3,0c-2.8,7.3-5.7,14.7-8.6,22.1
			C174.9,68.5,179.3,68.5,184,68.5z"/>
		<path class="st6" d="M98.6,29.6c-3.4,20.1-6.8,40.1-10.3,60.3c-5.5,0-10.9,0-16.5,0c0.6-3.6,1.2-7.1,1.8-10.7
			c2.8-16.1,5.5-32.3,8.3-48.4c0.1-0.7,0.2-1.3,1.2-1.3c5,0,10,0,15,0C98.3,29.4,98.4,29.5,98.6,29.6z"/>
	</g>
</g>
</svg>
