<?xml version="1.0" encoding="utf-8"?>
<!-- Generator: Adobe Illustrator 24.0.2, SVG Export Plug-In . SVG Version: 6.00 Build 0)  -->
<svg version="1.1" id="Capa_1" xmlns="http://www.w3.org/2000/svg" xmlns:xlink="http://www.w3.org/1999/xlink" x="0px" y="0px"
	 viewBox="0 0 170.92 32.9" style="enable-background:new 0 0 170.92 32.9;" xml:space="preserve">
<style type="text/css">
	.st0{fill:#B5B5B5;}
	.st1{clip-path:url(#SVGID_2_);fill:url(#SVGID_3_);}
	.st2{clip-path:url(#SVGID_5_);fill:url(#SVGID_6_);}
	.st3{clip-path:url(#SVGID_8_);fill:url(#SVGID_9_);}
	.st4{clip-path:url(#SVGID_11_);fill:url(#SVGID_12_);}
	.st5{clip-path:url(#SVGID_14_);fill:url(#SVGID_15_);}
	.st6{clip-path:url(#SVGID_17_);fill:url(#SVGID_18_);}
	.st7{fill:url(#SVGID_19_);}
	.st8{fill:url(#SVGID_20_);}
	.st9{fill:url(#SVGID_21_);}
	.st10{opacity:0.35;}
	.st11{fill:url(#SVGID_22_);}
	.st12{fill:url(#SVGID_23_);}
	.st13{opacity:0.43;}
	.st14{clip-path:url(#SVGID_25_);fill:#B5B5B5;}
	.st15{clip-path:url(#SVGID_27_);fill:#B5B5B5;}
	.st16{clip-path:url(#SVGID_29_);fill:#B5B5B5;}
	.st17{clip-path:url(#SVGID_31_);fill:#B5B5B5;}
	.st18{clip-path:url(#SVGID_33_);fill:#B5B5B5;}
	.st19{clip-path:url(#SVGID_35_);fill:#B5B5B5;}
</style>
<g>
	<g>
		<path class="st0" d="M122.62,24.52c-1.01-0.32-1.83-0.75-2.46-1.3c-0.34-0.26-0.51-0.64-0.51-1.12c0-0.33,0.09-0.61,0.28-0.85
			c0.18-0.24,0.4-0.36,0.65-0.36c0.27,0,0.57,0.11,0.91,0.33c0.63,0.48,1.3,0.83,1.99,1.05c0.69,0.22,1.46,0.33,2.3,0.33
			c1.07,0,1.9-0.2,2.47-0.6c0.57-0.4,0.86-0.98,0.86-1.74c0-0.59-0.27-1.05-0.81-1.37c-0.54-0.32-1.43-0.63-2.68-0.92
			c-1.3-0.3-2.35-0.64-3.16-1.03c-0.81-0.39-1.42-0.89-1.83-1.5c-0.41-0.61-0.62-1.38-0.62-2.31c0-0.97,0.26-1.83,0.77-2.59
			c0.52-0.76,1.23-1.36,2.15-1.79c0.92-0.43,1.96-0.64,3.1-0.64c2.11,0,3.82,0.59,5.15,1.78c0.19,0.17,0.33,0.34,0.41,0.5
			c0.08,0.16,0.12,0.37,0.12,0.62c0,0.33-0.09,0.61-0.28,0.85c-0.18,0.24-0.4,0.36-0.65,0.36c-0.15,0-0.28-0.02-0.41-0.07
			c-0.13-0.05-0.29-0.13-0.5-0.26c-0.6-0.47-1.19-0.81-1.76-1.04c-0.57-0.23-1.26-0.34-2.09-0.34c-1,0-1.79,0.21-2.37,0.64
			c-0.58,0.43-0.87,1.02-0.87,1.79c0,0.64,0.26,1.13,0.77,1.47c0.52,0.34,1.39,0.66,2.63,0.96c1.31,0.31,2.37,0.66,3.19,1.04
			c0.82,0.38,1.44,0.87,1.88,1.46c0.43,0.59,0.65,1.33,0.65,2.22c0,0.97-0.25,1.82-0.76,2.56c-0.51,0.74-1.22,1.32-2.14,1.73
			c-0.92,0.41-1.98,0.62-3.17,0.62C124.7,25,123.63,24.84,122.62,24.52z"/>
		<path class="st0" d="M144.41,17.78v5.75c0,0.44-0.12,0.78-0.36,1.03c-0.24,0.25-0.58,0.37-1.01,0.37c-0.43,0-0.77-0.12-1.02-0.37
			c-0.25-0.25-0.38-0.59-0.38-1.03v-5.75c0-0.83-0.16-1.43-0.47-1.81c-0.32-0.38-0.81-0.57-1.49-0.57c-0.8,0-1.43,0.26-1.91,0.79
			c-0.48,0.53-0.72,1.24-0.72,2.13v5.21c0,0.44-0.13,0.78-0.38,1.03c-0.25,0.25-0.59,0.37-1.02,0.37s-0.76-0.12-1.01-0.37
			c-0.24-0.25-0.36-0.59-0.36-1.03V9.55c0-0.41,0.13-0.73,0.39-0.98c0.26-0.25,0.59-0.37,1.01-0.37c0.41,0,0.74,0.12,0.99,0.35
			c0.25,0.23,0.38,0.55,0.38,0.96v5.45c0.37-0.61,0.86-1.07,1.47-1.39c0.61-0.32,1.31-0.48,2.09-0.48
			C143.15,13.08,144.41,14.65,144.41,17.78z"/>
		<path class="st0" d="M149.24,24.26c-0.83-0.48-1.48-1.18-1.93-2.08c-0.46-0.9-0.68-1.96-0.68-3.15c0-1.2,0.23-2.25,0.68-3.14
			c0.46-0.9,1.1-1.58,1.93-2.07c0.83-0.48,1.8-0.72,2.9-0.72s2.07,0.24,2.91,0.72c0.83,0.48,1.47,1.17,1.92,2.07
			c0.45,0.9,0.67,1.94,0.67,3.14c0,1.2-0.22,2.25-0.67,3.15c-0.45,0.9-1.09,1.6-1.92,2.08c-0.83,0.48-1.8,0.72-2.91,0.72
			S150.07,24.74,149.24,24.26z M154.18,21.78c0.47-0.62,0.71-1.54,0.71-2.76c0-1.2-0.24-2.12-0.71-2.75
			c-0.47-0.63-1.15-0.95-2.03-0.95s-1.57,0.32-2.04,0.95c-0.48,0.63-0.72,1.55-0.72,2.75c0,1.22,0.24,2.13,0.71,2.76
			c0.47,0.62,1.15,0.94,2.03,0.94C153.02,22.71,153.7,22.4,154.18,21.78z"/>
		<path class="st0" d="M168.61,13.83c0.73,0.5,1.3,1.2,1.7,2.12c0.4,0.91,0.61,1.96,0.61,3.14s-0.2,2.22-0.61,3.11
			c-0.41,0.89-0.97,1.57-1.69,2.06c-0.72,0.48-1.55,0.72-2.5,0.72c-0.77,0-1.45-0.17-2.05-0.51c-0.6-0.34-1.07-0.82-1.39-1.43v4.77
			c0,0.41-0.13,0.72-0.38,0.96c-0.25,0.23-0.58,0.35-0.99,0.35c-0.41,0-0.75-0.12-1.01-0.37c-0.26-0.25-0.39-0.58-0.39-0.98V14.51
			c0-0.42,0.12-0.76,0.36-1c0.24-0.25,0.57-0.37,0.98-0.37c0.41,0,0.74,0.12,0.99,0.37c0.25,0.25,0.38,0.58,0.38,1v0.58
			c0.32-0.64,0.79-1.13,1.4-1.48s1.31-0.53,2.09-0.53C167.05,13.08,167.88,13.33,168.61,13.83z M167.43,21.77
			c0.49-0.63,0.73-1.52,0.73-2.68c0-1.18-0.24-2.1-0.73-2.76c-0.49-0.65-1.16-0.98-2.03-0.98c-0.88,0-1.57,0.32-2.04,0.96
			c-0.48,0.64-0.72,1.55-0.72,2.74c0,1.17,0.24,2.07,0.72,2.71c0.48,0.64,1.16,0.96,2.04,0.96
			C166.27,22.71,166.94,22.4,167.43,21.77z"/>
	</g>
	<g>
		<g>
			<defs>
				<path id="SVGID_1_" d="M35.99,25.85c-0.35-0.35-0.54-0.85-0.54-1.5V9.82c0-0.62,0.15-1.08,0.5-1.38c0.35-0.35,0.81-0.5,1.38-0.5
					h6.54c2,0,3.54,0.5,4.65,1.5c1.12,1,1.65,2.42,1.65,4.19c0,1.81-0.54,3.19-1.65,4.19c-1.12,1-2.65,1.5-4.65,1.5h-4.38v5
					c0,0.62-0.19,1.12-0.54,1.5c-0.35,0.35-0.85,0.54-1.5,0.54C36.84,26.39,36.34,26.2,35.99,25.85z M43.34,16.28
					c2.04,0,3.04-0.88,3.04-2.62c0-1.77-1-2.65-3.04-2.65h-3.85v5.27L43.34,16.28L43.34,16.28z"/>
			</defs>
			<clipPath id="SVGID_2_">
				<use xlink:href="#SVGID_1_"  style="overflow:visible;"/>
			</clipPath>
			<linearGradient id="SVGID_3_" gradientUnits="userSpaceOnUse" x1="35.1519" y1="20.3055" x2="116.2966" y2="20.3055">
				<stop  offset="0" style="stop-color:#FFA046"/>
				<stop  offset="1" style="stop-color:#FF6567"/>
			</linearGradient>
			<rect x="35.15" y="7.71" class="st1" width="81.14" height="25.18"/>
		</g>
		<g>
			<defs>
				<path id="SVGID_4_" d="M61.99,14.51c0.88,0.92,1.35,2.31,1.35,4.15v5.88c0,0.58-0.15,1-0.5,1.35c-0.35,0.31-0.81,0.5-1.38,0.5
					c-0.54,0-1-0.15-1.35-0.5s-0.5-0.77-0.5-1.31v-0.19c-0.27,0.65-0.69,1.15-1.31,1.5c-0.62,0.35-1.31,0.54-2.12,0.54
					c-0.88,0-1.65-0.19-2.35-0.54s-1.27-0.85-1.65-1.46c-0.42-0.62-0.62-1.31-0.62-2.08c0-0.92,0.23-1.65,0.73-2.19
					c0.46-0.54,1.23-0.92,2.31-1.15c1.04-0.23,2.5-0.35,4.35-0.35h0.69V18.2c0-0.73-0.15-1.27-0.46-1.58
					c-0.31-0.35-0.85-0.5-1.62-0.5c-0.73,0-1.81,0.27-3.23,0.77c-0.38,0.19-0.73,0.27-1,0.27c-0.38,0-0.69-0.12-0.92-0.38
					c-0.23-0.27-0.35-0.62-0.35-1.04c0-0.35,0.08-0.62,0.23-0.85c0.15-0.23,0.42-0.42,0.77-0.62c0.62-0.35,1.35-0.58,2.23-0.77
					c0.88-0.19,1.73-0.27,2.58-0.27C59.72,13.16,61.1,13.62,61.99,14.51z M58.91,22.97c0.46-0.5,0.69-1.19,0.69-2v-0.42h-0.42
					c-1.38,0-2.38,0.12-2.96,0.35c-0.58,0.23-0.85,0.62-0.85,1.23c0,0.5,0.15,0.88,0.5,1.19c0.31,0.31,0.73,0.46,1.19,0.46
					C57.84,23.74,58.45,23.47,58.91,22.97z"/>
			</defs>
			<clipPath id="SVGID_5_">
				<use xlink:href="#SVGID_4_"  style="overflow:visible;"/>
			</clipPath>
			<linearGradient id="SVGID_6_" gradientUnits="userSpaceOnUse" x1="35.1519" y1="20.3055" x2="116.2966" y2="20.3055">
				<stop  offset="0" style="stop-color:#FFA046"/>
				<stop  offset="1" style="stop-color:#FF6567"/>
			</linearGradient>
			<rect x="35.15" y="7.71" class="st2" width="81.14" height="25.18"/>
		</g>
		<g>
			<defs>
				<path id="SVGID_7_" d="M78.8,13.74c0.35,0.35,0.54,0.77,0.54,1.35v9.81c0,2.08-0.62,3.62-1.81,4.69
					c-1.19,1.04-2.96,1.58-5.27,1.58c-1.92,0-3.54-0.35-4.77-1.04c-0.31-0.19-0.54-0.38-0.73-0.65s-0.27-0.54-0.27-0.85
					c0-0.42,0.12-0.81,0.31-1.08c0.19-0.27,0.5-0.42,0.85-0.42c0.19,0,0.42,0.04,0.69,0.12c0.27,0.08,0.54,0.15,0.81,0.27
					c0.54,0.19,1.08,0.38,1.54,0.5c0.46,0.12,0.96,0.19,1.5,0.19c1.12,0,1.92-0.27,2.46-0.77c0.54-0.5,0.81-1.27,0.81-2.27v-1.38
					c-0.35,0.65-0.92,1.19-1.65,1.58s-1.54,0.58-2.46,0.58c-1.12,0-2.08-0.27-2.96-0.77c-0.85-0.54-1.54-1.27-2-2.23
					c-0.5-0.96-0.73-2.08-0.73-3.35c0-1.27,0.23-2.38,0.73-3.35c0.5-0.96,1.15-1.69,2-2.23s1.85-0.81,2.96-0.81
					c0.88,0,1.69,0.19,2.42,0.58c0.73,0.38,1.27,0.88,1.65,1.54v-0.31c0-0.54,0.19-1,0.54-1.31c0.35-0.31,0.85-0.5,1.42-0.5
					C77.95,13.2,78.41,13.39,78.8,13.74z M74.64,22.01c0.5-0.58,0.77-1.42,0.77-2.46c0-1.04-0.27-1.88-0.77-2.5
					c-0.5-0.62-1.23-0.88-2.15-0.88c-0.92,0-1.65,0.31-2.15,0.88c-0.54,0.62-0.77,1.42-0.77,2.5c0,1.04,0.27,1.88,0.77,2.46
					c0.54,0.58,1.23,0.88,2.15,0.88S74.14,22.59,74.64,22.01z"/>
			</defs>
			<clipPath id="SVGID_8_">
				<use xlink:href="#SVGID_7_"  style="overflow:visible;"/>
			</clipPath>
			<linearGradient id="SVGID_9_" gradientUnits="userSpaceOnUse" x1="35.1519" y1="20.3055" x2="116.2966" y2="20.3055">
				<stop  offset="0" style="stop-color:#FFA046"/>
				<stop  offset="1" style="stop-color:#FF6567"/>
			</linearGradient>
			<rect x="35.15" y="7.71" class="st3" width="81.14" height="25.18"/>
		</g>
		<g>
			<defs>
				<path id="SVGID_10_" d="M92.22,14.51c0.88,0.92,1.35,2.31,1.35,4.15v5.88c0,0.58-0.15,1-0.5,1.35c-0.35,0.31-0.81,0.5-1.38,0.5
					c-0.54,0-1-0.15-1.35-0.5c-0.35-0.35-0.5-0.77-0.5-1.31v-0.19c-0.27,0.65-0.69,1.15-1.31,1.5c-0.62,0.35-1.31,0.54-2.12,0.54
					c-0.88,0-1.65-0.19-2.35-0.54c-0.69-0.35-1.27-0.85-1.65-1.46c-0.42-0.62-0.62-1.31-0.62-2.08c0-0.92,0.23-1.65,0.73-2.19
					c0.46-0.54,1.23-0.92,2.31-1.15c1.04-0.23,2.5-0.35,4.35-0.35h0.69V18.2c0-0.73-0.15-1.27-0.46-1.58
					c-0.31-0.35-0.85-0.5-1.62-0.5c-0.73,0-1.81,0.27-3.23,0.77c-0.38,0.19-0.73,0.27-1,0.27c-0.38,0-0.69-0.12-0.92-0.38
					c-0.23-0.27-0.35-0.62-0.35-1.04c0-0.35,0.08-0.62,0.23-0.85c0.15-0.23,0.42-0.42,0.77-0.62c0.62-0.35,1.35-0.58,2.23-0.77
					c0.88-0.19,1.73-0.27,2.58-0.27C89.95,13.16,91.33,13.62,92.22,14.51z M89.14,22.97c0.46-0.5,0.69-1.19,0.69-2v-0.42h-0.42
					c-1.38,0-2.38,0.12-2.96,0.35c-0.58,0.23-0.85,0.62-0.85,1.23c0,0.5,0.15,0.88,0.5,1.19c0.31,0.31,0.73,0.46,1.19,0.46
					C88.06,23.74,88.68,23.47,89.14,22.97z"/>
			</defs>
			<clipPath id="SVGID_11_">
				<use xlink:href="#SVGID_10_"  style="overflow:visible;"/>
			</clipPath>
			<linearGradient id="SVGID_12_" gradientUnits="userSpaceOnUse" x1="35.1519" y1="20.3055" x2="116.2966" y2="20.3055">
				<stop  offset="0" style="stop-color:#FFA046"/>
				<stop  offset="1" style="stop-color:#FF6567"/>
			</linearGradient>
			<rect x="35.15" y="7.71" class="st4" width="81.14" height="25.18"/>
		</g>
		<g>
			<defs>
				<path id="SVGID_13_" d="M97.06,25.93c-0.38-0.31-0.58-0.77-0.58-1.38V9.62c0-0.62,0.19-1.08,0.58-1.38
					c0.38-0.31,0.85-0.46,1.42-0.46c0.54,0,1,0.15,1.38,0.46c0.38,0.31,0.58,0.77,0.58,1.38v14.92c0,0.62-0.19,1.08-0.58,1.38
					c-0.38,0.31-0.85,0.46-1.38,0.46C97.91,26.39,97.45,26.24,97.06,25.93z"/>
			</defs>
			<clipPath id="SVGID_14_">
				<use xlink:href="#SVGID_13_"  style="overflow:visible;"/>
			</clipPath>
			<linearGradient id="SVGID_15_" gradientUnits="userSpaceOnUse" x1="35.1519" y1="20.3055" x2="116.2966" y2="20.3055">
				<stop  offset="0" style="stop-color:#FFA046"/>
				<stop  offset="1" style="stop-color:#FF6567"/>
			</linearGradient>
			<rect x="35.15" y="7.71" class="st5" width="81.14" height="25.18"/>
		</g>
		<g>
			<defs>
				<path id="SVGID_16_" d="M106.03,25.62c-1.04-0.54-1.81-1.31-2.35-2.31c-0.54-1-0.85-2.15-0.85-3.54s0.27-2.54,0.85-3.54
					c0.54-1,1.35-1.77,2.35-2.31c1.04-0.54,2.19-0.81,3.58-0.81c1.35,0,2.54,0.27,3.58,0.81c1.04,0.54,1.81,1.31,2.35,2.31
					c0.54,1,0.85,2.15,0.85,3.54s-0.27,2.54-0.85,3.54c-0.54,1-1.35,1.77-2.35,2.31c-1.04,0.54-2.19,0.81-3.58,0.81
					C108.26,26.43,107.06,26.16,106.03,25.62z M112.45,19.78c0-1.23-0.23-2.15-0.73-2.77s-1.19-0.92-2.12-0.92
					c-1.92,0-2.85,1.23-2.85,3.65c0,2.46,0.96,3.65,2.85,3.65C111.49,23.47,112.45,22.24,112.45,19.78z"/>
			</defs>
			<clipPath id="SVGID_17_">
				<use xlink:href="#SVGID_16_"  style="overflow:visible;"/>
			</clipPath>
			<linearGradient id="SVGID_18_" gradientUnits="userSpaceOnUse" x1="35.1519" y1="20.3055" x2="116.2966" y2="20.3055">
				<stop  offset="0" style="stop-color:#FFA046"/>
				<stop  offset="1" style="stop-color:#FF6567"/>
			</linearGradient>
			<rect x="35.15" y="7.71" class="st6" width="81.14" height="25.18"/>
		</g>
	</g>
	<g>
		<g>
			<linearGradient id="SVGID_19_" gradientUnits="userSpaceOnUse" x1="13.877" y1="16.5169" x2="19.8822" y2="16.5169">
				<stop  offset="0" style="stop-color:#FFA046"/>
				<stop  offset="1" style="stop-color:#FF6567"/>
			</linearGradient>
			<polygon class="st7" points="15.69,26.25 13.88,25.86 18.06,6.78 19.88,7.18 			"/>
		</g>
		<g>
			<g>
				<linearGradient id="SVGID_20_" gradientUnits="userSpaceOnUse" x1="0" y1="16.5169" x2="21.6624" y2="16.5169">
					<stop  offset="0" style="stop-color:#FFA046"/>
					<stop  offset="1" style="stop-color:#FF6567"/>
				</linearGradient>
				<path class="st8" d="M19.73,26.99H1.93c-0.54,0-1.07-0.23-1.43-0.63c-0.37-0.4-0.55-0.95-0.49-1.49L1.67,7.79
					c0.1-1,0.92-1.75,1.92-1.75h14.47c1,0,1.83,0.75,1.92,1.75l1.67,17.07c0.05,0.54-0.13,1.08-0.49,1.49
					C20.8,26.75,20.27,26.99,19.73,26.99z M3.6,7.91c-0.04,0-0.07,0.03-0.07,0.06L1.86,25.05c0,0.01,0,0.03,0.02,0.06
					c0.02,0.02,0.05,0.02,0.05,0.02h17.8c0.01,0,0.03,0,0.05-0.02c0.02-0.02,0.02-0.05,0.02-0.06L18.14,7.97
					c0-0.04-0.03-0.06-0.07-0.06H3.6z"/>
			</g>
			<g>
				<linearGradient id="SVGID_21_" gradientUnits="userSpaceOnUse" x1="6.4112" y1="3.9547" x2="15.2512" y2="3.9547">
					<stop  offset="0" style="stop-color:#FFA046"/>
					<stop  offset="1" style="stop-color:#FF6567"/>
				</linearGradient>
				<path class="st9" d="M15.25,7.91H6.41V4.42C6.41,1.98,8.39,0,10.83,0s4.42,1.98,4.42,4.42V7.91z M8.27,6.05h5.12V4.42
					c0-1.41-1.15-2.56-2.56-2.56S8.27,3.01,8.27,4.42V6.05z"/>
			</g>
			<g class="st10">
				<linearGradient id="SVGID_22_" gradientUnits="userSpaceOnUse" x1="15.2512" y1="18.1453" x2="20.3691" y2="18.1453">
					<stop  offset="0" style="stop-color:#FFA046"/>
					<stop  offset="1" style="stop-color:#FF6567"/>
				</linearGradient>
				<polygon class="st11" points="18.51,10.24 15.25,26.05 20.37,26.05 				"/>
			</g>
		</g>
	</g>
	<linearGradient id="SVGID_23_" gradientUnits="userSpaceOnUse" x1="4.8231" y1="16.1313" x2="14.6659" y2="16.1313">
		<stop  offset="0" style="stop-color:#FFA046"/>
		<stop  offset="1" style="stop-color:#FF6567"/>
	</linearGradient>
	<path class="st12" d="M13.63,14.5c-0.36,0-0.66,0.19-0.84,0.47l-4.63-2.24c0.03-0.1,0.06-0.21,0.06-0.32
		c0-0.57-0.46-1.03-1.03-1.03c-0.57,0-1.03,0.46-1.03,1.03c0,0.57,0.46,1.03,1.03,1.03c0.38,0,0.71-0.22,0.88-0.53l4.61,2.23
		c-0.05,0.12-0.08,0.25-0.08,0.39c0,0.17,0.05,0.32,0.12,0.46L6.9,19.13c-0.2-0.31-0.54-0.52-0.93-0.52c-0.63,0-1.14,0.51-1.14,1.14
		c0,0.63,0.51,1.14,1.14,1.14c0.63,0,1.14-0.51,1.14-1.14c0-0.16-0.03-0.31-0.09-0.45l5.82-3.13c0.19,0.24,0.47,0.41,0.8,0.41
		c0.57,0,1.03-0.46,1.03-1.03C14.67,14.97,14.2,14.5,13.63,14.5z"/>
</g>
</svg>
