<?xml version="1.0" encoding="utf-8"?>
<!-- Generator: Adobe Illustrator 24.2.3, SVG Export Plug-In . SVG Version: 6.00 Build 0)  -->
<svg version="1.1" id="Capa_1" xmlns="http://www.w3.org/2000/svg" xmlns:xlink="http://www.w3.org/1999/xlink" x="0px" y="0px"
	 viewBox="0 0 492 229" style="enable-background:new 0 0 492 229;" xml:space="preserve">
<style type="text/css">
	.st0{opacity:0.2;}
	.st1{fill:#FFFFFF;}
	.st2{fill:#0736FF;}
	.st3{fill:url(#SVGID_1_);}
	.st4{clip-path:url(#SVGID_6_);}
	.st5{clip-path:url(#SVGID_7_);fill:#FFFFFF;}
	.st6{clip-path:url(#SVGID_10_);fill:#0736FF;}
	.st7{fill:url(#SVGID_11_);}
	.st8{clip-path:url(#SVGID_13_);fill:#0736FF;}
	.st9{clip-path:url(#SVGID_15_);fill:#0736FF;}
	.st10{clip-path:url(#SVGID_17_);fill:#0736FF;}
	.st11{clip-path:url(#SVGID_19_);fill:#0736FF;}
	.st12{clip-path:url(#SVGID_21_);fill:#0736FF;}
</style>
<g>
	<g class="st0">
		
			<image style="overflow:visible;enable-background:new    ;" width="515" height="244" xlink:href="4BBC1481.png"  transform="matrix(1 0 0 1 -11 -4)">
		</image>
	</g>
	<path class="st1" d="M437,200.3H56.7c-17.1,0-30.9-13.8-30.9-30.9V59.5c0-17.1,13.8-30.9,30.9-30.9H437c17.1,0,30.9,13.8,30.9,30.9
		v109.9C468,186.5,454.1,200.3,437,200.3z"/>
	<g>
		<path class="st2" d="M161.2,78.6c-0.3-0.3-0.5-0.7-0.5-1.3V61.8c0-0.5,0.1-0.9,0.4-1.2c0.3-0.3,0.7-0.4,1.2-0.4h6.5
			c2,0,3.6,0.5,4.7,1.5c1.1,1,1.7,2.4,1.7,4.2s-0.6,3.2-1.7,4.2c-1.1,1-2.7,1.5-4.7,1.5H164v5.7c0,0.5-0.2,1-0.5,1.3
			s-0.7,0.5-1.3,0.5C162,79.1,161.6,78.9,161.2,78.6z M168.6,69c2.4,0,3.5-1,3.5-3.1s-1.2-3.1-3.5-3.1h-4.3V69H168.6z"/>
		<path class="st2" d="M180,78.3c-1-0.5-1.8-1.3-2.3-2.4c-0.6-1-0.8-2.2-0.8-3.6s0.3-2.6,0.8-3.6s1.3-1.8,2.3-2.4
			c1-0.5,2.2-0.8,3.5-0.8s2.5,0.3,3.5,0.8s1.8,1.3,2.3,2.4c0.5,1,0.8,2.2,0.8,3.6s-0.3,2.6-0.8,3.6s-1.3,1.8-2.3,2.4
			c-1,0.5-2.2,0.8-3.5,0.8C182.2,79.2,181,78.9,180,78.3z M186,75.5c0.6-0.7,0.9-1.8,0.9-3.1c0-1.4-0.3-2.4-0.9-3.1
			c-0.6-0.7-1.4-1.1-2.4-1.1c-1.1,0-1.9,0.4-2.5,1.1s-0.9,1.8-0.9,3.1c0,1.4,0.3,2.4,0.9,3.1c0.6,0.7,1.4,1.1,2.4,1.1
			C184.6,76.6,185.4,76.2,186,75.5z"/>
		<path class="st2" d="M210.8,65.9c0.2-0.2,0.5-0.2,0.8-0.2c0.4,0,0.8,0.1,1.1,0.4s0.5,0.6,0.5,1c0,0.2,0,0.4-0.1,0.6L208.7,78
			c-0.1,0.3-0.4,0.6-0.7,0.8c-0.3,0.2-0.6,0.3-1,0.3c-0.3,0-0.7-0.1-0.9-0.3c-0.3-0.2-0.5-0.4-0.7-0.8l-3.2-7.6l-3.1,7.6
			c-0.1,0.3-0.4,0.6-0.7,0.8c-0.3,0.2-0.6,0.3-1,0.3c-0.3,0-0.7-0.1-1-0.3c-0.3-0.2-0.5-0.4-0.7-0.8l-4.4-10.3
			c-0.1-0.2-0.1-0.4-0.1-0.6c0-0.4,0.2-0.8,0.5-1.1c0.4-0.3,0.7-0.4,1.2-0.4c0.3,0,0.6,0.1,0.8,0.2c0.2,0.2,0.4,0.4,0.6,0.7l3.1,8.1
			l3.2-8c0.1-0.3,0.3-0.6,0.6-0.8c0.3-0.2,0.6-0.3,0.9-0.3c0.3,0,0.6,0.1,0.9,0.3c0.3,0.2,0.5,0.4,0.6,0.8l3.2,8.1l3.1-8.1
			C210.4,66.3,210.6,66.1,210.8,65.9z"/>
		<path class="st2" d="M226.3,75.7c0.2,0.2,0.3,0.5,0.3,0.9c0,0.5-0.3,1-1,1.4c-0.6,0.3-1.3,0.6-2,0.8c-0.8,0.2-1.5,0.3-2.2,0.3
			c-2.1,0-3.8-0.6-5-1.8c-1.2-1.2-1.8-2.9-1.8-4.9c0-1.3,0.3-2.5,0.8-3.5s1.3-1.8,2.2-2.4c1-0.6,2.1-0.9,3.3-0.9s2.2,0.3,3.1,0.8
			c0.9,0.5,1.5,1.2,2,2.2c0.5,0.9,0.7,2,0.7,3.3c0,0.8-0.3,1.1-1,1.1h-7.9c0.1,1.2,0.5,2.1,1,2.7c0.6,0.6,1.4,0.9,2.6,0.9
			c0.6,0,1.1-0.1,1.5-0.2s0.9-0.3,1.5-0.6c0.5-0.3,0.9-0.4,1.2-0.4C225.8,75.4,226.1,75.5,226.3,75.7z M218.8,68.8
			c-0.5,0.6-0.9,1.4-1,2.4h6c0-1.1-0.3-1.9-0.8-2.5s-1.2-0.8-2.1-0.8C220,68,219.3,68.2,218.8,68.8z"/>
		<path class="st2" d="M237.7,66c0.3,0.2,0.4,0.6,0.4,1c0,0.5-0.1,0.8-0.3,1.1c-0.2,0.2-0.6,0.4-1.3,0.5l-0.8,0.1
			c-1,0.1-1.8,0.5-2.3,1.1s-0.7,1.4-0.7,2.3v5.6c0,0.5-0.2,0.9-0.5,1.2c-0.3,0.3-0.7,0.4-1.2,0.4s-0.9-0.1-1.2-0.4s-0.5-0.7-0.5-1.2
			V67.2c0-0.5,0.2-0.9,0.5-1.1c0.3-0.3,0.7-0.4,1.2-0.4s0.8,0.1,1.1,0.4s0.4,0.6,0.4,1.1v1.1c0.3-0.8,0.8-1.4,1.5-1.8
			s1.4-0.7,2.2-0.7h0.4C237.1,65.6,237.4,65.7,237.7,66z"/>
		<path class="st2" d="M250.3,75.7c0.2,0.2,0.3,0.5,0.3,0.9c0,0.5-0.3,1-1,1.4c-0.6,0.3-1.3,0.6-2,0.8c-0.8,0.2-1.5,0.3-2.2,0.3
			c-2.1,0-3.8-0.6-5-1.8c-1.2-1.2-1.8-2.9-1.8-4.9c0-1.3,0.3-2.5,0.8-3.5s1.3-1.8,2.2-2.4c1-0.6,2.1-0.9,3.3-0.9s2.2,0.3,3.1,0.8
			c0.9,0.5,1.5,1.2,2,2.2c0.5,0.9,0.7,2,0.7,3.3c0,0.8-0.3,1.1-1,1.1h-7.9c0.1,1.2,0.5,2.1,1,2.7c0.6,0.6,1.4,0.9,2.6,0.9
			c0.6,0,1.1-0.1,1.5-0.2s0.9-0.3,1.5-0.6c0.5-0.3,0.9-0.4,1.2-0.4C249.9,75.4,250.1,75.5,250.3,75.7z M242.8,68.8
			c-0.5,0.6-0.9,1.4-1,2.4h6c0-1.1-0.3-1.9-0.8-2.5s-1.2-0.8-2.1-0.8C244.1,68,243.3,68.2,242.8,68.8z"/>
		<path class="st2" d="M265.5,60.5c0.3,0.3,0.5,0.7,0.5,1.1v15.9c0,0.5-0.2,0.9-0.5,1.1c-0.3,0.3-0.7,0.4-1.2,0.4s-0.9-0.1-1.2-0.4
			c-0.3-0.3-0.5-0.7-0.5-1.1v-0.7c-0.4,0.7-1,1.3-1.7,1.7c-0.7,0.4-1.6,0.6-2.5,0.6c-1.1,0-2.1-0.3-3-0.9s-1.6-1.4-2-2.4
			c-0.5-1-0.7-2.2-0.7-3.6c0-1.3,0.2-2.5,0.7-3.5s1.2-1.8,2-2.3c0.9-0.5,1.9-0.8,3-0.8c0.9,0,1.8,0.2,2.5,0.6s1.3,0.9,1.7,1.6v-6.3
			c0-0.4,0.1-0.8,0.4-1.1s0.7-0.4,1.2-0.4C264.8,60.1,265.2,60.2,265.5,60.5z M261.8,75.5c0.6-0.7,0.9-1.8,0.9-3.1
			c0-1.3-0.3-2.4-0.9-3.1s-1.4-1.1-2.4-1.1c-1.1,0-1.9,0.4-2.5,1.1S256,71,256,72.4c0,1.3,0.3,2.4,0.9,3.1s1.4,1.1,2.4,1.1
			C260.4,76.6,261.2,76.2,261.8,75.5z"/>
		<path class="st2" d="M287.1,66.4c0.9,0.5,1.5,1.3,2,2.3s0.7,2.2,0.7,3.5s-0.2,2.5-0.7,3.6c-0.5,1-1.2,1.8-2,2.4
			c-0.9,0.6-1.9,0.9-3,0.9c-0.9,0-1.8-0.2-2.5-0.6s-1.3-1-1.7-1.7v0.7c0,0.5-0.2,0.9-0.5,1.1c-0.3,0.3-0.7,0.4-1.2,0.4
			s-0.9-0.1-1.2-0.4c-0.3-0.3-0.4-0.7-0.4-1.1V61.6c0-0.5,0.2-0.8,0.5-1.1s0.7-0.4,1.2-0.4s0.9,0.1,1.2,0.4c0.3,0.3,0.5,0.6,0.5,1.1
			v6.3c0.4-0.7,0.9-1.3,1.7-1.6c0.7-0.4,1.6-0.6,2.5-0.6C285.2,65.6,286.2,65.9,287.1,66.4z M285.7,75.5c0.6-0.7,0.9-1.8,0.9-3.1
			c0-1.3-0.3-2.4-0.9-3.1s-1.4-1.1-2.5-1.1s-1.9,0.4-2.5,1.1s-0.9,1.8-0.9,3.1c0,1.3,0.3,2.4,0.9,3.1s1.4,1.1,2.5,1.1
			C284.3,76.6,285.1,76.2,285.7,75.5z"/>
		<path class="st2" d="M302,65.9c0.2-0.2,0.5-0.2,0.8-0.2c0.4,0,0.8,0.1,1.1,0.4c0.3,0.3,0.5,0.6,0.5,1c0,0.2-0.1,0.4-0.2,0.6
			L297,83c-0.3,0.6-0.8,0.9-1.4,0.9c-0.4,0-0.8-0.1-1.1-0.4c-0.3-0.3-0.5-0.6-0.5-1c0-0.2,0.1-0.4,0.2-0.7L296,78l-4.9-10.3
			c-0.1-0.2-0.1-0.4-0.1-0.6c0-0.4,0.2-0.8,0.5-1c0.3-0.3,0.7-0.4,1.2-0.4c0.3,0,0.6,0.1,0.8,0.2c0.2,0.2,0.4,0.4,0.6,0.7l3.7,8.2
			l3.7-8.2C301.6,66.3,301.8,66.1,302,65.9z"/>
		<path class="st2" d="M306.6,69.1c-0.4-0.4-0.6-0.9-0.6-1.4c0-0.6,0.2-1,0.6-1.4s0.8-0.6,1.4-0.6s1,0.2,1.4,0.6s0.6,0.8,0.6,1.4
			s-0.2,1-0.6,1.4s-0.8,0.6-1.4,0.6C307.4,69.6,306.9,69.4,306.6,69.1z M306.6,78.5c-0.4-0.4-0.6-0.9-0.6-1.4c0-0.6,0.2-1,0.6-1.4
			s0.8-0.6,1.4-0.6s1,0.2,1.4,0.6s0.6,0.9,0.6,1.4c0,0.6-0.2,1-0.6,1.4s-0.8,0.6-1.4,0.6S306.9,78.9,306.6,78.5z"/>
	</g>
	<g>
		
			<linearGradient id="SVGID_1_" gradientUnits="userSpaceOnUse" x1="93.9" y1="59.8" x2="93.9" y2="174.6" gradientTransform="matrix(1 0 0 -1 0 230)">
			<stop  offset="0" style="stop-color:#0736FF"/>
			<stop  offset="1" style="stop-color:#40D5D5"/>
		</linearGradient>
		<path class="st3" d="M95,55.4c0,0-15.1,0-20.6,0c-10.3,0-18.7,8.4-18.7,18.7V85h33.1l-4-4c-2.3-2.3-2.3-5.9,0-8.2l0,0
			c2.3-2.3,5.9-2.3,8.2,0L109.2,89c2.3,2.3,2.3,5.9,0,8.2L93,113.4c-2.3,2.3-5.9,2.3-8.2,0c-2.3-2.3-2.3-5.9,0-8.2l4-4H55.7v50.3
			c0,10.3,8.4,18.7,18.7,18.7s18.7-8.4,18.7-18.7v-20.1c0.3,0,0.7,0,1,0c21,0,38-17,38-38C132,72.8,115.6,56,95,55.4z"/>
		<path class="st1" d="M109.2,89.1L92.9,72.8c-2.3-2.3-5.9-2.3-8.2,0l0,0c-2.3,2.3-2.3,5.9,0,8.2l4,4h-33v16.2h33.1l-4,4
			c-2.3,2.3-2.3,5.9,0,8.2c2.3,2.3,5.9,2.3,8.2,0l16.2-16.2C111.4,95,111.4,91.3,109.2,89.1z"/>
	</g>
	<g>
		<g>
			<g>
				<defs>
					<path id="SVGID_2_" d="M161.8,158.7c-1.6-1.6-2.4-3.7-2.4-6.4v-51.7c0-2.6,0.7-4.7,2.1-6.1c1.4-1.4,3.4-2.1,6.1-2.1h24.8
						c7.5,0,13.4,1.9,17.6,5.8c4.2,3.8,6.3,9.2,6.3,16s-2.1,12.1-6.3,16c-4.2,3.9-10.1,5.8-17.6,5.8h-15.2v16.4
						c0,2.7-0.8,4.9-2.4,6.4c-1.6,1.6-3.8,2.4-6.6,2.4C165.6,161.1,163.4,160.3,161.8,158.7z"/>
				</defs>
				<clipPath id="SVGID_3_">
					<use xlink:href="#SVGID_2_"  style="overflow:visible;"/>
				</clipPath>
			</g>
			<g>
				<defs>
					<path id="SVGID_4_" d="M161.8,158.7c-1.6-1.6-2.4-3.7-2.4-6.4v-51.7c0-2.6,0.7-4.7,2.1-6.1c1.4-1.4,3.4-2.1,6.1-2.1h24.8
						c7.5,0,13.4,1.9,17.6,5.8c4.2,3.8,6.3,9.2,6.3,16s-2.1,12.1-6.3,16c-4.2,3.9-10.1,5.8-17.6,5.8h-15.2v16.4
						c0,2.7-0.8,4.9-2.4,6.4c-1.6,1.6-3.8,2.4-6.6,2.4C165.6,161.1,163.4,160.3,161.8,158.7z"/>
				</defs>
				<defs>
					<path id="SVGID_5_" d="M190,122.5c3.3,0,5.7-0.7,7.3-2s2.4-3.4,2.4-6.3c0-5.6-3.2-8.4-9.7-8.4h-12.8v16.7H190z"/>
				</defs>
				<use xlink:href="#SVGID_4_"  style="overflow:visible;fill:#0736FF;"/>
				<clipPath id="SVGID_6_">
					<use xlink:href="#SVGID_4_"  style="overflow:visible;"/>
				</clipPath>
				<clipPath id="SVGID_7_" class="st4">
					<use xlink:href="#SVGID_5_"  style="overflow:visible;"/>
				</clipPath>
				<rect x="153.5" y="54.4" class="st5" width="289.9" height="118.3"/>
			</g>
		</g>
		<g>
			<g>
				<defs>
					<path id="SVGID_9_" d="M226.3,159.1c-1.6-1.3-2.5-3.3-2.5-5.9v-33.3c0-2.6,0.8-4.6,2.5-5.9c1.6-1.3,3.7-2,6.1-2
						c2.5,0,4.5,0.7,6.1,2s2.5,3.3,2.5,5.9v33.3c0,2.6-0.8,4.6-2.5,5.9c-1.6,1.3-3.7,2-6.1,2S227.9,160.4,226.3,159.1z"/>
				</defs>
				<clipPath id="SVGID_10_">
					<use xlink:href="#SVGID_9_"  style="overflow:visible;"/>
				</clipPath>
				<rect x="153.5" y="54.4" class="st6" width="289.9" height="118.3"/>
			</g>
		</g>
		<g>
			<g>
				
					<linearGradient id="SVGID_11_" gradientUnits="userSpaceOnUse" x1="228.435" y1="133.15" x2="250.1972" y2="133.15" gradientTransform="matrix(1 0 0 -1 0 230)">
					<stop  offset="0" style="stop-color:#40D5D5"/>
					<stop  offset="1" style="stop-color:#0736FF"/>
				</linearGradient>
				<path id="SVGID_8_" class="st7" d="M232.8,107.2c-1.2,0-2.3-0.4-3.1-1.3c-0.8-0.8-1.3-1.8-1.3-2.9c0-1,0.4-2,1.1-2.9l7.2-9.9
					c0.9-1.2,1.9-2.1,3-2.8c1.1-0.6,2.3-0.9,3.4-0.9c1.9,0,3.5,0.7,4.9,2s2.1,2.9,2.1,4.7c0,2.3-1.2,4.2-3.6,5.8l-10.9,7.2
					C234.8,106.9,233.8,107.2,232.8,107.2z"/>
			</g>
			<g>
				<defs>
					<path id="SVGID_12_" d="M232.8,107.2c-1.2,0-2.3-0.4-3.1-1.3c-0.8-0.8-1.3-1.8-1.3-2.9c0-1,0.4-2,1.1-2.9l7.2-9.9
						c0.9-1.2,1.9-2.1,3-2.8c1.1-0.6,2.3-0.9,3.4-0.9c1.9,0,3.5,0.7,4.9,2s2.1,2.9,2.1,4.7c0,2.3-1.2,4.2-3.6,5.8l-10.9,7.2
						C234.8,106.9,233.8,107.2,232.8,107.2z"/>
				</defs>
				<clipPath id="SVGID_13_">
					<use xlink:href="#SVGID_12_"  style="overflow:visible;"/>
				</clipPath>
				<rect x="153.5" y="54.4" class="st8" width="289.9" height="118.3"/>
			</g>
		</g>
		<g>
			<g>
				<defs>
					<path id="SVGID_14_" d="M298.9,94c1.6,1.5,2.5,3.3,2.5,5.6v53.6c0,2.5-0.8,4.4-2.3,5.8c-1.5,1.4-3.6,2.1-6.2,2.1
						c-2.4,0-4.3-0.6-5.9-1.9c-1.5-1.3-2.4-3-2.6-5.2c-1.4,2.3-3.3,4-5.9,5.3s-5.5,1.9-8.7,1.9c-4.1,0-7.7-1-10.9-3.1
						c-3.2-2.1-5.7-5-7.5-8.9c-1.8-3.8-2.7-8.2-2.7-13.1c0-4.9,0.9-9.2,2.7-12.9c1.8-3.7,4.3-6.6,7.4-8.6c3.2-2,6.8-3,11-3
						c3,0,5.8,0.6,8.4,1.8c2.5,1.2,4.5,2.9,5.9,4.9v-19c0-2.3,0.8-4.1,2.3-5.4c1.5-1.4,3.6-2,6.1-2C295.1,91.8,297.2,92.5,298.9,94z
						 M282,145.3c1.6-2.1,2.4-5,2.4-8.9c0-3.8-0.8-6.7-2.4-8.8c-1.6-2-3.9-3-7-3c-3,0-5.3,1-6.9,3s-2.4,4.9-2.4,8.6
						c0,3.9,0.8,6.9,2.5,9c1.6,2.1,3.9,3.2,6.8,3.2C278.1,148.4,280.4,147.4,282,145.3z"/>
				</defs>
				<clipPath id="SVGID_15_">
					<use xlink:href="#SVGID_14_"  style="overflow:visible;"/>
				</clipPath>
				<rect x="153.5" y="54.4" class="st9" width="289.9" height="118.3"/>
			</g>
		</g>
		<g>
			<g>
				<defs>
					<path id="SVGID_16_" d="M353.7,146.9c0.9,1.2,1.4,2.7,1.4,4.5c0,2.6-1.3,4.5-3.8,5.9c-2.2,1.1-4.8,2-7.8,2.8
						c-3,0.7-5.8,1.1-8.3,1.1c-5.3,0-9.9-1-13.8-3s-7-4.9-9.1-8.6c-2.1-3.7-3.2-8.1-3.2-13.2c0-4.8,1-9,3-12.8s4.9-6.7,8.5-8.8
						c3.6-2.1,7.8-3.1,12.3-3.1c4.4,0,8.3,1,11.7,2.9c3.4,1.9,5.9,4.7,7.8,8.2c1.8,3.5,2.8,7.7,2.8,12.5c0,1.5-0.3,2.6-1,3.4
						c-0.7,0.8-1.7,1.2-2.9,1.2h-25.5c0.5,3.1,1.5,5.3,3,6.7s3.8,2,6.9,2c1.6,0,3.1-0.2,4.4-0.5s2.9-0.9,4.5-1.5
						c1-0.4,1.9-0.7,2.9-1c0.9-0.3,1.8-0.4,2.6-0.4C351.6,145.2,352.8,145.8,353.7,146.9z M328.2,125.5c-1.4,1.5-2.2,3.6-2.4,6.3
						H341c-0.4-5.7-2.8-8.5-7.4-8.5C331.3,123.3,329.5,124.1,328.2,125.5z"/>
				</defs>
				<clipPath id="SVGID_17_">
					<use xlink:href="#SVGID_16_"  style="overflow:visible;"/>
				</clipPath>
				<rect x="153.5" y="54.4" class="st10" width="289.9" height="118.3"/>
			</g>
		</g>
		<g>
			<g>
				<defs>
					<path id="SVGID_18_" d="M365.6,159.1c-1.6-1.3-2.5-3.3-2.5-5.9V99.8c0-2.6,0.8-4.6,2.5-6c1.6-1.4,3.7-2,6.1-2
						c2.5,0,4.5,0.7,6.1,2c1.6,1.4,2.5,3.4,2.5,6v53.3c0,2.6-0.8,4.6-2.5,5.9c-1.6,1.3-3.7,2-6.1,2
						C369.3,161.1,367.3,160.4,365.6,159.1z"/>
				</defs>
				<clipPath id="SVGID_19_">
					<use xlink:href="#SVGID_18_"  style="overflow:visible;"/>
				</clipPath>
				<rect x="153.5" y="54.4" class="st11" width="289.9" height="118.3"/>
			</g>
		</g>
		<g>
			<g>
				<defs>
					<path id="SVGID_20_" d="M400.5,158.2c-4-2-7-4.9-9.2-8.7c-2.2-3.7-3.2-8.1-3.2-13.2c0-5,1.1-9.4,3.2-13.1
						c2.2-3.7,5.2-6.6,9.1-8.6s8.5-3,13.8-3s9.9,1,13.8,3s7,4.9,9.1,8.6c2.2,3.7,3.2,8.1,3.2,13.1s-1.1,9.4-3.2,13.2
						c-2.2,3.7-5.2,6.6-9.1,8.7c-3.9,2-8.5,3-13.8,3C409.1,161.3,404.5,160.2,400.5,158.2z M423.5,136.4c0-8-3.1-12-9.2-12
						s-9.2,4-9.2,12s3.1,12,9.2,12C420.5,148.4,423.5,144.4,423.5,136.4z"/>
				</defs>
				<clipPath id="SVGID_21_">
					<use xlink:href="#SVGID_20_"  style="overflow:visible;"/>
				</clipPath>
				<rect x="153.5" y="54.4" class="st12" width="289.9" height="118.3"/>
			</g>
		</g>
	</g>
</g>
</svg>
