<svg xmlns="http://www.w3.org/2000/svg" xmlns:xlink="http://www.w3.org/1999/xlink" width="280.582" height="282.5" viewBox="0 0 280.582 282.5"><defs><style>.a{fill:#fff;}.b,.d{fill:none;}.b{stroke:#fff;stroke-width:3px;opacity:0.5;}.c{stroke:none;}.e{filter:url(#a);}</style><filter id="a" x="0" y="0" width="280.582" height="282.5" filterUnits="userSpaceOnUse"><feOffset dy="3" input="SourceAlpha"/><feGaussianBlur stdDeviation="3" result="b"/><feFlood flood-opacity="0.161"/><feComposite operator="in" in2="b"/><feComposite in="SourceGraphic"/></filter></defs><g transform="translate(-35.543 -235.602)"><g transform="translate(44.543 241.602)"><g transform="translate(0 0)"><g transform="translate(0 0)"><g class="e" transform="matrix(1, 0, 0, 1, -9, -6)"><path class="a" d="M188.029,264.435c-18.337,0-36.686.176-55.023-.035-29.4-.351-56.686-8.3-80.023-26.264C23.569,215.489,6.017,185.466,1.1,148.265c-3-22.693.281-44.332,8.759-65.386C23.031,50.139,45.841,26.252,77.8,11.861c28.36-12.775,57.833-15.5,88.36-6.838q45.474,12.91,72.611,50.866a124.593,124.593,0,0,1,22.611,58.138c4.157,34.192-2.916,65.339-22.178,93.828-5.445,8.044-5.351,8.126,1.874,15.363,5.726,5.738,11.44,11.487,17.2,17.2a14.392,14.392,0,0,1,2.881,16.616c-2.681,5.96-8.2,7.307-13.981,7.342-18.536.129-37.072.047-55.608.047C190.371,264.435,189.2,264.435,188.029,264.435ZM183.357,252.9v.176c20.679,0,41.358.047,62.037-.059,2.1-.012,5.211,1.382,6.124-1.534.726-2.354-1.628-4.133-3.255-5.773-8.934-8.969-17.763-18.044-26.908-26.8-2.845-2.728-1.909-4.274.2-6.628,26.253-29.274,34.684-63.992,28.665-101.966A111.379,111.379,0,0,0,216.5,46.369C186.73,17.985,151.332,5.714,110.231,12.95a116.542,116.542,0,0,0-58.021,28.1c-18.349,16.288-30.573,36.323-37.224,60.21s-5.269,47.131,2.436,70.21A115.8,115.8,0,0,0,48.3,219.752c21.51,20.222,46.826,32.1,76.545,33.032C144.33,253.4,163.849,252.9,183.357,252.9Z" transform="translate(8.99 6)"/></g></g></g><g class="b" transform="translate(48.051 46.976)"><circle class="c" cx="85.662" cy="85.662" r="85.662"/><circle class="d" cx="85.662" cy="85.662" r="84.162"/></g><g class="b" transform="translate(92.264 91.189)"><circle class="c" cx="41.449" cy="41.449" r="41.449"/><circle class="d" cx="41.449" cy="41.449" r="39.949"/></g></g></g></svg>