<?xml version="1.0" encoding="utf-8"?>
<!-- Generator: Adobe Illustrator 23.1.0, SVG Export Plug-In . SVG Version: 6.00 Build 0)  -->
<svg version="1.1" id="Capa_1" xmlns="http://www.w3.org/2000/svg" xmlns:xlink="http://www.w3.org/1999/xlink" x="0px" y="0px"
	 viewBox="0 0 89.2 90.8" style="enable-background:new 0 0 89.2 90.8;" xml:space="preserve">
<style type="text/css">
	.st0{fill:#353535;}
</style>
<path class="st0" d="M80,0H9.2C4.1,0,0,4.1,0,9.2v45.7c0,5.1,4.1,9.2,9.2,9.2h31.5v18.8h-18c-2.2,0-3.9,1.8-3.9,3.9s1.8,3.9,3.9,3.9
	h43.8c2.2,0,3.9-1.8,3.9-3.9s-1.8-3.9-3.9-3.9h-18V64.2H80c5.1,0,9.2-4.1,9.2-9.2V9.2C89.2,4.1,85.1,0,80,0z M81.4,54.9
	c0,0.8-0.6,1.4-1.4,1.4H9.2c-0.8,0-1.4-0.6-1.4-1.4V9.2c0-0.8,0.6-1.4,1.4-1.4H80c0.8,0,1.4,0.6,1.4,1.4V54.9z"/>
</svg>
