<?xml version="1.0" encoding="utf-8"?>
<!-- Generator: Adobe Illustrator 23.1.0, SVG Export Plug-In . SVG Version: 6.00 Build 0)  -->
<svg version="1.1" id="Capa_1" xmlns="http://www.w3.org/2000/svg" xmlns:xlink="http://www.w3.org/1999/xlink" x="0px" y="0px"
	 viewBox="0 0 86.8 86.8" style="enable-background:new 0 0 86.8 86.8;" xml:space="preserve">
<style type="text/css">
	.st0{fill:#353535;}
</style>
<g>
	<g>
		<path class="st0" d="M43.4,59.3c-8.8,0-15.9-7.1-15.9-15.9s7.1-15.9,15.9-15.9s15.9,7.1,15.9,15.9S52.2,59.3,43.4,59.3z
			 M43.4,35.4c-4.4,0-8,3.6-8,8s3.6,8,8,8s8-3.6,8-8S47.9,35.4,43.4,35.4z"/>
	</g>
	<g>
		<path class="st0" d="M47.5,86.8h-8.2c-4,0-7.2-3.2-7.2-7.2v-7.5c-0.3-0.1-0.6-0.3-1-0.4L25.8,77c-2.8,2.8-7.4,2.8-10.2,0l-5.8-5.8
			C7,68.4,7,63.8,9.8,61l5.3-5.3c-0.1-0.3-0.3-0.6-0.4-1H7.2c-4,0-7.2-3.2-7.2-7.2v-8.2c0-4,3.2-7.2,7.2-7.2h7.5
			c0.1-0.3,0.3-0.6,0.4-1l-5.3-5.3C7,23,7,18.4,9.8,15.6l5.8-5.8C18.4,7,23,7,25.8,9.8l5.3,5.3c0.3-0.1,0.6-0.3,1-0.4V7.2
			c0-4,3.2-7.2,7.2-7.2h8.2c4,0,7.2,3.2,7.2,7.2v7.5c0.3,0.1,0.6,0.3,1,0.4L61,9.8c2.8-2.8,7.4-2.8,10.2,0l5.8,5.8
			c2.8,2.8,2.8,7.4,0,10.2l-5.3,5.3c0.1,0.3,0.3,0.6,0.4,1h7.5c4,0,7.2,3.2,7.2,7.2v8.2c0,4-3.2,7.2-7.2,7.2h-7.5
			c-0.1,0.3-0.3,0.6-0.4,1L77,61c2.8,2.8,2.8,7.4,0,10.2L71.2,77c-2.8,2.8-7.4,2.8-10.2,0l-5.3-5.3c-0.3,0.1-0.6,0.3-1,0.4v7.5
			C54.7,83.6,51.5,86.8,47.5,86.8z M30.6,64.9c0.6,0,1.2,0.1,1.7,0.4c1.1,0.6,2.2,1,3.4,1.4c1.6,0.5,2.6,2,2.6,3.6v9.2
			c0,0.5,0.4,1,1,1h8.2c0.5,0,1-0.4,1-1v-9.2c0-1.6,1.1-3.1,2.6-3.6c1.2-0.4,2.3-0.9,3.4-1.4c1.5-0.7,3.2-0.5,4.4,0.7l6.5,6.5
			c0.4,0.4,1,0.4,1.4,0l5.8-5.8c0.4-0.4,0.4-1,0-1.4l-6.5-6.5c-1.2-1.2-1.4-2.9-0.7-4.4c0.6-1.1,1-2.2,1.4-3.4
			c0.5-1.6,2-2.6,3.6-2.6h9.2c0.5,0,1-0.4,1-1v-8.2c0-0.5-0.4-1-1-1h-9.2c-1.6,0-3.1-1.1-3.6-2.6c-0.4-1.2-0.9-2.3-1.4-3.4
			c-0.7-1.5-0.5-3.2,0.7-4.4l6.5-6.5c0.4-0.4,0.4-1,0-1.4l-5.8-5.8c-0.4-0.4-1-0.4-1.4,0l-6.5,6.5c-1.2,1.2-2.9,1.5-4.4,0.7
			c-1.1-0.6-2.2-1-3.4-1.4c-1.6-0.5-2.6-2-2.6-3.6V7.2c0-0.5-0.4-1-1-1h-8.2c-0.5,0-1,0.4-1,1v9.2c0,1.6-1.1,3.1-2.6,3.6
			c-1.2,0.4-2.3,0.9-3.4,1.4c-1.5,0.7-3.2,0.5-4.4-0.7l-6.5-6.5c-0.4-0.4-1-0.4-1.4,0L14.3,20c-0.4,0.4-0.4,1,0,1.4l6.5,6.5
			c1.2,1.2,1.4,2.9,0.7,4.4c-0.6,1.1-1,2.2-1.4,3.4c-0.5,1.6-2,2.6-3.6,2.6H7.2c-0.5,0-1,0.4-1,1v8.2c0,0.5,0.4,1,1,1h9.2
			c1.6,0,3.1,1.1,3.6,2.6c0.4,1.2,0.9,2.3,1.4,3.4c0.7,1.5,0.5,3.2-0.7,4.4l-6.5,6.5c-0.4,0.4-0.4,1,0,1.4l5.8,5.8
			c0.4,0.4,1,0.4,1.4,0l6.5-6.5C28.7,65.3,29.6,64.9,30.6,64.9z M29.5,70.9C29.5,70.9,29.5,70.9,29.5,70.9
			C29.5,70.9,29.5,70.9,29.5,70.9z M57.3,70.9C57.3,70.9,57.3,70.9,57.3,70.9C57.3,70.9,57.3,70.9,57.3,70.9z M15.9,57.3
			C15.9,57.3,15.9,57.3,15.9,57.3C15.9,57.3,15.9,57.3,15.9,57.3z M70.9,57.3C70.9,57.3,70.9,57.3,70.9,57.3
			C70.9,57.3,70.9,57.3,70.9,57.3z M15.9,29.5C15.9,29.5,15.9,29.5,15.9,29.5C15.9,29.5,15.9,29.5,15.9,29.5z M70.9,29.5
			C70.9,29.5,70.9,29.5,70.9,29.5C70.9,29.5,70.9,29.5,70.9,29.5z M29.5,15.9C29.5,15.9,29.5,15.9,29.5,15.9
			C29.5,15.9,29.5,15.9,29.5,15.9z M57.3,15.9C57.3,15.9,57.3,15.9,57.3,15.9C57.3,15.9,57.3,15.9,57.3,15.9z"/>
	</g>
</g>
</svg>
