<svg id="lupa" xmlns="http://www.w3.org/2000/svg" width="24.379" height="23.5" viewBox="0 0 24.379 23.5">
  <g id="Group_1" data-name="Group 1">
    <path id="Path_1" data-name="Path 1" d="M657,53.009a9,9,0,1,1,9-9A9.015,9.015,0,0,1,657,53.009ZM657,37.2A6.808,6.808,0,1,0,663.813,44,6.816,6.816,0,0,0,657,37.2Z" transform="translate(-648 -35)" fill="#353535"/>
  </g>
  <g id="Group_2" data-name="Group 2" transform="translate(14.264 13.386)">
    <path id="Path_2" data-name="Path 2" d="M689.49,75.588a1.1,1.1,0,0,1-.777-.322L680.8,67.349a1.1,1.1,0,0,1,1.553-1.553l7.918,7.918a1.1,1.1,0,0,1-.777,1.875Z" transform="translate(-680.474 -65.474)" fill="#353535"/>
  </g>
</svg>
