<?xml version="1.0" encoding="utf-8"?>
<!-- Generator: Adobe Illustrator 23.1.0, SVG Export Plug-In . SVG Version: 6.00 Build 0)  -->
<svg version="1.1" id="Capa_1" xmlns="http://www.w3.org/2000/svg" xmlns:xlink="http://www.w3.org/1999/xlink" x="0px" y="0px"
	 viewBox="0 0 64.2 87.6" style="enable-background:new 0 0 64.2 87.6;" xml:space="preserve">
<style type="text/css">
	.st0{fill:#353535;}
</style>
<g>
	<path class="st0" d="M45.7,36.4L7.8,74.3V63.4c0-2.2-1.8-3.9-3.9-3.9c-2.2,0-3.9,1.8-3.9,3.9v18.8c0,0.3,0,0.5,0.1,0.8
		c-0.2,0.7-0.1,1.5,0.2,2.3c0.6,1.5,2,2.4,3.6,2.4h18.8c2.2,0,3.9-1.8,3.9-3.9s-1.8-3.9-3.9-3.9h-9.3l37.9-37.9c1.5-1.5,1.5-4,0-5.5
		C49.7,34.8,47.3,34.8,45.7,36.4z"/>
	<path class="st0" d="M64.1,3.8c0-0.2,0-0.4-0.1-0.5c0-0.1,0-0.1,0-0.2c0-0.2-0.1-0.4-0.2-0.6c0,0,0,0,0,0c0,0,0-0.1-0.1-0.1
		c-0.1-0.2-0.2-0.3-0.3-0.5c0-0.1-0.1-0.1-0.1-0.2c-0.1-0.1-0.2-0.3-0.3-0.4c0-0.1-0.1-0.1-0.1-0.2c-0.1-0.1-0.3-0.3-0.5-0.4
		c0,0,0,0-0.1,0c-0.2-0.1-0.4-0.2-0.6-0.3c-0.1,0-0.1-0.1-0.2-0.1c-0.2-0.1-0.3-0.1-0.5-0.1c-0.1,0-0.1,0-0.2,0
		C60.7,0,60.5,0,60.2,0H39.9C37.7,0,36,1.8,36,3.9s1.8,3.9,3.9,3.9h10.9L10.5,48.1c-1.5,1.5-1.5,4,0,5.5c0.8,0.8,1.8,1.1,2.8,1.1
		c1,0,2-0.4,2.8-1.1l40.3-40.3v9.3c0,2.2,1.8,3.9,3.9,3.9c2.2,0,3.9-1.8,3.9-3.9V3.9C64.2,3.9,64.1,3.8,64.1,3.8z"/>
</g>
</svg>
