<?xml version="1.0" encoding="utf-8"?>
<!-- Generator: Adobe Illustrator 23.1.0, SVG Export Plug-In . SVG Version: 6.00 Build 0)  -->
<svg version="1.1" id="Capa_1" xmlns="http://www.w3.org/2000/svg" xmlns:xlink="http://www.w3.org/1999/xlink" x="0px" y="0px"
	 viewBox="0 0 90.8 90.8" style="enable-background:new 0 0 90.8 90.8;" xml:space="preserve">
<style type="text/css">
	.st0{fill:#353535;}
</style>
<g>
	<g>
		<path class="st0" d="M78.8,90.8H12c-6.6,0-12-5.4-12-12V12C0,5.4,5.4,0,12,0h66.8c6.6,0,12,5.4,12,12v66.8
			C90.8,85.4,85.4,90.8,78.8,90.8z M12,7.8c-2.3,0-4.2,1.9-4.2,4.2v66.8c0,2.3,1.9,4.2,4.2,4.2h66.8c2.3,0,4.2-1.9,4.2-4.2V12
			c0-2.3-1.9-4.2-4.2-4.2H12z"/>
	</g>
	<g>
		<path class="st0" d="M64.9,49.4l-19.6-9.8l-19.6,9.8V0h39.1V49.4z M45.4,30.8l11.7,5.9V7.8H33.6v28.9L45.4,30.8z"/>
	</g>
	<g>
		<path class="st0" d="M67.3,79.8H61c-5.6,0-10.2-4.6-10.2-10.2S55.4,59.5,61,59.5h6.3c5.6,0,10.2,4.6,10.2,10.2
			S72.9,79.8,67.3,79.8z M61,67.3c-1.3,0-2.3,1.1-2.3,2.3c0,1.3,1.1,2.3,2.3,2.3h6.3c1.3,0,2.3-1.1,2.3-2.3c0-1.3-1.1-2.3-2.3-2.3
			H61z"/>
	</g>
</g>
</svg>
