<?xml version="1.0" encoding="utf-8"?>
<!-- Generator: Adobe Illustrator 23.1.0, SVG Export Plug-In . SVG Version: 6.00 Build 0)  -->
<svg version="1.1" id="Capa_1" xmlns="http://www.w3.org/2000/svg" xmlns:xlink="http://www.w3.org/1999/xlink" x="0px" y="0px"
	 viewBox="0 0 19.8 20.1" style="enable-background:new 0 0 19.8 20.1;" xml:space="preserve">
<style type="text/css">
	.st0{fill:none;stroke:#3A79F0;stroke-width:2;stroke-linecap:round;stroke-linejoin:round;stroke-miterlimit:10;}
	.st1{fill:#3A79F3;}
</style>
<path class="st1" d="M9.9,1c1,0,1.8,0.8,1.8,1.8c0,0.1,0,0.2,0,0.2c2.9,0.8,5,3.4,5,6.5v3.4c0,0.9,0.7,1.6,1.6,1.6
	c0.3,0,0.6,0.3,0.6,0.6v1.4c0,0.3-0.3,0.6-0.6,0.6h-6.6c0,0.1,0,0.2,0,0.3c0,1-0.8,1.8-1.8,1.8s-1.8-0.8-1.8-1.8c0-0.1,0-0.2,0-0.3
	H1.6c-0.3,0-0.6-0.3-0.6-0.6v-1.4c0-0.3,0.3-0.6,0.6-0.6c0.9,0,1.6-0.7,1.6-1.6V9.5c0-3.1,2.1-5.7,5-6.5c0-0.1,0-0.2,0-0.2
	C8.2,1.8,8.9,1,9.9,1 M9.9,0C8.6,0,7.5,1,7.2,2.2c-3,1.1-5,4-5,7.2v3.4c0,0.3-0.3,0.6-0.6,0.6c-0.9,0-1.6,0.7-1.6,1.6v1.4
	c0,0.9,0.7,1.6,1.6,1.6h5.6c0.3,1.2,1.4,2,2.7,2c1.3,0,2.3-0.9,2.7-2h5.6c0.9,0,1.6-0.7,1.6-1.6v-1.4c0-0.9-0.7-1.6-1.6-1.6
	c-0.3,0-0.6-0.3-0.6-0.6V9.5c0-3.2-2-6.1-5-7.2C12.4,1,11.3,0,9.9,0L9.9,0z"/>
</svg>
