<?xml version="1.0" encoding="utf-8"?>
<!-- Generator: Adobe Illustrator 23.0.3, SVG Export Plug-In . SVG Version: 6.00 Build 0)  -->
<svg version="1.1" id="Capa_1" xmlns="http://www.w3.org/2000/svg" xmlns:xlink="http://www.w3.org/1999/xlink" x="0px" y="0px"
	 viewBox="0 0 55.8 38.4" style="enable-background:new 0 0 55.8 38.4;" xml:space="preserve">
<style type="text/css">
	.st0{fill:#3A79F0;}
	.st1{fill:#FFFFFF;}
	.st2{opacity:0.35;}
</style>
<g>
	<g>
		<path class="st0" d="M23.2,32.6H1.9V21.3c0-5.4,4.4-9.8,9.8-9.8h11.4V32.6z M4.1,30.5H21V13.6h-9.2c-4.2,0-7.7,3.5-7.7,7.7V30.5z"
			/>
	</g>
	<g class="st2">
		<path class="st0" d="M22.1,31.6h30.5V5.5c0-2.4-2-4.4-4.4-4.4H26.5c-2.4,0-4.4,2-4.4,4.4V31.6z"/>
	</g>
	<g>
		<path class="st0" d="M53.7,32.6H21V5.5c0-3,2.5-5.5,5.5-5.5h21.7c3,0,5.5,2.5,5.5,5.5V32.6z M23.2,30.5h28.4v-25
			c0-1.8-1.5-3.3-3.3-3.3H26.5c-1.8,0-3.3,1.5-3.3,3.3V30.5z"/>
	</g>
	<g>
		<path class="st0" d="M11.5,12.5L11.5,12.5c1,0,1.8,0.8,1.8,1.8v6.6c0,1-0.8,1.8-1.8,1.8H5c-1,0-1.8-0.8-1.8-1.8v0
			C3.2,16.3,6.9,12.5,11.5,12.5z"/>
	</g>
	<g>
		<path class="st0" d="M54.7,32.6H1.1c-0.6,0-1.1-0.5-1.1-1.1s0.5-1.1,1.1-1.1h53.7c0.6,0,1.1,0.5,1.1,1.1S55.3,32.6,54.7,32.6z"/>
	</g>
	<g>
		<circle class="st1" cx="12.5" cy="32.2" r="5.1"/>
		<path class="st0" d="M12.5,38.4c-3.4,0-6.2-2.8-6.2-6.2c0-3.4,2.8-6.2,6.2-6.2c3.4,0,6.2,2.8,6.2,6.2
			C18.7,35.6,15.9,38.4,12.5,38.4z M12.5,28.2c-2.2,0-4,1.8-4,4c0,2.2,1.8,4,4,4c2.2,0,4-1.8,4-4C16.6,30,14.8,28.2,12.5,28.2z"/>
	</g>
</g>
<g>
	<circle class="st1" cx="42.4" cy="32.8" r="5.1"/>
	<path class="st0" d="M42.4,39c-3.4,0-6.2-2.8-6.2-6.2s2.8-6.2,6.2-6.2s6.2,2.8,6.2,6.2S45.8,39,42.4,39z M42.4,28.8
		c-2.2,0-4,1.8-4,4c0,2.2,1.8,4,4,4s4-1.8,4-4C46.4,30.6,44.6,28.8,42.4,28.8z"/>
</g>
</svg>
