<?xml version="1.0" encoding="utf-8"?>
<!-- Generator: Adobe Illustrator 23.0.3, SVG Export Plug-In . SVG Version: 6.00 Build 0)  -->
<svg version="1.1" id="Capa_1" xmlns="http://www.w3.org/2000/svg" xmlns:xlink="http://www.w3.org/1999/xlink" x="0px" y="0px"
	 viewBox="0 0 38 38" style="enable-background:new 0 0 38 38;" xml:space="preserve">
<style type="text/css">
	.st0{fill:#3A79F0;}
	.st1{fill:#FFFFFF;}
	.st2{opacity:0.35;}
</style>
<g>
	<g class="st2">
		<path class="st0" d="M20,36.5C9.8,36.5,1.5,28.7,1.5,19S9.8,1.5,20,1.5"/>
	</g>
	<g>
		<path class="st0" d="M19,38C8.5,38,0,29.5,0,19S8.5,0,19,0c0.8,0,1.5,0.7,1.5,1.5S19.8,3,19,3C10.2,3,3,10.2,3,19s7.2,16,16,16
			c0.8,0,1.5,0.7,1.5,1.5S19.8,38,19,38z"/>
	</g>
	<g>
		<g>
			<path class="st0" d="M20,3C20,3,19.9,3,20,3c-0.4,0-0.7,0-1,0c-0.8,0-1.5-0.7-1.5-1.5S18.2,0,19,0c0.4,0,0.7,0,1.1,0
				c0.8,0,1.5,0.8,1.4,1.6C21.5,2.4,20.8,3,20,3z"/>
		</g>
		<g>
			<path class="st0" d="M24.8,37c-0.6,0-1.2-0.4-1.4-1c-0.3-0.8,0.1-1.6,0.9-1.9c0.6-0.2,1.1-0.4,1.7-0.7c0.7-0.4,1.6,0,2,0.7
				c0.4,0.7,0.1,1.6-0.7,2c-0.6,0.3-1.3,0.6-2,0.8C25.1,37,25,37,24.8,37z M30.7,33.5c-0.4,0-0.8-0.2-1.1-0.5
				c-0.6-0.6-0.5-1.6,0.1-2.1c0.4-0.4,0.9-0.8,1.3-1.3c0.6-0.6,1.5-0.7,2.1-0.1c0.6,0.6,0.7,1.5,0.1,2.1c-0.5,0.5-1,1-1.5,1.5
				C31.4,33.4,31,33.5,30.7,33.5z M34.8,28.1c-0.2,0-0.4,0-0.6-0.1c-0.7-0.4-1.1-1.3-0.7-2c0.3-0.5,0.5-1.1,0.7-1.7
				c0.3-0.8,1.1-1.2,1.9-0.9c0.8,0.3,1.2,1.1,0.9,1.9c-0.2,0.7-0.5,1.3-0.8,2C35.9,27.8,35.3,28.1,34.8,28.1z M36.5,21.5
				C36.4,21.5,36.4,21.5,36.5,21.5c-0.9,0-1.5-0.8-1.5-1.6c0-0.3,0-0.6,0-0.9c0-0.3,0-0.6,0-0.9c0-0.8,0.6-1.5,1.4-1.6
				c0.8,0,1.5,0.6,1.6,1.4c0,0.4,0,0.7,0,1.1c0,0.4,0,0.7,0,1.1C37.9,20.9,37.3,21.5,36.5,21.5z M35.5,14.7c-0.6,0-1.2-0.4-1.4-1
				c-0.2-0.6-0.4-1.1-0.7-1.7c-0.4-0.7,0-1.6,0.7-2c0.7-0.4,1.6,0,2,0.7c0.3,0.6,0.6,1.3,0.8,2c0.3,0.8-0.1,1.6-0.9,1.9
				C35.9,14.7,35.7,14.7,35.5,14.7z M32.1,8.8c-0.4,0-0.8-0.2-1.1-0.5c-0.4-0.4-0.8-0.9-1.3-1.3C29.1,6.5,29,5.6,29.6,5
				c0.6-0.6,1.5-0.7,2.1-0.1c0.5,0.5,1,1,1.5,1.5c0.6,0.6,0.5,1.6-0.1,2.1C32.8,8.7,32.4,8.8,32.1,8.8z M26.6,4.7
				c-0.2,0-0.4,0-0.7-0.1c-0.5-0.3-1.1-0.5-1.7-0.7c-0.8-0.3-1.2-1.1-0.9-1.9s1.1-1.2,1.9-0.9c0.7,0.2,1.3,0.5,2,0.8
				c0.7,0.4,1.1,1.3,0.7,2C27.7,4.4,27.2,4.7,26.6,4.7z"/>
		</g>
		<g>
			<path class="st0" d="M19,38c-0.8,0-1.5-0.7-1.5-1.5S18.2,35,19,35c0.3,0,0.6,0,0.9,0c0.8,0,1.5,0.6,1.6,1.4s-0.6,1.5-1.4,1.6
				C19.7,38,19.4,38,19,38z"/>
		</g>
	</g>
</g>
</svg>
