<?xml version="1.0" encoding="utf-8"?>
<!-- Generator: Adobe Illustrator 23.0.3, SVG Export Plug-In . SVG Version: 6.00 Build 0)  -->
<svg version="1.1" id="Capa_1" xmlns="http://www.w3.org/2000/svg" xmlns:xlink="http://www.w3.org/1999/xlink" x="0px" y="0px"
	 viewBox="0 0 38.5 38.5" style="enable-background:new 0 0 38.5 38.5;" xml:space="preserve">
<style type="text/css">
	.st0{fill:#3A79F0;}
	.st1{fill:#FFFFFF;}
	.st2{opacity:0.35;}
</style>
<g>
	<g>
		<g>
			<path class="st0" d="M19.2,38.5C8.6,38.5,0,29.8,0,19.2S8.6,0,19.2,0s19.2,8.6,19.2,19.2S29.8,38.5,19.2,38.5z M19.2,3.1
				c-8.9,0-16.1,7.2-16.1,16.1s7.2,16.1,16.1,16.1s16.1-7.2,16.1-16.1S28.1,3.1,19.2,3.1z"/>
		</g>
		<g class="st2">
			<path class="st0" d="M36.9,19.2c0,9.8-7.9,17.7-17.7,17.7c-5.1,0-9.7-2.2-12.9-5.6C3.4,28.1,27.4,3.1,30.5,5.6
				C34.4,8.8,36.9,13.7,36.9,19.2z"/>
		</g>
	</g>
	<g>
		<path class="st0" d="M16,26.2c-0.4,0-0.8-0.1-1.1-0.4l-4.4-4.4c-0.6-0.6-0.6-1.5,0-2.1s1.5-0.6,2.1,0l3.3,3.3l9.8-9.8
			c0.6-0.6,1.5-0.6,2.1,0c0.6,0.6,0.6,1.5,0,2.1L17,25.7C16.7,26,16.3,26.2,16,26.2z"/>
	</g>
</g>
</svg>
