<?xml version="1.0" encoding="utf-8"?>
<!-- Generator: Adobe Illustrator 23.0.1, SVG Export Plug-In . SVG Version: 6.00 Build 0)  -->
<svg version="1.1" id="Capa_1" xmlns="http://www.w3.org/2000/svg" xmlns:xlink="http://www.w3.org/1999/xlink" x="0px" y="0px"
	 viewBox="0 0 172 131.5" style="enable-background:new 0 0 172 131.5;" xml:space="preserve">
<style type="text/css">
	.st0{fill:url(#SVGID_1_);}
	.st1{fill:url(#SVGID_2_);}
	.st2{fill:url(#SVGID_3_);}
	.st3{fill:url(#SVGID_4_);}
</style>
<g>
	<linearGradient id="SVGID_1_" gradientUnits="userSpaceOnUse" x1="0" y1="75" x2="172" y2="75">
		<stop  offset="0" style="stop-color:#FD643E"/>
		<stop  offset="0.7034" style="stop-color:#F84E39"/>
		<stop  offset="1" style="stop-color:#F54336"/>
	</linearGradient>
	<path class="st0" d="M159,18.5v20h-22v-20H98.3v20h-22v-20H37.5V38h-22V18.5H0v113h172v-113H159z M82,110H49.5V99.3H60V74.1h-9.2
		v-8.2c2.8-0.6,5.1-1.2,7.1-1.9c2-0.7,3.9-1.7,5.7-2.9h9.7v38.2H82V110z M124.2,110H88.8v-7.5c2.9-2.7,5.6-5.2,8-7.5
		c2.5-2.4,4.7-4.6,6.5-6.7c1.8-2.1,3.3-4.1,4.4-5.9c1.1-1.9,1.6-3.6,1.6-5.3c0-2.2-0.6-3.8-1.7-4.9c-1.1-1.1-2.6-1.6-4.4-1.6
		c-1.6,0-3.1,0.5-4.4,1.4c-1.3,1-2.5,2-3.7,3.2l-7.1-7.1c1.3-1.3,2.5-2.5,3.8-3.5c1.2-1,2.5-1.8,3.9-2.5c1.4-0.6,2.8-1.1,4.3-1.4
		c1.5-0.3,3.2-0.5,5-0.5c2.5,0,4.7,0.4,6.8,1.2c2.1,0.8,3.8,1.8,5.3,3.2c1.5,1.4,2.6,3.1,3.5,5c0.8,2,1.2,4.2,1.2,6.6
		c0,2-0.4,3.9-1.3,6c-0.8,2-1.9,4-3.3,6c-1.3,2-2.8,4-4.5,5.9c-1.7,1.9-3.3,3.7-5,5.4c1.2-0.2,2.6-0.3,4.2-0.4
		c1.6-0.1,2.9-0.2,4-0.2h8.2V110z"/>
	<linearGradient id="SVGID_2_" gradientUnits="userSpaceOnUse" x1="18.5" y1="17.5" x2="34.5" y2="17.5">
		<stop  offset="0" style="stop-color:#FD643E"/>
		<stop  offset="0.7034" style="stop-color:#F84E39"/>
		<stop  offset="1" style="stop-color:#F54336"/>
	</linearGradient>
	<polygon class="st1" points="34.5,18.5 34.5,0 18.5,0 18.5,18.5 18.5,35 34.5,35 	"/>
	<linearGradient id="SVGID_3_" gradientUnits="userSpaceOnUse" x1="79.25" y1="18" x2="95.25" y2="18">
		<stop  offset="0" style="stop-color:#FD643E"/>
		<stop  offset="0.7034" style="stop-color:#F84E39"/>
		<stop  offset="1" style="stop-color:#F54336"/>
	</linearGradient>
	<polygon class="st2" points="95.3,18.5 95.3,0.5 79.3,0.5 79.3,18.5 79.3,35.5 95.3,35.5 	"/>
	<linearGradient id="SVGID_4_" gradientUnits="userSpaceOnUse" x1="140" y1="18" x2="156" y2="18">
		<stop  offset="0" style="stop-color:#FD643E"/>
		<stop  offset="0.7034" style="stop-color:#F84E39"/>
		<stop  offset="1" style="stop-color:#F54336"/>
	</linearGradient>
	<polygon class="st3" points="156,18.5 156,0.5 140,0.5 140,18.5 140,35.5 156,35.5 	"/>
</g>
</svg>
