<?xml version="1.0" encoding="utf-8"?>
<!-- Generator: Adobe Illustrator 23.0.3, SVG Export Plug-In . SVG Version: 6.00 Build 0)  -->
<svg version="1.1" id="Capa_1" xmlns="http://www.w3.org/2000/svg" xmlns:xlink="http://www.w3.org/1999/xlink" x="0px" y="0px"
	 viewBox="0 0 49.8 37" style="enable-background:new 0 0 49.8 37;" xml:space="preserve">
<style type="text/css">
	.st0{fill:#3A79F0;}
	.st1{fill:#FFFFFF;}
	.st2{opacity:0.35;}
</style>
<g>
	<g>
		<g>
			<rect x="1.5" y="1.5" class="st1" width="34" height="34"/>
			<path class="st0" d="M37,37H0V0h37V37z M3,34h31V3H3V34z"/>
		</g>
		<g>
			<rect x="34.7" y="1.5" class="st1" width="13.6" height="34"/>
			<path class="st0" d="M49.8,37H33.1V0h16.6V37z M36.1,34h10.6V3H36.1V34z"/>
		</g>
		<g>
			<polygon class="st1" points="24.4,21 18.9,19 13.4,21 13.4,3 24.4,3 			"/>
			<path class="st0" d="M25.9,23.1l-7-2.5l-7,2.5V1.5h14V23.1z M18.9,17.4l4,1.5V4.5h-8v14.4L18.9,17.4z"/>
		</g>
		<g>
			<rect x="25.4" y="28" class="st0" width="5" height="4"/>
		</g>
	</g>
	<g class="st2">
		<path class="st0" d="M13.4,11.1v10.4l5.5-2l6,2v-6.8C20.7,15,16.8,13.8,13.4,11.1z"/>
	</g>
</g>
</svg>
