<?xml version="1.0" encoding="utf-8"?>
<!-- Generator: Adobe Illustrator 23.0.3, SVG Export Plug-In . SVG Version: 6.00 Build 0)  -->
<svg version="1.1" id="Capa_1" xmlns="http://www.w3.org/2000/svg" xmlns:xlink="http://www.w3.org/1999/xlink" x="0px" y="0px"
	 viewBox="0 0 53 32.5" style="enable-background:new 0 0 53 32.5;" xml:space="preserve">
<style type="text/css">
	.st0{fill:#3A79F0;}
	.st1{fill:#FFFFFF;}
	.st2{opacity:0.35;}
</style>
<g>
	<g>
		<circle class="st0" cx="26.5" cy="12.5" r="12.3"/>
	</g>
	<g>
		<path class="st0" d="M26.5,32.5c-6.3,0-12.6-2.4-17.4-7.2l-9-9l9-9c9.6-9.6,25.3-9.6,34.9,0l9,9l-9,9
			C39.1,30.1,32.8,32.5,26.5,32.5z M4.2,16.2l6.9,6.9c8.5,8.5,22.2,8.4,30.7,0l6.9-6.9l-6.9-6.9C37.7,5.2,32.3,3,26.5,3
			c-5.8,0-11.2,2.3-15.3,6.3L4.2,16.2z"/>
	</g>
	<g>
		<path class="st1" d="M18.4,11.5c-0.1,0-0.2,0-0.3-0.1c-0.5-0.2-0.8-0.7-0.6-1.3c1.1-3.2,3.2-4.1,4.9-4.3c1.7-0.2,3.2,0.2,3.3,0.3
			c0.5,0.2,0.8,0.7,0.6,1.3C26.1,7.9,25.5,8.2,25,8c-0.4-0.1-4.3-1.3-5.6,2.8C19.2,11.2,18.9,11.5,18.4,11.5z"/>
	</g>
	<g class="st2">
		<path class="st0" d="M50.5,15.9c0,0-10.8,5.5-24.6,5.5S6.7,20.9,6.7,20.9l8.8,7.4l4.9,1.9l6.6,0.4c0,0,4.3-0.3,4.4-0.1
			s5.9-2.2,5.9-2.2l5.2-3.4l3.1-3.4L50.5,15.9z"/>
	</g>
</g>
</svg>
