<?xml version="1.0" encoding="utf-8"?>
<!-- Generator: Adobe Illustrator 23.0.1, SVG Export Plug-In . SVG Version: 6.00 Build 0)  -->
<svg version="1.1" id="Capa_1" xmlns="http://www.w3.org/2000/svg" xmlns:xlink="http://www.w3.org/1999/xlink" x="0px" y="0px"
	 viewBox="0 0 17.3 26.6" style="enable-background:new 0 0 57.6 86.8;" xml:space="preserve">
<style type="text/css">
	.st0{fill:#353535;}
</style>
<g>
	<g>
		<polygon class="st0" points="3.7,13.3 0,23.5 4,22.1 6.1,25.7 8.1,20.2 5.7,13.3 		"/>
		<polygon class="st0" points="13.4,13.3 10.6,13.3 8.1,20.2 10.5,26.6 12.9,22.6 17.3,24.1 		"/>
		<polygon class="st0" points="10.5,13.3 8.3,15.5 6.2,13.3 5.7,13.3 8.1,20.2 10.6,13.3 		"/>
	</g>
	<path class="st0" d="M8.3,16.2L6,13.8H2.6v-3.4L0.2,8.1l2.4-2.4V2.4H6L8.3,0l2.4,2.4h3.4v3.4l2.4,2.4l-2.4,2.4v3.4h-3.4L8.3,16.2z
		 M3.6,12.8h2.8l2,2l2-2h2.8V10l2-2l-2-2V3.4h-2.8l-2-2l-2,2H3.6v2.8l-2,2l2,2V12.8z"/>
</g>
</svg>
