<?xml version="1.0" encoding="utf-8"?>
<!-- Generator: Adobe Illustrator 23.1.0, SVG Export Plug-In . SVG Version: 6.00 Build 0)  -->
<svg version="1.1" id="Capa_1" xmlns="http://www.w3.org/2000/svg" xmlns:xlink="http://www.w3.org/1999/xlink" x="0px" y="0px"
	 viewBox="0 0 46.2 47.8" style="enable-background:new 0 0 46.2 47.8;" xml:space="preserve">
<style type="text/css">
	.st0{fill:#353535;}
</style>
<path class="st0" d="M44.9,20.9l-8.6-8.6c-1-1-2.6-1-3.5,0s-1,2.6,0,3.5l5.6,5.6H26v-16c0-1.6-0.7-3.1-2-4.2c-1.2-1-2.9-1.4-4.4-1.1
	L4.4,3C1.8,3.5,0,5.7,0,8.3v31.2c0,2.6,1.8,4.8,4.4,5.3l15.2,2.9c0.3,0.1,0.7,0.1,1,0.1c1.2,0,2.5-0.4,3.4-1.2c1.2-1,2-2.5,2-4.2
	v-16h12.4L32.7,32c-1,1-1,2.6,0,3.5c0.5,0.5,1.1,0.7,1.8,0.7s1.3-0.2,1.8-0.7l8.6-8.6C46.6,25.3,46.6,22.5,44.9,20.9z M21,42.4
	c0,0.2-0.1,0.2-0.1,0.3c-0.1,0.1-0.2,0.1-0.3,0.1L5.3,39.9c-0.2,0-0.3-0.2-0.3-0.4V8.3c0-0.2,0.1-0.4,0.3-0.4L20.5,5
	c0,0,0.1,0,0.1,0c0.1,0,0.2,0,0.2,0.1C20.9,5.1,21,5.2,21,5.4V42.4z"/>
</svg>
