<?xml version="1.0" encoding="utf-8"?>
<!-- Generator: Adobe Illustrator 23.0.3, SVG Export Plug-In . SVG Version: 6.00 Build 0)  -->
<svg version="1.1" id="Capa_1" xmlns="http://www.w3.org/2000/svg" xmlns:xlink="http://www.w3.org/1999/xlink" x="0px" y="0px"
	 viewBox="0 0 24.1 24.1" style="enable-background:new 0 0 24.1 24.1;" xml:space="preserve">
<style type="text/css">
	.st0{opacity:0.35;}
	.st1{fill:#3A79F0;}
	.st2{fill:none;}
	.st3{fill:#FFFFFF;}
	.st4{fill:#35B91E;}
	.st5{fill:#FF6567;}
	.st6{opacity:0.35;fill:#3A79F0;enable-background:new    ;}
	.st7{fill:none;stroke:#3A79F0;stroke-width:3;stroke-linecap:round;stroke-linejoin:round;stroke-miterlimit:10;}
	.st8{fill:none;stroke:#3A79F0;stroke-miterlimit:10;}
</style>
<g>
	<g>
		<path class="st1" d="M21,24.1H3.1C1.4,24.1,0,22.7,0,21V3.1C0,1.4,1.4,0,3.1,0H21c1.7,0,3.1,1.4,3.1,3.1V21
			C24,22.7,22.7,24.1,21,24.1z M3.1,2.1C2.5,2.1,2,2.6,2,3.2v17.9c0,0.6,0.5,1.1,1.1,1.1H21c0.6,0,1.1-0.5,1.1-1.1V3.2
			c0-0.6-0.5-1.1-1.1-1.1H3.1z"/>
	</g>
	<g>
		<path class="st1" d="M7.9,12.9c-0.3,0-0.5-0.1-0.7-0.2c-0.4-0.3-0.6-0.7-0.6-1.1V0.2h11v11.4c0,0.5-0.2,0.9-0.6,1.1
			c-0.4,0.3-0.9,0.3-1.3,0.1l-3.6-1.6l-3.6,1.6C8.3,12.8,8.1,12.9,7.9,12.9z M7.6,10.9L7.6,10.9L7.6,10.9z M8.5,2.1v8.5L12,9
			l3.5,1.6V2.1H8.5z"/>
	</g>
	<g class="st0">
		<polygon class="st1" points="16,1.1 7,12.1 12,10.1 17,12.1 		"/>
	</g>
	<g>
		<path class="st1" d="M15.5,20.1h3c0.8,0,1.5-0.7,1.5-1.5l0,0c0-0.8-0.7-1.5-1.5-1.5h-3c-0.8,0-1.5,0.7-1.5,1.5l0,0
			C14,19.4,14.7,20.1,15.5,20.1z"/>
	</g>
</g>
</svg>
