<?xml version="1.0" encoding="utf-8"?>
<!-- Generator: Adobe Illustrator 23.0.3, SVG Export Plug-In . SVG Version: 6.00 Build 0)  -->
<svg version="1.1" id="Capa_1" xmlns="http://www.w3.org/2000/svg" xmlns:xlink="http://www.w3.org/1999/xlink" x="0px" y="0px"
	 viewBox="0 0 79.4 79.4" style="enable-background:new 0 0 79.4 79.4;" xml:space="preserve">
<style type="text/css">
	.st0{opacity:0.35;}
	.st1{fill:#3A79F0;}
	.st2{fill:none;}
	.st3{fill:#FFFFFF;}
	.st4{fill:#35B91E;}
	.st5{fill:#FF6567;}
	.st6{opacity:0.35;fill:#3A79F0;enable-background:new    ;}
	.st7{fill:none;stroke:#3A79F0;stroke-width:3;stroke-linecap:round;stroke-linejoin:round;stroke-miterlimit:10;}
	.st8{fill:none;stroke:#3A79F0;stroke-miterlimit:10;}
</style>
<g>
	<g>
		<g>
			<path class="st4" d="M39.7,79.4C17.8,79.4,0,61.6,0,39.7S17.8,0,39.7,0s39.7,17.8,39.7,39.7S61.6,79.4,39.7,79.4z M39.7,6.4
				C21.4,6.4,6.4,21.3,6.4,39.7S21.3,73,39.7,73S73,58.1,73,39.7S58.1,6.4,39.7,6.4z"/>
		</g>
		<g class="st0">
			<path class="st4" d="M76.2,39.7c0,20.2-16.3,36.5-36.5,36.5c-10.5,0-20-4.5-26.7-11.6c-6.1-6.5,43.6-58.2,49.9-53
				C71,18.3,76.2,28.4,76.2,39.7z"/>
		</g>
	</g>
	<g>
		<path class="st4" d="M34.8,52.7c-0.8,0-1.7-0.3-2.3-1L23,42.2c-1.3-1.3-1.3-3.3,0-4.6s3.3-1.3,4.6,0l7.2,7.2l21.4-21.4
			c1.3-1.3,3.3-1.3,4.6,0s1.3,3.3,0,4.6L37,51.8C36.5,52.3,35.6,52.7,34.8,52.7z"/>
	</g>
</g>
</svg>
