<?xml version="1.0" encoding="utf-8"?>
<!-- Generator: Adobe Illustrator 23.1.0, SVG Export Plug-In . SVG Version: 6.00 Build 0)  -->
<svg version="1.1" id="Capa_1" xmlns="http://www.w3.org/2000/svg" xmlns:xlink="http://www.w3.org/1999/xlink" x="0px" y="0px"
	 viewBox="0 0 282.8 315.7" style="enable-background:new 0 0 282.8 315.7;" xml:space="preserve">
<style type="text/css">
	.st0{fill:#3A79F0;}
	.st1{opacity:0.35;}
</style>
<g>
	<g>
		<path class="st0" d="M269.6,315.7H68.1C29.9,315.7,0,292.6,0,263.1V13.2C0,5.9,5.9,0,13.2,0h201.5c7.3,0,13.2,5.9,13.2,13.2v249.9
			c0,14.3,19.2,26.3,41.8,26.3c7.3,0,13.2,5.9,13.2,13.2C282.8,309.8,276.9,315.7,269.6,315.7z M26.3,26.3v236.8
			c0,14.3,19.2,26.3,41.8,26.3h142.2c-5.6-7.7-8.8-16.7-8.8-26.3V26.3H26.3z"/>
	</g>
	<g>
		<path class="st0" d="M164.4,85.5H59.2c-7.3,0-13.2-5.9-13.2-13.2s5.9-13.2,13.2-13.2h105.2c7.3,0,13.2,5.9,13.2,13.2
			S171.7,85.5,164.4,85.5z"/>
	</g>
	<g>
		<path class="st0" d="M98.2,243.3H57.8c-2.9,0-5.2-2.3-5.2-5.2v-29.1c0-2.9,2.3-5.2,5.2-5.2h40.4c2.9,0,5.2,2.3,5.2,5.2v29.1
			C103.3,241,101,243.3,98.2,243.3z"/>
	</g>
	<g>
		<path class="st0" d="M165.8,243.3h-40.4c-2.9,0-5.2-2.3-5.2-5.2v-29.1c0-2.9,2.3-5.2,5.2-5.2h40.4c2.9,0,5.2,2.3,5.2,5.2v29.1
			C171,241,168.7,243.3,165.8,243.3z"/>
	</g>
	<g>
		<path class="st0" d="M98.2,164.4H57.8c-2.9,0-5.2-2.3-5.2-5.2v-29.1c0-2.9,2.3-5.2,5.2-5.2h40.4c2.9,0,5.2,2.3,5.2,5.2v29.1
			C103.3,162.1,101,164.4,98.2,164.4z"/>
	</g>
	<g>
		<path class="st0" d="M165.8,164.4h-40.4c-2.9,0-5.2-2.3-5.2-5.2v-29.1c0-2.9,2.3-5.2,5.2-5.2h40.4c2.9,0,5.2,2.3,5.2,5.2v29.1
			C171,162.1,168.7,164.4,165.8,164.4z"/>
	</g>
	<g class="st1">
		<polygon class="st0" points="217,256.5 217,269.6 231.4,291.4 203.9,296 72.3,296 32.9,282.8 19.7,256.5 		"/>
	</g>
</g>
</svg>
